<svg width="38" height="38" viewBox="0 0 38 38" fill="#001E60" xmlns="http://www.w3.org/2000/svg">
<path d="M29.0172 18.6626H31.6679C32.2671 18.6626 32.7547 18.1751 32.7547 17.5758V14.9252C32.7547 14.3259 32.2671 13.8384 31.6679 13.8384H29.0172C28.418 13.8384 27.9304 14.3259 27.9304 14.9252V17.5758C27.9304 18.1751 28.418 18.6626 29.0172 18.6626ZM29.0437 14.9517H31.6414V17.5493H29.0437V14.9517ZM29.0172 25.7134H31.6679C32.2671 25.7134 32.7547 25.2258 32.7547 24.6266V21.9759C32.7547 21.3767 32.2671 20.8892 31.6679 20.8892H29.0172C28.418 20.8892 27.9304 21.3767 27.9304 21.9759V24.6266C27.9304 25.2258 28.418 25.7134 29.0172 25.7134ZM29.0437 22.0024H31.6414V24.6001H29.0437V22.0024ZM21.4531 18.6626H24.1038C24.703 18.6626 25.1906 18.1751 25.1906 17.5758V14.9252C25.1906 14.3259 24.703 13.8384 24.1038 13.8384H21.4531C20.8539 13.8384 20.3664 14.3259 20.3664 14.9252V17.5758C20.3664 18.1751 20.8539 18.6626 21.4531 18.6626ZM21.4796 14.9517H24.0773V17.5493H21.4796V14.9517ZM8.97564 27.6094H6.32499C5.72575 27.6094 5.23821 28.0969 5.23821 28.6962V31.3468C5.23821 31.9461 5.72575 32.4336 6.32499 32.4336H8.97564C9.57488 32.4336 10.0624 31.9461 10.0624 31.3468V28.6962C10.0624 28.0969 9.57488 27.6094 8.97564 27.6094ZM8.94914 31.3203H6.35149V28.7227H8.94914V31.3203ZM8.97564 13.8384H6.32499C5.72575 13.8384 5.23821 14.3259 5.23821 14.9252V17.5758C5.23821 18.1751 5.72575 18.6626 6.32499 18.6626H8.97564C9.57488 18.6626 10.0624 18.1751 10.0624 17.5758V14.9252C10.0624 14.3259 9.57488 13.8384 8.97564 13.8384ZM8.94914 17.5493H6.35149V14.9517H8.94914V17.5493ZM21.4531 25.5481H24.1038C24.703 25.5481 25.1906 25.0606 25.1906 24.4613V21.8107C25.1906 21.2114 24.703 20.7239 24.1038 20.7239H21.4531C20.8539 20.7239 20.3664 21.2114 20.3664 21.8107V24.4613C20.3664 25.0606 20.8539 25.5481 21.4531 25.5481ZM21.4796 21.8372H24.0773V24.4348H21.4796V21.8372ZM33.3075 2.54377H30.9276V1.69271C30.9276 0.759332 30.1683 0 29.2349 0H28.9793C28.046 0 27.2867 0.759332 27.2867 1.69271V2.54377H10.7062V1.69271C10.7062 0.759332 9.94687 0 9.01349 0H8.75788C7.82451 0 7.06518 0.759332 7.06518 1.69271V2.54377H4.68535C3.14865 2.54377 1.89844 3.79399 1.89844 5.33069V35.2168C1.89844 36.7515 3.14695 38 4.68164 38H33.3114C34.8461 38 36.0946 36.7515 36.0946 35.2168V5.33069C36.0945 3.79399 34.8443 2.54377 33.3075 2.54377ZM28.3999 1.69271C28.3999 1.3732 28.6599 1.11328 28.9794 1.11328H29.235C29.5545 1.11328 29.8144 1.3732 29.8144 1.69271V2.54377H28.3999V1.69271ZM8.17853 1.69271C8.17853 1.3732 8.43845 1.11328 8.75796 1.11328H9.01357C9.33308 1.11328 9.59299 1.3732 9.59299 1.69271V2.54377H8.17861V1.69271H8.17853ZM34.9812 35.2168C34.9812 36.1376 34.2321 36.8867 33.3113 36.8867H4.68157C3.76073 36.8867 3.01164 36.1376 3.01164 35.2168V35.2133C3.47804 35.5647 4.05776 35.7734 4.68535 35.7734H27.254C27.9984 35.7734 28.6983 35.4835 29.2247 34.9571L34.9812 29.2006V35.2168ZM28.6567 33.9507C28.7003 33.7706 28.7241 33.5827 28.7241 33.3894V29.6737C28.7241 28.9731 29.2941 28.403 29.9948 28.403H33.7104C33.9038 28.403 34.0916 28.3792 34.2718 28.3356L28.6567 33.9507ZM34.9812 10.4985H11.2628C10.9554 10.4985 10.7062 10.7478 10.7062 11.0552C10.7062 11.3626 10.9554 11.6118 11.2628 11.6118H34.9812V26.019C34.9812 26.7197 34.4111 27.2898 33.7104 27.2898H29.9948C28.6803 27.2898 27.6108 28.3593 27.6108 29.6738V33.3895C27.6108 34.0902 27.0407 34.6602 26.3401 34.6602H4.68535C3.76252 34.6602 3.01172 33.9094 3.01172 32.9865V11.6118H9.03628C9.34369 11.6118 9.59292 11.3626 9.59292 11.0552C9.59292 10.7478 9.34369 10.4985 9.03628 10.4985H3.01164V5.33069C3.01164 4.40785 3.76244 3.65705 4.68528 3.65705H7.06518V5.29373C7.06518 6.2271 7.82451 6.98643 8.75788 6.98643C9.0653 6.98643 9.31452 6.73721 9.31452 6.42979C9.31452 6.12238 9.0653 5.87315 8.75788 5.87315C8.43837 5.87315 8.17846 5.61324 8.17846 5.29373V3.65705H27.2867V5.29373C27.2867 6.2271 28.046 6.98643 28.9794 6.98643C29.2868 6.98643 29.536 6.73721 29.536 6.42979C29.536 6.12238 29.2868 5.87315 28.9794 5.87315C28.6599 5.87315 28.3999 5.61324 28.3999 5.29373V3.65705H33.3076C34.2304 3.65705 34.9812 4.40785 34.9812 5.33069V10.4985ZM8.97564 20.7239H6.32499C5.72575 20.7239 5.23821 21.2114 5.23821 21.8107V24.4613C5.23821 25.0606 5.72575 25.5481 6.32499 25.5481H8.97564C9.57488 25.5481 10.0624 25.0606 10.0624 24.4613V21.8107C10.0624 21.2113 9.57488 20.7239 8.97564 20.7239ZM8.94914 24.4348H6.35149V21.8372H8.94914V24.4348ZM13.8891 18.6626H16.5397C17.139 18.6626 17.6265 18.1751 17.6265 17.5758V14.9252C17.6265 14.3259 17.139 13.8384 16.5397 13.8384H13.8891C13.2898 13.8384 12.8023 14.3259 12.8023 14.9252V17.5758C12.8023 18.1751 13.2898 18.6626 13.8891 18.6626ZM13.9156 14.9517H16.5132V17.5493H13.9156V14.9517ZM21.479 31.3203C21.4652 31.0251 21.2215 30.7902 20.9229 30.7902C20.6155 30.7902 20.3663 31.0394 20.3663 31.3468C20.3663 31.9461 20.8538 32.4336 21.4531 32.4336H24.1037C24.703 32.4336 25.1905 31.9461 25.1905 31.3468V28.6962C25.1905 28.0969 24.703 27.6094 24.1037 27.6094H21.4531C20.8538 27.6094 20.3663 28.0969 20.3663 28.6962V29.4606C20.3663 29.768 20.6155 30.0173 20.9229 30.0173C21.2303 30.0173 21.4796 29.768 21.4796 29.4606V28.7227H24.0772V31.3203H21.479ZM13.8891 25.5481H16.5397C17.139 25.5481 17.6265 25.0606 17.6265 24.4613V21.8107C17.6265 21.2114 17.139 20.7239 16.5397 20.7239H13.8891C13.2898 20.7239 12.8023 21.2114 12.8023 21.8107V24.4613C12.8023 25.0606 13.2898 25.5481 13.8891 25.5481ZM13.9156 21.8372H16.5132V24.4348H13.9156V21.8372ZM13.8891 32.4336H16.5397C17.139 32.4336 17.6265 31.9461 17.6265 31.3468V28.6962C17.6265 28.0969 17.139 27.6094 16.5397 27.6094H13.8891C13.2898 27.6094 12.8023 28.0969 12.8023 28.6962V31.3468C12.8023 31.9461 13.2898 32.4336 13.8891 32.4336ZM13.9156 28.7227H16.5132V31.3203H13.9156V28.7227Z" fill="#001E60"/>
</svg>
