<svg width="101" height="102" viewBox="0 0 101 102" fill="#001E60" xmlns="http://www.w3.org/2000/svg">
<path d="M56.8125 71.7188H59.9688V102H56.8125V71.7188Z" fill="#001E60"/>
<path d="M41.0312 71.7188H44.1875V102H41.0312V71.7188Z" fill="#001E60"/>
<path d="M59.9688 78.0938H58.3906V74.9062H59.9688C61.2244 74.9062 62.4286 74.4025 63.3165 73.5059C64.2043 72.6092 64.7031 71.3931 64.7031 70.125V52.5938C64.7006 50.4811 63.8685 48.4557 62.3892 46.9618C60.91 45.4679 58.9045 44.6275 56.8125 44.625H44.1875C42.0955 44.6275 40.09 45.4679 38.6108 46.9618C37.1315 48.4557 36.2994 50.4811 36.2969 52.5938V70.125C36.2969 71.3931 36.7957 72.6092 37.6835 73.5059C38.5714 74.4025 39.7756 74.9062 41.0312 74.9062H42.6094V78.0938H41.0312C38.9393 78.0912 36.9337 77.2508 35.4545 75.757C33.9753 74.2631 33.1431 72.2377 33.1406 70.125V52.5938C33.144 49.636 34.3089 46.8003 36.3799 44.7088C38.4508 42.6173 41.2587 41.4409 44.1875 41.4375H56.8125C59.7413 41.4409 62.5492 42.6173 64.6201 44.7088C66.6911 46.8003 67.856 49.636 67.8594 52.5938V70.125C67.8569 72.2377 67.0247 74.2631 65.5455 75.757C64.0663 77.2508 62.0607 78.0912 59.9688 78.0938Z" fill="#001E60"/>
<path d="M50.5 44.625C48.3151 44.625 46.1793 43.9707 44.3627 42.7448C42.546 41.519 41.1301 39.7766 40.294 37.7381C39.4579 35.6995 39.2391 33.4564 39.6654 31.2923C40.0916 29.1282 41.1438 27.1403 42.6887 25.5801C44.2336 24.0199 46.202 22.9573 48.3449 22.5269C50.4877 22.0964 52.7089 22.3173 54.7275 23.1617C56.746 24.0061 58.4713 25.436 59.6851 27.2707C60.899 29.1053 61.5469 31.2623 61.5469 33.4688C61.5435 36.4265 60.3786 39.2622 58.3076 41.3537C56.2367 43.4452 53.4288 44.6216 50.5 44.625ZM50.5 25.5C48.9394 25.5 47.4138 25.9674 46.1162 26.843C44.8186 27.7186 43.8072 28.9631 43.21 30.4192C42.6128 31.8753 42.4565 33.4776 42.761 35.0234C43.0655 36.5692 43.817 37.9891 44.9205 39.1035C46.024 40.218 47.43 40.9769 48.9606 41.2844C50.4913 41.5919 52.0778 41.4341 53.5196 40.8309C54.9614 40.2278 56.1938 39.2064 57.0608 37.896C57.9279 36.5855 58.3906 35.0448 58.3906 33.4688C58.3881 31.3561 57.556 29.3307 56.0767 27.8368C54.5975 26.3429 52.592 25.5025 50.5 25.5Z" fill="#001E60"/>
<path d="M48.9219 81.2812H52.0781V102H48.9219V81.2812Z" fill="#001E60"/>
<path d="M85.2188 66.9375H88.375V97.2187H85.2188V66.9375Z" fill="#001E60"/>
<path d="M69.4375 66.9375H72.5938V97.2187H69.4375V66.9375Z" fill="#001E60"/>
<path d="M88.3737 73.3125H86.7956V70.125H88.3737C89.6293 70.125 90.8335 69.6213 91.7214 68.7246C92.6093 67.8279 93.1081 66.6118 93.1081 65.3438V47.8125C93.1056 45.6998 92.2734 43.6744 90.7942 42.1805C89.315 40.6867 87.3094 39.8463 85.2175 39.8438H72.5925C71.4823 39.8444 70.3847 40.0813 69.3712 40.5391C68.3578 40.9968 67.4513 41.6652 66.7108 42.5005L64.3594 40.3745C65.3961 39.2055 66.6651 38.2702 68.0837 37.6296C69.5022 36.9889 71.0385 36.6573 72.5925 36.6562H85.2175C88.1462 36.6596 90.9541 37.8361 93.0251 39.9276C95.0961 42.019 96.261 44.8547 96.2643 47.8125V65.3438C96.2618 67.4564 95.4297 69.4818 93.9504 70.9757C92.4712 72.4696 90.4657 73.31 88.3737 73.3125Z" fill="#001E60"/>
<path d="M78.9063 39.8438C76.7214 39.8438 74.5856 39.1895 72.7689 37.9636C70.9523 36.7377 69.5364 34.9954 68.7003 32.9568C67.8642 30.9183 67.6454 28.6751 68.0716 26.511C68.4979 24.3469 69.55 22.3591 71.0949 20.7988C72.6399 19.2386 74.6082 18.1761 76.7511 17.7456C78.894 17.3152 81.1152 17.5361 83.1337 18.3805C85.1523 19.2249 86.8775 20.6548 88.0914 22.4894C89.3052 24.3241 89.9531 26.481 89.9531 28.6875C89.9498 31.6453 88.7849 34.481 86.7139 36.5724C84.6429 38.6639 81.835 39.8404 78.9063 39.8438ZM78.9063 20.7188C77.3456 20.7188 75.8201 21.1861 74.5225 22.0617C73.2249 22.9373 72.2135 24.1819 71.6163 25.638C71.019 27.0941 70.8628 28.6963 71.1672 30.2421C71.4717 31.7879 72.2232 33.2078 73.3267 34.3223C74.4303 35.4367 75.8362 36.1957 77.3669 36.5031C78.8975 36.8106 80.484 36.6528 81.9259 36.0497C83.3677 35.4465 84.6 34.4252 85.4671 33.1147C86.3341 31.8043 86.7969 30.2636 86.7969 28.6875C86.7944 26.5748 85.9622 24.5494 84.483 23.0555C83.0038 21.5617 80.9982 20.7213 78.9063 20.7188Z" fill="#001E60"/>
<path d="M77.3281 76.5H80.4844V97.2188H77.3281V76.5Z" fill="#001E60"/>
<path d="M28.4062 66.9375H31.5625V97.2187H28.4062V66.9375Z" fill="#001E60"/>
<path d="M12.625 66.9375H15.7812V97.2187H12.625V66.9375Z" fill="#001E60"/>
<path d="M14.2031 73.3125H12.625C10.533 73.31 8.52749 72.4696 7.04825 70.9757C5.56902 69.4818 4.73688 67.4564 4.73438 65.3438V47.8125C4.73772 44.8547 5.90265 42.019 7.97362 39.9276C10.0446 37.8361 12.8525 36.6596 15.7812 36.6562H28.4062C29.9601 36.6575 31.4964 36.9892 32.9149 37.6299C34.3334 38.2705 35.6024 39.2057 36.6393 40.3745L34.2879 42.5005C33.5474 41.6652 32.6409 40.9968 31.6275 40.5391C30.614 40.0813 29.5164 39.8444 28.4062 39.8438H15.7812C13.6893 39.8463 11.6837 40.6867 10.2045 42.1805C8.72527 43.6744 7.89313 45.6998 7.89062 47.8125V65.3438C7.89062 66.6118 8.38942 67.8279 9.27729 68.7246C10.1652 69.6213 11.3694 70.125 12.625 70.125H14.2031V73.3125Z" fill="#001E60"/>
<path d="M22.0938 39.8438C19.9089 39.8438 17.7731 39.1895 15.9564 37.9636C14.1398 36.7377 12.7239 34.9954 11.8878 32.9568C11.0517 30.9183 10.8329 28.6751 11.2591 26.511C11.6854 24.3469 12.7375 22.3591 14.2824 20.7988C15.8274 19.2386 17.7957 18.1761 19.9386 17.7456C22.0815 17.3152 24.3027 17.5361 26.3212 18.3805C28.3398 19.2249 30.0651 20.6548 31.2789 22.4894C32.4927 24.3241 33.1406 26.481 33.1406 28.6875C33.1373 31.6453 31.9724 34.481 29.9014 36.5724C27.8304 38.6639 25.0225 39.8404 22.0938 39.8438ZM22.0938 20.7188C20.5331 20.7188 19.0076 21.1861 17.71 22.0617C16.4124 22.9373 15.401 24.1819 14.8038 25.638C14.2065 27.0941 14.0503 28.6963 14.3547 30.2421C14.6592 31.7879 15.4107 33.2078 16.5142 34.3223C17.6178 35.4367 19.0237 36.1957 20.5544 36.5031C22.085 36.8106 23.6715 36.6528 25.1134 36.0497C26.5552 35.4465 27.7875 34.4252 28.6546 33.1147C29.5216 31.8043 29.9844 30.2636 29.9844 28.6875C29.9819 26.5748 29.1497 24.5494 27.6705 23.0555C26.1913 21.5617 24.1857 20.7213 22.0938 20.7188Z" fill="#001E60"/>
<path d="M37.875 22.3125C35.6901 22.3125 33.5543 21.6582 31.7377 20.4323C29.921 19.2065 28.5051 17.4641 27.669 15.4256C26.8329 13.387 26.6141 11.1439 27.0404 8.97978C27.4666 6.81568 28.5188 4.82782 30.0637 3.26759C31.6086 1.70737 33.577 0.644836 35.7199 0.214369C37.8627 -0.216097 40.0839 0.00483391 42.1025 0.849224C44.121 1.69361 45.8463 3.12354 47.0601 4.95817C48.274 6.79281 48.9219 8.94976 48.9219 11.1563C48.9185 14.114 47.7536 16.9497 45.6826 19.0412C43.6117 21.1327 40.8038 22.3091 37.875 22.3125ZM37.875 3.18751C36.3144 3.18751 34.7888 3.65486 33.4912 4.53048C32.1936 5.4061 31.1822 6.65065 30.585 8.10675C29.9878 9.56285 29.8315 11.1651 30.136 12.7109C30.4405 14.2567 31.192 15.6766 32.2955 16.791C33.399 17.9055 34.805 18.6644 36.3356 18.9719C37.8663 19.2794 39.4528 19.1216 40.8946 18.5184C42.3364 17.9153 43.5688 16.8939 44.4358 15.5835C45.3029 14.273 45.7656 12.7323 45.7656 11.1563C45.7631 9.04359 44.931 7.01818 43.4518 5.52429C41.9725 4.03041 39.967 3.19004 37.875 3.18751Z" fill="#001E60"/>
<path d="M63.125 22.3125C60.9401 22.3125 58.8043 21.6582 56.9877 20.4323C55.171 19.2065 53.7551 17.4641 52.919 15.4256C52.0829 13.387 51.8641 11.1439 52.2904 8.97978C52.7166 6.81568 53.7687 4.82782 55.3137 3.26759C56.8586 1.70737 58.827 0.644836 60.9699 0.214369C63.1128 -0.216097 65.3339 0.00483391 67.3525 0.849224C69.371 1.69361 71.0963 3.12354 72.3101 4.95817C73.524 6.79281 74.1719 8.94976 74.1719 11.1563C74.1685 14.114 73.0036 16.9497 70.9326 19.0412C68.8617 21.1327 66.0538 22.3091 63.125 22.3125ZM63.125 3.18751C61.5644 3.18751 60.0388 3.65486 58.7412 4.53048C57.4436 5.4061 56.4322 6.65065 55.835 8.10675C55.2378 9.56285 55.0815 11.1651 55.386 12.7109C55.6905 14.2567 56.442 15.6766 57.5455 16.791C58.649 17.9055 60.055 18.6644 61.5856 18.9719C63.1163 19.2794 64.7028 19.1216 66.1446 18.5184C67.5864 17.9153 68.8188 16.8939 69.6858 15.5835C70.5529 14.273 71.0156 12.7323 71.0156 11.1563C71.0131 9.04359 70.181 7.01818 68.7017 5.52429C67.2225 4.03041 65.217 3.19004 63.125 3.18751Z" fill="#001E60"/>
<path d="M20.5156 76.5H23.6719V97.2188H20.5156V76.5Z" fill="#001E60"/>
</svg>
