<svg width="71" height="71" viewBox="0 0 71 71" fill="#001E60" xmlns="http://www.w3.org/2000/svg">
<g clip-path="url(#clip0_735_1285)">
<path d="M62.0988 43.9265C62.9936 41.1645 63.4481 38.2838 63.4481 35.3484C63.4481 32.4238 62.9969 29.5534 62.1074 26.8C64.0635 26.0655 65.8418 24.8895 67.3185 23.3256C69.8703 20.6242 71.217 17.0903 71.1108 13.3759C70.8909 5.70722 64.4741 -0.351555 56.8043 -0.132713C53.0894 -0.0265425 49.6389 1.51998 47.087 4.22191C45.7983 5.58643 44.8178 7.16328 44.1759 8.86851C41.422 7.9796 38.5516 7.52838 35.6259 7.52838C32.6987 7.52838 29.8261 7.98069 27.0705 8.87068C25.0831 3.61143 19.9966 -0.138672 14.05 -0.138672C6.37804 -0.138672 0.136719 6.10265 0.136719 13.774C0.136719 19.7201 3.88736 24.806 9.14661 26.793C8.25608 29.5491 7.80431 32.4216 7.80431 35.3484C7.80431 38.2838 8.25878 41.1645 9.15365 43.9265C3.89061 45.9118 0.136719 50.9999 0.136719 56.9487C0.136719 59.0429 0.590653 61.0563 1.48606 62.9327C1.73361 63.4511 2.35439 63.6711 2.87278 63.4235C3.39064 63.176 3.61056 62.5552 3.36355 62.0368C2.60248 60.4421 2.2168 58.7303 2.2168 56.9487C2.2168 50.4246 7.52534 45.1166 14.05 45.1166C20.5751 45.1166 25.8837 50.4246 25.8837 56.9487C25.8837 63.4733 20.5751 68.7813 14.05 68.7813C11.0739 68.7813 8.22953 67.6725 6.04111 65.6591C5.61806 65.2701 4.95991 65.2978 4.57152 65.7203C4.18258 66.1433 4.20967 66.8009 4.63273 67.1899C7.20628 69.5576 10.5507 70.8614 14.05 70.8614C20.0053 70.8614 25.0982 67.0999 27.0792 61.8288C29.8315 62.7172 32.7014 63.1684 35.6259 63.1684C38.551 63.1684 41.4214 62.7172 44.1738 61.8293C46.1547 67.1005 51.2477 70.8614 57.203 70.8614C64.8749 70.8614 71.1162 64.6201 71.1162 56.9487C71.1162 50.9999 67.3623 45.9113 62.0988 43.9265ZM48.5993 5.6498C50.7694 3.35196 53.7048 2.03675 56.8644 1.94628C56.9793 1.94303 57.093 1.94141 57.2079 1.94141C63.577 1.94141 68.8482 7.0284 69.0313 13.4349C69.1217 16.5941 67.9766 19.5993 65.8066 21.8977C63.6366 24.1956 60.7012 25.5108 57.5415 25.6012C57.4267 25.6045 57.3124 25.6061 57.1981 25.6061C50.8289 25.6061 45.5578 20.5191 45.3747 14.1126C45.2837 10.9535 46.4294 7.94764 48.5993 5.6498ZM43.5904 59.8316C41.0276 60.6647 38.3533 61.0883 35.6259 61.0883C32.8996 61.0883 30.2253 60.6647 27.6626 59.8316C27.8592 58.901 27.9638 57.9368 27.9638 56.9487C27.9638 49.2773 21.7219 43.0366 14.05 43.0366C13.056 43.0366 12.0863 43.1422 11.1509 43.341C10.3107 40.769 9.88439 38.085 9.88439 35.3484C9.88439 32.6204 10.3085 29.945 11.1433 27.3796C12.0809 27.58 13.0533 27.6862 14.05 27.6862C16.4334 27.6862 18.7849 27.073 20.8514 25.9133C21.3519 25.6321 21.5301 24.9983 21.249 24.4973C20.9679 23.9962 20.3341 23.8186 19.833 24.0997C18.0769 25.085 16.077 25.6061 14.05 25.6061C7.5248 25.6061 2.2168 20.2981 2.2168 13.7735C2.2168 7.24941 7.52534 1.94141 14.05 1.94141C20.5751 1.94141 25.8837 7.24941 25.8837 13.774C25.8837 16.5036 24.9319 19.1665 23.2039 21.2732C22.8394 21.7168 22.9044 22.3722 23.3486 22.7368C23.7922 23.1008 24.4477 23.0364 24.8122 22.5922C26.8441 20.115 27.9638 16.983 27.9638 13.7735C27.9638 12.7773 27.857 11.805 27.6572 10.8673C30.2221 10.0326 32.898 9.60846 35.6259 9.60846C38.3533 9.60846 41.0282 10.0321 43.592 10.8657C43.365 11.9393 43.2632 13.0471 43.2951 14.1722C43.5113 21.7054 49.7082 27.6867 57.1976 27.6862C57.3314 27.6862 57.4662 27.6846 57.6011 27.6802C58.4537 27.6559 59.2923 27.5546 60.1097 27.3818C60.9439 29.9461 61.368 32.6215 61.368 35.3484C61.368 38.085 60.9412 40.769 60.1015 43.341C59.1661 43.1416 58.1964 43.0366 57.203 43.0366C49.5311 43.0366 43.2897 49.2773 43.2897 56.9487C43.2897 57.9373 43.3937 58.9015 43.5904 59.8316ZM57.203 68.7813C50.6778 68.7813 45.3698 63.4733 45.3698 56.9493C45.3698 50.4246 50.6778 45.1166 57.203 45.1166C63.7281 45.1166 69.0361 50.4246 69.0361 56.9493C69.0361 63.4733 63.7281 68.7813 57.203 68.7813Z" fill="#001E60"/>
<path d="M21.1323 7.63434C20.7737 7.39058 20.3019 7.39437 19.9476 7.64463C19.5933 7.89435 19.2142 8.1029 18.8155 8.26811C17.3865 7.15007 15.3156 7.16307 13.897 8.39649C13.1597 9.03785 12.6987 9.9246 12.5915 10.8823C11.0655 10.6553 9.68641 9.81517 8.78179 8.52704C8.5662 8.22045 8.20219 8.05415 7.83005 8.0899C7.45683 8.12619 7.13235 8.3602 6.98014 8.70255C6.95035 8.76972 6.25049 10.3688 6.33987 12.3259C6.40812 13.8237 6.94385 15.7542 8.89772 17.245C8.19406 17.4719 7.45087 17.577 6.71038 17.5472C6.22828 17.5283 5.79764 17.8419 5.66763 18.3056C5.53763 18.7693 5.74293 19.2617 6.16382 19.4957C7.79538 20.4019 9.54341 20.8559 11.2513 20.8559C12.8921 20.8559 14.4955 20.4366 15.9223 19.5975C17.7115 18.545 19.0116 16.9335 19.7174 14.9655C19.7396 14.9157 19.758 14.8637 19.7726 14.8101C20.1356 13.7413 20.3257 12.5707 20.3257 11.3292C20.3257 11.275 20.3241 11.2203 20.3219 11.1661C20.9156 10.4663 21.3392 9.63696 21.558 8.74047C21.6599 8.31903 21.4909 7.8781 21.1323 7.63434ZM18.2137 11.0047C18.2342 11.1131 18.2451 11.2252 18.2451 11.3324C18.2451 12.3519 18.0934 13.2961 17.8047 14.1492C17.789 14.1882 17.776 14.2288 17.7651 14.2706C17.2251 15.7819 16.2419 16.9958 14.8677 17.8045C13.6099 18.545 12.1663 18.8603 10.695 18.7536C11.032 18.5867 11.3575 18.3971 11.669 18.1859C11.981 17.9735 12.1543 17.609 12.1208 17.2325C12.0872 16.856 11.8521 16.5278 11.507 16.3745C9.56507 15.5116 8.52666 14.1389 8.42103 12.2956C8.39936 11.918 8.41832 11.5556 8.45895 11.2236C9.88954 12.4191 11.7221 13.0713 13.6348 13.022C14.1987 13.0073 14.6483 12.5464 14.6483 11.9825V11.3514C14.6483 11.3471 14.6483 11.3422 14.6483 11.3373C14.6412 10.8113 14.8644 10.3114 15.262 9.96631C16.0052 9.32007 17.1352 9.39862 17.7814 10.1418C17.9114 10.2908 18.0772 10.3964 18.2581 10.4522C18.1947 10.6266 18.1779 10.8168 18.2137 11.0047Z" fill="#001E60"/>
<path d="M53.7822 14.594H55.2567V20.7957C55.2567 21.3699 55.7226 21.8358 56.2967 21.8358C56.8715 21.8358 57.3368 21.3699 57.3368 20.7957V14.594H58.9429C59.5171 14.594 59.9829 14.1281 59.9829 13.5539C59.9829 12.9797 59.5171 12.5139 58.9429 12.5139H57.3368V9.60394C57.3368 8.60507 58.1499 7.79199 59.1493 7.79199H60.4959C61.0701 7.79199 61.5359 7.32614 61.5359 6.75195C61.5359 6.17722 61.0701 5.71191 60.4959 5.71191H59.1493C57.0031 5.71191 55.2567 7.45777 55.2567 9.60394V12.5139H53.7822C53.208 12.5139 52.7422 12.9797 52.7422 13.5539C52.7422 14.1281 53.208 14.594 53.7822 14.594Z" fill="#001E60"/>
<path d="M11.6929 62.3278C11.9404 62.3278 12.188 62.2638 12.4084 62.1365L19.4877 58.0473C19.9292 57.7928 20.2033 57.3177 20.2033 56.808C20.2033 56.2988 19.9292 55.8237 19.4877 55.5691L12.4084 51.4799C11.9675 51.2248 11.4193 51.2248 10.9778 51.4799C10.5364 51.7345 10.2617 52.2096 10.2617 52.7193V60.8972C10.2617 61.4069 10.5364 61.882 10.9778 62.1365C11.1983 62.2644 11.4453 62.3278 11.6929 62.3278ZM12.3418 53.8439L17.4748 56.8085L12.3418 59.7732V53.8439Z" fill="#001E60"/>
<path d="M61.7256 49.583H52.687C51.1171 49.583 49.8398 50.8603 49.8398 52.4307V61.4676C49.8398 63.038 51.1171 64.3153 52.687 64.3153H61.7256C63.2954 64.3153 64.5727 63.038 64.5727 61.4676V52.4307C64.5727 50.8603 63.2954 49.583 61.7256 49.583ZM62.4926 61.4676C62.4926 61.8912 62.1486 62.2352 61.7256 62.2352H52.687C52.2639 62.2352 51.9199 61.8912 51.9199 61.4676V52.4307C51.9199 52.0076 52.2639 51.6631 52.687 51.6631H61.7256C62.1486 51.6631 62.4926 52.0076 62.4926 52.4307V61.4676Z" fill="#001E60"/>
<path d="M57.2065 53.8052C55.4731 53.8052 54.0625 55.2157 54.0625 56.9491C54.0625 58.6825 55.4731 60.0925 57.2065 60.0925C58.9399 60.0925 60.3504 58.6825 60.3504 56.9491C60.3504 55.2157 58.9399 53.8052 57.2065 53.8052ZM57.2065 58.0125C56.6198 58.0125 56.1426 57.5352 56.1426 56.9491C56.1426 56.3625 56.6198 55.8853 57.2065 55.8853C57.7931 55.8853 58.2703 56.3625 58.2703 56.9491C58.2703 57.5352 57.7931 58.0125 57.2065 58.0125Z" fill="#001E60"/>
<path d="M43.1564 24.5581C42.5817 24.5581 42.1164 25.024 42.1164 25.5981V26.0645C40.6505 26.9285 39.1094 27.6744 37.525 28.2849C36.2564 28.7735 34.946 29.1798 33.6205 29.4978C33.4169 29.3412 33.1633 29.2464 32.8871 29.2464H28.1251C26.9746 29.2464 26.0391 30.1824 26.0391 31.3325V36.7943C26.0391 37.9448 26.9746 38.8803 28.1251 38.8803H29.0768L29.4376 45.815C29.4663 46.3702 29.9257 46.8009 30.4755 46.8009C30.4934 46.8009 30.5118 46.8003 30.5302 46.7993C31.1038 46.7695 31.5448 46.2803 31.515 45.7067L31.1596 38.8803H32.8871C33.1628 38.8803 33.4169 38.7861 33.62 38.6295C34.4639 38.8332 35.3035 39.0726 36.1242 39.3451C36.6697 39.5255 37.258 39.2303 37.4389 38.6853C37.6198 38.1398 37.324 37.551 36.7791 37.3706C35.8978 37.0781 34.9964 36.8208 34.0896 36.6025V31.5253C35.5099 31.1851 36.9134 30.7491 38.2725 30.2258C39.5867 29.7193 40.8737 29.1262 42.1158 28.4545V39.675C41.6586 39.428 41.1966 39.1923 40.7313 38.9686C40.2134 38.7194 39.5921 38.9372 39.3435 39.4551C39.0943 39.9729 39.312 40.5942 39.8299 40.8434C40.6045 41.2161 41.3705 41.6267 42.1158 42.0644V42.5286C42.1158 43.1033 42.5817 43.5686 43.1559 43.5686C43.73 43.5686 44.1959 43.1033 44.1959 42.5286V25.5981C44.1964 25.024 43.7306 24.5581 43.1564 24.5581ZM32.0101 36.7997L28.1191 36.7943L28.1251 31.3265H32.0101V36.7997Z" fill="#001E60"/>
</g>
<defs>
<clipPath id="clip0_735_1285">
<rect width="71" height="71" fill="#001E60"/>
</clipPath>
</defs>
</svg>
