<svg width="83" height="87" viewBox="0 0 83 87" fill="none" xmlns="http://www.w3.org/2000/svg">
<path d="M79.5938 37.9198H71.2678C72.4091 37.1178 73.2423 35.8705 73.539 34.416H79.028C79.5646 34.416 80.0006 33.9589 80.0006 33.3965V27.5359C80.0006 26.9734 79.5646 26.5163 79.028 26.5163H77.5058V18.5215C77.5058 13.8962 73.9151 10.1325 69.5024 10.1325H64.3668V8.41797C64.3668 7.85553 63.9307 7.39844 63.3942 7.39844H39.1783C38.6417 7.39844 38.2056 7.85553 38.2056 8.41797V27.5376V33.3982C38.2056 33.9606 38.6417 34.4177 39.1783 34.4177H44.6673C44.9639 35.8722 45.7972 37.1195 46.9384 37.9215H36.0333V26.5265C36.0333 25.9641 35.5973 25.507 35.0607 25.507H29.9818V14.1087C29.9818 13.5462 29.5457 13.0891 29.0091 13.0891H16.9077C16.3711 13.0891 15.935 13.5462 15.935 14.1087V25.5036H10.8578C10.3212 25.5036 9.8851 25.9607 9.8851 26.5231V37.9181H3.40234C2.86576 37.9181 2.42969 38.3752 2.42969 38.9376C2.42969 39.5001 2.86576 39.9572 3.40234 39.9572H79.5938C80.1303 39.9572 80.5664 39.5001 80.5664 38.9376C80.5664 38.3752 80.1303 37.9198 79.5938 37.9198ZM68.2866 36.8306C66.3964 36.8306 64.8596 35.2197 64.8596 33.2385C64.8596 31.2572 66.3964 29.6463 68.2866 29.6463C70.1768 29.6463 71.7136 31.2572 71.7136 33.2385C71.7136 35.218 70.1768 36.8306 68.2866 36.8306ZM62.9775 32.377H55.232C54.9985 30.7882 54.128 29.4152 52.9041 28.5554H65.3054C64.0799 29.4152 63.211 30.7882 62.9775 32.377ZM78.057 32.377H73.5957C73.3623 30.7882 72.4917 29.4152 71.2678 28.5554H78.0553V32.377H78.057ZM75.5621 18.5215V19.1978H68.807V12.1715H69.5041C72.8451 12.1715 75.5621 15.0194 75.5621 18.5215ZM66.8617 12.1715V20.2173C66.8617 20.7798 67.2978 21.2369 67.8343 21.2369H75.5621V26.518H64.3684V12.1715H66.8617ZM62.4231 9.4375V26.518H40.1509V9.4375H62.4231ZM44.6105 32.377H40.1509V28.5554H46.9384C45.7145 29.4152 44.844 30.7882 44.6105 32.377ZM49.9212 29.6446C51.8114 29.6446 53.3482 31.2555 53.3482 33.2368C53.3482 35.218 51.8114 36.8289 49.9212 36.8289C48.0311 36.8289 46.4943 35.218 46.4943 33.2368C46.4943 31.2555 48.0311 29.6446 49.9212 29.6446ZM55.1736 34.416H63.0327C63.3293 35.8705 64.1626 37.1178 65.3038 37.9198H52.9008C54.0437 37.1178 54.8769 35.8705 55.1736 34.416ZM34.088 37.9198H23.9319V27.5444H25.788V33.0685C25.788 33.4662 26.0085 33.8281 26.3522 33.9946C26.4819 34.0575 26.6213 34.0881 26.7591 34.0881C26.986 34.0881 27.2113 34.0048 27.3897 33.8451L29.0075 32.399L30.6254 33.8451C30.9139 34.1034 31.3192 34.1611 31.6645 33.9946C32.0082 33.8281 32.2286 33.4662 32.2286 33.0685V27.5444H34.0848V37.9198H34.088ZM27.7333 27.5427H30.2866V30.8596L29.6414 30.2835C29.2782 29.959 28.7433 29.959 28.3802 30.2835L27.735 30.8596V27.5427H27.7333ZM21.6818 15.1282H24.235V18.4451L23.5898 17.869C23.2267 17.5445 22.6917 17.5445 22.3286 17.869L21.6834 18.4451V15.1282H21.6818ZM17.8803 15.1282H19.7365V20.6523C19.7365 21.05 19.957 21.4119 20.3006 21.5784C20.4303 21.6413 20.5697 21.6719 20.7075 21.6719C20.9345 21.6719 21.1598 21.5886 21.3381 21.4289L22.956 19.9829L24.5738 21.4289C24.8624 21.6872 25.2677 21.7449 25.6129 21.5784C25.9566 21.4119 26.1771 21.05 26.1771 20.6523V15.1282H28.0332V25.5036H22.9544H17.8755V15.1282H17.8803ZM15.6319 27.5427H18.1851V30.8596L17.5399 30.2835C17.1768 29.959 16.6418 29.959 16.2787 30.2835L15.6335 30.8596V27.5427H15.6319ZM11.8304 27.5427H13.6866V33.0668C13.6866 33.4645 13.907 33.8264 14.2507 33.9929C14.596 34.1594 15.0013 34.1017 15.2898 33.8434L16.9077 32.3973L18.5255 33.8434C18.7055 34.0031 18.9292 34.0864 19.1561 34.0864C19.2939 34.0864 19.4333 34.0558 19.563 33.9929C19.9067 33.8264 20.1272 33.4645 20.1272 33.0668V27.5427H21.9833V37.9181H11.8304V27.5427ZM60.9966 42.6368C60.828 42.2188 60.5151 41.896 60.1131 41.7244C59.711 41.5527 59.2701 41.5561 58.8729 41.7329L55.7475 43.1177C54.9239 43.483 54.5381 44.4805 54.885 45.3437L54.958 45.5255C52.3318 46.4363 49.8872 45.8297 47.5155 45.24C45.2022 44.6657 43.017 44.122 41.0231 45.184C40.9923 45.201 40.9615 45.2196 40.9307 45.24C39.9613 45.9027 39.1539 46.5654 38.4585 47.1737C37.6074 46.7337 36.5116 46.839 35.3687 46.9511C33.6714 47.1177 31.7715 47.3012 29.8975 46.0812L29.9348 46.0149C30.3968 45.2128 30.1504 44.1661 29.3852 43.6819L26.4802 41.8433C25.7151 41.359 24.7165 41.6173 24.2545 42.4193L15.5297 57.5645C15.306 57.9519 15.2396 58.409 15.3433 58.8508C15.4471 59.2926 15.7081 59.663 16.0777 59.8975L18.9827 61.7361C19.2437 61.9009 19.5322 61.9807 19.8175 61.9807C20.3671 61.9807 20.9037 61.6885 21.2084 61.16L21.7239 60.2645C23.2672 60.6503 24.3161 61.4217 24.7748 61.923L23.5882 63.3384C22.9835 64.0606 22.682 64.9884 22.742 65.9518C22.802 66.9153 23.2137 67.7955 23.9011 68.4293C24.5333 69.0104 25.3293 69.3248 26.1674 69.3248C26.2436 69.3248 26.3197 69.3231 26.3959 69.318C26.4381 69.3146 26.4802 69.3078 26.5224 69.3027C26.5856 70.261 26.9957 71.1344 27.6798 71.7665C28.3121 72.3477 29.108 72.662 29.9461 72.662C30.0223 72.662 30.0985 72.6603 30.1747 72.6552C30.1942 72.6535 30.212 72.6501 30.2298 72.6484C30.2314 72.6688 30.2298 72.6875 30.2314 72.7062C30.2914 73.6697 30.7032 74.5499 31.3905 75.1837C32.0211 75.7648 32.8187 76.0792 33.6568 76.0792C33.733 76.0792 33.8092 76.0775 33.8854 76.0724C33.9113 76.0707 33.9356 76.0656 33.9616 76.0639C34.0102 76.9984 34.4009 77.9126 35.1239 78.5787C35.7772 79.1802 36.5861 79.4742 37.3934 79.4742C38.1181 79.4742 38.8395 79.2363 39.4425 78.7673C40.1104 79.3298 40.9063 79.605 41.6893 79.605C42.6442 79.605 43.5812 79.1955 44.2507 78.3969C44.6835 77.8803 44.9461 77.2686 45.0515 76.6365C45.3822 76.7453 45.7291 76.8047 46.0841 76.8047C46.1603 76.8047 46.2365 76.803 46.3127 76.7979C47.2319 76.7351 48.0716 76.3035 48.6763 75.583C49.1058 75.0698 49.3798 74.4513 49.4819 73.7903C49.8013 73.8889 50.1287 73.9398 50.4578 73.9398C51.4143 73.9398 52.3659 73.5252 53.0451 72.7147C53.5201 72.1489 53.794 71.4675 53.8735 70.7708C54.1085 70.8235 54.3468 70.8524 54.5851 70.8524C55.5416 70.8524 56.4932 70.4378 57.1724 69.6272C58.2067 68.3936 58.2893 66.6213 57.4837 65.301C58.9475 64.4259 59.4549 63.5746 59.878 62.8626C60.2152 62.2968 60.4794 61.855 61.3613 61.42L61.4505 61.6426C61.7115 62.29 62.3129 62.6791 62.9451 62.6791C63.1559 62.6791 63.3682 62.6366 63.5741 62.5449L66.6996 61.16C67.5231 60.7947 67.9089 59.7972 67.562 58.934L60.9966 42.6368ZM19.7154 59.8159L17.3664 58.3291L25.7556 43.7668L28.1062 45.2536L19.7154 59.8159ZM26.2727 67.2823C25.8723 67.3112 25.4865 67.1736 25.1882 66.8983C24.8899 66.623 24.7116 66.2407 24.6857 65.821C24.6597 65.4013 24.7894 64.9969 25.0521 64.6842L27.675 61.5542C27.9376 61.2416 28.3023 61.0547 28.7028 61.0275C28.7368 61.0258 28.7692 61.0241 28.8033 61.0241C29.168 61.0241 29.5149 61.16 29.7873 61.4115C30.0855 61.6868 30.2639 62.0691 30.2898 62.4888C30.3157 62.9085 30.1861 63.3129 29.9234 63.6256L27.3005 66.7555C27.0395 67.0682 26.6748 67.2551 26.2727 67.2823ZM30.0515 70.6179C29.6511 70.6468 29.2653 70.5091 28.967 70.2338C28.6687 69.9586 28.4904 69.5762 28.4645 69.1565C28.4385 68.7368 28.5682 68.3341 28.8292 68.0215L31.3857 64.9714C31.4084 64.9442 31.4278 64.9136 31.4505 64.8864L31.4537 64.8898C31.7164 64.5771 32.0811 64.3902 32.4815 64.363C32.8819 64.3359 33.2678 64.4718 33.566 64.7471C33.8643 65.0223 34.0426 65.4047 34.0686 65.8244C34.0945 66.2441 33.9648 66.6485 33.7022 66.9612L32.8884 67.9314V67.9331L31.0793 70.0911C30.8183 70.4038 30.4535 70.5924 30.0515 70.6179ZM33.7622 74.0367C33.3634 74.0639 32.976 73.9279 32.6777 73.6527C32.3794 73.3774 32.2011 72.9951 32.1751 72.5754C32.1492 72.1557 32.2789 71.7529 32.5415 71.4403L34.3506 69.2823C34.8953 68.6315 35.8437 68.5686 36.4629 69.1396C36.7612 69.4148 36.9395 69.7971 36.9655 70.2169C36.9914 70.6366 36.8617 71.041 36.5991 71.3536L34.79 73.5116C34.5273 73.8209 34.1626 74.0095 33.7622 74.0367ZM36.4094 77.0443C35.7902 76.4734 35.7286 75.481 36.2733 74.8302L36.4419 74.6297L36.5537 74.4972C36.8488 74.1454 37.2638 73.9653 37.6787 73.9653C38.0305 73.9653 38.3823 74.0945 38.666 74.3544C38.9643 74.6297 39.1426 75.0121 39.1685 75.4318C39.1945 75.8515 39.0648 76.2559 38.8022 76.5685L38.5233 76.9016C37.977 77.5507 37.0287 77.6152 36.4094 77.0443ZM55.7167 68.278C55.172 68.9271 54.2236 68.9917 53.6044 68.4208L46.6807 62.0436C46.277 61.6715 45.6626 61.714 45.3076 62.1371C44.9526 62.5602 44.9931 63.2042 45.3968 63.5763L51.4532 69.1548C52.0724 69.7258 52.1324 70.7181 51.5877 71.3672C51.043 72.0163 50.0947 72.0809 49.4754 71.51L43.2278 65.7547C42.8241 65.3826 42.2097 65.4251 41.8547 65.8482C41.4997 66.2713 41.5402 66.9153 41.9438 67.2874L47.0843 72.0214C47.3826 72.2967 47.5609 72.679 47.5869 73.0987C47.6128 73.5184 47.4831 73.9229 47.2205 74.2355C46.6758 74.8846 45.7291 74.9492 45.1082 74.3782L41.8466 71.374C41.4429 71.0019 40.8285 71.0444 40.4735 71.4675C40.1185 71.8906 40.159 72.5346 40.5627 72.9067L42.6588 74.837C43.2796 75.408 43.3396 76.402 42.7949 77.0511C42.2794 77.6662 41.3813 77.7325 40.7183 77.2176C41.0117 76.6348 41.1511 75.9772 41.1106 75.3009C41.0506 74.3375 40.6389 73.4573 39.9515 72.8235C39.5219 72.4275 39.0226 72.1676 38.5023 72.0333C38.8087 71.442 38.9529 70.7725 38.9108 70.0826C38.8508 69.1192 38.439 68.239 37.7501 67.6052C37.22 67.1175 36.5861 66.832 35.9345 66.742C36.009 66.4038 36.0366 66.0521 36.0139 65.6952C35.9539 64.7318 35.5421 63.8516 34.8548 63.2178C34.1658 62.584 33.2823 62.2679 32.3616 62.3308C32.3194 62.3342 32.2773 62.341 32.2351 62.3461C32.1719 61.3877 31.7618 60.5143 31.076 59.8822C30.3871 59.2484 29.502 58.9323 28.5828 58.9952C27.6636 59.0581 26.8239 59.4897 26.2192 60.2102L26.0669 60.3903C25.3309 59.6239 24.1831 58.8967 22.7793 58.4481L28.8973 47.8262C30.4876 48.8577 32.0795 49.1109 33.4996 49.1109C34.2388 49.1109 34.931 49.0429 35.5535 48.9817C35.8939 48.9477 36.2392 48.9154 36.5521 48.9002C36.4078 49.0259 36.2652 49.1465 36.129 49.257C33.3796 51.4439 33.733 53.9027 34.0183 55.8788C34.2323 57.3691 34.4187 58.6571 33.5904 60.0063C33.4282 60.2696 33.391 60.5976 33.4898 60.8949C33.5887 61.1923 33.8124 61.4234 34.0961 61.5237C35.5016 62.0215 37.0919 61.6749 38.4601 60.5704C40.0018 59.3266 40.9274 57.4098 40.8156 55.6868C40.7767 55.0921 41.1041 54.1694 41.584 53.8721C41.6812 53.8109 41.9374 53.6529 42.4837 53.9995L55.5821 66.064C56.1997 66.6366 56.2613 67.6289 55.7167 68.278ZM58.2326 61.7819C57.8419 62.4395 57.4658 63.0648 56.0555 63.7887L43.706 52.4141C43.6687 52.3802 43.6298 52.3496 43.5893 52.3224C42.2016 51.3878 41.1155 51.7939 40.5919 52.1185C39.3696 52.8763 38.7924 54.5942 38.8719 55.8262C38.9383 56.8542 38.2786 58.1422 37.2702 58.9561C36.8196 59.3198 36.343 59.556 35.8793 59.6545C36.3154 58.1983 36.1176 56.8236 35.9377 55.5747C35.667 53.6954 35.4708 52.3377 37.301 50.8814C37.7387 50.5331 38.191 50.1168 38.6709 49.6767C39.5641 48.856 40.574 47.9282 41.9487 46.9817C43.3007 46.2919 45.0482 46.7252 47.0665 47.2281C49.5095 47.8347 52.4988 48.5773 55.7167 47.4116L60.6091 59.5424C59.1469 60.2475 58.6654 61.0547 58.2326 61.7819ZM63.1218 60.5347L56.8028 44.8662L59.3317 43.7464L65.6507 59.4149L63.1218 60.5347Z" fill="#0053E2"/>
</svg>
