<svg width="38" height="38" viewBox="0 0 38 38" fill="none" xmlns="http://www.w3.org/2000/svg">
<g clip-path="url(#clip0_681_2110)">
<path d="M36.6307 15.704C36.2171 15.4782 35.7493 15.3708 35.2786 15.3936C34.8079 15.4164 34.3527 15.5686 33.9629 15.8333L25.3531 21.573C25.1499 20.9955 24.773 20.4951 24.274 20.1404C23.775 19.7858 23.1784 19.5943 22.5662 19.5924H10.0975C10.0195 19.5924 9.94231 19.6077 9.87028 19.6376C9.79825 19.6674 9.73281 19.7112 9.67771 19.7664L5.94124 23.5028L5.17352 22.7351C5.1184 22.68 5.05296 22.6362 4.98093 22.6064C4.90889 22.5765 4.83169 22.5612 4.75372 22.5612C4.67575 22.5612 4.59854 22.5765 4.52651 22.6064C4.45448 22.6362 4.38904 22.68 4.33392 22.7351L1.36517 25.7039C1.31002 25.759 1.26627 25.8244 1.23643 25.8964C1.20658 25.9685 1.19122 26.0457 1.19122 26.1237C1.19122 26.2016 1.20658 26.2788 1.23643 26.3509C1.26627 26.4229 1.31002 26.4883 1.36517 26.5435L2.13289 27.3111L0.177706 29.2664C0.121757 29.3213 0.0772475 29.3868 0.0467475 29.459C0.0162475 29.5313 0.000361202 29.6088 6.0882e-06 29.6873C-0.000349025 29.7657 0.014834 29.8434 0.0446785 29.9159C0.074523 29.9884 0.118438 30.0543 0.173886 30.1097C0.229335 30.1652 0.295219 30.2091 0.367734 30.2389C0.440249 30.2688 0.517958 30.284 0.596373 30.2836C0.674789 30.2833 0.752357 30.2674 0.824599 30.2369C0.89684 30.2064 0.962324 30.1619 1.01727 30.1059L2.97249 28.1507L9.85164 35.0299L7.89642 36.9851C7.84072 37.0401 7.79645 37.1056 7.76616 37.1778C7.73586 37.2499 7.72014 37.3274 7.7199 37.4057C7.71965 37.4839 7.73489 37.5615 7.76473 37.6339C7.79458 37.7062 7.83844 37.772 7.89379 37.8273C7.94914 37.8827 8.01489 37.9265 8.08726 37.9564C8.15963 37.9862 8.23718 38.0015 8.31546 38.0012C8.39374 38.001 8.47119 37.9852 8.54337 37.9549C8.61555 37.9246 8.68102 37.8804 8.73602 37.8247L10.6912 35.8695L11.459 36.6372C11.5141 36.6924 11.5795 36.7361 11.6515 36.7659C11.7236 36.7958 11.8008 36.8112 11.8788 36.8112C11.9567 36.8112 12.0339 36.7958 12.106 36.7659C12.178 36.7361 12.2434 36.6924 12.2986 36.6372L15.2673 33.6685C15.3225 33.6133 15.3662 33.5479 15.396 33.4759C15.4259 33.4038 15.4413 33.3266 15.4413 33.2487C15.4413 33.1707 15.4259 33.0935 15.396 33.0214C15.3662 32.9494 15.3225 32.884 15.2673 32.8289L14.4996 32.0611L16.2808 30.2799H23.16C23.2884 30.2799 23.4134 30.2382 23.516 30.161L36.9647 20.0751C37.2866 19.8322 37.5479 19.5181 37.7282 19.1574C37.9084 18.7966 38.0027 18.3991 38.0037 17.9958C38.0079 17.5244 37.8819 17.0611 37.6396 16.6567C37.3974 16.2524 37.0482 15.9227 36.6307 15.704ZM11.8787 35.3778L2.62459 26.1236L4.75374 23.9945L14.0079 33.2486L11.8787 35.3778ZM36.2521 19.1253L22.9623 29.0924H16.035C15.957 29.0924 15.8798 29.1077 15.8078 29.1376C15.7358 29.1674 15.6703 29.2112 15.6152 29.2664L13.66 31.2215L6.78083 24.3424L10.3433 20.7799H22.5662C23.0387 20.7799 23.4917 20.9676 23.8258 21.3016C24.1598 21.6357 24.3475 22.0887 24.3475 22.5611C24.3475 23.0336 24.1598 23.4866 23.8258 23.8207C23.4917 24.1547 23.0387 24.3424 22.5662 24.3424H14.8475C14.69 24.3424 14.539 24.4049 14.4276 24.5163C14.3163 24.6276 14.2537 24.7787 14.2537 24.9361C14.2537 25.0936 14.3163 25.2446 14.4276 25.356C14.539 25.4673 14.69 25.5299 14.8475 25.5299H22.5662C23.2924 25.5276 23.9925 25.2587 24.5334 24.7742C25.0744 24.2897 25.4185 23.6234 25.5006 22.9019L34.6216 16.8214C34.8341 16.6796 35.0812 16.5982 35.3364 16.5859C35.5916 16.5735 35.8454 16.6307 36.0707 16.7512C36.2959 16.8718 36.4843 17.0512 36.6156 17.2704C36.7469 17.4896 36.8162 17.7403 36.8162 17.9958C36.8157 18.2148 36.7645 18.4308 36.6666 18.6267C36.5687 18.8227 36.4268 18.9933 36.2521 19.1253Z" fill="#0053E2"/>
<path d="M12.5523 18.4062C12.6538 18.4061 12.7535 18.3799 12.8419 18.3303C12.9304 18.2807 13.0047 18.2092 13.0577 18.1227C13.1107 18.0363 13.1407 17.9376 13.1448 17.8363C13.1489 17.7349 13.127 17.6342 13.0811 17.5437C12.2821 15.9717 11.8687 14.2321 11.8751 12.4688C11.8751 9.47678 13.0636 6.60735 15.1793 4.4917C17.2949 2.37606 20.1644 1.1875 23.1563 1.1875C26.1483 1.1875 29.0177 2.37606 31.1334 4.4917C33.249 6.60735 34.4376 9.47678 34.4376 12.4688C34.4389 12.8384 34.4203 13.2079 34.3819 13.5757C34.3737 13.6532 34.3807 13.7316 34.4028 13.8063C34.4248 13.8811 34.4613 13.9508 34.5103 14.0115C34.5593 14.0721 34.6197 14.1225 34.6882 14.1598C34.7566 14.1971 34.8318 14.2206 34.9093 14.2288C34.9868 14.2371 35.0652 14.23 35.1399 14.208C35.2147 14.1859 35.2844 14.1494 35.3451 14.1004C35.4057 14.0515 35.4562 13.991 35.4934 13.9226C35.5307 13.8541 35.5542 13.779 35.5625 13.7015C35.6055 13.292 35.6264 12.8805 35.6251 12.4688C35.6251 9.16183 34.3114 5.99036 31.9731 3.65201C29.6347 1.31367 26.4632 0 23.1563 0C19.8494 0 16.6779 1.31367 14.3396 3.65201C12.0012 5.99036 10.6876 9.16183 10.6876 12.4688C10.6807 14.419 11.1382 16.3429 12.0223 18.0813C12.0719 18.1792 12.1477 18.2614 12.2413 18.3188C12.3349 18.3762 12.4426 18.4065 12.5523 18.4062Z" fill="#0053E2"/>
<path d="M32.2423 15.3198C32.3953 15.357 32.5569 15.332 32.6915 15.2502C32.8261 15.1684 32.9227 15.0365 32.9601 14.8835C33.3015 13.4966 33.3448 12.0531 33.087 10.6483C32.8293 9.24349 32.2764 7.90937 31.4648 6.73407C30.6533 5.55878 29.6016 4.56906 28.3793 3.83031C27.1569 3.09156 25.7917 2.62059 24.3738 2.44853C22.956 2.27646 21.5178 2.40721 20.1542 2.83214C18.7906 3.25707 17.5327 3.9665 16.4636 4.91357C15.3945 5.86063 14.5385 7.02378 13.9523 8.32615C13.366 9.62852 13.0627 11.0405 13.0625 12.4687C13.06 14.4927 13.6665 16.4706 14.8032 18.1453C14.8914 18.2757 15.0279 18.3657 15.1825 18.3955C15.3372 18.4253 15.4973 18.3925 15.6277 18.3042C15.7581 18.2159 15.8481 18.0795 15.8779 17.9248C15.9077 17.7702 15.8748 17.6101 15.7866 17.4797C15.0028 16.3268 14.5006 15.0062 14.3202 13.6239C14.1398 12.2416 14.2863 10.8362 14.7479 9.52087C15.2096 8.20551 15.9734 7.01685 16.9781 6.05047C17.9828 5.08409 19.2003 4.36698 20.5326 3.9568C21.8649 3.54662 23.2748 3.45482 24.6491 3.68879C26.0233 3.92276 27.3235 4.47596 28.445 5.30391C29.5665 6.13186 30.4781 7.21145 31.1064 8.45585C31.7346 9.70024 32.0621 11.0747 32.0625 12.4687C32.0623 13.1876 31.9763 13.9038 31.8062 14.6022C31.7689 14.7552 31.7939 14.9167 31.8757 15.0513C31.9574 15.1858 32.0893 15.2824 32.2423 15.3198Z" fill="#0053E2"/>
<path d="M23.1562 6.53125C23.2342 6.53127 23.3114 6.51593 23.3835 6.48609C23.4555 6.45626 23.521 6.41253 23.5761 6.35739C23.6313 6.30225 23.675 6.23679 23.7048 6.16474C23.7347 6.0927 23.75 6.01548 23.75 5.9375V5.34375C23.75 5.18628 23.6874 5.03526 23.5761 4.92391C23.4647 4.81256 23.3137 4.75 23.1562 4.75C22.9988 4.75 22.8478 4.81256 22.7364 4.92391C22.6251 5.03526 22.5625 5.18628 22.5625 5.34375V5.9375C22.5625 6.01548 22.5778 6.0927 22.6077 6.16474C22.6375 6.23679 22.6812 6.30225 22.7364 6.35739C22.7915 6.41253 22.857 6.45626 22.929 6.48609C23.0011 6.51593 23.0783 6.53127 23.1562 6.53125Z" fill="#0053E2"/>
<path d="M19.297 5.7829C19.2295 5.82184 19.1703 5.87371 19.1228 5.93555C19.0753 5.99739 19.0404 6.06798 19.0202 6.14329C19.0001 6.2186 18.9949 6.29715 19.0051 6.37445C19.0153 6.45175 19.0406 6.52629 19.0796 6.5938L19.3765 7.10782C19.4552 7.24414 19.5849 7.34359 19.737 7.38432C19.8891 7.42504 20.0511 7.40371 20.1875 7.325C20.3239 7.24629 20.4234 7.11665 20.4642 6.96458C20.505 6.81252 20.4837 6.65047 20.4051 6.51407L20.1082 6.00005C20.0693 5.93249 20.0174 5.87327 19.9555 5.82578C19.8936 5.7783 19.823 5.74347 19.7476 5.72331C19.6723 5.70314 19.5937 5.69802 19.5164 5.70825C19.4391 5.71847 19.3645 5.74384 19.297 5.7829Z" fill="#0053E2"/>
<path d="M17.8037 8.68906L17.2894 8.39218C17.2219 8.35315 17.1473 8.32781 17.07 8.3176C16.9926 8.3074 16.914 8.31253 16.8387 8.33271C16.7633 8.35289 16.6927 8.38772 16.6308 8.4352C16.5689 8.48269 16.517 8.54191 16.478 8.60947C16.439 8.67703 16.4137 8.75162 16.4035 8.82896C16.3933 8.90631 16.3985 8.9849 16.4187 9.06024C16.4389 9.13559 16.4738 9.20621 16.5213 9.26808C16.5688 9.32995 16.6281 9.38184 16.6957 9.42081L17.21 9.71768C17.2775 9.75672 17.3521 9.78206 17.4294 9.79227C17.5068 9.80247 17.5854 9.79734 17.6607 9.77716C17.7361 9.75698 17.8067 9.72215 17.8686 9.67467C17.9305 9.62718 17.9824 9.56796 18.0214 9.5004C18.0604 9.43284 18.0857 9.35825 18.0959 9.28091C18.1061 9.20356 18.1009 9.12497 18.0807 9.04963C18.0605 8.97428 18.0256 8.90366 17.9781 8.84179C17.9306 8.77992 17.8713 8.72802 17.8037 8.68906Z" fill="#0053E2"/>
<path d="M17.2188 12.4688C17.2188 12.3908 17.2034 12.3136 17.1736 12.2415C17.1438 12.1695 17.1 12.104 17.0449 12.0489C16.9898 11.9937 16.9243 11.95 16.8522 11.9202C16.7802 11.8903 16.703 11.875 16.625 11.875H16.0312C15.8738 11.875 15.7228 11.9376 15.6114 12.0489C15.5001 12.1603 15.4375 12.3113 15.4375 12.4688C15.4375 12.6262 15.5001 12.7772 15.6114 12.8886C15.7228 12.9999 15.8738 13.0625 16.0312 13.0625H16.625C16.703 13.0625 16.7802 13.0472 16.8522 13.0173C16.9243 12.9875 16.9898 12.9438 17.0449 12.8886C17.1 12.8335 17.1438 12.768 17.1736 12.696C17.2034 12.6239 17.2188 12.5467 17.2188 12.4688Z" fill="#0053E2"/>
<path d="M16.993 16.6252C17.097 16.6253 17.1992 16.5979 17.2893 16.5458L17.8036 16.2489C17.8711 16.21 17.9304 16.1581 17.9779 16.0962C18.0254 16.0343 18.0603 15.9637 18.0805 15.8884C18.1007 15.813 18.1059 15.7344 18.0957 15.6571C18.0856 15.5797 18.0603 15.5052 18.0213 15.4376C17.9823 15.37 17.9303 15.3108 17.8684 15.2633C17.8066 15.2158 17.7359 15.181 17.6606 15.1608C17.5852 15.1407 17.5066 15.1355 17.4293 15.1457C17.3519 15.1559 17.2774 15.1813 17.2098 15.2203L16.6955 15.5172C16.5822 15.5825 16.4937 15.6835 16.4436 15.8043C16.3936 15.9251 16.3848 16.0591 16.4187 16.1854C16.4527 16.3118 16.5273 16.4233 16.6312 16.5029C16.735 16.5824 16.8622 16.6254 16.993 16.6252Z" fill="#0053E2"/>
<path d="M26.2044 18.9357C26.2566 19.0261 26.3316 19.1011 26.422 19.1532C26.5124 19.2053 26.6149 19.2327 26.7193 19.2326C26.8234 19.2324 26.9257 19.2049 27.0158 19.1527C27.106 19.1005 27.1808 19.0256 27.2329 18.9354C27.2849 18.8452 27.3123 18.7428 27.3123 18.6387C27.3124 18.5345 27.285 18.4322 27.233 18.342L26.9361 17.828C26.8574 17.6916 26.7277 17.5922 26.5756 17.5515C26.4235 17.5107 26.2615 17.5321 26.1251 17.6108C25.9887 17.6895 25.8892 17.8191 25.8484 17.9712C25.8076 18.1233 25.8289 18.2853 25.9075 18.4217L26.2044 18.9357Z" fill="#0053E2"/>
<path d="M28.516 16.2489L29.0303 16.5458C29.1667 16.6244 29.3287 16.6457 29.4808 16.6049C29.6329 16.5641 29.7625 16.4646 29.8412 16.3282C29.9199 16.1919 29.9413 16.0298 29.9005 15.8777C29.8598 15.7257 29.7604 15.596 29.624 15.5172L29.1097 15.2203C29.0422 15.1813 28.9676 15.1559 28.8903 15.1457C28.8129 15.1355 28.7343 15.1407 28.659 15.1608C28.5836 15.181 28.513 15.2158 28.4511 15.2633C28.3892 15.3108 28.3373 15.37 28.2983 15.4376C28.2593 15.5052 28.234 15.5797 28.2238 15.6571C28.2136 15.7344 28.2188 15.813 28.239 15.8884C28.2593 15.9637 28.2941 16.0343 28.3416 16.0962C28.3892 16.1581 28.4484 16.21 28.516 16.2489Z" fill="#0053E2"/>
<path d="M30.875 12.4688C30.875 12.3908 30.8597 12.3136 30.8298 12.2415C30.8 12.1695 30.7563 12.104 30.7011 12.0489C30.646 11.9937 30.5805 11.95 30.5085 11.9202C30.4364 11.8903 30.3592 11.875 30.2812 11.875H29.6875C29.53 11.875 29.379 11.9376 29.2677 12.0489C29.1563 12.1603 29.0938 12.3113 29.0938 12.4688C29.0938 12.6262 29.1563 12.7772 29.2677 12.8886C29.379 12.9999 29.53 13.0625 29.6875 13.0625H30.2812C30.3592 13.0625 30.4364 13.0472 30.5085 13.0173C30.5805 12.9875 30.646 12.9438 30.7011 12.8886C30.7563 12.8335 30.8 12.768 30.8298 12.696C30.8597 12.6239 30.875 12.5467 30.875 12.4688Z" fill="#0053E2"/>
<path d="M28.8133 9.79712C28.9173 9.79721 29.0195 9.7698 29.1096 9.71768L29.6239 9.42081C29.6915 9.38184 29.7507 9.32995 29.7982 9.26808C29.8457 9.20621 29.8806 9.13559 29.9008 9.06024C29.921 8.9849 29.9262 8.90631 29.916 8.82896C29.9059 8.75162 29.8806 8.67703 29.8416 8.60947C29.8026 8.54191 29.7507 8.48269 29.6888 8.4352C29.6269 8.38772 29.5562 8.35289 29.4809 8.33271C29.4055 8.31253 29.3269 8.3074 29.2496 8.3176C29.1722 8.32781 29.0977 8.35315 29.0301 8.39218L28.5158 8.68906C28.4025 8.75441 28.314 8.85535 28.2639 8.97618C28.2139 9.09702 28.2051 9.231 28.2391 9.35732C28.273 9.48364 28.3476 9.59522 28.4515 9.67475C28.5553 9.75428 28.6825 9.79729 28.8133 9.79712Z" fill="#0053E2"/>
<path d="M27.0156 5.78305C26.9481 5.74394 26.8735 5.71853 26.7962 5.70827C26.7189 5.69802 26.6403 5.70312 26.5649 5.72329C26.4896 5.74346 26.4189 5.77831 26.3571 5.82582C26.2952 5.87334 26.2433 5.9326 26.2044 6.0002L25.9075 6.51422C25.8289 6.65062 25.8076 6.81266 25.8484 6.96473C25.8892 7.1168 25.9887 7.24643 26.1251 7.32514C26.2615 7.40385 26.4235 7.42519 26.5756 7.38447C26.7277 7.34374 26.8574 7.24429 26.9361 7.10797L27.233 6.59395C27.272 6.52644 27.2973 6.4519 27.3075 6.3746C27.3177 6.2973 27.3125 6.21874 27.2924 6.14343C27.2722 6.06812 27.2373 5.99753 27.1898 5.9357C27.1423 5.87386 27.0831 5.82199 27.0156 5.78305Z" fill="#0053E2"/>
<path d="M22.5625 12.4688C22.5625 12.5467 22.5778 12.6239 22.6077 12.696C22.6375 12.768 22.6812 12.8335 22.7364 12.8886C22.7915 12.9438 22.857 12.9875 22.929 13.0173C23.0011 13.0472 23.0783 13.0625 23.1562 13.0625H26.125C26.2825 13.0625 26.4335 12.9999 26.5448 12.8886C26.6562 12.7772 26.7188 12.6262 26.7188 12.4688C26.7188 12.3113 26.6562 12.1603 26.5448 12.0489C26.4335 11.9376 26.2825 11.875 26.125 11.875H23.75V8.3125C23.75 8.15503 23.6874 8.00401 23.5761 7.89266C23.4647 7.78131 23.3137 7.71875 23.1562 7.71875C22.9988 7.71875 22.8478 7.78131 22.7364 7.89266C22.6251 8.00401 22.5625 8.15503 22.5625 8.3125V12.4688Z" fill="#0053E2"/>
</g>
<defs>
<clipPath id="clip0_681_2110">
<rect width="38" height="38" fill="white"/>
</clipPath>
</defs>
</svg>
