<svg width="79" height="76" viewBox="0 0 79 76" fill="#001E60" xmlns="http://www.w3.org/2000/svg">
<path d="M76.1697 37.1602L57.2925 18.9998L72.4666 4.402L70.721 2.72266L54.6741 18.1602C54.5594 18.2704 54.4685 18.4013 54.4065 18.5454C54.3444 18.6895 54.3125 18.8439 54.3125 18.9998C54.3125 19.1558 54.3444 19.3102 54.4065 19.4543C54.4685 19.5983 54.5594 19.7292 54.6741 19.8395L55.0356 20.1873L50.0981 24.9373H44.5252C42.8269 24.9365 41.134 25.1208 39.4789 25.4867C37.8377 25.1226 36.159 24.9383 34.4748 24.9373H28.9019L23.9644 20.1873L24.326 19.8395C24.4406 19.7292 24.5315 19.5983 24.5936 19.4543C24.6556 19.3102 24.6875 19.1558 24.6875 18.9998C24.6875 18.8439 24.6556 18.6895 24.5936 18.5454C24.5315 18.4013 24.4406 18.2704 24.326 18.1602L8.27909 2.72266L6.53345 4.402L21.7075 18.9998L2.83033 37.1602C2.71569 37.2704 2.62476 37.4013 2.56272 37.5454C2.50068 37.6895 2.46875 37.8439 2.46875 37.9998C2.46875 38.1558 2.50068 38.3102 2.56272 38.4543C2.62476 38.5983 2.71569 38.7292 2.83033 38.8395L6.53345 42.402C6.64807 42.5123 6.78414 42.5997 6.9339 42.6594C7.08366 42.7191 7.24417 42.7498 7.40627 42.7498C7.56837 42.7498 7.72888 42.7191 7.87864 42.6594C8.0284 42.5997 8.16447 42.5123 8.27909 42.402L11.1094 39.6792L13.4284 41.9102C13.8686 42.3313 14.2176 42.8323 14.4552 43.3841C14.6928 43.9359 14.8142 44.5276 14.8125 45.1248C14.8099 46.0341 14.9948 46.9348 15.3565 47.7749C15.7182 48.615 16.2496 49.3777 16.9197 50.0188L18.012 51.0696C17.3836 51.7481 17.0484 52.6318 17.0748 53.5401C17.1012 54.4484 17.4873 55.3128 18.1541 55.9563L19.6003 57.3476C20.2456 57.968 21.1072 58.3359 22.0183 58.3802C22.0643 59.2567 22.4468 60.0856 23.0916 60.7063L24.5378 62.0976C25.1831 62.718 26.0447 63.0859 26.9558 63.1302C27.0018 64.0067 27.3843 64.8356 28.0291 65.4563L29.4753 66.8476C30.1206 67.468 30.9822 67.8359 31.8933 67.8802C31.9393 68.7567 32.3218 69.5855 32.9666 70.2063L34.4128 71.5976C35.0823 72.2415 35.9831 72.6139 36.9294 72.6381C37.8758 72.6624 38.7958 72.3365 39.5 71.7278C40.2042 72.3365 41.1242 72.6624 42.0706 72.6381C43.017 72.6139 43.9177 72.2415 44.5872 71.5977L46.0334 70.2064C46.6785 69.5869 47.0622 68.7596 47.1107 67.884C48.0209 67.8374 48.8808 67.4682 49.5247 66.8477L50.9709 65.4564C51.616 64.8369 51.9997 64.0096 52.0482 63.1341C52.9584 63.0874 53.8183 62.7182 54.4622 62.0977L55.9084 60.7064C56.5535 60.0869 56.9372 59.2596 56.9857 58.3841C57.8958 58.3374 58.7558 57.9682 59.3997 57.3477L60.8459 55.9564C61.5127 55.3128 61.8988 54.4485 61.9252 53.5402C61.9516 52.6318 61.6164 51.7481 60.988 51.0697L62.0803 50.0189C62.7505 49.3777 63.2818 48.615 63.6435 47.7749C64.0052 46.9348 64.1901 46.0341 64.1875 45.1248C64.1858 44.5276 64.3073 43.9359 64.5448 43.3841C64.7824 42.8323 65.1314 42.3313 65.5716 41.9102L67.8906 39.6792L70.721 42.402C70.8356 42.5123 70.9716 42.5997 71.1214 42.6594C71.2712 42.7191 71.4317 42.7498 71.5938 42.7498C71.7559 42.7498 71.9164 42.7191 72.0661 42.6594C72.2159 42.5997 72.352 42.5123 72.4666 42.402L76.1697 38.8395C76.2843 38.7292 76.3753 38.5983 76.4373 38.4543C76.4994 38.3102 76.5313 38.1558 76.5313 37.9998C76.5313 37.8439 76.4994 37.6895 76.4373 37.5454C76.3753 37.4013 76.2843 37.2704 76.1697 37.1602ZM7.40627 39.883L5.44878 37.9998L22.2188 21.8667L24.1763 23.7498L7.40627 39.883ZM19.8997 54.277C19.6686 54.0541 19.5388 53.7522 19.5388 53.4373C19.5388 53.1225 19.6686 52.8205 19.8997 52.5977L25.0491 47.6438C25.2807 47.4215 25.5946 47.2966 25.9219 47.2966C26.2491 47.2966 26.563 47.4215 26.7947 47.6438L28.2409 49.0352C28.4721 49.258 28.6019 49.56 28.6019 49.8748C28.6019 50.1897 28.4721 50.4916 28.2409 50.7145L23.0916 55.6683C22.8599 55.8907 22.546 56.0156 22.2188 56.0156C21.8915 56.0156 21.5776 55.8907 21.3459 55.6683L19.8997 54.277ZM24.8372 59.027C24.6061 58.8041 24.4763 58.5022 24.4763 58.1873C24.4763 57.8725 24.6061 57.5705 24.8372 57.3477L31.2209 51.2063C31.4526 50.984 31.7665 50.8591 32.0938 50.8591C32.421 50.8591 32.7349 50.984 32.9666 51.2063L34.4128 52.5977C34.6439 52.8205 34.7738 53.1225 34.7738 53.4373C34.7738 53.7522 34.6439 54.0541 34.4128 54.277L28.0291 60.4183C27.7974 60.6407 27.4835 60.7656 27.1563 60.7656C26.829 60.7656 26.5151 60.6407 26.2834 60.4183L24.8372 59.027ZM29.7747 63.777C29.5436 63.5541 29.4138 63.2522 29.4138 62.9373C29.4138 62.6225 29.5436 62.3205 29.7747 62.0977L34.9241 57.1438C35.1557 56.9215 35.4696 56.7966 35.7969 56.7966C36.1241 56.7966 36.438 56.9215 36.6697 57.1438L38.1159 58.5352C38.3471 58.758 38.4769 59.06 38.4769 59.3748C38.4769 59.6897 38.3471 59.9916 38.1159 60.2145L32.9666 65.1683C32.7349 65.3907 32.421 65.5156 32.0938 65.5156C31.7665 65.5156 31.4526 65.3907 31.2209 65.1683L29.7747 63.777ZM36.1584 69.9183L34.7122 68.527C34.4811 68.3041 34.3513 68.0022 34.3513 67.6873C34.3513 67.3725 34.4811 67.0705 34.7122 66.8477L39.8616 61.8938C40.0932 61.6715 40.4071 61.5466 40.7344 61.5466C41.0616 61.5466 41.3755 61.6715 41.6072 61.8938L43.0534 63.2852C43.2846 63.508 43.4144 63.81 43.4144 64.1248C43.4144 64.4397 43.2846 64.7416 43.0534 64.9645L37.9041 69.9183C37.6724 70.1407 37.3585 70.2656 37.0313 70.2656C36.704 70.2656 36.3901 70.1407 36.1584 69.9183ZM44.2878 68.527L42.8416 69.9183C42.6362 70.1161 42.3648 70.2377 42.0752 70.2617C41.7857 70.2857 41.4967 70.2104 41.2592 70.0493L44.424 67.0047C44.5915 67.2331 44.6697 67.5112 44.6448 67.7897C44.6198 68.0683 44.4934 68.3294 44.2878 68.527ZM59.1003 54.277L57.6541 55.6683C57.4226 55.891 57.1086 56.0161 56.7813 56.0161C56.4539 56.0161 56.14 55.891 55.9085 55.6683L55.1853 54.9726L46.5447 46.6601L44.7991 48.3395L53.4397 56.652L54.1628 57.3476C54.394 57.5705 54.5238 57.8725 54.5238 58.1873C54.5238 58.5021 54.394 58.8041 54.1628 59.027L52.7166 60.4183C52.4849 60.6407 52.171 60.7655 51.8438 60.7655C51.5165 60.7655 51.2026 60.6407 50.971 60.4183L50.2478 59.7226L41.6072 51.4101L39.8616 53.0895L48.5022 61.402L49.2253 62.0976C49.4565 62.3205 49.5863 62.6225 49.5863 62.9373C49.5863 63.2521 49.4565 63.5541 49.2253 63.777L47.7791 65.1683C47.5474 65.3907 47.2335 65.5155 46.9063 65.5155C46.579 65.5155 46.2651 65.3907 46.0335 65.1683L45.7834 64.9277C45.9259 64.3391 45.9103 63.7253 45.7381 63.1442C45.5659 62.563 45.2428 62.0336 44.7991 61.6058L43.3529 60.2145C42.7076 59.5942 41.846 59.2262 40.9349 59.1819C40.8889 58.3055 40.5064 57.4766 39.8616 56.8558L38.4154 55.4645C38.0235 55.0883 37.5484 54.8022 37.0254 54.6276C37.2596 53.9936 37.3025 53.3088 37.1491 52.6524C36.9957 51.996 36.6522 51.3948 36.1585 50.9183L34.7123 49.527C34.217 49.052 33.592 48.7216 32.9097 48.574C32.2274 48.4264 31.5156 48.4677 30.8566 48.693C30.675 48.1899 30.3776 47.7328 29.9866 47.3558L28.5404 45.9645C27.8454 45.2974 26.9037 44.9228 25.9219 44.9228C24.9402 44.9228 23.9985 45.2974 23.3035 45.9645L19.75 49.383L18.6653 48.3395C18.2252 47.9183 17.8762 47.4173 17.6386 46.8655C17.401 46.3137 17.2796 45.7221 17.2813 45.1248C17.2838 44.2156 17.0989 43.3148 16.7372 42.4748C16.3755 41.6347 15.8442 40.872 15.1741 40.2308L12.855 37.9998L25.9219 25.4292L27.5178 26.9645C27.6324 27.0748 27.7685 27.1623 27.9183 27.2219C28.068 27.2816 28.2285 27.3123 28.3906 27.3123H34.3044C32.2551 28.3324 30.3822 29.6515 28.7522 31.2227C27.8668 32.0754 27.3696 33.2315 27.3699 34.4368C27.3702 35.6421 27.8681 36.798 28.754 37.6502C29.6399 38.5025 30.8414 38.9815 32.0943 38.9818C33.3472 38.9821 34.5489 38.5038 35.4353 37.652L39.5 33.7417L58.3772 51.902L59.1003 52.5977C59.3318 52.8204 59.4618 53.1224 59.4618 53.4373C59.4618 53.7523 59.3318 54.0543 59.1003 54.277ZM63.826 40.2308C63.1558 40.872 62.6245 41.6347 62.2628 42.4748C61.9011 43.3148 61.7162 44.2156 61.7188 45.1248C61.7205 45.7221 61.599 46.3137 61.3614 46.8655C61.1239 47.4173 60.7749 47.9183 60.3347 48.3395L59.25 49.383L40.3728 31.2227C40.1413 31 39.8274 30.8749 39.5 30.8749C39.1726 30.8749 38.8587 31 38.6272 31.2227L33.6897 35.9727C33.2664 36.3796 32.6924 36.6081 32.094 36.6079C31.4956 36.6078 30.9217 36.3791 30.4985 35.972C30.0754 35.5649 29.8376 35.0128 29.8375 34.4371C29.8374 33.8614 30.0749 33.3093 30.4978 32.902C32.3357 31.1243 34.5217 29.7149 36.9295 28.7555C39.3373 27.796 41.919 27.3055 44.5252 27.3123H50.6094C50.7715 27.3123 50.932 27.2816 51.0818 27.2219C51.2315 27.1623 51.3676 27.0748 51.4822 26.9645L53.0781 25.4292L66.145 37.9998L63.826 40.2308ZM71.5938 39.883L54.8238 23.7498L56.7813 21.8667L73.5513 37.9998L71.5938 39.883Z" fill="#001E60"/>
</svg>
