<svg width="38" height="38" viewBox="0 0 38 38" fill="#001E60" xmlns="http://www.w3.org/2000/svg">
<path d="M34.9105 3.46453H28.1648C27.3721 2.06551 25.8699 1.11848 24.1503 1.11848C22.4306 1.11848 20.9284 2.06551 20.1358 3.46453H18.0525V1.55859C18.0525 1.31293 17.8528 1.11328 17.6071 1.11328H9.42527C9.17961 1.11328 8.97996 1.31293 8.97996 1.55859V3.46453H3.08996C2.25648 3.46453 1.57812 4.14289 1.57812 4.97637V29.2667C1.57812 30.1002 2.25648 30.7785 3.08996 30.7785H15.0429V33.1171L13.3633 33.99C13.3136 34.0159 13.2639 34.0412 13.2149 34.0657C12.7421 34.3046 12.0949 34.6312 12.0949 35.4135C12.0949 36.2262 12.7562 36.8875 13.5689 36.8875H24.4316C25.2443 36.8875 25.9055 36.2262 25.9055 35.4135C25.9055 34.6312 25.2584 34.3039 24.7856 34.0657C24.7359 34.0404 24.6861 34.0159 24.6371 33.99L22.9576 33.1171V30.7785H34.9105C35.744 30.7785 36.4223 30.1002 36.4223 29.2667V4.97637C36.4223 4.14289 35.744 3.46453 34.9105 3.46453ZM27.8709 5.73043C27.8709 7.63117 26.4377 9.20313 24.5948 9.4243V5.91078L27.0396 3.38957C27.5591 4.02934 27.8709 4.84426 27.8709 5.73043ZM24.1495 2.0091C24.9949 2.0091 25.7749 2.29262 26.4006 2.76984L23.9907 5.25395L20.5714 4.71066C21.016 3.15355 22.4514 2.0091 24.1495 2.0091ZM20.6019 14.2574H21.2884L19.0002 17.7412L16.7121 14.2574H17.3986C17.6443 14.2574 17.8439 14.0578 17.8439 13.8121V9.78945H20.1558V13.8121C20.1566 14.0585 20.3555 14.2574 20.6019 14.2574ZM9.87059 2.00391H17.1618V8.96859C17.0371 9.04727 16.954 9.18605 16.954 9.34488V11.6746H9.87059V2.00391ZM22.3067 33.7821L24.226 34.7796C24.2787 34.8071 24.3314 34.8338 24.3833 34.8598C24.8643 35.1025 25.0142 35.2109 25.0142 35.4127C25.0142 35.7341 24.7522 35.9961 24.4308 35.9961H13.5689C13.2475 35.9961 12.9855 35.7341 12.9855 35.4127C12.9855 35.2109 13.1355 35.1025 13.6164 34.8598C13.6691 34.8331 13.7218 34.8064 13.7745 34.7796L15.6938 33.7821C15.8415 33.7057 15.9335 33.5528 15.9335 33.3873V30.7785H22.067V33.3873C22.067 33.5528 22.1597 33.7057 22.3067 33.7821ZM34.9105 29.8871H3.08996C2.74707 29.8871 2.46875 29.6088 2.46875 29.2659V26.3632H11.663C11.9086 26.3632 12.1083 26.1636 12.1083 25.9179C12.1083 25.6723 11.9086 25.4726 11.663 25.4726H2.46875V4.97637C2.46875 4.63422 2.74707 4.35516 3.08996 4.35516H8.97922V12.1199C8.97922 12.3656 9.17887 12.5652 9.42453 12.5652H16.9533V13.3675H15.8868C15.7227 13.3675 15.5728 13.4573 15.4949 13.6013C15.417 13.7453 15.4244 13.9205 15.5149 14.057L18.6284 18.7974C18.7108 18.9228 18.8503 18.9985 19.0002 18.9985C19.1502 18.9985 19.2904 18.9228 19.3721 18.7974L22.4855 14.057C22.5753 13.9205 22.5828 13.7453 22.5056 13.6013C22.4277 13.4573 22.277 13.3675 22.1137 13.3675H21.0472V9.34488C21.0472 9.09922 20.8475 8.89957 20.6019 8.89957H18.0525V4.35516H19.7476C19.6118 4.78934 19.5383 5.25172 19.5383 5.73043C19.5383 6.44812 19.6986 7.13539 20.0148 7.77441C20.1239 7.99484 20.3911 8.08539 20.6115 7.97555C20.8319 7.86645 20.9225 7.59926 20.8127 7.37883C20.5581 6.86375 20.4282 6.30934 20.4282 5.73043C20.4282 5.68367 20.4297 5.63766 20.4319 5.5909L23.7042 6.11043V9.4243C23.1246 9.35527 22.5702 9.15117 22.0818 8.82461C21.8777 8.68805 21.6009 8.74223 21.4643 8.94707C21.3277 9.15117 21.3819 9.42801 21.5868 9.56457C22.346 10.073 23.2322 10.3416 24.1495 10.3416C26.6923 10.3416 28.7615 8.27316 28.7615 5.72969C28.7615 5.25098 28.688 4.78934 28.5522 4.35441H34.9105C35.2534 4.35441 35.5317 4.63273 35.5317 4.97563V25.4726H26.3375C26.0918 25.4726 25.8922 25.6723 25.8922 25.9179C25.8922 26.1636 26.0918 26.3632 26.3375 26.3632H35.5317V29.2659C35.5317 29.6088 35.2527 29.8871 34.9105 29.8871ZM15.2411 20.3983C15.2411 19.6487 15.4615 18.9243 15.8778 18.3038C16.0152 18.0997 16.2912 18.0455 16.4961 18.1829C16.7002 18.3202 16.7544 18.597 16.6171 18.8011C16.2994 19.2739 16.1317 19.8261 16.1317 20.399C16.1317 21.9806 17.4186 23.2676 19.0002 23.2676C20.5818 23.2676 21.8688 21.9806 21.8688 20.399C21.8688 19.8268 21.7011 19.2739 21.3834 18.8011C21.2461 18.597 21.3003 18.3202 21.5044 18.1829C21.7085 18.0455 21.9853 18.0997 22.1226 18.3038C22.539 18.9243 22.7594 19.6479 22.7594 20.3983C22.7594 22.4712 21.0732 24.1575 19.0002 24.1575C16.9273 24.1575 15.2411 22.4712 15.2411 20.3983ZM25.5352 21.9888H25.2925C24.8776 21.9888 24.5362 22.2181 24.3789 22.6018L24.3611 22.6441C24.2007 23.0271 24.2802 23.4309 24.5733 23.724L24.7448 23.8955C24.8865 24.0372 24.9644 24.2265 24.9644 24.4276C24.9644 24.6288 24.8865 24.818 24.7448 24.9598L23.5602 26.1443C23.2671 26.4375 22.7898 26.4375 22.4967 26.1443L22.3252 25.9729C22.0313 25.6797 21.6283 25.6003 21.2453 25.7606L21.2038 25.7777C20.8201 25.935 20.5907 26.2764 20.5907 26.6913V26.934C20.5907 27.3489 20.253 27.6866 19.8382 27.6866H18.1623C17.7474 27.6866 17.4097 27.3489 17.4097 26.934V26.6913C17.4097 26.2764 17.1804 25.935 16.7967 25.7777L16.7559 25.7606C16.3721 25.5995 15.9684 25.6789 15.6745 25.9721L15.5023 26.1436C15.3605 26.2853 15.1713 26.3632 14.9702 26.3632C14.769 26.3632 14.5798 26.2853 14.438 26.1436L13.2535 24.959C13.1117 24.8173 13.0338 24.628 13.0338 24.4269C13.0338 24.2257 13.1117 24.0365 13.2535 23.8947L13.4249 23.7233C13.7181 23.4301 13.7975 23.0264 13.6372 22.6434L13.6201 22.6018C13.4628 22.2174 13.1206 21.988 12.7065 21.988H12.4638C12.0489 21.988 11.7112 21.6504 11.7112 21.2355V19.5596C11.7112 19.1447 12.0489 18.807 12.4638 18.807H12.7065C13.1214 18.807 13.4628 18.5777 13.6201 18.194L13.6379 18.1517C13.7982 17.7695 13.7188 17.3657 13.4257 17.0718L13.2542 16.9004C13.1125 16.7586 13.0345 16.5693 13.0345 16.3682C13.0345 16.1671 13.1125 15.9778 13.2542 15.8361L14.4387 14.6515C14.6124 14.4779 14.8945 14.4779 15.0681 14.6515C15.2418 14.8252 15.2418 15.1072 15.0681 15.2816L13.9816 16.3689L14.055 16.4424C14.605 16.9924 14.7594 17.7791 14.4588 18.4968L14.4447 18.5317C14.1493 19.2516 13.4836 19.6977 12.7065 19.6977H12.6018V21.0967H12.7065C13.4836 21.0967 14.1493 21.5435 14.4439 22.2619L14.4588 22.2975C14.7594 23.0145 14.6043 23.802 14.055 24.3519L13.9816 24.4254L14.9709 25.4147L15.0451 25.3405C15.5951 24.7905 16.3818 24.6362 17.0995 24.9368L17.1344 24.9509C17.8543 25.2462 18.3004 25.912 18.3004 26.6891V26.7937H19.6994V26.6891C19.6994 25.912 20.1462 25.2463 20.8646 24.9516L20.8995 24.9368C21.6172 24.6362 22.4046 24.7905 22.9539 25.3405L23.0281 25.4147L24.0174 24.4254L23.9432 24.3519C23.3932 23.802 23.2389 23.0152 23.5395 22.2975L23.555 22.2604C23.8489 21.5427 24.5154 21.0959 25.2925 21.0959H25.3971V19.6969H25.2925C24.5154 19.6969 23.8497 19.2501 23.555 18.5317L23.5395 18.4946C23.2396 17.7791 23.394 16.9916 23.9439 16.4424L24.0174 16.3689L22.9309 15.2816C22.7572 15.108 22.7572 14.8259 22.9309 14.6515C23.1045 14.4779 23.3866 14.4779 23.561 14.6515L24.7455 15.8361C24.8873 15.9778 24.9652 16.1671 24.9652 16.3682C24.9652 16.5693 24.8873 16.7586 24.7455 16.9004L24.5741 17.0718C24.2802 17.365 24.2015 17.7687 24.3618 18.1517L24.3789 18.1932C24.5362 18.5777 24.8784 18.807 25.2925 18.807H25.5352C25.9501 18.807 26.287 19.1447 26.287 19.5596V21.2355C26.287 21.6511 25.9501 21.9888 25.5352 21.9888ZM10.6484 4.47762C10.6484 4.23195 10.848 4.0323 11.0937 4.0323H15.9387C16.1844 4.0323 16.384 4.23195 16.384 4.47762C16.384 4.72328 16.1844 4.92293 15.9387 4.92293H11.0937C10.8473 4.92293 10.6484 4.72402 10.6484 4.47762ZM16.384 6.8207C16.384 7.06637 16.1844 7.26602 15.9387 7.26602H11.0937C10.848 7.26602 10.6484 7.06637 10.6484 6.8207C10.6484 6.57504 10.848 6.37539 11.0937 6.37539H15.9387C16.1844 6.37539 16.384 6.5743 16.384 6.8207ZM16.384 9.16305C16.384 9.40871 16.1844 9.60836 15.9387 9.60836H11.0937C10.848 9.60836 10.6484 9.40871 10.6484 9.16305C10.6484 8.91738 10.848 8.71773 11.0937 8.71773H15.9387C16.1844 8.71773 16.384 8.91664 16.384 9.16305ZM26.5216 16.1671C26.5216 15.9214 26.7212 15.7218 26.9669 15.7218H32.4153L33.7215 14.2396C33.8841 14.0548 34.1653 14.0377 34.3502 14.2003C34.535 14.3628 34.552 14.6441 34.3895 14.8289L32.9504 16.4617C32.8658 16.5575 32.7441 16.6124 32.6164 16.6124H26.9669C26.7205 16.6124 26.5216 16.4135 26.5216 16.1671ZM11.0752 16.1671C11.0752 16.4127 10.8755 16.6124 10.6298 16.6124H5.38406C5.25641 16.6124 5.13469 16.5575 5.05008 16.4617L3.61098 14.8289C3.44844 14.6441 3.46625 14.3628 3.65031 14.2003C3.83437 14.0377 4.11641 14.0555 4.27894 14.2396L5.58519 15.7218H10.6291C10.8755 15.7218 11.0752 15.9214 11.0752 16.1671ZM34.601 18.5525C34.601 18.7981 34.4014 18.9978 34.1557 18.9978H28.3266C28.0809 18.9978 27.8812 18.7981 27.8812 18.5525C27.8812 18.3068 28.0809 18.1071 28.3266 18.1071H34.1557C34.4014 18.1071 34.601 18.3068 34.601 18.5525ZM10.1192 18.5525C10.1192 18.7981 9.91957 18.9978 9.67391 18.9978H3.84477C3.5991 18.9978 3.39945 18.7981 3.39945 18.5525C3.39945 18.3068 3.5991 18.1071 3.84477 18.1071H9.67391C9.92031 18.1071 10.1192 18.3068 10.1192 18.5525ZM10.1192 20.8955C10.1192 21.1412 9.91957 21.3409 9.67391 21.3409H5.58519L4.27894 22.823C4.19062 22.9232 4.06816 22.9737 3.94496 22.9737C3.84031 22.9737 3.73492 22.9373 3.65031 22.8623C3.46551 22.6998 3.44844 22.4185 3.61098 22.2337L5.05008 20.6009C5.13469 20.5052 5.25641 20.4502 5.38406 20.4502H9.67391C9.92031 20.4502 10.1192 20.6499 10.1192 20.8955ZM34.3895 22.2337C34.552 22.4185 34.5342 22.6998 34.3502 22.8623C34.2655 22.9373 34.1602 22.9737 34.0555 22.9737C33.9323 22.9737 33.8091 22.9225 33.7215 22.823L32.4153 21.3409H28.3266C28.0809 21.3409 27.8812 21.1412 27.8812 20.8955C27.8812 20.6499 28.0809 20.4502 28.3266 20.4502H32.6164C32.7441 20.4502 32.8658 20.5052 32.9504 20.6009L34.3895 22.2337Z" fill="#001E60"/>
</svg>
