<svg xmlns="http://www.w3.org/2000/svg" id="Layer_1" enable-background="new 0 0 512 512" viewBox="0 0 512 512"><path d="m288.68 218.95h-65.4c-9.6 0-17.41 7.81-17.41 17.4v258.21c0 9.61 7.81 17.43 17.41 17.43h65.4c9.61 0 17.43-7.82 17.43-17.43v-258.2c.01-9.6-7.81-17.41-17.43-17.41zm1.45 275.61c0 .77-.67 1.45-1.45 1.45h-65.4c-.77 0-1.42-.66-1.42-1.45v-258.2c0-.77.65-1.42 1.42-1.42h65.4c.78 0 1.45.65 1.45 1.42zm-165.12-188.95h-65.4c-9.61 0-17.43 7.82-17.43 17.43v171.52c0 9.61 7.82 17.43 17.43 17.43h65.4c9.6 0 17.41-7.82 17.41-17.43v-171.52c0-9.61-7.81-17.43-17.41-17.43zm1.42 188.95c0 .78-.65 1.45-1.42 1.45h-65.4c-.77 0-1.44-.68-1.44-1.45v-171.52c0-.77.67-1.45 1.44-1.45h65.4c.77 0 1.42.66 1.42 1.45zm325.95-362.29h-65.39c-9.6 0-17.41 7.82-17.41 17.43v344.86c0 9.61 7.81 17.43 17.41 17.43h65.39c9.61 0 17.43-7.82 17.43-17.43v-344.86c.01-9.61-7.81-17.43-17.43-17.43zm1.45 362.29c0 .77-.67 1.45-1.45 1.45h-65.39c-.77 0-1.42-.66-1.42-1.45v-344.86c0-.78.65-1.45 1.42-1.45h65.39c.77 0 1.45.68 1.45 1.45zm-6.9-451.11-278.95 147.7c-1.19.63-2.47.93-3.73.93-2.87 0-5.64-1.55-7.07-4.25-2.07-3.9-.58-8.74 3.32-10.81l282.03-149.33-32.82-12.2c-4.14-1.54-6.25-6.14-4.71-10.28s6.14-6.24 10.28-4.71l49.32 18.34c4.14 1.54 6.25 6.14 4.71 10.28l-18.34 49.32c-1.2 3.22-4.25 5.21-7.49 5.21-.93 0-1.87-.16-2.79-.5-4.14-1.54-6.25-6.14-4.71-10.28zm-345.48 161.02h-1.31c13.53-3.49 23.56-15.81 23.56-30.42 0-17.32-14.09-31.41-31.41-31.41s-31.41 14.09-31.41 31.41c0 14.61 10.03 26.92 23.56 30.42h-1.31c-22.59 0-40.96 18.39-40.96 40.99v25.23c0 8.67 7.06 15.73 15.73 15.73h68.77c8.67 0 15.73-7.06 15.73-15.73v-25.23c.02-22.61-18.36-40.99-40.95-40.99zm-24.57-30.42c0-8.5 6.92-15.42 15.42-15.42s15.42 6.92 15.42 15.42-6.92 15.42-15.42 15.42-15.42-6.92-15.42-15.42zm49.55 96.38h-68.26v-24.97c0-13.79 11.2-25 24.97-25h18.31c13.77 0 24.97 11.22 24.97 25v24.97z" fill="#001E60"/></svg>