<svg width="39" height="47" viewBox="0 0 39 47" fill="none" xmlns="http://www.w3.org/2000/svg">
<path d="M10.3064 26.5983L10.2087 26.7494C10.115 26.89 9.96983 26.9881 9.80445 27.0224C9.63908 27.0567 9.46683 27.0246 9.32499 26.9329C9.18314 26.8412 9.08311 26.6973 9.04652 26.5324C9.00994 26.3675 9.03975 26.1948 9.12951 26.0518L9.22727 25.9007C9.32089 25.7601 9.46611 25.662 9.63148 25.6277C9.79686 25.5934 9.96911 25.6255 10.111 25.7172C10.2528 25.8089 10.3528 25.9528 10.3894 26.1177C10.426 26.2826 10.3962 26.4552 10.3064 26.5983ZM29.6161 25.9007C29.5225 25.7601 29.3773 25.662 29.2119 25.6277C29.0465 25.5934 28.8743 25.6255 28.7324 25.7172C28.5906 25.8089 28.4905 25.9528 28.4539 26.1177C28.4174 26.2826 28.4472 26.4552 28.5369 26.5983L28.6347 26.7494C28.6799 26.8215 28.739 26.8839 28.8086 26.933C28.8781 26.9821 28.9568 27.0168 29.0399 27.0353C29.123 27.0537 29.2089 27.0555 29.2927 27.0404C29.3765 27.0254 29.4564 26.9938 29.5279 26.9476C29.5994 26.9014 29.661 26.8414 29.7091 26.7712C29.7572 26.701 29.7909 26.6219 29.8082 26.5386C29.8255 26.4552 29.8261 26.3693 29.8099 26.2857C29.7937 26.2021 29.761 26.1226 29.7139 26.0518L29.6161 25.9007ZM38.302 31.4209C38.3009 32.1725 38.0797 32.9075 37.6658 33.5349C37.8222 33.8813 37.8488 34.2725 37.7407 34.637C37.6325 35.0015 37.3968 35.3148 37.0767 35.5199L34.1194 37.4065C33.8669 37.5683 33.5732 37.6544 33.2733 37.6543C33.0076 37.6544 32.7462 37.5881 32.5126 37.4616C32.5506 37.5652 32.5813 37.6714 32.6044 37.7793C32.7551 38.4932 32.5713 39.2434 32.0583 40.0093C32.0293 40.0526 31.9951 40.0922 31.9565 40.1273C31.2803 40.7417 30.4351 41.0085 29.438 40.9247C29.2943 41.5514 29.0096 42.0287 28.5875 42.3486C28.1383 42.6889 27.5566 42.8323 26.8547 42.7771C26.5681 43.6109 26.1228 44.1816 25.5264 44.4782C24.9804 44.7495 24.3362 44.7784 23.6051 44.5659C23.265 45.3195 22.7621 45.8144 22.1043 46.0414C21.8359 46.1328 21.5541 46.1786 21.2707 46.1769C20.3907 46.1769 19.3606 45.7703 18.1545 44.9514C17.7125 45.3715 17.1441 45.7665 16.5564 45.7851C16.5174 45.7863 16.4786 45.7869 16.4402 45.7869C15.355 45.7869 14.5596 45.2943 14.1453 44.3786C13.2779 44.4998 12.595 44.3795 12.0683 44.0151C11.6617 43.7269 11.3668 43.3076 11.2329 42.8276C10.4746 42.7829 9.86957 42.5513 9.42922 42.1362C9.04334 41.7593 8.78926 41.2681 8.70467 40.7353C8.03364 40.7831 7.48377 40.6522 7.06389 40.3441C6.56736 39.9799 6.2816 39.3992 6.2144 38.6183C6.17505 38.1304 6.2703 37.641 6.48979 37.2034C6.25652 37.3299 5.99536 37.3962 5.72999 37.3962C5.42935 37.3964 5.13495 37.3104 4.8817 37.1484L1.92419 35.2617C1.62939 35.0727 1.40552 34.7914 1.2876 34.4617C1.16967 34.132 1.16434 33.7725 1.27243 33.4394C0.895133 32.8338 0.696454 32.1341 0.699248 31.4206V11.285C0.700414 10.2632 1.10682 9.28359 1.82932 8.56102C2.55183 7.83845 3.53143 7.43194 4.55325 7.43068H9.5929V6.63058C9.59457 5.0917 10.2066 3.61633 11.2948 2.52816C12.3829 1.43999 13.8582 0.827897 15.3971 0.826172H23.6038C25.1427 0.827848 26.6181 1.43992 27.7062 2.5281C28.7944 3.61627 29.4065 5.09167 29.4082 6.63058V7.43068H34.4478C35.4697 7.43185 36.4494 7.83831 37.172 8.56089C37.8946 9.28347 38.301 10.2632 38.3022 11.285L38.302 31.4209ZM36.8731 32.2589C36.9677 31.9896 37.0163 31.7063 37.0168 31.4209V19.216C36.3121 19.8519 35.3968 20.204 34.4476 20.2045H24.0034V20.9205C24.0034 22.1148 23.5289 23.2601 22.6845 24.1045C21.84 24.949 20.6947 25.4234 19.5004 25.4234C18.3062 25.4234 17.1609 24.949 16.3164 24.1045C15.4719 23.2601 14.9975 22.1148 14.9975 20.9205V20.2045H4.55325C3.60424 20.2043 2.68894 19.8526 1.98404 19.2172V31.4206C1.98413 31.6459 2.01379 31.8702 2.07225 32.0878L7.46514 23.634C7.6911 23.2806 8.04805 23.0313 8.45764 22.9407C8.86724 22.8502 9.29602 22.9258 9.6499 23.1511L12.6072 25.0376C12.8967 25.2229 13.118 25.4973 13.2379 25.8194C13.3578 26.1415 13.3697 26.4939 13.2718 26.8233C14.1409 26.9956 15.0884 26.7613 16.011 26.532C17.2368 26.2276 18.7256 25.8582 19.6486 26.9468C21.9645 25.7132 22.8982 25.9813 24.0123 26.5269C24.4317 26.7323 24.8278 26.9264 25.4572 26.9608C25.5398 26.9653 25.6209 26.9674 25.7007 26.9685C25.6311 26.6523 25.6602 26.3223 25.7842 26.0231C25.9081 25.724 26.1208 25.47 26.3937 25.2956L29.351 23.409C29.7049 23.1839 30.1336 23.1083 30.5432 23.1988C30.9528 23.2894 31.3097 23.5386 31.5357 23.892L36.8731 32.2589ZM31.1145 35.6377L26.3862 28.2257C26.0541 28.2575 25.7201 28.2636 25.3871 28.2441C24.4967 28.1955 23.9148 27.9103 23.447 27.6812C22.6575 27.2947 22.0871 27.015 19.7876 28.339C16.983 30.4094 15.8831 32.556 15.9987 33.4222C16.0253 33.6224 16.1063 33.6537 16.16 33.6744C16.6362 33.858 18.2465 33.4922 21.2599 30.95C22.5166 29.8897 25.3265 31.7409 29.1601 34.4717C29.8801 34.9847 30.502 35.4277 30.9135 35.6835C30.9395 35.7 30.9641 35.7168 30.9896 35.7334C31.0349 35.7065 31.0768 35.6743 31.1145 35.6375V35.6377ZM14.9975 16.6554H4.55325C3.60424 16.6553 2.68894 16.3036 1.98404 15.6682V16.3722C1.99166 17.0492 2.26549 17.696 2.74629 18.1727C3.22709 18.6493 3.87621 18.9176 4.55325 18.9193H14.9975V16.6554ZM19.5004 24.1382C20.3535 24.1372 21.1714 23.7979 21.7747 23.1947C22.3779 22.5915 22.7172 21.7736 22.7182 20.9205V15.2072C22.7174 15.1485 22.6938 15.0924 22.6523 15.0509C22.6108 15.0095 22.5547 14.9858 22.496 14.985H16.5047C16.4461 14.9858 16.39 15.0095 16.3486 15.051C16.3071 15.0924 16.2834 15.1485 16.2827 15.2072V20.9205C16.2837 21.7736 16.623 22.5915 17.2262 23.1947C17.8295 23.7979 18.6473 24.1372 19.5004 24.1382ZM24.0034 18.9193H34.4476C35.1236 18.9172 35.7717 18.6495 36.2523 18.1741C36.7328 17.6986 37.0074 17.0534 37.0168 16.3775V15.6675C36.312 16.3033 35.3967 16.6553 34.4475 16.6557H24.0034V18.9193ZM10.8781 7.43068H28.1226V6.63058C28.1213 5.43248 27.6448 4.28384 26.7976 3.43662C25.9505 2.5894 24.8019 2.11279 23.6038 2.11133H15.3971C14.1989 2.11266 13.0502 2.58922 12.203 3.43646C11.3557 4.28369 10.8791 5.4324 10.8778 6.63058L10.8781 7.43068ZM1.98404 11.285V12.8234C1.99171 13.5003 2.26554 14.147 2.74632 14.6237C3.2271 15.1003 3.87617 15.3685 4.55316 15.3703H14.9975V15.2072C14.998 14.8075 15.1569 14.4244 15.4395 14.1419C15.722 13.8593 16.1051 13.7003 16.5047 13.6999H22.496C22.8957 13.7003 23.2788 13.8593 23.5614 14.1418C23.8439 14.4244 24.0029 14.8075 24.0034 15.2072V15.3703H34.4476C35.1236 15.3681 35.7717 15.1005 36.2523 14.625C36.7328 14.1496 37.0074 13.5044 37.0168 12.8284V11.285C37.016 10.6039 36.7451 9.95083 36.2634 9.46917C35.7818 8.98752 35.1287 8.71659 34.4475 8.71584H4.55325C3.87208 8.71659 3.21903 8.98752 2.73737 9.46917C2.25572 9.95083 1.98479 10.6039 1.98404 11.285ZM5.98289 35.9741L12.0067 26.5312C12.0484 26.4646 12.0622 26.3843 12.0453 26.3076C12.0283 26.2309 11.9819 26.1639 11.9161 26.1211L8.95876 24.2344C8.91174 24.2046 8.85717 24.1889 8.80151 24.1891C8.75134 24.1888 8.7019 24.2011 8.6577 24.2249C8.61351 24.2486 8.57597 24.2831 8.54852 24.3251L2.52463 33.768C2.48332 33.8347 2.46969 33.9149 2.48664 33.9916C2.5036 34.0682 2.54981 34.1351 2.61542 34.1782L5.57265 36.0648C5.63935 36.1062 5.71958 36.1198 5.79622 36.1029C5.87286 36.0859 5.93985 36.0397 5.98289 35.9741ZM8.93398 39.4132C10.1138 37.9995 10.579 37.0124 10.7619 36.4703C10.6948 36.2939 10.586 36.1365 10.4447 36.0114C10.3034 35.8863 10.134 35.7974 9.95081 35.7521C9.78967 35.712 9.62057 35.7173 9.46224 35.7674C9.30392 35.8175 9.16254 35.9104 9.05377 36.0359C8.92691 36.1784 8.7927 36.3212 8.66272 36.4593C8.02932 37.1325 7.4309 37.7684 7.49451 38.5075C7.52857 38.903 7.63937 39.1722 7.82388 39.3075C8.04061 39.4665 8.4223 39.5019 8.93398 39.4132ZM10.3109 41.2006C10.5435 41.4199 10.9168 41.5351 11.4168 41.5474L14.4393 37.2872C14.427 36.7863 14.2314 36.4572 13.8552 36.3089C13.2967 36.0886 12.4863 36.2978 12.0173 36.7656C11.8218 37.3909 11.3022 38.5767 9.93264 40.2225C9.96679 40.6667 10.0932 40.9957 10.3107 41.2006H10.3109ZM14.2199 43.0619C14.3708 42.8791 14.6459 42.5449 15.004 42.11C15.4495 41.5689 16.0569 40.8314 16.8261 39.8977C17.0702 39.2184 17.0648 38.6607 16.8072 38.3593C16.5711 38.083 16.0838 37.9857 15.4513 38.0817L12.4321 42.3375C12.5015 42.63 12.6221 42.8351 12.7993 42.9578C13.0826 43.1537 13.5716 43.189 14.2199 43.0619ZM17.8318 43.3804C18.4399 42.5679 18.6305 41.885 18.5723 41.6596C18.4828 41.3154 18.0604 41.0926 17.623 40.9512C16.9457 41.7732 16.4034 42.4317 15.9962 42.9267C15.6463 43.3517 15.427 43.6177 15.2884 43.7861C15.4956 44.3093 15.8678 44.5205 16.5155 44.5C16.7132 44.4939 17.2683 44.1337 17.8318 43.3805V43.3804ZM31.3466 38.044C31.2554 37.6116 30.8795 37.1834 30.2296 36.7717C29.7889 36.4974 29.152 36.0437 28.4144 35.5183C27.2457 34.6856 25.7911 33.6493 24.512 32.9011C22.6279 31.799 22.1345 31.9197 22.0806 31.9388C20.0745 33.63 17.3416 35.509 15.6967 34.873C15.152 34.6625 14.8068 34.2076 14.7248 33.5919C14.515 32.0197 16.0678 29.6402 18.5487 27.6692C18.1774 27.3866 17.5692 27.4691 16.3207 27.7794C15.2263 28.0512 13.8962 28.3811 12.6075 27.9791L8.08091 35.0756C8.10074 35.098 8.11946 35.1183 8.13709 35.1366C8.3995 34.8541 8.7322 34.6462 9.10122 34.5343C9.47024 34.4224 9.86235 34.4105 10.2375 34.4997C10.802 34.6325 11.3 34.9638 11.6408 35.433C12.4468 34.9258 13.4823 34.7813 14.3265 35.1138C15.0539 35.4005 15.5221 35.9858 15.6727 36.7672C16.5803 36.7154 17.3148 36.975 17.784 37.5246C18.2652 38.0878 18.4048 38.877 18.1959 39.7905C19.0903 40.1199 19.6341 40.6384 19.8158 41.3367C20.0576 42.2666 19.3645 43.4308 18.9932 43.9665C20.1466 44.7258 21.0914 45.0308 21.6847 44.8264C22.0053 44.7163 22.2635 44.4325 22.4558 43.9834L20.2192 42.3935L20.9638 41.346L23.5395 43.1762C24.1477 43.4399 24.6237 43.491 24.9541 43.3268C25.2436 43.183 25.4753 42.8517 25.6458 42.3407L21.5717 39.6824C21.501 39.6363 21.4401 39.5767 21.3924 39.5071C21.3448 39.4374 21.3113 39.3591 21.294 39.2765C21.2766 39.1939 21.2757 39.1087 21.2912 39.0258C21.3068 38.9428 21.3385 38.8638 21.3847 38.7931C21.4308 38.7224 21.4904 38.6615 21.56 38.6139C21.6297 38.5662 21.708 38.5328 21.7906 38.5154C21.8732 38.498 21.9584 38.4971 22.0413 38.5127C22.1243 38.5282 22.2033 38.56 22.274 38.6061L26.6343 41.4512C27.1709 41.5498 27.5676 41.5082 27.8109 41.3238C28.0104 41.1727 28.1438 40.8966 28.211 40.504L22.767 36.8249C22.6268 36.729 22.5303 36.5816 22.4985 36.4148C22.4667 36.248 22.5022 36.0753 22.5972 35.9346C22.6923 35.7939 22.8392 35.6966 23.0059 35.6639C23.1725 35.6311 23.3453 35.6657 23.4865 35.76L29.1486 39.5864C29.94 39.7424 30.559 39.6244 31.0344 39.2257C31.3182 38.7808 31.4204 38.3935 31.3466 38.044ZM36.4763 34.0259L30.4524 24.5832C30.4249 24.5412 30.3874 24.5068 30.3432 24.483C30.299 24.4593 30.2495 24.447 30.1994 24.4473C30.1437 24.447 30.0891 24.4627 30.0421 24.4926L27.0848 26.3791C27.019 26.422 26.9726 26.489 26.9557 26.5657C26.9387 26.6424 26.9526 26.7227 26.9942 26.7893L33.0181 36.2322C33.0611 36.2979 33.1281 36.3441 33.2047 36.361C33.2813 36.378 33.3615 36.3643 33.4282 36.3229L36.3855 34.4363C36.4511 34.3933 36.4974 34.3263 36.5143 34.2496C36.5313 34.173 36.5176 34.0926 36.4763 34.0259Z" fill="#0053E2"/>
</svg>
