<svg width="38" height="38" viewBox="0 0 38 38" fill="none" xmlns="http://www.w3.org/2000/svg">
<g clip-path="url(#clip0_681_2053)">
<path d="M36.744 9.73062H28.4473L28.6848 8.89145C28.8517 8.30504 28.7793 7.67638 28.4834 7.14331C28.1874 6.61024 27.6922 6.21627 27.1063 6.04778L6.57597 0.170449C5.98955 0.00306741 5.36068 0.0751976 4.82739 0.371007C4.29411 0.666817 3.89997 1.16214 3.73151 1.74824L2.35163 6.57266L1.97718 7.88128L0.0874669 14.4814C-0.0788016 15.0677 -0.00616097 15.696 0.289506 16.2289C0.585172 16.7617 1.07981 17.1559 1.66526 17.3251L7.48876 18.9923V25.2227C7.48918 25.5552 7.62143 25.8739 7.85651 26.109C8.09159 26.3441 8.41031 26.4763 8.74276 26.4767H15.2138C15.1024 27.6457 14.6633 28.7595 13.9472 29.6901C11.2436 32.8655 12.443 37.3083 12.4992 37.4959C12.5331 37.6168 12.6056 37.7232 12.7057 37.799C12.8058 37.8748 12.9279 37.9157 13.0534 37.9155C13.1069 37.9164 13.1602 37.9094 13.2117 37.8949C13.2846 37.8743 13.3527 37.8395 13.4121 37.7925C13.4715 37.7455 13.521 37.6872 13.5578 37.621C13.5946 37.5548 13.6179 37.482 13.6264 37.4067C13.635 37.3314 13.6286 37.2552 13.6076 37.1824C13.5965 37.1421 12.5135 33.1449 14.8251 30.4319C16.9745 27.9049 16.5431 23.5935 16.2573 20.7395C16.2113 20.2788 16.1686 19.8544 16.1417 19.4808C16.1255 19.2346 16.1609 18.9877 16.2455 18.756C16.3302 18.5243 16.4622 18.3127 16.6333 18.1349C16.836 17.918 17.0811 17.7451 17.3535 17.627C17.6259 17.5089 17.9197 17.4482 18.2166 17.4486C18.5159 17.4505 18.8117 17.5133 19.086 17.6332C19.3603 17.7531 19.6072 17.9276 19.8118 18.146C19.9794 18.3215 20.1082 18.5303 20.19 18.7587C20.2718 18.9871 20.3048 19.2301 20.2868 19.4721C19.4588 29.5342 22.3309 31.237 22.6618 31.3985C22.7981 31.459 22.9525 31.4643 23.0926 31.4133C23.2326 31.3622 23.3474 31.2588 23.4128 31.1248C23.4781 30.9909 23.4889 30.8367 23.4429 30.6949C23.3969 30.5531 23.2977 30.4347 23.1661 30.3646C23.1495 30.3567 22.0578 29.6331 21.5496 26.4696H28.9192C29.2731 29.8849 27.5425 33.7894 25.5586 37.0043C25.5189 37.0686 25.4923 37.14 25.4802 37.2145C25.4682 37.2891 25.4709 37.3653 25.4883 37.4387C25.5057 37.5122 25.5374 37.5815 25.5815 37.6428C25.6257 37.704 25.6815 37.7559 25.7458 37.7956C25.81 37.8353 25.8815 37.8619 25.956 37.8739C26.0305 37.886 26.1067 37.8832 26.1802 37.8659C26.2537 37.8485 26.323 37.8168 26.3842 37.7726C26.4455 37.7284 26.4974 37.6726 26.5371 37.6084C29.1725 33.3381 30.3371 29.5706 30.0568 26.4696H36.7472C37.0779 26.4684 37.3947 26.3367 37.6289 26.1033C37.8631 25.8698 37.9957 25.5534 37.998 25.2227V10.9838C37.9976 10.6514 37.8653 10.3328 37.6302 10.0979C37.3951 9.8629 37.0764 9.73083 36.744 9.73062ZM36.8485 10.9838V13.7214C36.1491 13.588 35.5071 13.2445 35.0081 12.7366C34.509 12.2288 34.1767 11.5809 34.0555 10.8793H36.7472C36.7743 10.8803 36.7999 10.8918 36.8188 10.9112C36.8377 10.9307 36.8483 10.9567 36.8485 10.9838ZM4.83747 2.06412C4.92182 1.7704 5.11919 1.52213 5.38632 1.37372C5.65345 1.22532 5.96853 1.1889 6.26247 1.27245L26.7928 7.15216C26.9383 7.19374 27.0742 7.26359 27.1928 7.3577C27.3114 7.45182 27.4102 7.56837 27.4837 7.70069C27.5572 7.83302 27.604 7.97853 27.6212 8.12891C27.6385 8.27929 27.626 8.43161 27.5844 8.57716L27.2044 9.90637L4.45747 3.39253L4.83747 2.06412ZM3.61434 6.33516L4.1408 4.49612L26.8854 11.006L25.9845 14.1537L3.24384 7.64457L3.61434 6.33516ZM8.63826 25.2196V22.4701C9.35215 22.5904 10.0108 22.9301 10.5227 23.442C11.0346 23.9539 11.3743 24.6126 11.4946 25.3264H8.74276C8.72907 25.3266 8.7155 25.3239 8.70283 25.3188C8.69015 25.3136 8.67863 25.306 8.66891 25.2964C8.6592 25.2867 8.65149 25.2752 8.64623 25.2626C8.64097 25.25 8.63826 25.2364 8.63826 25.2227V25.2196ZM15.3223 25.3233H12.6647C12.5352 24.3018 12.0697 23.3523 11.3415 22.6242C10.6133 21.8962 9.66377 21.4309 8.64222 21.3016V19.3185L15.1466 21.1813C15.3065 22.5568 15.3653 23.9423 15.3223 25.3264V25.3233ZM18.2127 16.3102C17.7582 16.3102 17.3085 16.4037 16.8916 16.5849C16.4748 16.766 16.0996 17.0309 15.7894 17.3631C15.5105 17.6557 15.2956 18.0032 15.1585 18.3835C15.0213 18.7638 14.965 19.1685 14.993 19.5718C15.0017 19.6922 15.0143 19.8259 15.0254 19.9558L1.98193 16.2191C1.68809 16.135 1.43968 15.9376 1.29124 15.6704C1.14281 15.4032 1.10649 15.0881 1.19026 14.7941L2.92718 8.75212L25.6726 15.2612L23.938 21.3079C23.8965 21.4536 23.8267 21.5896 23.7326 21.7082C23.6385 21.8268 23.522 21.9257 23.3896 21.9992C23.2573 22.0727 23.1117 22.1194 22.9613 22.1367C22.8109 22.1539 22.6586 22.1413 22.513 22.0996L21.3041 21.7545C21.3247 21.0792 21.3635 20.358 21.4276 19.5774C21.459 19.1766 21.406 18.7737 21.2721 18.3946C21.1382 18.0155 20.9263 17.6687 20.6502 17.3765C20.3392 17.0405 19.9622 16.7724 19.5428 16.5889C19.1233 16.4054 18.6705 16.3105 18.2127 16.3102ZM21.3999 25.3296C21.3326 24.6314 21.2931 23.8381 21.2891 22.9451L22.1995 23.2056C22.7858 23.3732 23.4147 23.3011 23.9479 23.0052C24.4811 22.7094 24.8751 22.2139 25.0432 21.6278L26.9321 15.0277L27.2123 14.0468L28.118 10.8801H32.8894C33.0212 11.889 33.4793 12.8272 34.194 13.5514C34.9087 14.2757 35.8406 14.7463 36.8477 14.8915V21.3175C35.8408 21.4623 34.9088 21.9326 34.1941 22.6566C33.4794 23.3806 33.0212 24.3185 32.8894 25.3272L21.3999 25.3296ZM36.744 25.3296H34.0523C34.1732 24.6271 34.5058 23.9783 35.0055 23.47C35.5052 22.9616 36.1482 22.618 36.8485 22.4852V25.2227C36.8485 25.2364 36.8458 25.25 36.8405 25.2626C36.8353 25.2752 36.8276 25.2867 36.8179 25.2964C36.8081 25.306 36.7966 25.3136 36.7839 25.3188C36.7713 25.3239 36.7577 25.3266 36.744 25.3264V25.3296Z" fill="#0053E2"/>
<path d="M11.7159 14.6994L4.47686 12.6276C4.32989 12.5857 4.17225 12.6038 4.03863 12.678C3.90501 12.7522 3.80636 12.8765 3.76436 13.0235C3.72237 13.1705 3.74048 13.3281 3.81472 13.4617C3.88895 13.5953 4.01322 13.694 4.1602 13.736L11.3992 15.8062C11.5462 15.8482 11.7038 15.8301 11.8374 15.7558C11.971 15.6816 12.0697 15.5573 12.1117 15.4104C12.1537 15.2634 12.1356 15.1057 12.0613 14.9721C11.9871 14.8385 11.8628 14.7398 11.7159 14.6979V14.6994Z" fill="#0053E2"/>
<path d="M30.9552 15.8047C30.5003 15.8048 30.0555 15.94 29.6774 16.1929C29.2992 16.4459 29.0045 16.8054 28.8307 17.2259C28.6569 17.6463 28.6117 18.1089 28.7008 18.5551C28.79 19.0013 29.0095 19.411 29.3315 19.7324C29.6536 20.0538 30.0637 20.2724 30.5101 20.3606C30.9564 20.4488 31.4189 20.4027 31.8391 20.228C32.2592 20.0533 32.618 19.7579 32.8702 19.3792C33.1224 19.0005 33.2566 18.5555 33.2558 18.1005C33.2539 17.4914 33.0108 16.9078 32.5796 16.4775C32.1485 16.0472 31.5644 15.8053 30.9552 15.8047ZM30.9552 19.254C30.728 19.2538 30.5058 19.1863 30.3169 19.0599C30.128 18.9336 29.9808 18.754 29.8939 18.544C29.807 18.334 29.7843 18.1029 29.8287 17.88C29.873 17.6571 29.9825 17.4524 30.1432 17.2917C30.3039 17.1309 30.5087 17.0215 30.7316 16.9771C30.9545 16.9327 31.1856 16.9554 31.3956 17.0423C31.6056 17.1292 31.7851 17.2764 31.9115 17.4654C32.0379 17.6543 32.1054 17.8764 32.1055 18.1037C32.1053 18.4087 31.9841 18.7012 31.7684 18.9168C31.5527 19.1325 31.2603 19.2538 30.9552 19.254Z" fill="#0053E2"/>
</g>
<defs>
<clipPath id="clip0_681_2053">
<rect width="38" height="38" fill="white"/>
</clipPath>
</defs>
</svg>
