<svg width="38" height="38" viewBox="0 0 38 38" fill="none" xmlns="http://www.w3.org/2000/svg">
<path d="M33.8438 35.625H4.15625C2.51869 35.625 1.1875 34.2938 1.1875 32.6562C1.1875 32.3285 1.4535 32.0625 1.78125 32.0625H14.8438C15.1715 32.0625 15.4375 32.3285 15.4375 32.6562C15.4375 32.984 15.1715 33.25 14.8438 33.25H2.47712C2.72175 33.9411 3.382 34.4375 4.15625 34.4375H33.8438C34.618 34.4375 35.2782 33.9411 35.5229 33.25H23.1562C22.8285 33.25 22.5625 32.984 22.5625 32.6562C22.5625 32.3285 22.8285 32.0625 23.1562 32.0625H36.2188C36.5465 32.0625 36.8125 32.3285 36.8125 32.6562C36.8125 34.2938 35.4813 35.625 33.8438 35.625Z" fill="#0053E2"/>
<path d="M4.15625 30.875C3.8285 30.875 3.5625 30.609 3.5625 30.2812V11.2812C3.5625 10.2992 4.36169 9.5 5.34375 9.5H11.2812C11.609 9.5 11.875 9.766 11.875 10.0938C11.875 10.4215 11.609 10.6875 11.2812 10.6875H5.34375C5.01719 10.6875 4.75 10.9547 4.75 11.2812V30.2812C4.75 30.609 4.484 30.875 4.15625 30.875Z" fill="#0053E2"/>
<path d="M33.8438 30.875C33.516 30.875 33.25 30.609 33.25 30.2812V26.7188C33.25 26.391 33.516 26.125 33.8438 26.125C34.1715 26.125 34.4375 26.391 34.4375 26.7188V30.2812C34.4375 30.609 34.1715 30.875 33.8438 30.875Z" fill="#0053E2"/>
<path d="M33.8438 17.8125C33.516 17.8125 33.25 17.5465 33.25 17.2188V11.2812C33.25 10.9547 32.9828 10.6875 32.6562 10.6875H31.4688C31.141 10.6875 30.875 10.4215 30.875 10.0938C30.875 9.766 31.141 9.5 31.4688 9.5H32.6562C33.6383 9.5 34.4375 10.2992 34.4375 11.2812V17.2188C34.4375 17.5465 34.1715 17.8125 33.8438 17.8125Z" fill="#0053E2"/>
<path d="M17.2188 30.875H14.8438C14.516 30.875 14.25 30.609 14.25 30.2812V20.7812C14.25 20.4535 14.516 20.1875 14.8438 20.1875H17.2188C17.5465 20.1875 17.8125 20.4535 17.8125 20.7812V30.2812C17.8125 30.609 17.5465 30.875 17.2188 30.875ZM15.4375 29.6875H16.625V21.375H15.4375V29.6875Z" fill="#0053E2"/>
<path d="M12.4688 30.875H10.0938C9.766 30.875 9.5 30.609 9.5 30.2812V18.4062C9.5 18.0785 9.766 17.8125 10.0938 17.8125H12.4688C12.7965 17.8125 13.0625 18.0785 13.0625 18.4062V30.2812C13.0625 30.609 12.7965 30.875 12.4688 30.875ZM10.6875 29.6875H11.875V19H10.6875V29.6875Z" fill="#0053E2"/>
<path d="M26.7188 30.875H24.3438C24.016 30.875 23.75 30.609 23.75 30.2812V25.5312C23.75 25.2035 24.016 24.9375 24.3438 24.9375H26.7188C27.0465 24.9375 27.3125 25.2035 27.3125 25.5312V30.2812C27.3125 30.609 27.0465 30.875 26.7188 30.875ZM24.9375 29.6875H26.125V26.125H24.9375V29.6875Z" fill="#0053E2"/>
<path d="M21.9688 30.875H19.5938C19.266 30.875 19 30.609 19 30.2812V23.1562C19 22.8285 19.266 22.5625 19.5938 22.5625H21.9688C22.2965 22.5625 22.5625 22.8285 22.5625 23.1562V30.2812C22.5625 30.609 22.2965 30.875 21.9688 30.875ZM20.1875 29.6875H21.375V23.75H20.1875V29.6875Z" fill="#0053E2"/>
<path d="M26.7344 16.043L26.1406 16.29L27.8197 17.9691C28.0513 18.2007 28.4278 18.2007 28.6593 17.9691C28.8909 17.7375 28.8909 17.3611 28.6593 17.1295L26.9802 15.4492L26.7344 16.043Z" fill="#0053E2"/>
<path d="M21.375 19C16.7924 19 13.0625 15.2701 13.0625 10.6875C13.0625 6.10494 16.7924 2.375 21.375 2.375C25.9576 2.375 29.6875 6.10494 29.6875 10.6875C29.6875 15.2701 25.9576 19 21.375 19ZM21.375 3.5625C17.4456 3.5625 14.25 6.75806 14.25 10.6875C14.25 14.6169 17.4456 17.8125 21.375 17.8125C25.3044 17.8125 28.5 14.6169 28.5 10.6875C28.5 6.75806 25.3044 3.5625 21.375 3.5625Z" fill="#0053E2"/>
<path d="M26.7188 11.2812C27.0467 11.2812 27.3125 11.0154 27.3125 10.6875C27.3125 10.3596 27.0467 10.0938 26.7188 10.0938C26.3908 10.0938 26.125 10.3596 26.125 10.6875C26.125 11.0154 26.3908 11.2812 26.7188 11.2812Z" fill="#0053E2"/>
<path d="M21.375 16.6237C21.0473 16.6237 20.7812 16.3577 20.7812 16.03C20.7812 15.7022 21.0473 15.4362 21.375 15.4362C23.313 15.4362 25.0408 14.276 25.7747 12.4817C25.8982 12.1777 26.2461 12.034 26.5489 12.1575C26.8529 12.281 26.9978 12.6278 26.8731 12.9318C25.9552 15.1738 23.7975 16.6237 21.375 16.6237Z" fill="#0053E2"/>
<path d="M29.6875 17.8125C29.9915 17.8125 30.2955 17.9289 30.5271 18.1604L34.0896 21.7229C34.5539 22.1872 34.5539 22.9378 34.0896 23.4021C33.858 23.6336 33.554 23.75 33.25 23.75C32.946 23.75 32.642 23.6336 32.4104 23.4021L28.8479 19.8396C28.3836 19.3753 28.3836 18.6248 28.8479 18.1604C29.0795 17.9289 29.3835 17.8125 29.6875 17.8125ZM29.6875 16.625C29.0534 16.625 28.4573 16.872 28.0084 17.3209C27.5595 17.7698 27.3125 18.3659 27.3125 19C27.3125 19.6341 27.5595 20.2302 28.0084 20.6791L31.5709 24.2416C32.0198 24.6905 32.6159 24.9375 33.25 24.9375C33.8841 24.9375 34.4802 24.6905 34.9291 24.2416C35.378 23.7927 35.625 23.1966 35.625 22.5625C35.625 21.9284 35.378 21.3323 34.9291 20.8834L31.3666 17.3209C30.9177 16.872 30.3216 16.625 29.6875 16.625Z" fill="#0053E2"/>
</svg>
