<svg width="28" height="26" viewBox="0 0 28 26" fill="none" xmlns="http://www.w3.org/2000/svg">
<path d="M0.819094 20.3831H22.2576C22.4498 20.3831 22.6357 20.3158 22.7831 20.1932C22.989 20.0208 27.6861 15.98 27.9725 7.25751H4.94808C4.66276 15.1752 0.336892 18.8967 0.291937 18.9339C0.0283864 19.1566 -0.0685789 19.5203 0.0499889 19.844C0.167736 20.1668 0.474602 20.3831 0.819094 20.3831Z" fill="#0053E2"/>
<path d="M27.1807 2.3354H23.0789V1.51505C23.0789 1.05566 22.718 0.694702 22.2586 0.694702C21.7992 0.694702 21.4382 1.05566 21.4382 1.51505V2.3354H17.2818V1.51505C17.2818 1.05566 16.9208 0.694702 16.4615 0.694702C16.0021 0.694702 15.6411 1.05566 15.6411 1.51505V2.3354H11.5394V1.51505C11.5394 1.05566 11.1784 0.694702 10.719 0.694702C10.2596 0.694702 9.89866 1.05566 9.89866 1.51505V2.3354H5.79691C5.33752 2.3354 4.97656 2.69635 4.97656 3.15575V5.6168H28.001V3.15575C28.001 2.69635 27.6401 2.3354 27.1807 2.3354Z" fill="#0053E2"/>
<path d="M23.8376 21.451C23.3921 21.8219 22.833 22.0239 22.2586 22.0239H4.97656V24.4849C4.97656 24.9383 5.34348 25.3053 5.79691 25.3053H27.1807C27.6341 25.3053 28.001 24.9383 28.001 24.4849V15.289C26.4194 19.1693 24.2123 21.1374 23.8376 21.451Z" fill="#0053E2"/>
</svg>
