<svg width="39" height="35" viewBox="0 0 39 35" fill="none" xmlns="http://www.w3.org/2000/svg">
<path d="M1.14267 29.707H6.85555V33.1347C6.85555 33.7657 7.36712 34.2773 7.99812 34.2773H37.8574C38.4884 34.2773 39 33.7657 39 33.1347V3.42773C39 2.79672 38.4884 2.28515 37.8574 2.28515H32.1446V1.14258C32.1446 0.511569 31.633 0 31.002 0C30.371 0 29.8594 0.511569 29.8594 1.14258V2.28515H24.0704V1.14258C24.0704 0.511569 23.5588 0 22.9278 0C22.2968 0 21.7852 0.511569 21.7852 1.14258V2.28515H16.0723V1.14258C16.0723 0.511569 15.5608 0 14.9297 0C14.2987 0 13.7872 0.511569 13.7872 1.14258V2.28515H7.99812C7.36712 2.28515 6.85555 2.79672 6.85555 3.42773V10.2832C6.85555 18.704 3.35584 25.1821 0.411194 27.6867C0.0416089 27.9946 -0.095424 28.501 0.068269 28.9534C0.232114 29.4057 0.66157 29.707 1.14267 29.707ZM36.7149 31.9921H9.1407V29.707H31.002C31.2693 29.707 31.5281 29.6133 31.7335 29.4421C33.107 28.2981 35.2345 25.5743 36.7149 22.0858V31.9921ZM9.1407 4.5703H13.7872V5.71288C13.7872 6.34388 14.2987 6.85545 14.9297 6.85545C15.5608 6.85545 16.0723 6.34388 16.0723 5.71288V4.5703H21.7852V5.71288C21.7852 6.34388 22.2968 6.85545 22.9278 6.85545C23.5588 6.85545 24.0704 6.34388 24.0704 5.71288V4.5703H29.8594V5.71288C29.8594 6.34388 30.371 6.85545 31.002 6.85545C31.633 6.85545 32.1446 6.34388 32.1446 5.71288V4.5703H36.7149V9.1406H9.1407V4.5703ZM9.12112 11.425H36.6946C36.4371 18.6731 33.6553 24.3759 30.5539 27.4218H3.74157C7.2556 22.9444 8.9326 17.1144 9.12112 11.425Z" fill="#0053E2"/>
</svg>
