<svg width="512" height="512" viewBox="0 0 512 512" fill="none" xmlns="http://www.w3.org/2000/svg">
<path d="M188.5 124.583L314.166 113.75L415.458 157.083L506.999 260L415.458 351.541L314.166 393.791H212.875L119.167 364.541L17.875 273L29.25 221.542L87.2082 168.458L188.5 124.583Z" fill="white"/>
<path d="M510.565 250.66C485.185 206.791 448.692 169.997 405.03 144.258C360.04 117.737 308.506 103.719 255.999 103.719C203.492 103.719 151.957 117.737 106.967 144.258C63.3045 169.998 26.8114 206.791 1.43325 250.66C-0.477749 253.965 -0.477749 258.038 1.43325 261.344C26.8114 305.213 63.3045 342.007 106.967 367.745C151.958 394.267 203.492 408.286 255.999 408.286C308.506 408.286 360.04 394.267 405.03 367.745C448.692 342.006 485.185 305.213 510.565 261.344C512.476 258.037 512.476 253.965 510.565 250.66ZM394.195 349.368C352.485 373.955 304.698 386.952 255.998 386.952C207.298 386.952 159.51 373.955 117.8 349.368C79.08 326.542 46.437 294.345 23.0706 256.001C46.437 217.657 79.08 185.46 117.8 162.635C159.51 138.047 207.298 125.051 255.998 125.051C304.698 125.051 352.485 138.047 394.195 162.635C432.915 185.46 465.558 217.656 488.925 256.001C465.558 294.345 432.916 326.542 394.195 349.368Z" fill="#0053E2"/>
<path d="M255.996 160.148C203.145 160.148 160.148 203.145 160.148 255.996C160.148 308.848 203.145 351.845 255.996 351.845C308.848 351.845 351.845 308.848 351.845 255.996C351.845 203.146 308.847 160.148 255.996 160.148ZM255.996 330.512C214.909 330.512 181.481 297.085 181.481 255.996C181.481 214.909 214.909 181.481 255.996 181.481C297.085 181.481 330.512 214.909 330.512 255.996C330.512 297.085 297.085 330.512 255.996 330.512Z" fill="#0053E2"/>
</svg>
