<svg width="64" height="64" viewBox="0 0 64 64" fill="none" xmlns="http://www.w3.org/2000/svg">
<path d="M58.9996 52.4111H56.4425V18.7109C56.4425 18.5796 56.4167 18.4496 56.3664 18.3282C56.3162 18.2069 56.2425 18.0966 56.1497 18.0038C56.0568 17.9109 55.9465 17.8372 55.8252 17.787C55.7039 17.7367 55.5738 17.7109 55.4425 17.7109H48.774C48.6427 17.7109 48.5126 17.7367 48.3913 17.787C48.2699 17.8372 48.1597 17.9109 48.0668 18.0038C47.974 18.0966 47.9003 18.2069 47.8501 18.3282C47.7998 18.4496 47.774 18.5796 47.774 18.7109V52.4111H43.0367V27.0322C43.0367 26.9009 43.0109 26.7708 42.9607 26.6495C42.9104 26.5282 42.8368 26.4179 42.7439 26.325C42.651 26.2322 42.5408 26.1585 42.4194 26.1083C42.2981 26.058 42.168 26.0322 42.0367 26.0322H35.3682C35.2369 26.0322 35.1069 26.058 34.9855 26.1083C34.8642 26.1585 34.7539 26.2322 34.6611 26.325C34.5682 26.4179 34.4945 26.5282 34.4443 26.6495C34.3941 26.7708 34.3682 26.9009 34.3682 27.0322V52.4111H29.6309V33.2842C29.631 33.1528 29.6051 33.0228 29.5549 32.9015C29.5047 32.7801 29.431 32.6699 29.3381 32.577C29.2453 32.4841 29.135 32.4105 29.0137 32.3602C28.8923 32.31 28.7623 32.2841 28.6309 32.2842H21.9625C21.8312 32.2841 21.7011 32.31 21.5798 32.3602C21.4584 32.4105 21.3482 32.4841 21.2553 32.577C21.1624 32.6699 21.0888 32.7801 21.0385 32.9015C20.9883 33.0228 20.9625 33.1528 20.9625 33.2842V52.4112H16.2252V40.0117C16.2252 39.8804 16.1994 39.7503 16.1491 39.629C16.0989 39.5077 16.0252 39.3974 15.9324 39.3045C15.8395 39.2117 15.7293 39.138 15.6079 39.0878C15.4866 39.0375 15.3565 39.0117 15.2252 39.0117H8.55673C8.4254 39.0117 8.29535 39.0375 8.174 39.0878C8.05266 39.138 7.94241 39.2117 7.84954 39.3045C7.75668 39.3974 7.68302 39.5077 7.63278 39.629C7.58254 39.7503 7.55669 39.8804 7.55673 40.0117V52.4111H4.9996C4.73718 52.4154 4.48694 52.5226 4.30286 52.7097C4.11878 52.8968 4.01562 53.1487 4.01563 53.4112C4.01563 53.6736 4.11881 53.9256 4.3029 54.1126C4.48699 54.2997 4.73724 54.4069 4.99966 54.4111C7.17622 54.4088 58.9996 54.4111 58.9996 54.4111C59.2622 54.4072 59.5128 54.3002 59.6972 54.1131C59.8815 53.9259 59.9849 53.6738 59.9849 53.4111C59.9849 53.1485 59.8815 52.8963 59.6972 52.7092C59.5128 52.5221 59.2622 52.415 58.9996 52.4111ZM9.55673 52.4111V41.0117H14.2252V52.4111H9.55673ZM22.9625 52.4111V34.2842H27.6309V52.4112L22.9625 52.4111ZM36.3682 52.4111V28.0322H41.0367V52.4111H36.3682ZM49.774 52.4111V19.7109H54.4425V52.4111H49.774Z" fill="#001E60"/>
<path d="M16.8151 28.4453C28.7394 27.4625 36.8065 19.316 40.5109 14.548L40.2453 16.5791C40.2165 16.8394 40.2908 17.1006 40.4524 17.3067C40.6141 17.5128 40.85 17.6473 41.1097 17.6813C41.3694 17.7153 41.632 17.6461 41.8413 17.4886C42.0505 17.331 42.1896 17.0978 42.2287 16.8388L43.0285 10.7207C43.0555 10.4829 42.9963 10.2434 42.8615 10.0457C42.7267 9.84797 42.5254 9.70524 42.2942 9.64349C42.184 9.61836 42.072 9.60173 41.9592 9.59375L35.8079 10.0732C35.6767 10.0832 35.5488 10.1189 35.4315 10.1783C35.3142 10.2377 35.2098 10.3197 35.1242 10.4195C35.0386 10.5194 34.9735 10.6351 34.9327 10.7601C34.8919 10.8852 34.8762 11.017 34.8864 11.1481C34.8966 11.2792 34.9325 11.407 34.9922 11.5242C35.0519 11.6414 35.1341 11.7457 35.2341 11.8311C35.3341 11.9165 35.45 11.9813 35.5751 12.0218C35.7002 12.0624 35.832 12.0779 35.9631 12.0674L40.0741 11.7468C37.2817 15.6793 29.2096 25.3536 16.7288 26.4492C16.476 26.4767 16.2432 26.5993 16.0776 26.7922C15.9119 26.9851 15.8259 27.2337 15.8369 27.4877C15.8479 27.7417 15.9551 27.982 16.1368 28.1599C16.3184 28.3377 16.561 28.4397 16.8151 28.4453Z" fill="#001E60"/>
</svg>
