<svg width="512" height="512" viewBox="0 0 512 512" fill="none" xmlns="http://www.w3.org/2000/svg">
<g clip-path="url(#clip0_762_1830)">
<rect x="71" width="370" height="512" fill="white"/>
<path d="M135.023 128.566V110.069C138.358 110.056 142.021 110.044 144.134 110.044C157.756 110.044 168.839 99.1135 168.839 85.6785C168.839 72.2435 157.756 61.3125 144.134 61.3125H127.523C123.442 61.3125 120.023 64.7305 120.023 68.8125V128.566C120.023 132.708 123.38 136.066 127.523 136.066C131.666 136.066 135.023 132.708 135.023 128.566ZM144.135 76.3115C149.396 76.3115 153.84 80.6005 153.84 85.6775C153.84 90.7545 149.396 95.0435 144.135 95.0435C142.035 95.0435 138.411 95.0555 135.09 95.0675C135.07 91.6285 135.052 87.8405 135.052 85.6765C135.052 83.8365 135.045 79.9125 135.038 76.3105H144.135V76.3115Z" fill="#0053E2"/>
<path d="M229.298 84.3465C229.298 71.6455 218.571 61.3125 205.386 61.3125H189.512C189.507 61.3125 189.502 61.3135 189.498 61.3135C189.494 61.3135 189.489 61.3125 189.484 61.3125C185.341 61.3125 181.984 64.6705 181.984 68.8125V128.566C181.984 132.708 185.341 136.066 189.484 136.066C193.627 136.066 196.984 132.708 196.984 128.566V111.738L216.17 133.523C217.653 135.206 219.722 136.066 221.802 136.066C223.563 136.066 225.331 135.45 226.756 134.195C229.864 131.457 230.165 126.718 227.428 123.61L212.274 106.402C222.11 103.547 229.298 94.7415 229.298 84.3465ZM205.386 92.3795C203.448 92.3795 200.154 92.3905 197.074 92.4025C197.055 89.4005 197.034 79.4535 197.028 76.3115H205.385C210.216 76.3115 214.297 79.9905 214.297 84.3455C214.298 88.7005 210.217 92.3795 205.386 92.3795Z" fill="#0053E2"/>
<path d="M260.539 128.567V68.8125C260.539 64.6705 257.182 61.3125 253.039 61.3125C248.896 61.3125 245.539 64.6705 245.539 68.8125V128.566C245.539 132.708 248.896 136.066 253.039 136.066C257.182 136.066 260.539 132.709 260.539 128.567Z" fill="#0053E2"/>
<path d="M313.384 76.3125C317.879 76.3125 322.196 77.6295 325.869 80.1215C329.297 82.4465 333.962 81.5535 336.286 78.1255C338.612 74.6975 337.719 70.0335 334.291 67.7085C328.124 63.5235 320.895 61.3125 313.384 61.3125C292.775 61.3125 276.008 78.0805 276.008 98.6895C276.008 119.299 292.775 136.066 313.384 136.066C321.623 136.066 329.015 133.361 334.793 128.21C335.922 127.191 336.95 126.127 337.938 124.957C340.61 121.791 340.209 117.06 337.043 114.388C333.879 111.717 329.146 112.116 326.475 115.282C325.921 115.938 325.371 116.508 324.778 117.043C321.783 119.712 317.95 121.067 313.384 121.067C301.046 121.067 291.008 111.029 291.008 98.6895C291.008 86.3505 301.046 76.3125 313.384 76.3125Z" fill="#0053E2"/>
<path d="M384.475 76.8516C388.618 76.8516 391.975 73.4936 391.975 69.3516C391.975 65.2096 388.618 61.8516 384.475 61.8516H359.531C355.388 61.8516 352.031 65.2096 352.031 69.3516V128.568C352.031 132.71 355.388 136.068 359.531 136.068H384.475C388.618 136.068 391.975 132.71 391.975 128.568C391.975 124.426 388.618 121.068 384.475 121.068H367.031V106.446H382.633C386.776 106.446 390.133 103.088 390.133 98.9456C390.133 94.8036 386.776 91.4456 382.633 91.4456H367.031V76.8516H384.475Z" fill="#0053E2"/>
<path d="M111.656 170.234C111.656 174.376 115.013 177.734 119.156 177.734H392.834C396.977 177.734 400.334 174.376 400.334 170.234C400.334 166.092 396.977 162.734 392.834 162.734H119.156C115.014 162.734 111.656 166.092 111.656 170.234Z" fill="#0053E2"/>
<path d="M211.023 258.641H301.928C306.071 258.641 309.428 255.283 309.428 251.141C309.428 246.999 306.071 243.641 301.928 243.641H211.023C206.88 243.641 203.523 246.999 203.523 251.141C203.523 255.283 206.881 258.641 211.023 258.641Z" fill="#0053E2"/>
<path d="M392.833 206.758H211.023C206.88 206.758 203.523 210.116 203.523 214.258C203.523 218.4 206.88 221.758 211.023 221.758H392.833C396.976 221.758 400.333 218.4 400.333 214.258C400.333 210.116 396.975 206.758 392.833 206.758Z" fill="#0053E2"/>
<path d="M211.023 353.602H301.928C306.071 353.602 309.428 350.244 309.428 346.102C309.428 341.96 306.071 338.602 301.928 338.602H211.023C206.88 338.602 203.523 341.96 203.523 346.102C203.523 350.244 206.881 353.602 211.023 353.602Z" fill="#0053E2"/>
<path d="M392.833 301.75H211.023C206.88 301.75 203.523 305.108 203.523 309.25C203.523 313.392 206.88 316.75 211.023 316.75H392.833C396.976 316.75 400.333 313.392 400.333 309.25C400.333 305.108 396.975 301.75 392.833 301.75Z" fill="#0053E2"/>
<path d="M211.023 433.586C206.88 433.586 203.523 436.944 203.523 441.086C203.523 445.228 206.88 448.586 211.023 448.586H301.928C306.071 448.586 309.428 445.228 309.428 441.086C309.428 436.944 306.071 433.586 301.928 433.586H211.023Z" fill="#0053E2"/>
<path d="M400.333 404.234C400.333 400.092 396.976 396.734 392.833 396.734H211.023C206.88 396.734 203.523 400.092 203.523 404.234C203.523 408.376 206.88 411.734 211.023 411.734H392.833C396.975 411.734 400.333 408.376 400.333 404.234Z" fill="#0053E2"/>
<path d="M111.656 251.849C111.656 258.516 117.081 263.941 123.748 263.941H162.043C168.71 263.941 174.135 258.516 174.135 251.849V213.553C174.135 206.886 168.71 201.461 162.043 201.461H123.748C117.081 201.461 111.656 206.886 111.656 213.553V251.849ZM126.656 216.461H159.135V248.941H126.656V216.461Z" fill="#0053E2"/>
<path d="M111.656 346.833C111.656 353.5 117.081 358.925 123.748 358.925H162.043C168.71 358.925 174.135 353.5 174.135 346.833V308.537C174.135 301.87 168.71 296.445 162.043 296.445H123.748C117.081 296.445 111.656 301.87 111.656 308.537V346.833ZM126.656 311.445H159.135V343.925H126.656V311.445Z" fill="#0053E2"/>
<path d="M111.656 441.794C111.656 448.477 117.081 453.915 123.748 453.915H162.043C168.71 453.915 174.135 448.477 174.135 441.794V403.527C174.135 396.844 168.71 391.406 162.043 391.406H123.748C117.081 391.406 111.656 396.844 111.656 403.527V441.794ZM126.656 406.406H159.135V438.915H126.656V406.406Z" fill="#0053E2"/>
<path d="M446.496 265.211C442.353 265.211 438.996 268.569 438.996 272.711V492.51C438.996 494.944 436.927 497.001 434.477 497.001H77.49C75.014 497.001 73 494.986 73 492.51V272.711C73 268.569 69.643 265.211 65.5 265.211C61.357 265.211 58 268.569 58 272.711V492.51C58 503.257 66.743 512.001 77.49 512.001H434.477C445.24 512.001 453.996 503.257 453.996 492.51V272.711C453.996 268.569 450.639 265.211 446.496 265.211Z" fill="#0053E2"/>
<path d="M434.477 0H77.49C66.743 0 58 8.744 58 19.491V238.099C58 242.241 61.357 245.599 65.5 245.599C69.643 245.599 73 242.241 73 238.099V19.491C73 17.015 75.015 15 77.49 15H434.477C436.926 15 438.996 17.057 438.996 19.491V238.099C438.996 242.241 442.353 245.599 446.496 245.599C450.639 245.599 453.996 242.241 453.996 238.099V19.491C453.996 8.744 445.24 0 434.477 0Z" fill="#0053E2"/>
</g>
<defs>
<clipPath id="clip0_762_1830">
<rect width="512" height="512" fill="white"/>
</clipPath>
</defs>
</svg>
