<svg width="512" height="512" viewBox="0 0 512 512" fill="none" xmlns="http://www.w3.org/2000/svg">
<g clip-path="url(#clip0_683_2126)">
<path d="M16 39.1603C16 17.7258 33.7178 0.533005 55.1426 1.17753L461.143 13.3912C481.675 14.0089 498 30.8321 498 51.374V380C498 400.987 480.987 418 460 418H54C33.0132 418 16 400.987 16 380V39.1603Z" fill="white"/>
<rect width="264" height="30" rx="15" transform="matrix(1 0 0 -1 125 500)" fill="white"/>
<rect width="130" height="48" rx="24" transform="matrix(1 0 0 -1 192 470)" fill="white"/>
<path d="M452.267 0H59.7333C26.8032 0 0 26.8032 0 59.7333V366.933C0 399.863 26.8032 426.667 59.7333 426.667H187.733V460.8H145.067C130.953 460.8 119.467 472.286 119.467 486.4C119.467 500.514 130.953 512 145.067 512H366.933C381.047 512 392.533 500.514 392.533 486.4C392.533 472.286 381.047 460.8 366.933 460.8H324.267V426.667H452.267C485.197 426.667 512 399.863 512 366.933V59.7333C512 26.8032 485.197 0 452.267 0ZM375.467 486.4C375.467 491.11 371.644 494.933 366.933 494.933H145.067C140.356 494.933 136.533 491.11 136.533 486.4C136.533 481.69 140.356 477.867 145.067 477.867H366.933C371.644 477.867 375.467 481.69 375.467 486.4ZM307.2 460.8H204.8V426.667H307.2V460.8ZM452.267 409.6H59.7333C36.2069 409.6 17.0667 390.46 17.0667 366.933V358.4H494.933V366.933C494.933 390.46 475.793 409.6 452.267 409.6ZM494.933 341.333H17.0667V59.7333C17.0667 36.2069 36.2069 17.0667 59.7333 17.0667H452.267C475.793 17.0667 494.933 36.2069 494.933 59.7333V341.333Z" fill="#0053E2"/>
<path d="M255.997 76.7969C157.189 76.7969 76.7969 157.189 76.7969 255.997C76.7969 256.867 76.9419 257.704 77.1979 258.506C78.4182 266.732 85.535 273.064 94.0854 273.064H162.139C171.551 273.064 179.205 265.418 179.205 256.022C179.205 235.517 187.193 216.223 201.699 201.708C216.214 187.193 235.5 179.197 256.005 179.197C279.412 179.197 301.488 190.102 315.986 208.176C297.008 213.458 278.764 218.715 264.735 223.135C261.928 222.384 259.035 221.864 255.997 221.864C237.172 221.864 221.864 237.172 221.864 255.997C221.864 274.821 237.172 290.13 255.997 290.13C268.328 290.13 279.045 283.5 285.044 273.687C298.169 267.21 314.988 258.395 332.379 249.076C332.592 251.372 332.788 253.676 332.788 255.971C332.788 265.392 340.443 273.072 349.855 273.072H417.908C426.408 273.072 433.49 266.809 434.77 258.659C435.043 257.823 435.197 256.936 435.197 256.005C435.197 157.198 354.804 76.8054 255.997 76.8054V76.7969ZM147.726 135.66C174.478 111.562 209.2 96.3041 247.464 94.2902V162.54C228.443 164.246 210.617 171.628 195.956 183.882L147.726 135.66ZM162.13 255.997H94.0769C94.0769 255.4 94.0001 254.794 93.8721 254.222C94.3158 213.288 110.137 176.057 135.651 147.717L183.89 195.956C169.81 212.801 162.122 233.81 162.13 255.997ZM264.53 162.702V94.2902C302.794 96.2955 337.516 111.562 364.268 135.651L315.884 184.035C301.386 172.003 283.534 164.468 264.53 162.702ZM362.971 213.057C339.461 225.934 311.592 241.021 289.746 252.217C289.038 245.919 286.683 240.168 283.013 235.38C302.051 229.706 328.436 222.341 362.971 213.057ZM255.997 273.064C246.585 273.064 238.93 265.409 238.93 255.997C238.93 246.585 246.585 238.93 255.997 238.93C265.409 238.93 273.064 246.585 273.064 255.997C273.064 265.409 265.409 273.064 255.997 273.064ZM417.917 255.997L349.864 255.963C349.864 250.783 349.266 245.595 348.396 240.432C360.931 233.64 373.194 226.924 383.835 221.07C390.704 217.315 393.563 209.277 390.619 201.955C387.683 194.634 380.097 190.785 372.528 192.833C360.769 195.965 347.252 199.6 333.454 203.363C331.73 200.837 329.93 198.397 327.984 196.067L376.334 147.717C401.84 176.031 417.661 213.245 418.113 254.154C417.977 254.751 417.917 255.365 417.917 255.997Z" fill="#0053E2"/>
<path d="M264.53 375.469H247.463C242.744 375.469 238.93 379.283 238.93 384.002C238.93 388.721 242.744 392.535 247.463 392.535H264.53C269.249 392.535 273.063 388.721 273.063 384.002C273.063 379.283 269.249 375.469 264.53 375.469Z" fill="#0053E2"/>
</g>
<defs>
<clipPath id="clip0_683_2126">
<rect width="512" height="512" fill="white"/>
</clipPath>
</defs>
</svg>
