<svg width="512" height="512" viewBox="0 0 512 512" fill="none" xmlns="http://www.w3.org/2000/svg">
<rect x="215" y="439" width="89" height="51" fill="white"/>
<path d="M125.5 132L259.5 72L373 132L435 429L57 437L116 287L125.5 132Z" fill="#0053E2"/>
<path d="M411.001 262.862V215C411.001 145.178 364.59 85.999 301.001 66.67V45C301.001 20.187 280.814 0 256.001 0C231.188 0 211.001 20.187 211.001 45V66.67C147.411 85.999 101.001 145.177 101.001 215V262.862C101.001 324.194 77.6232 382.35 35.1742 426.618C31.0142 430.956 29.8452 437.357 32.2032 442.885C34.5612 448.413 39.9912 452 46.0012 452H182.51C189.478 486.192 219.782 512 256.001 512C292.221 512 322.523 486.192 329.492 452H466.001C472.011 452 477.44 448.413 479.798 442.885C482.156 437.357 480.987 430.956 476.828 426.618C434.379 382.35 411.001 324.193 411.001 262.862ZM241.001 45C241.001 36.729 247.73 30 256.001 30C264.272 30 271.001 36.729 271.001 45V60.728C266.064 60.252 261.061 60 256.001 60C250.941 60 245.938 60.252 241.001 60.728V45ZM256.001 482C236.446 482 219.773 469.459 213.581 452H298.421C292.229 469.459 275.556 482 256.001 482ZM78.3312 422C112.492 376.208 131.001 320.792 131.001 262.862V215C131.001 146.075 187.076 90 256.001 90C324.926 90 381.001 146.075 381.001 215V262.862C381.001 320.792 399.51 376.208 433.672 422H78.3312Z" fill="white"/>
<path d="M451 215.001C451 223.285 457.716 230.001 466 230.001C474.284 230.001 481 223.285 481 215.001C481 154.901 457.596 98.3979 415.099 55.9009C409.242 50.0439 399.744 50.0429 393.886 55.9009C388.028 61.7589 388.028 71.2559 393.886 77.1139C430.717 113.945 451 162.914 451 215.001Z" fill="white"/>
<path d="M46 230C54.284 230 61 223.284 61 215C61 162.914 81.284 113.945 118.114 77.1143C123.972 71.2563 123.972 61.7593 118.114 55.9013C112.257 50.0433 102.759 50.0433 96.901 55.9013C54.404 98.3983 31 154.9 31 215C31 223.284 37.716 230 46 230Z" fill="white"/>
</svg>
