<svg width="64" height="64" viewBox="0 0 64 64" fill="none" xmlns="http://www.w3.org/2000/svg">
<path d="M35.9974 11.1467C35.2614 11.1467 34.6641 10.5493 34.6641 9.81333V5.33333C34.6641 3.864 33.4667 2.66667 31.9974 2.66667C30.5281 2.66667 29.3307 3.864 29.3307 5.33333V9.81333C29.3307 10.5493 28.7334 11.1467 27.9974 11.1467C27.2614 11.1467 26.6641 10.552 26.6641 9.81333V5.33333C26.6641 2.392 29.0561 0 31.9974 0C34.9387 0 37.3307 2.392 37.3307 5.33333V9.81333C37.3307 10.552 36.7334 11.1467 35.9974 11.1467Z" fill="white"/>
<path d="M31.9974 63.9987C26.8507 63.9987 22.6641 59.812 22.6641 54.6654C22.6641 53.9294 23.2614 53.332 23.9974 53.332C24.7334 53.332 25.3307 53.9294 25.3307 54.6654C25.3307 58.34 28.3227 61.332 31.9974 61.332C35.6721 61.332 38.6641 58.34 38.6641 54.6654C38.6641 53.9294 39.2614 53.332 39.9974 53.332C40.7334 53.332 41.3307 53.9294 41.3307 54.6654C41.3307 59.812 37.1441 63.9987 31.9974 63.9987Z" fill="white"/>
<path d="M54.6693 56H9.33594C7.1306 56 5.33594 54.2053 5.33594 52C5.33594 50.8293 5.84527 49.7227 6.73594 48.96C10.9386 45.408 13.3359 40.24 13.3359 34.768V26.6667C13.3359 16.3733 21.7093 8 32.0026 8C42.2959 8 50.6693 16.3733 50.6693 26.6667V34.768C50.6693 40.2427 53.0666 45.408 57.2479 48.9413C58.1599 49.7227 58.6693 50.8293 58.6693 52C58.6693 54.2053 56.8773 56 54.6693 56ZM32.0026 10.6667C23.1786 10.6667 16.0026 17.8427 16.0026 26.6667V34.768C16.0026 41.0293 13.2613 46.936 8.47994 50.9787C8.17327 51.24 8.0026 51.6107 8.0026 52C8.0026 52.736 8.59994 53.3333 9.33594 53.3333H54.6693C55.4053 53.3333 56.0026 52.736 56.0026 52C56.0026 51.6107 55.8319 51.24 55.5359 50.9867C50.7466 46.936 48.0026 41.0267 48.0026 34.768V26.6667C48.0026 17.8427 40.8266 10.6667 32.0026 10.6667Z" fill="white"/>
</svg>
