<svg width="512" height="512" viewBox="0 0 512 512" fill="none" xmlns="http://www.w3.org/2000/svg">
<ellipse cx="258.5" cy="197" rx="162.5" ry="162" fill="white"/>
<path d="M111.339 288L218 368.931L154.77 483L119.642 427.559L43 412.265L111.339 288Z" fill="white"/>
<path d="M297.122 364.484L407.038 296.86L481.07 411.032L408.74 411.032L370.954 481.601L297.122 364.484Z" fill="white"/>
<path fill-rule="evenodd" clip-rule="evenodd" d="M242.031 106.025C249.573 93.075 268.282 93.075 275.825 106.025L294.32 137.78C297.083 142.524 301.713 145.887 307.078 147.049L342.994 154.826C357.641 157.998 363.423 175.791 353.437 186.966L328.952 214.369C325.294 218.463 323.526 223.906 324.079 229.368L327.781 265.929C329.29 280.84 314.155 291.836 300.441 285.793L266.813 270.974C261.789 268.76 256.066 268.76 251.043 270.974L217.414 285.793C203.701 291.836 188.565 280.84 190.075 265.929L193.777 229.368C194.33 223.906 192.561 218.463 188.904 214.369L164.418 186.966C154.433 175.791 160.214 157.998 174.861 154.826L210.777 147.049C216.143 145.887 220.773 142.524 223.535 137.78L242.031 106.025ZM258.928 115.866L277.423 147.621C282.949 157.109 292.209 163.836 302.94 166.16L338.856 173.938L314.371 201.34C307.055 209.528 303.518 220.413 304.624 231.338L308.326 267.899L274.698 253.08C264.651 248.653 253.205 248.653 243.158 253.08L209.53 267.899L213.231 231.338C214.337 220.413 210.8 209.528 203.485 201.34L178.999 173.938L214.915 166.16C225.647 163.836 234.906 157.109 240.432 147.621L258.928 115.866Z" fill="#0053E2"/>
<path fill-rule="evenodd" clip-rule="evenodd" d="M433.838 199.905C433.838 228.428 427.011 255.356 414.901 279.144L493.101 414.592C498.189 423.405 491.668 434.389 481.494 434.142L419.959 432.642C415.075 432.524 410.536 435.145 408.197 439.434L378.727 493.474C373.855 502.408 361.081 502.564 355.993 493.751L286.111 372.711C277.254 374.093 268.177 374.81 258.933 374.81C249.69 374.81 240.614 374.093 231.758 372.712L161.876 493.752C156.787 502.565 144.014 502.409 139.142 493.475L109.672 439.434C107.333 435.145 102.793 432.524 97.9096 432.643L36.3741 434.142C26.2009 434.39 19.679 423.405 24.7676 414.592L102.966 279.147C90.8559 255.358 84.0277 228.429 84.0277 199.905C84.0277 103.308 162.335 25 258.933 25C355.531 25 433.838 103.308 433.838 199.905ZM414.284 199.905C414.284 220.586 410.243 240.324 402.907 258.37L402.655 257.935C399.703 265.241 396.209 272.271 392.223 278.974C371.27 314.221 336.733 340.448 295.831 350.44C289.15 352.072 282.299 353.27 275.311 354.004L275.527 354.38C270.075 354.959 264.538 355.257 258.933 355.257C253.328 355.257 247.793 354.959 242.341 354.38L242.558 354.004C235.57 353.27 228.719 352.072 222.038 350.44C181.135 340.45 146.598 314.223 125.644 278.977C121.659 272.274 118.164 265.244 115.212 257.938L114.96 258.373C107.623 240.326 103.582 220.587 103.582 199.905C103.582 114.107 173.135 44.5539 258.933 44.5539C344.731 44.5539 414.284 114.107 414.284 199.905ZM403.462 298.439C380.552 331.978 346.274 357.133 306.174 368.356L367.12 473.916L391.029 430.072C396.876 419.35 408.226 412.797 420.435 413.094L470.36 414.311L403.462 298.439ZM114.405 298.442L47.5081 414.311L97.4332 413.095C109.642 412.798 120.992 419.351 126.839 430.072L150.748 473.917L211.694 368.356C171.595 357.134 137.315 331.98 114.405 298.442Z" fill="#0053E2"/>
</svg>
