<svg width="64" height="64" viewBox="0 0 64 64" fill="none" xmlns="http://www.w3.org/2000/svg">
<path d="M41.6002 24.2819C41.4875 23.9059 41.2712 23.5691 40.9761 23.3103C40.6809 23.0514 40.3189 22.8809 39.9314 22.8181L35.5664 22.0516L33.7189 18.1159C33.5536 17.7599 33.2914 17.4578 32.9623 17.2441C32.6332 17.0303 32.2506 16.9137 31.8582 16.9074C31.4651 16.894 31.0764 16.9938 30.7383 17.1948C30.4002 17.3959 30.127 17.6898 29.9511 18.0416L27.8731 21.9564L23.5595 22.4969C23.1703 22.5455 22.8026 22.7021 22.4978 22.9488C22.193 23.1956 21.9633 23.5227 21.8348 23.8932C21.7063 24.2637 21.684 24.6628 21.7705 25.0453C21.857 25.4278 22.0488 25.7785 22.3242 26.0577L25.405 29.2435L24.5862 33.5137C24.5124 33.8987 24.5478 34.2967 24.6883 34.6628C24.8289 35.0288 25.069 35.3482 25.3816 35.5848C25.6942 35.8215 26.0668 35.966 26.4572 36.0019C26.8476 36.0379 27.2403 35.9639 27.5909 35.7884L31.573 33.8427L35.3809 35.9412C35.7243 36.1305 36.1137 36.22 36.5053 36.1994C36.8969 36.1789 37.2749 36.0492 37.5965 35.825C37.9182 35.6008 38.1707 35.2911 38.3255 34.9309C38.4803 34.5706 38.5312 34.1743 38.4725 33.7866L37.8534 29.3977L41.025 26.4253C41.3126 26.1582 41.5191 25.8154 41.6208 25.4363C41.7226 25.0572 41.7154 24.6571 41.6002 24.2819ZM39.6579 24.9659L36.4863 27.9389C36.2375 28.1716 36.0491 28.4615 35.9374 28.7834C35.8258 29.1053 35.7943 29.4496 35.8457 29.7864L36.4961 34.0859C36.4987 34.1046 36.4961 34.1238 36.4885 34.1412C36.4808 34.1585 36.4685 34.1734 36.4529 34.1842C36.4373 34.1949 36.419 34.2011 36.4 34.202C36.3811 34.2029 36.3623 34.1986 36.3457 34.1894C30.5828 31.0782 32.5553 31.137 26.6955 34.0005C26.6789 34.0103 26.6596 34.0146 26.6404 34.0127C26.6212 34.0109 26.603 34.003 26.5886 33.9902C26.5723 33.9799 26.5598 33.9647 26.5528 33.9468C26.5459 33.9288 26.5449 33.9091 26.55 33.8906L27.3688 29.6204C27.4333 29.2858 27.4153 28.9406 27.3164 28.6145C27.2176 28.2885 27.0408 27.9914 26.8015 27.7489L23.7485 24.6535C23.7351 24.64 23.7257 24.623 23.7214 24.6045C23.7172 24.586 23.7182 24.5667 23.7244 24.5487C23.7307 24.5307 23.7418 24.5149 23.7566 24.5029C23.7713 24.491 23.7892 24.4834 23.808 24.4811L28.1226 23.9406C28.4606 23.8981 28.783 23.774 29.0624 23.5792C29.3417 23.3843 29.5694 23.1245 29.726 22.8221L31.7264 18.962C31.735 18.945 31.7482 18.9308 31.7646 18.9211C31.7809 18.9113 31.7996 18.9064 31.8187 18.9068C31.838 18.9055 31.8573 18.9106 31.8736 18.9211C31.8898 18.9317 31.9023 18.9472 31.909 18.9654L33.756 22.9021C33.9011 23.2102 34.1188 23.4785 34.3904 23.684C34.6621 23.8894 34.9795 24.0259 35.3154 24.0817L39.6052 24.7916C39.6244 24.7931 39.6427 24.8007 39.6573 24.8134C39.6719 24.8261 39.682 24.8431 39.6862 24.8619C39.6932 24.88 39.6942 24.8999 39.6891 24.9186C39.684 24.9373 39.6731 24.9538 39.6579 24.9659Z" fill="#001E60"/>
<path d="M45.6928 26.5541C45.6885 22.8445 44.213 19.2881 41.5899 16.6651C38.9667 14.042 35.4102 12.5666 31.7006 12.5625C13.1387 13.3307 13.1441 39.7804 31.7007 40.5458C35.4103 40.5417 38.9668 39.0663 41.5899 36.4432C44.213 33.8202 45.6886 30.2637 45.6928 26.5541ZM31.7006 38.546C28.5213 38.5424 25.4732 37.2778 23.2251 35.0297C20.977 32.7816 19.7124 29.7335 19.7088 26.5542C20.3675 10.6452 43.0368 10.6503 43.6929 26.5543C43.6893 29.7337 42.4246 32.7818 40.1764 35.0299C37.9282 37.278 34.88 38.5425 31.7006 38.546Z" fill="#001E60"/>
<path d="M59.8426 49.0793L49.7399 33.0833C50.7118 32.2006 51.4742 31.112 51.9714 29.8969C52.4687 28.6819 52.6883 27.3711 52.6141 26.0603C52.54 24.7495 52.174 23.4719 51.5429 22.3206C50.9117 21.1694 50.0314 20.1737 48.9662 19.4062C49.1879 18.028 49.0794 16.6168 48.6497 15.2886C48.2199 13.9605 47.481 12.7532 46.4939 11.7662C45.5068 10.7791 44.2995 10.0404 42.9713 9.61065C41.6432 9.18095 40.232 9.07254 38.8537 9.29433C38.0455 8.14959 36.9743 7.21562 35.7301 6.57098C34.4859 5.92634 33.105 5.58986 31.7037 5.58984C30.3024 5.58983 28.9216 5.92627 27.6774 6.57088C26.4332 7.2155 25.3619 8.14943 24.5537 9.29416C23.1755 9.07239 21.7643 9.18084 20.4361 9.6106C19.108 10.0404 17.9008 10.7792 16.9138 11.7663C15.9267 12.7534 15.188 13.9607 14.7584 15.2888C14.3287 16.617 14.2204 18.0282 14.4423 19.4064C13.3593 20.1859 12.4677 21.2014 11.8349 22.3762C11.2021 23.5509 10.8447 24.8542 10.7896 26.1874C10.7346 27.5206 10.9834 28.8489 11.5172 30.0718C12.0511 31.2947 12.8559 32.3803 13.871 33.2464L4.15525 48.6277C4.0564 48.7897 4.00532 48.9763 4.00791 49.1661C4.01049 49.3559 4.06663 49.541 4.16986 49.7003C4.27309 49.8595 4.41921 49.9864 4.59138 50.0662C4.76356 50.146 4.95478 50.1756 5.14302 50.1515L13.8045 48.907L16.3937 57.2672C16.4525 57.4478 16.5613 57.608 16.7073 57.7294C16.8533 57.8508 17.0307 57.9284 17.219 57.9534C17.4073 57.9783 17.5987 57.9494 17.7713 57.8702C17.9439 57.7909 18.0905 57.6645 18.1943 57.5054L25.8988 45.3063C27.5283 46.7647 29.6474 47.5557 31.8339 47.5218C34.0204 47.4878 36.1139 46.6313 37.6973 45.123L45.8036 57.9571C45.9075 58.1161 46.0541 58.2425 46.2267 58.3217C46.3993 58.4009 46.5907 58.4297 46.779 58.4048C46.9672 58.3799 47.1446 58.3023 47.2906 58.1809C47.4366 58.0595 47.5454 57.8993 47.6043 57.7188L50.1939 49.3586L58.8544 50.6032C59.0427 50.6274 59.234 50.5979 59.4062 50.5181C59.5785 50.4383 59.7247 50.3114 59.8279 50.1522C59.9312 49.9929 59.9874 49.8077 59.99 49.6179C59.9926 49.428 59.9415 49.2414 59.8426 49.0793ZM17.6621 54.6029L15.4621 47.4999C15.3922 47.2723 15.2431 47.0772 15.0419 46.95C14.8407 46.8227 14.6006 46.7717 14.365 46.8061L7.00372 47.8641L14.3908 36.169C14.5275 37.3429 14.8998 38.4771 15.4854 39.5036C16.0709 40.5301 16.8577 41.4279 17.7986 42.143C18.7394 42.8582 19.815 43.376 20.9608 43.6655C22.1066 43.955 23.299 44.0102 24.4667 43.8278L17.6621 54.6029ZM31.704 45.5229C30.5276 45.5183 29.3724 45.2087 28.3513 44.6244C27.3301 44.0401 26.4779 43.2011 25.8778 42.1892C25.7894 42.0397 25.6635 41.9159 25.5127 41.8298C25.3618 41.7438 25.1912 41.6985 25.0175 41.6985C23.843 42.0224 22.6042 42.033 21.4243 41.7293C20.2444 41.4256 19.1646 40.8183 18.2924 39.9676C17.464 39.1323 16.8662 38.0966 16.5574 36.9614C16.2486 35.8263 16.2392 34.6305 16.5303 33.4906C16.5841 33.281 16.5683 33.0595 16.4855 32.8596C16.4027 32.6597 16.2572 32.492 16.0709 32.3818C15.0681 31.7757 14.2388 30.921 13.6631 29.9004C13.0875 28.8799 12.785 27.728 12.785 26.5563C12.7851 25.3845 13.0876 24.2327 13.6632 23.2121C14.2389 22.1915 15.0683 21.3369 16.0711 20.7308C16.2573 20.6206 16.4027 20.4529 16.4855 20.253C16.5683 20.053 16.5841 19.8316 16.5303 19.622C15.1558 14.8184 19.9487 9.97126 24.7696 11.3825C24.9792 11.436 25.2004 11.4201 25.4002 11.3372C25.6 11.2544 25.7676 11.109 25.8778 10.9229C26.4744 9.908 27.3258 9.06653 28.3477 8.48188C29.3696 7.89722 30.5265 7.58966 31.7038 7.58966C32.8811 7.58966 34.038 7.89722 35.0599 8.48188C36.0817 9.06653 36.9332 9.908 37.5298 10.9229C37.64 11.1091 37.8075 11.2545 38.0074 11.3374C38.2072 11.4202 38.4285 11.436 38.6381 11.3824C43.4555 9.97522 48.256 14.8146 46.8776 19.6217C46.824 19.8312 46.8398 20.0526 46.9225 20.2524C47.0053 20.4523 47.1506 20.62 47.3367 20.7303C48.3395 21.3365 49.1688 22.1913 49.7445 23.212C50.3201 24.2326 50.6226 25.3846 50.6225 26.5564C50.6225 27.7282 50.32 28.8801 49.7444 29.9008C49.1687 30.9214 48.3393 31.7761 47.3365 32.3823C47.1504 32.4927 47.0052 32.6604 46.9225 32.8603C46.8398 33.0602 46.8241 33.2816 46.8777 33.4911C47.169 34.6309 47.1597 35.8268 46.8508 36.9619C46.5418 38.097 45.9438 39.1327 45.1152 39.9677C44.2854 40.8044 43.2499 41.4078 42.1129 41.7171C40.9758 42.0264 39.7774 42.0308 38.6381 41.7298C38.4285 41.6764 38.2073 41.6923 38.0075 41.7751C37.8077 41.8579 37.6401 42.0032 37.5298 42.1892C36.9291 43.2005 36.0768 44.0391 35.0559 44.6233C34.035 45.2075 32.8803 45.5174 31.704 45.5229ZM49.6334 47.2577C49.398 47.2255 49.1589 47.2775 48.9581 47.4044C48.7573 47.5313 48.6077 47.7251 48.5358 47.9515L46.3358 55.0545L39.2673 43.8629C40.4492 44.0135 41.6494 43.9201 42.7938 43.5885C43.9382 43.2569 45.0024 42.6943 45.9208 41.9352C46.8392 41.1762 47.5922 40.237 48.1333 39.1755C48.6744 38.114 48.9921 36.9528 49.0668 35.7637L56.9942 48.3157L49.6334 47.2577Z" fill="#001E60"/>
</svg>
