<svg width="64" height="64" viewBox="0 0 64 64" fill="none" xmlns="http://www.w3.org/2000/svg">
<path d="M57.1087 2.67578H6.88875C3.09 2.67578 0 5.76578 0 9.56453V46.1458C0 49.9445 3.09 53.0345 6.88875 53.0345H24.1763L22.1325 59.3245H16.265C15.7125 59.3245 15.2662 59.772 15.2662 60.3233C15.2662 60.8745 15.7138 61.322 16.265 61.322H22.8588H41.1387H47.7325C48.285 61.322 48.7312 60.8745 48.7312 60.3233C48.7312 59.772 48.2837 59.3245 47.7325 59.3245H41.865L39.8212 53.0345H57.1087C60.9075 53.0345 63.9975 49.9445 63.9975 46.1458V9.56328C63.9962 5.76578 60.9062 2.67578 57.1087 2.67578ZM6.88875 4.67453H57.1075C59.8037 4.67453 61.9975 6.86828 61.9975 9.56453V41.2695H1.99875V9.56328C1.99875 6.86703 4.1925 4.67453 6.88875 4.67453ZM39.7637 59.322H24.2338L26.2775 53.032H37.72L39.7637 59.322ZM57.1087 51.0345H38.4362C38.435 51.0345 38.4337 51.0345 38.4325 51.0345H25.5662C25.5637 51.0345 25.5625 51.0345 25.56 51.0345H6.88875C4.1925 51.0345 1.99875 48.8408 1.99875 46.1445V43.267H61.9987V46.1445C61.9987 48.8408 59.805 51.0345 57.1087 51.0345ZM31.9975 44.0083C30.265 44.0083 28.855 45.4183 28.855 47.1508C28.855 48.8833 30.265 50.2933 31.9975 50.2933C33.7325 50.2933 35.1437 48.8833 35.1437 47.1508C35.1437 45.4183 33.7325 44.0083 31.9975 44.0083ZM31.9975 48.2958C31.3663 48.2958 30.8525 47.782 30.8525 47.1508C30.8525 46.5195 31.3663 46.0058 31.9975 46.0058C32.63 46.0058 33.145 46.5195 33.145 47.1508C33.145 47.782 32.63 48.2958 31.9975 48.2958ZM9.7525 31.6533H16.1725C16.725 31.6533 17.1713 31.2058 17.1713 30.6545C17.1713 26.692 18.7138 22.9683 21.5138 20.1683C24.3138 17.3683 28.0363 15.8258 31.9975 15.8258C35.96 15.8258 39.6837 17.3683 42.4837 20.1683C45.2837 22.9683 46.8262 26.692 46.8262 30.6545C46.8262 31.2058 47.2737 31.6533 47.825 31.6533H54.245C54.7975 31.6533 55.2437 31.2058 55.2437 30.6545C55.2437 24.4408 52.825 18.602 48.435 14.2158C44.0475 9.82453 38.21 7.40703 31.9963 7.40703C25.785 7.40703 19.9475 9.82453 15.5612 14.2158C15.5612 14.2158 15.5612 14.2158 15.56 14.217C15.56 14.217 15.56 14.2183 15.5588 14.2183C11.1688 18.6045 8.75125 24.4433 8.75125 30.6558C8.7525 31.2058 9.2 31.6533 9.7525 31.6533ZM43.1687 18.0683C40.335 15.547 36.785 14.077 32.9963 13.8558V9.42828C37.9675 9.65703 42.6275 11.5858 46.3 14.9383L43.1687 18.0683ZM30.9975 13.857C27.2113 14.077 23.6613 15.547 20.8288 18.0695L17.6975 14.9383C21.37 11.587 26.0275 9.65703 30.9975 9.42828V13.857ZM48.795 29.6545C48.575 25.8658 47.1038 22.3158 44.5825 19.482L47.7137 16.3508C51.0662 20.0233 52.995 24.682 53.2237 29.6545H48.795ZM16.2838 16.3508L19.415 19.482C16.8938 22.3158 15.4225 25.8658 15.2025 29.6545H10.7737C11.0025 24.682 12.9325 20.0233 16.2838 16.3508ZM37.2287 18.8408C36.4862 18.5595 35.6475 18.822 35.1887 19.4808L29.265 28.0708C28.1075 28.7195 27.2225 29.752 26.7588 31.0033C25.6863 33.892 27.1675 37.1145 30.06 38.1883C30.6963 38.4233 31.3488 38.5345 31.9925 38.5345C34.265 38.5345 36.4087 37.1383 37.245 34.8845C37.7062 33.6295 37.7062 32.2708 37.2525 31.0295L38.35 20.6533C38.35 20.652 38.35 20.652 38.35 20.6508C38.4312 19.8483 37.98 19.1208 37.2287 18.8408ZM35.2375 31.062C35.22 31.2295 35.245 31.3995 35.31 31.5545C35.6637 32.3945 35.685 33.332 35.3687 34.192C34.68 36.0483 32.6087 36.9995 30.7537 36.3133C28.895 35.6233 27.9438 33.5533 28.6325 31.6983C28.95 30.8395 29.5762 30.142 30.3962 29.732C30.5475 29.657 30.6763 29.5445 30.7725 29.4058L36.255 21.457L35.2375 31.062ZM30.99 32.9495C30.99 32.397 31.4375 31.9508 31.9888 31.9508H32.0062C32.5587 31.9508 33.005 32.3983 33.005 32.9495C33.005 33.5008 32.5575 33.9483 32.0062 33.9483H31.9888C31.4375 33.9483 30.99 33.502 30.99 32.9495Z" fill="#001E60"/>
</svg>
