<svg width="64" height="64" viewBox="0 0 64 64" fill="none" xmlns="http://www.w3.org/2000/svg">
<g clip-path="url(#clip0_784_1708)">
<path d="M16.875 16.0708V13.7587C17.2919 13.7571 17.7497 13.7556 18.0139 13.7556C19.7166 13.7556 21.102 12.3892 21.102 10.7098C21.102 9.03044 19.7166 7.66406 18.0139 7.66406H15.9375C15.4274 7.66406 15 8.09131 15 8.60156V16.0708C15 16.5886 15.4196 17.0083 15.9375 17.0083C16.4554 17.0083 16.875 16.5886 16.875 16.0708ZM18.014 9.53894C18.6716 9.53894 19.2271 10.0751 19.2271 10.7097C19.2271 11.3443 18.6716 11.8804 18.014 11.8804C17.7515 11.8804 17.2985 11.8819 16.8834 11.8834C16.8809 11.4536 16.8786 10.9801 16.8786 10.7096C16.8786 10.4796 16.8777 9.98906 16.8769 9.53881H18.014V9.53894Z" fill="#001E60"/>
<path d="M28.6642 10.5433C28.6642 8.95569 27.3234 7.66406 25.6753 7.66406H23.691C23.6904 7.66406 23.6898 7.66419 23.6893 7.66419C23.6888 7.66419 23.6881 7.66406 23.6875 7.66406C23.1696 7.66406 22.75 8.08381 22.75 8.60156V16.0708C22.75 16.5886 23.1696 17.0083 23.6875 17.0083C24.2054 17.0083 24.625 16.5886 24.625 16.0708V13.9673L27.0233 16.6904C27.2086 16.9008 27.4672 17.0083 27.7272 17.0083C27.9474 17.0083 28.1684 16.9312 28.3465 16.7743C28.735 16.4321 28.7726 15.8397 28.4305 15.4512L26.5362 13.3002C27.7657 12.9433 28.6642 11.8427 28.6642 10.5433ZM25.6753 11.5474C25.433 11.5474 25.0212 11.5488 24.6362 11.5503C24.6339 11.1751 24.6313 9.93169 24.6305 9.53894H25.6751C26.279 9.53894 26.7891 9.99881 26.7891 10.5432C26.7893 11.0876 26.2791 11.5474 25.6753 11.5474Z" fill="#001E60"/>
<path d="M32.5703 16.0709V8.60156C32.5703 8.08381 32.1507 7.66406 31.6328 7.66406C31.1149 7.66406 30.6953 8.08381 30.6953 8.60156V16.0708C30.6953 16.5886 31.1149 17.0083 31.6328 17.0083C32.1507 17.0083 32.5703 16.5887 32.5703 16.0709Z" fill="#001E60"/>
<path d="M39.172 9.53906C39.7339 9.53906 40.2735 9.70369 40.7326 10.0152C41.1611 10.3058 41.7442 10.1942 42.0347 9.76569C42.3255 9.33719 42.2139 8.75419 41.7854 8.46356C41.0145 7.94044 40.1109 7.66406 39.172 7.66406C36.5959 7.66406 34.5 9.76006 34.5 12.3362C34.5 14.9123 36.5959 17.0083 39.172 17.0083C40.2019 17.0083 41.1259 16.6701 41.8481 16.0262C41.9893 15.8988 42.1177 15.7658 42.2412 15.6196C42.5752 15.2238 42.5251 14.6324 42.1294 14.2984C41.7339 13.9646 41.1422 14.0146 40.8084 14.4103C40.7391 14.4923 40.6704 14.5636 40.5962 14.6304C40.2219 14.9641 39.7427 15.1333 39.172 15.1333C37.6297 15.1333 36.375 13.8786 36.375 12.3362C36.375 10.7938 37.6297 9.53906 39.172 9.53906Z" fill="#001E60"/>
<path d="M48.0633 9.60547C48.5812 9.60547 49.0008 9.18572 49.0008 8.66797C49.0008 8.15022 48.5812 7.73047 48.0633 7.73047H44.9453C44.4274 7.73047 44.0078 8.15022 44.0078 8.66797V16.07C44.0078 16.5877 44.4274 17.0075 44.9453 17.0075H48.0633C48.5812 17.0075 49.0008 16.5877 49.0008 16.07C49.0008 15.5522 48.5812 15.1325 48.0633 15.1325H45.8828V13.3047H47.8331C48.3509 13.3047 48.7706 12.885 48.7706 12.3672C48.7706 11.8495 48.3509 11.4297 47.8331 11.4297H45.8828V9.60547H48.0633Z" fill="#001E60"/>
<path d="M13.9609 21.2812C13.9609 21.799 14.3806 22.2188 14.8984 22.2188H49.1082C49.6261 22.2188 50.0457 21.799 50.0457 21.2812C50.0457 20.7635 49.6261 20.3438 49.1082 20.3438H14.8984C14.3807 20.3438 13.9609 20.7635 13.9609 21.2812Z" fill="#001E60"/>
<path d="M26.375 32.3281H37.7381C38.256 32.3281 38.6756 31.9084 38.6756 31.3906C38.6756 30.8729 38.256 30.4531 37.7381 30.4531H26.375C25.8571 30.4531 25.4375 30.8729 25.4375 31.3906C25.4375 31.9084 25.8572 32.3281 26.375 32.3281Z" fill="#001E60"/>
<path d="M49.1012 25.8438H26.375C25.8571 25.8438 25.4375 26.2635 25.4375 26.7812C25.4375 27.299 25.8571 27.7188 26.375 27.7188H49.1012C49.6191 27.7188 50.0387 27.299 50.0387 26.7812C50.0387 26.2635 49.619 25.8438 49.1012 25.8438Z" fill="#001E60"/>
<path d="M26.375 44.1992H37.7381C38.256 44.1992 38.6756 43.7795 38.6756 43.2617C38.6756 42.744 38.256 42.3242 37.7381 42.3242H26.375C25.8571 42.3242 25.4375 42.744 25.4375 43.2617C25.4375 43.7795 25.8572 44.1992 26.375 44.1992Z" fill="#001E60"/>
<path d="M49.1012 37.7188H26.375C25.8571 37.7188 25.4375 38.1385 25.4375 38.6562C25.4375 39.174 25.8571 39.5938 26.375 39.5938H49.1012C49.6191 39.5938 50.0387 39.174 50.0387 38.6562C50.0387 38.1385 49.619 37.7188 49.1012 37.7188Z" fill="#001E60"/>
<path d="M26.375 54.1992C25.8571 54.1992 25.4375 54.619 25.4375 55.1367C25.4375 55.6545 25.8571 56.0742 26.375 56.0742H37.7381C38.256 56.0742 38.6756 55.6545 38.6756 55.1367C38.6756 54.619 38.256 54.1992 37.7381 54.1992H26.375Z" fill="#001E60"/>
<path d="M50.0387 50.5312C50.0387 50.0135 49.6191 49.5938 49.1012 49.5938H26.375C25.8571 49.5938 25.4375 50.0135 25.4375 50.5312C25.4375 51.049 25.8571 51.4688 26.375 51.4688H49.1012C49.619 51.4688 50.0387 51.049 50.0387 50.5312Z" fill="#001E60"/>
<path d="M13.9609 31.4821C13.9609 32.3155 14.6391 32.9936 15.4724 32.9936H20.2593C21.0927 32.9936 21.7708 32.3155 21.7708 31.4821V26.6951C21.7708 25.8617 21.0927 25.1836 20.2593 25.1836H15.4724C14.6391 25.1836 13.9609 25.8617 13.9609 26.6951V31.4821ZM15.8359 27.0586H19.8958V31.1186H15.8359V27.0586Z" fill="#001E60"/>
<path d="M13.9609 43.3532C13.9609 44.1866 14.6391 44.8647 15.4724 44.8647H20.2593C21.0927 44.8647 21.7708 44.1866 21.7708 43.3532V38.5662C21.7708 37.7328 21.0927 37.0547 20.2593 37.0547H15.4724C14.6391 37.0547 13.9609 37.7328 13.9609 38.5662V43.3532ZM15.8359 38.9297H19.8958V42.9897H15.8359V38.9297Z" fill="#001E60"/>
<path d="M13.9609 55.2243C13.9609 56.0597 14.6391 56.7394 15.4724 56.7394H20.2593C21.0927 56.7394 21.7708 56.0597 21.7708 55.2243V50.4409C21.7708 49.6055 21.0927 48.9258 20.2593 48.9258H15.4724C14.6391 48.9258 13.9609 49.6055 13.9609 50.4409V55.2243ZM15.8359 50.8008H19.8958V54.8644H15.8359V50.8008Z" fill="#001E60"/>
<path d="M55.812 33.1523C55.2941 33.1523 54.8745 33.5721 54.8745 34.0898V61.5647C54.8745 61.869 54.6159 62.1261 54.3096 62.1261H9.68625C9.37675 62.1261 9.125 61.8742 9.125 61.5647V34.0898C9.125 33.5721 8.70538 33.1523 8.1875 33.1523C7.66962 33.1523 7.25 33.5721 7.25 34.0898V61.5647C7.25 62.9081 8.34287 64.0011 9.68625 64.0011H54.3096C55.655 64.0011 56.7495 62.9081 56.7495 61.5647V34.0898C56.7495 33.5721 56.3299 33.1523 55.812 33.1523Z" fill="#001E60"/>
<path d="M54.3096 0H9.68625C8.34287 0 7.25 1.093 7.25 2.43637V29.7624C7.25 30.2801 7.66962 30.6999 8.1875 30.6999C8.70538 30.6999 9.125 30.2801 9.125 29.7624V2.43637C9.125 2.12687 9.37687 1.875 9.68625 1.875H54.3096C54.6157 1.875 54.8745 2.13212 54.8745 2.43637V29.7624C54.8745 30.2801 55.2941 30.6999 55.812 30.6999C56.3299 30.6999 56.7495 30.2801 56.7495 29.7624V2.43637C56.7495 1.093 55.655 0 54.3096 0Z" fill="#001E60"/>
</g>
<defs>
<clipPath id="clip0_784_1708">
<rect width="64" height="64" fill="white"/>
</clipPath>
</defs>
</svg>
