<svg width="64" height="64" viewBox="0 0 64 64" fill="none" xmlns="http://www.w3.org/2000/svg">
<path d="M63.8105 31.4361C55.9468 21.0105 44.3524 15.0312 32 15.0312C19.6476 15.0312 8.05312 21.0106 0.189375 31.4361C-0.063125 31.771 -0.063125 32.2325 0.189375 32.5675C8.05312 42.9931 19.6476 48.9725 32 48.9725C44.3524 48.9725 55.9468 42.9932 63.8105 32.5676C64.0631 32.2326 64.0631 31.771 63.8105 31.4361ZM32 47.0939C20.4671 47.0939 9.617 41.6029 2.12325 32.0019C9.617 22.4009 20.4671 16.9099 32 16.9099C43.5328 16.9099 54.3829 22.4009 61.8768 32.0019C54.3829 41.6029 43.5328 47.0939 32 47.0939Z" fill="#001E60"/>
<path d="M43.1675 22.0394C42.8221 21.6524 42.2283 21.6185 41.8411 21.964C41.4541 22.3095 41.4204 22.9034 41.7658 23.2904C43.9068 25.6892 45.086 28.7832 45.086 32.0019C45.086 39.2187 39.2146 45.0899 31.9979 45.0899C24.781 45.0899 18.9097 39.2185 18.9097 32.0019C18.9097 24.7853 24.781 18.9138 31.9979 18.9138C34.1109 18.9138 36.1274 19.4015 37.991 20.3633C38.4518 20.6009 39.0185 20.4203 39.2565 19.9593C39.4944 19.4983 39.3135 18.9317 38.8525 18.6938C36.7499 17.6087 34.3796 17.0352 31.998 17.0352C23.7453 17.0352 17.0312 23.7492 17.0312 32.0019C17.0312 40.2547 23.7451 46.9687 31.9979 46.9687C40.2506 46.9687 46.9646 40.2545 46.9646 32.0019C46.9646 28.3209 45.616 24.7829 43.1675 22.0394Z" fill="#001E60"/>
<path d="M32.0038 26.0508C28.7236 26.0508 26.0547 28.7195 26.0547 31.9999C26.0547 35.2802 28.7236 37.949 32.0038 37.949C35.2841 37.949 37.9529 35.2802 37.9529 31.9999C37.9529 28.7197 35.2841 26.0508 32.0038 26.0508ZM32.0038 36.0703C29.7594 36.0703 27.9333 34.2443 27.9333 31.9998C27.9333 29.7553 29.7594 27.9293 32.0038 27.9293C34.2483 27.9293 36.0743 29.7553 36.0743 31.9998C36.0743 34.2443 34.2483 36.0703 32.0038 36.0703Z" fill="#001E60"/>
</svg>
