<svg width="512" height="512" viewBox="0 0 512 512" fill="none" xmlns="http://www.w3.org/2000/svg">
<rect x="83" y="335" width="348" height="91" fill="#0053E2"/>
<rect x="45" y="84" width="423" height="304" fill="#0053E2"/>
<path fill-rule="evenodd" clip-rule="evenodd" d="M109.442 241.041C117.785 241.041 124.576 247.838 124.576 256.18C124.576 264.523 117.785 271.314 109.442 271.314C101.099 271.314 94.3153 264.524 94.3153 256.18C94.3153 247.837 101.099 241.041 109.442 241.041ZM207 144.733C215.343 144.733 222.128 151.523 222.128 159.866C222.128 168.209 215.344 175.006 207 175.006C198.652 175.006 191.868 168.209 191.868 159.866C191.868 151.523 198.652 144.733 207 144.733ZM304.675 241.041C313.017 241.041 319.807 247.838 319.807 256.18C319.807 264.523 313.017 271.314 304.675 271.314C296.331 271.314 289.541 264.524 289.541 256.18C289.541 247.837 296.331 241.041 304.675 241.041ZM402.221 144.733C410.563 144.733 417.354 151.523 417.354 159.866C417.354 168.209 410.563 175.006 402.221 175.006C393.878 175.006 387.087 168.209 387.087 159.866C387.088 151.523 393.878 144.733 402.221 144.733ZM109.442 285.299C132.128 285.299 145.919 260.464 134.464 241.301L191.801 184.689C201.125 190.425 212.885 190.43 222.207 184.683L279.64 241.319C268.211 260.527 282.032 285.299 304.675 285.299C327.291 285.299 341.176 260.559 329.691 241.301L387.022 184.689C406.282 196.522 431.333 182.647 431.333 159.865C431.333 143.814 418.272 130.753 402.221 130.753C379.61 130.753 365.717 155.484 377.205 174.745L319.868 231.356C310.546 225.613 298.777 225.622 289.457 231.363L232.024 174.726C243.476 155.523 229.642 130.753 207.001 130.753C184.4 130.753 170.502 155.456 181.979 174.745L124.642 231.356C105.428 219.534 80.3306 233.365 80.3306 256.179C80.3296 272.231 93.3907 285.299 109.442 285.299ZM379.47 426.831V233.235H425.352V426.831H379.47ZM281.863 426.831V322.386H327.739V426.832L281.863 426.831ZM184.25 426.831V250.157H230.139V426.831H184.25ZM86.6487 426.831V343.209H132.525V426.831H86.6487ZM146.511 398.214H170.264V426.831H146.511V398.214ZM244.123 398.214H267.877V426.831H244.123V398.214ZM341.725 398.214H365.485V426.831H341.725V398.214ZM62.043 384.229H72.6629V336.22C72.6629 332.36 75.7984 329.224 79.6527 329.224H139.521C143.375 329.224 146.511 332.36 146.511 336.22V384.229H170.264V243.167C170.264 239.295 173.4 236.171 177.26 236.171H237.129C240.989 236.171 244.125 239.295 244.125 243.167V384.228H267.878V315.389C267.878 311.528 271.008 308.399 274.868 308.399H334.73C338.603 308.399 341.726 311.528 341.726 315.389V384.228H365.486V226.246C365.486 222.385 368.621 219.256 372.482 219.256H432.344C436.204 219.256 439.34 222.385 439.34 226.246V384.228H449.955C459.922 384.228 468.035 376.121 468.035 366.148V103.254C468.035 93.2916 459.922 85.1723 449.955 85.1723H62.043C52.0805 85.1723 43.9561 93.2916 43.9561 103.254V366.148C43.9561 376.121 52.0805 384.229 62.043 384.229ZM479.754 426.831H439.338V398.214H449.953C467.629 398.214 482.019 383.83 482.019 366.148V103.254C482.019 85.5716 467.629 71.1875 449.953 71.1875H62.043C44.3667 71.1875 29.9764 85.5716 29.9764 103.254V366.148C29.9764 383.83 44.3667 398.214 62.043 398.214H72.6629V426.831H32.2476C28.3872 426.831 25.2578 429.96 25.2578 433.821C25.2578 437.687 28.3872 440.817 32.2476 440.817H479.753C483.607 440.817 486.743 437.687 486.743 433.821C486.744 429.96 483.607 426.831 479.754 426.831Z" fill="white"/>
</svg>
