<svg width="38" height="38" viewBox="0 0 38 38" fill="#001E60" xmlns="http://www.w3.org/2000/svg">
<g clip-path="url(#clip0_681_2051)">
<path d="M31.4468 22.8557L24.7557 26.753C24.4202 26.9483 24.0791 27.0863 23.7231 27.1686C23.855 26.957 23.9583 26.7177 24.0293 26.4527C24.3713 25.1761 23.6126 23.8432 22.3019 23.4183C22.2764 23.4101 22.2505 23.4035 22.2242 23.3988C20.3011 23.052 18.403 22.3657 16.8779 21.8144C16.348 21.6228 15.8476 21.4419 15.4222 21.304C13.7093 20.7482 12.1605 21.4362 10.8716 22.1824L5.89343 25.0646L5.42407 24.2353C5.21692 23.8692 4.87856 23.6055 4.4714 23.4926C4.06438 23.3797 3.63844 23.4317 3.27232 23.6389L1.39496 24.7015C1.02876 24.9087 0.764987 25.247 0.652101 25.6542C0.539214 26.0613 0.591241 26.4872 0.79846 26.8532L6.31789 36.6057C6.52503 36.9718 6.86339 37.2355 7.27056 37.3484C7.41135 37.3875 7.55437 37.4068 7.69643 37.4068C7.9651 37.4068 8.23013 37.3377 8.46964 37.2021L10.3471 36.1396C10.7132 35.9324 10.9769 35.5941 11.0898 35.187C11.2027 34.7798 11.1506 34.3539 10.9434 33.9879L10.3744 32.9824L11.5092 32.3272L20.0792 34.6235C20.5632 34.7533 21.0384 34.818 21.5033 34.818C22.4301 34.818 23.3161 34.5606 24.15 34.0472L36.2929 26.5701C37.3998 25.8886 37.751 24.171 37.0296 22.9665C36.6794 22.3819 35.242 20.6455 31.4468 22.8557ZM9.94548 34.8698C9.91727 34.9712 9.85226 35.0552 9.76216 35.1061L7.88472 36.1687C7.70028 36.2732 7.45596 36.2056 7.35123 36.0208L1.83188 26.2684C1.78089 26.1784 1.76842 26.0729 1.79648 25.9714C1.82461 25.8699 1.8897 25.7859 1.9798 25.735L3.85716 24.6725C3.9158 24.6393 3.98096 24.6224 4.04731 24.6224C4.08286 24.6224 4.11878 24.6273 4.15419 24.6371C4.25564 24.6653 4.33966 24.7304 4.39065 24.8204L9.91007 34.5729C9.96099 34.6628 9.97361 34.7683 9.94548 34.8698ZM35.6703 25.5589L23.5274 33.036C22.5644 33.6289 21.5077 33.7771 20.3866 33.4765L11.579 31.1165C11.4271 31.0759 11.2649 31.0971 11.1285 31.1758L9.78954 31.9489L6.47835 26.0982L11.4666 23.2101C12.5824 22.564 13.7897 22.0228 15.0557 22.4335C15.4625 22.5654 15.9313 22.7349 16.4741 22.9311C18.0301 23.4937 19.964 24.1929 21.9705 24.5597C22.6697 24.804 23.0607 25.4794 22.8822 26.1454C22.6474 27.0216 21.9171 27.1304 21.3367 27.0638C20.3511 26.8611 19.4145 26.5938 18.4235 26.3108C17.9536 26.1766 17.4676 26.0379 16.9682 25.9041C16.6517 25.8194 16.3259 26.0072 16.241 26.3239C16.1561 26.6406 16.3442 26.9662 16.6609 27.0511C17.1509 27.1824 17.6321 27.3198 18.0974 27.4527C19.1187 27.7444 20.0834 28.0199 21.1222 28.2322C21.1262 28.233 21.1301 28.2333 21.1341 28.234C21.1381 28.2347 21.1418 28.2359 21.1458 28.2365L21.9779 28.3718C23.2221 28.571 24.3265 28.3771 25.3533 27.779L32.0445 23.8817C33.9705 22.7599 35.4533 22.6458 36.0108 23.5766C36.395 24.2182 36.2231 25.2186 35.6703 25.5589ZM4.40185 26.556C4.45544 26.9223 4.20191 27.2626 3.83557 27.3162C3.4693 27.3697 3.12893 27.1162 3.07534 26.7499C3.02183 26.3837 3.27529 26.0433 3.64163 25.9897C4.00798 25.9361 4.34834 26.1896 4.40185 26.556ZM37.4069 4.59956V3.46928C37.4069 2.29299 36.4498 1.33594 35.2736 1.33594H25.597C24.4207 1.33594 23.4638 2.29299 23.4638 3.46928V4.59956C23.4638 5.20422 23.7171 5.75054 24.1226 6.13915C23.7171 6.52769 23.4638 7.07401 23.4638 7.67867V8.80895C23.4638 8.89356 23.4691 8.97802 23.4792 9.06189C20.3723 9.76392 18.045 12.5463 18.045 15.8623C18.045 19.7065 21.1725 22.8339 25.0167 22.8339C27.5866 22.8339 29.8359 21.436 31.0448 19.3609H35.2736C36.4499 19.3609 37.4069 18.4039 37.4069 17.2277V16.0973C37.4069 15.4926 37.1535 14.9463 36.748 14.5578C37.1535 14.1693 37.4069 13.6229 37.4069 13.0183V11.888C37.4069 11.2833 37.1535 10.7371 36.748 10.3485C37.1535 9.95993 37.4069 9.41361 37.4069 8.80895V7.67867C37.4069 7.07401 37.1535 6.52776 36.748 6.13915C37.1535 5.75054 37.4069 5.20422 37.4069 4.59956ZM25.0167 21.6463C21.8273 21.6463 19.2325 19.0517 19.2325 15.8623C19.2325 12.6729 21.8273 10.0782 25.0167 10.0782C28.2061 10.0782 30.8008 12.6729 30.8008 15.8623C30.8008 19.0517 28.206 21.6463 25.0167 21.6463ZM36.2194 16.0973V17.2276C36.2194 17.749 35.795 18.1734 35.2736 18.1734H31.594C31.849 17.4497 31.9882 16.6721 31.9882 15.8623C31.9882 15.6224 31.9761 15.3852 31.9522 15.1515H35.2735C35.7951 15.1515 36.2194 15.5758 36.2194 16.0973ZM36.2194 11.8879V13.0182C36.2194 13.5397 35.795 13.964 35.2736 13.964H31.7255C31.3977 12.8069 30.7779 11.7713 29.9511 10.9421H35.2736C35.795 10.9422 36.2194 11.3665 36.2194 11.8879ZM36.2194 7.6786V8.80888C36.2194 9.33041 35.795 9.75464 35.2736 9.75464H28.3752C27.3784 9.20431 26.2336 8.89059 25.0167 8.89059C24.896 8.89059 24.7759 8.89371 24.6567 8.89979C24.6539 8.86973 24.6513 8.83953 24.6513 8.80888V7.6786C24.6513 7.15714 25.0756 6.73283 25.597 6.73283H35.2736C35.795 6.73283 36.2194 7.15714 36.2194 7.6786ZM25.597 5.54533C25.0756 5.54533 24.6513 5.12102 24.6513 4.59948V3.46928C24.6513 2.94775 25.0756 2.52344 25.597 2.52344H35.2736C35.795 2.52344 36.2194 2.94775 36.2194 3.46928V4.59956C36.2194 5.12109 35.795 5.5454 35.2736 5.5454L25.597 5.54533ZM27.6409 17.2836C27.7071 17.8283 27.5602 18.3263 27.2163 18.7239C26.8533 19.1435 26.2738 19.4349 25.6104 19.5436V19.8981C25.6104 20.226 25.3445 20.4919 25.0166 20.4919C24.6887 20.4919 24.4229 20.226 24.4229 19.8981V19.5341C23.4093 19.3408 22.6298 18.6656 22.3945 17.7214C22.3152 17.4033 22.5089 17.0811 22.827 17.0017C23.1454 16.9225 23.4674 17.1161 23.5467 17.4343C23.7306 18.1716 24.4908 18.4152 25.0857 18.4025C25.6058 18.3901 26.0895 18.2113 26.318 17.9471C26.4419 17.8037 26.4876 17.6385 26.462 17.4267C26.4187 17.0708 26.205 16.6351 24.9262 16.4252C23.0622 16.1191 22.6269 15.15 22.5901 14.3909C22.5391 13.3407 23.2671 12.4621 24.4017 12.2048C24.4087 12.2032 24.4157 12.2016 24.4227 12.2001V11.8263C24.4227 11.4984 24.6886 11.2326 25.0165 11.2326C25.3444 11.2326 25.6102 11.4984 25.6102 11.8263V12.1948C26.3563 12.3489 27.0715 12.8133 27.4416 13.6948C27.5686 13.9972 27.4264 14.3452 27.1241 14.4721C26.8219 14.5991 26.4738 14.457 26.3467 14.1546C26.0359 13.4144 25.278 13.2238 24.6643 13.3628C24.2171 13.4642 23.749 13.7725 23.7761 14.3332C23.7855 14.5261 23.8104 15.0385 25.1185 15.2533C26.6594 15.5063 27.508 16.1893 27.6409 17.2836ZM12.5019 6.23445H13.6455V13.5777C13.6455 13.9056 13.9114 14.1715 14.2393 14.1715H16.6434C16.9713 14.1715 17.2372 13.9056 17.2372 13.5777V6.23445H18.3807C18.5992 6.23445 18.8 6.11444 18.9036 5.92206C19.0071 5.72969 18.9966 5.49597 18.8763 5.31362L15.9369 0.860418C15.827 0.693945 15.6408 0.59375 15.4414 0.59375C15.2419 0.59375 15.0557 0.693945 14.9458 0.860418L12.0065 5.31362C11.8861 5.49597 11.8756 5.72969 11.9791 5.92206C12.0827 6.11451 12.2835 6.23445 12.5019 6.23445ZM15.4414 2.2653L17.2774 5.04695H16.6434C16.3155 5.04695 16.0497 5.3128 16.0497 5.6407V12.984H14.833V5.6407C14.833 5.3128 14.5672 5.04695 14.2393 5.04695H13.6053L15.4414 2.2653Z" fill="#001E60"/>
</g>
<defs>
<clipPath id="clip0_681_2051">
<rect width="38" height="38" fill="#001E60"/>
</clipPath>
</defs>
</svg>
