<svg width="38" height="38" viewBox="0 0 38 38" fill="#001E60" xmlns="http://www.w3.org/2000/svg">
<path fill-rule="evenodd" clip-rule="evenodd" d="M14.5292 22.1137H23.4706C23.7647 22.1137 24.0026 22.3516 24.0026 22.6457V37.468C24.0026 37.7621 23.7647 38 23.4706 38H14.5292C14.2351 38 13.9972 37.7621 13.9972 37.468V22.6457C13.9972 22.3516 14.2358 22.1137 14.5292 22.1137ZM30.5515 2.94956V2.62732C30.5515 2.3332 30.7894 2.09532 31.0835 2.09532C31.3776 2.09532 31.6155 2.3332 31.6155 2.62732V2.94956C31.8671 3.03316 32.0928 3.17452 32.2767 3.35844C32.5822 3.66396 32.7707 4.08576 32.7707 4.55164C32.7707 4.84576 32.5328 5.08364 32.2387 5.08364C31.9446 5.08364 31.7067 4.84576 31.7067 4.55164C31.7067 4.37988 31.6368 4.22408 31.5243 4.11084C31.4118 3.9976 31.256 3.92844 31.0835 3.92844C30.9117 3.92844 30.7559 3.99836 30.6427 4.11084C30.5302 4.22332 30.4603 4.37912 30.4603 4.55164C30.4603 5.01144 30.8335 5.10036 31.2059 5.18928C31.9879 5.37548 32.7707 5.56168 32.7707 6.86204C32.7707 7.32792 32.5815 7.74972 32.2767 8.05524C32.0935 8.2384 31.8678 8.37976 31.6155 8.46412V8.78636C31.6155 9.08048 31.3776 9.31836 31.0835 9.31836C30.7894 9.31836 30.5515 9.08048 30.5515 8.78636V8.46412C30.2999 8.38052 30.0742 8.23916 29.8903 8.05524C29.5848 7.74972 29.3963 7.32792 29.3963 6.86204C29.3963 6.56792 29.6342 6.33004 29.9283 6.33004C30.2224 6.33004 30.4603 6.56792 30.4603 6.86204C30.4603 7.0338 30.5302 7.1896 30.6427 7.30284C30.7552 7.41532 30.911 7.48524 31.0835 7.48524C31.2553 7.48524 31.4111 7.41532 31.5243 7.30284C31.6375 7.19036 31.7067 7.03456 31.7067 6.86204C31.7067 6.40224 31.3335 6.31332 30.9611 6.2244C30.1791 6.0382 29.3963 5.852 29.3963 4.55164C29.3963 4.08576 29.5848 3.66396 29.8903 3.35844C30.0742 3.17452 30.2999 3.03316 30.5515 2.94956ZM31.0835 0C29.508 0 28.0815 0.6384 27.0487 1.67124C26.0158 2.70408 25.3774 4.1306 25.3774 5.70608C25.3774 7.28156 26.0158 8.70808 27.0487 9.74092C28.0815 10.7738 29.508 11.4122 31.0835 11.4122C32.659 11.4122 34.0855 10.7738 35.1183 9.74092C36.1512 8.70808 36.7896 7.28156 36.7896 5.70608C36.7896 4.1306 36.1512 2.70408 35.1183 1.67124C34.0855 0.6384 32.659 0 31.0835 0ZM34.3659 2.42364C33.5261 1.58384 32.3656 1.064 31.0835 1.064C29.8014 1.064 28.6409 1.58384 27.8011 2.42364C26.9613 3.26344 26.4414 4.42396 26.4414 5.70608C26.4414 6.9882 26.9613 8.14872 27.8011 8.98852C28.6409 9.82832 29.8014 10.3482 31.0835 10.3482C32.3656 10.3482 33.5261 9.82832 34.3659 8.98852C35.2057 8.14872 35.7256 6.9882 35.7256 5.70608C35.7256 4.42396 35.2057 3.26344 34.3659 2.42364ZM18.4683 10.9052V10.583C18.4683 10.2889 18.7061 10.051 19.0003 10.051C19.2944 10.051 19.5323 10.2889 19.5323 10.583V10.9052C19.7838 10.9888 20.0095 11.1302 20.1935 11.3141C20.499 11.6196 20.6875 12.0414 20.6875 12.5073C20.6875 12.8014 20.4496 13.0393 20.1555 13.0393C19.8613 13.0393 19.6235 12.8014 19.6235 12.5073C19.6235 12.3356 19.5535 12.1798 19.4411 12.0665C19.3286 11.9533 19.1728 11.8841 19.0003 11.8841C18.8285 11.8841 18.6727 11.954 18.5595 12.0665C18.447 12.179 18.3771 12.3348 18.3771 12.5073C18.3771 12.9671 18.7502 13.056 19.1226 13.145C19.9047 13.3312 20.6875 13.5174 20.6875 14.8177C20.6875 15.2836 20.4982 15.7054 20.1935 16.0109C20.0103 16.1941 19.7846 16.3354 19.5323 16.4198V16.742C19.5323 17.0362 19.2944 17.274 19.0003 17.274C18.7061 17.274 18.4683 17.0362 18.4683 16.742V16.4198C18.2167 16.3362 17.991 16.1948 17.8071 16.0109C17.5015 15.7054 17.3131 15.2836 17.3131 14.8177C17.3131 14.5236 17.5509 14.2857 17.8451 14.2857C18.1392 14.2857 18.3771 14.5236 18.3771 14.8177C18.3771 14.9895 18.447 15.1453 18.5595 15.2585C18.6719 15.371 18.8277 15.4409 19.0003 15.4409C19.1728 15.4409 19.3278 15.371 19.4411 15.2585C19.5535 15.146 19.6235 14.9902 19.6235 14.8177C19.6235 14.3579 19.2503 14.269 18.8779 14.1801C18.0959 13.9939 17.3131 13.8077 17.3131 12.5073C17.3131 12.0414 17.5015 11.6196 17.8071 11.3141C17.991 11.1302 18.2167 10.9888 18.4683 10.9052ZM19.0003 7.95568C17.4248 7.95568 15.9983 8.59408 14.9654 9.62692C13.9326 10.6598 13.2942 12.0863 13.2942 13.6618C13.2942 15.2372 13.9326 16.6638 14.9654 17.6966C15.9983 18.7294 17.4248 19.3678 19.0003 19.3678C20.5757 19.3678 22.0023 18.7294 23.0351 17.6966C24.0679 16.6638 24.7063 15.2372 24.7063 13.6618C24.7063 12.0863 24.0679 10.6598 23.0351 9.62692C22.0023 8.59484 20.5757 7.95568 19.0003 7.95568ZM22.2827 10.3793C21.4429 9.53952 20.2824 9.01968 19.0003 9.01968C17.7181 9.01968 16.5576 9.53952 15.7178 10.3793C14.878 11.2191 14.3582 12.3796 14.3582 13.6618C14.3582 14.9439 14.878 16.1044 15.7178 16.9442C16.5576 17.784 17.7181 18.3038 19.0003 18.3038C20.2824 18.3038 21.4429 17.784 22.2827 16.9442C23.1225 16.1044 23.6423 14.9439 23.6423 13.6618C23.6423 12.3796 23.1225 11.2191 22.2827 10.3793ZM6.38502 5.02512V4.70288C6.38502 4.40876 6.6229 4.17088 6.91702 4.17088C7.21114 4.17088 7.44902 4.40876 7.44902 4.70288V5.02512C7.70058 5.10872 7.9263 5.25008 8.11022 5.434C8.41574 5.73952 8.60422 6.16132 8.60422 6.6272C8.60422 6.92132 8.36634 7.1592 8.07222 7.1592C7.7781 7.1592 7.54022 6.92132 7.54022 6.6272C7.54022 6.45544 7.4703 6.29964 7.35782 6.1864C7.24534 6.07392 7.08954 6.004 6.91702 6.004C6.74526 6.004 6.58946 6.07392 6.47622 6.1864C6.36374 6.29888 6.29382 6.45468 6.29382 6.6272C6.29382 7.087 6.66698 7.17592 7.03938 7.26484C7.82142 7.45104 8.60422 7.63724 8.60422 8.9376C8.60422 9.40348 8.41498 9.82528 8.11022 10.1308C7.92706 10.314 7.70134 10.4553 7.44902 10.5397V10.8619C7.44902 11.156 7.21114 11.3939 6.91702 11.3939C6.6229 11.3939 6.38502 11.156 6.38502 10.8619V10.5397C6.13346 10.4561 5.90774 10.3147 5.72382 10.1308C5.4183 9.82528 5.22982 9.40348 5.22982 8.9376C5.22982 8.64348 5.4677 8.4056 5.76182 8.4056C6.05594 8.4056 6.29382 8.64348 6.29382 8.9376C6.29382 9.10936 6.36374 9.26516 6.47622 9.3784C6.5887 9.49088 6.7445 9.5608 6.91702 9.5608C7.08878 9.5608 7.24458 9.49088 7.35782 9.3784C7.4703 9.26592 7.54022 9.11012 7.54022 8.9376C7.54022 8.4778 7.16706 8.38888 6.79466 8.29996C6.01262 8.11376 5.22982 7.92756 5.22982 6.6272C5.22982 6.16132 5.4183 5.73952 5.72382 5.434C5.90774 5.25008 6.1327 5.10872 6.38502 5.02512ZM6.91702 2.07556C5.34154 2.07556 3.91502 2.71396 2.88218 3.7468C1.84934 4.77964 1.21094 6.20616 1.21094 7.78164C1.21094 9.35712 1.84934 10.7836 2.88218 11.8165C3.91502 12.8493 5.34154 13.4877 6.91702 13.4877C8.4925 13.4877 9.91902 12.8493 10.9519 11.8165C11.9847 10.7836 12.6231 9.35712 12.6231 7.78164C12.6231 6.20616 11.9847 4.77964 10.9519 3.7468C9.91902 2.71396 8.4925 2.07556 6.91702 2.07556ZM10.1995 4.4992C9.35966 3.6594 8.19914 3.13956 6.91702 3.13956C5.6349 3.13956 4.47438 3.65864 3.63458 4.4992C2.79478 5.33976 2.27494 6.49952 2.27494 7.78164C2.27494 9.06376 2.79478 10.2243 3.63458 11.0641C4.47438 11.9039 5.6349 12.4237 6.91702 12.4237C8.19914 12.4237 9.35966 11.9039 10.1995 11.0641C11.0393 10.2243 11.5591 9.06376 11.5591 7.78164C11.5583 6.49952 11.0393 5.339 10.1995 4.4992ZM2.44594 16.1226H11.3873C11.6815 16.1226 11.9193 16.3605 11.9193 16.6546V37.468C11.9193 37.7621 11.6815 38 11.3873 38H2.44594C2.15182 38 1.91394 37.7621 1.91394 37.468V16.6546C1.91394 16.3605 2.15258 16.1226 2.44594 16.1226ZM10.8561 17.1866H2.97794V36.936H10.8553V17.1866H10.8561ZM35.5546 38H26.6124C26.3183 38 26.0804 37.7621 26.0804 37.468V15.2342C26.0804 14.9401 26.3183 14.7022 26.6124 14.7022H35.5538C35.8479 14.7022 36.0858 14.9401 36.0858 15.2342V37.468C36.0866 37.7621 35.8479 38 35.5546 38ZM27.1444 36.936H35.0218V15.7662H27.1444V36.936ZM22.9393 23.1777H15.0612V36.936H22.9386V23.1777H22.9393Z" fill="#001E60"/>
</svg>
