<svg width="38" height="38" viewBox="0 0 38 38" fill="none" xmlns="http://www.w3.org/2000/svg">
<path d="M5.29234 10.7254V13.1746C5.29234 13.7602 5.76883 14.2366 6.35441 14.2366H18.3823C18.9679 14.2366 19.4444 13.7602 19.4444 13.1746V10.7254C19.4444 10.1398 18.9679 9.66328 18.3823 9.66328H6.35441C5.76883 9.66328 5.29234 10.1398 5.29234 10.7254ZM18.5537 10.7254V13.1746C18.5537 13.2673 18.4751 13.346 18.3823 13.346H6.35441C6.26164 13.346 6.18297 13.2673 6.18297 13.1746V10.7254C6.18297 10.6326 6.26164 10.5539 6.35441 10.5539H18.3823C18.4751 10.5539 18.5537 10.6326 18.5537 10.7254ZM4.4084 6.32566C4.4084 6.08 4.60805 5.88035 4.85371 5.88035H10.5982C10.8439 5.88035 11.0436 6.08 11.0436 6.32566C11.0436 6.57133 10.8439 6.77098 10.5982 6.77098H4.85371C4.60805 6.77098 4.4084 6.57133 4.4084 6.32566ZM4.4084 17.6841C4.4084 17.4384 4.60805 17.2388 4.85371 17.2388H18.8143C19.0599 17.2388 19.2596 17.4384 19.2596 17.6841C19.2596 17.9298 19.0599 18.1294 18.8143 18.1294H4.85371C4.60805 18.1294 4.4084 17.9305 4.4084 17.6841ZM4.4084 20.8288C4.4084 20.5831 4.60805 20.3834 4.85371 20.3834H19.6299C19.8756 20.3834 20.0752 20.5831 20.0752 20.8288C20.0752 21.0744 19.8756 21.2741 19.6299 21.2741H4.85371C4.60805 21.2741 4.4084 21.0744 4.4084 20.8288ZM20.3283 23.9727C20.3283 24.2183 20.1287 24.418 19.883 24.418H4.85371C4.60805 24.418 4.4084 24.2183 4.4084 23.9727C4.4084 23.727 4.60805 23.5273 4.85371 23.5273H19.883C20.1287 23.5273 20.3283 23.727 20.3283 23.9727ZM20.3283 27.1173C20.3283 27.363 20.1287 27.5626 19.883 27.5626H4.85371C4.60805 27.5626 4.4084 27.363 4.4084 27.1173C4.4084 26.8716 4.60805 26.672 4.85371 26.672H19.883C20.1287 26.672 20.3283 26.8709 20.3283 27.1173ZM36.8828 16.8261C36.8828 14.604 36.0174 12.5155 34.4462 10.9443C32.875 9.37309 30.7865 8.5077 28.5644 8.5077C26.7623 8.5077 25.0486 9.07695 23.6266 10.1301V7.17176H23.6259C23.6259 7.05598 23.5813 6.94242 23.4967 6.85707L17.8836 1.24391C17.7982 1.15855 17.6846 1.11477 17.5689 1.11477V1.11328H2.89805C1.91168 1.11328 1.10938 1.91559 1.10938 2.90195V29.2348C1.10938 30.2211 1.91168 31.0234 2.89805 31.0234H21.8387C22.825 31.0234 23.6273 30.2211 23.6273 29.2348V23.5221C24.4571 24.1367 25.3863 24.5857 26.3742 24.8536L25.6461 34.0723C25.5934 34.7425 25.8279 35.3971 26.3074 35.9159C26.8692 36.5238 27.7131 36.8867 28.5651 36.8867C29.4164 36.8867 30.2603 36.5238 30.8221 35.9159C31.3016 35.3971 31.5361 34.7425 31.4834 34.0723L30.7553 24.8536C32.138 24.4788 33.4057 23.7478 34.4462 22.708C36.0174 21.1368 36.8828 19.0482 36.8828 16.8261ZM18.0134 2.63402L22.1066 6.72719H18.0134V2.63402ZM22.7367 29.2348C22.7367 29.7298 22.3337 30.1328 21.8387 30.1328H2.89805C2.40301 30.1328 2 29.7298 2 29.2348V2.90195C2 2.40691 2.40301 2.00391 2.89805 2.00391H17.1236V7.17176C17.1236 7.41742 17.3232 7.61707 17.5689 7.61707H22.7367V10.8923C22.7189 10.9094 22.7011 10.9265 22.6833 10.9443C21.1121 12.5155 20.2474 14.604 20.2474 16.8261C20.2474 19.0482 21.1128 21.1368 22.6833 22.708C22.7011 22.7258 22.7189 22.7429 22.7367 22.7599V29.2348ZM30.1682 35.3111C29.7719 35.74 29.1722 35.9961 28.5651 35.9961C27.9573 35.9961 27.3583 35.74 26.962 35.3111C26.7438 35.0743 26.4922 34.6802 26.5345 34.1421L27.0243 27.9382H30.1066L30.5965 34.1421C30.638 34.6802 30.3864 35.075 30.1682 35.3111ZM30.0354 27.0475H27.0941L27.2522 25.0414C27.6827 25.1089 28.1205 25.1446 28.5644 25.1446C29.0082 25.1446 29.4468 25.1097 29.8766 25.0414L30.0354 27.0475ZM28.5651 24.2532C26.5812 24.2532 24.7161 23.4806 23.3134 22.0779C21.9107 20.6751 21.138 18.81 21.138 16.8261C21.138 14.8423 21.9107 12.9771 23.3134 11.5744C24.7161 10.1717 26.5812 9.39906 28.5651 9.39906C30.549 9.39906 32.4141 10.1717 33.8168 11.5744C35.2196 12.9771 35.9922 14.8423 35.9922 16.8261C35.9922 18.81 35.2196 20.6751 33.8168 22.0779C32.4141 23.4806 30.549 24.2532 28.5651 24.2532ZM33.2053 12.186C30.6462 9.62691 26.4833 9.62691 23.9242 12.186C21.3652 14.745 21.3652 18.908 23.9242 21.467C25.2037 22.7466 26.8841 23.3863 28.5644 23.3863C30.2447 23.3863 31.9257 22.7466 33.2045 21.467C34.444 20.2276 35.1268 18.5792 35.1268 16.8269C35.1268 15.0746 34.4447 13.4254 33.2053 12.186ZM32.5759 20.8369C30.3642 23.0486 26.7661 23.0486 24.5543 20.8369C22.3426 18.6252 22.3426 15.0271 24.5543 12.8154C25.6602 11.7095 27.1127 11.1566 28.5651 11.1566C30.0176 11.1566 31.47 11.7095 32.5759 12.8154C33.6469 13.8863 34.2369 15.3113 34.2369 16.8261C34.2369 18.3409 33.6469 19.7659 32.5759 20.8369ZM32.8134 14.6923H31.113C30.8674 14.6923 30.6677 14.892 30.6677 15.1377V18.9369C30.6677 19.1826 30.8674 19.3822 31.113 19.3822H32.8134C33.0591 19.3822 33.2587 19.1826 33.2587 18.9369V15.1377C33.2587 14.892 33.0598 14.6923 32.8134 14.6923ZM32.3681 18.4916H31.5584V15.583H32.3681V18.4916ZM29.4149 12.9081H27.7146C27.4689 12.9081 27.2693 13.1078 27.2693 13.3534V18.9369C27.2693 19.1826 27.4689 19.3822 27.7146 19.3822H29.4149C29.6606 19.3822 29.8602 19.1826 29.8602 18.9369V13.3534C29.8602 13.1078 29.6606 12.9081 29.4149 12.9081ZM28.9696 18.4916H28.1599V13.7987H28.9696V18.4916ZM26.0164 16.1789H24.3161C24.0704 16.1789 23.8708 16.3786 23.8708 16.6243V18.9369C23.8708 19.1826 24.0704 19.3822 24.3161 19.3822H26.0164C26.2621 19.3822 26.4618 19.1826 26.4618 18.9369V16.6243C26.4618 16.3786 26.2621 16.1789 26.0164 16.1789ZM25.5711 18.4916H24.7614V17.0696H25.5711V18.4916Z" fill="#0053E2"/>
</svg>
