<svg width="38" height="38" viewBox="0 0 38 38" fill="none" xmlns="http://www.w3.org/2000/svg">
<path fill-rule="evenodd" clip-rule="evenodd" d="M33.6308 23.4504L30.9513 20.7708L31.4895 20.2329L34.169 22.9125L33.6308 23.4504ZM24.1035 16.7749C24.3693 16.8113 24.6186 16.6295 24.6573 16.3591L25.0117 13.878C25.0578 13.5556 24.7805 13.2779 24.458 13.3245L21.9768 13.6788C21.7092 13.7168 21.5232 13.9648 21.5614 14.2322C21.5998 14.4998 21.8477 14.6858 22.1154 14.6479L23.1427 14.5012L20.9374 16.7063C19.4595 14.8817 19.5902 12.2221 21.2649 10.5469C23.0676 8.74371 25.9866 8.74378 27.7893 10.5469C29.5919 12.3499 29.5925 15.2683 27.7893 17.0712C26.1152 18.745 23.4485 18.8692 21.6296 17.3987L23.8349 15.1931L23.688 16.2208C23.65 16.4883 23.8359 16.7363 24.1035 16.7749ZM20.4087 18.6191C22.9081 20.7661 26.6578 20.6331 29.005 18.2863C31.4794 15.8122 31.4793 11.805 29.005 9.33096C26.5302 6.85655 22.5242 6.85655 20.0495 9.33096C17.7023 11.6777 17.5696 15.4273 19.7165 17.9272L20.2423 17.4012C18.3828 15.1903 18.5154 11.9117 20.5729 9.85437C22.7587 7.66869 26.2957 7.66914 28.4816 9.85437C30.6674 12.0396 30.6669 15.5776 28.4816 17.7629C26.4255 19.819 23.1402 19.9446 20.9349 18.093L20.4087 18.6191ZM16.2441 22.6295C15.9476 22.6295 15.7066 22.388 15.7066 22.0917C15.7066 21.7954 15.9477 21.554 16.2441 21.554C16.5407 21.554 16.7817 21.7954 16.7817 22.0917C16.7817 22.3879 16.5406 22.6295 16.2441 22.6295ZM11.0473 17.7042C10.7509 17.7042 10.5097 17.4628 10.5097 17.1663C10.5097 16.87 10.7509 16.6287 11.0473 16.6287C11.3439 16.6287 11.5851 16.8701 11.5851 17.1663C11.585 17.4627 11.3439 17.7042 11.0473 17.7042ZM5.8506 21.2719C5.5542 21.2719 5.3129 21.0306 5.3129 20.7343C5.3129 20.4378 5.55412 20.1965 5.8506 20.1965C6.14707 20.1965 6.3883 20.4379 6.3883 20.7343C6.3883 21.0306 6.14707 21.2719 5.8506 21.2719ZM34.8761 22.2352L32.1668 19.5255C31.8164 19.1756 31.2563 19.1508 30.8772 19.4668L30.0317 18.621C32.5607 15.7365 32.4265 11.368 29.6972 8.63852C26.8406 5.78184 22.2136 5.78206 19.3572 8.63852C16.6278 11.3678 16.4937 15.7368 19.0227 18.621L16.9126 20.7308C16.4784 20.516 15.9673 20.5239 15.5393 20.749L12.4254 17.798C12.8841 16.8014 12.1546 15.6495 11.0472 15.6495C10.0419 15.6495 9.31711 16.6135 9.58721 17.5748L6.75629 19.5184C5.76213 18.7774 4.33402 19.4865 4.33402 20.7343C4.33402 21.5702 5.01429 22.2508 5.8506 22.2508C6.85608 22.2508 7.58097 21.2868 7.31071 20.3256L10.1416 18.3823C10.6086 18.7301 11.234 18.7818 11.7521 18.5088L14.8659 21.46C14.4075 22.4558 15.1356 23.6084 16.2441 23.6084C17.3722 23.6084 18.0966 22.4195 17.6049 21.4234L19.7149 19.3135C22.4647 21.7238 26.5896 21.7238 29.3394 19.3135L30.1851 20.1593C29.8723 20.5352 29.8918 21.0958 30.2442 21.4482L32.9533 24.1579C33.3273 24.5313 33.9343 24.5316 34.3081 24.1579L34.876 23.5895C35.2495 23.2161 35.2495 22.6085 34.8761 22.2352ZM5.00008 24.9998H6.70111V30.5236H5.00008V24.9998ZM10.1969 21.4319H11.8979V30.5235H10.1969V21.4319ZM15.3937 26.3572H17.0947V30.5236H15.3937V26.3572ZM25.9778 30.5236C26.2481 30.5236 26.4673 30.7428 26.4673 31.0129C26.4673 31.2831 26.248 31.5024 25.9778 31.5024H3.34108C3.07067 31.5024 2.85156 31.2831 2.85156 31.0129C2.85156 30.7428 3.07075 30.5236 3.34108 30.5236H4.0212V24.5103C4.0212 24.24 4.24039 24.0208 4.51057 24.0208H7.19063C7.46089 24.0208 7.67999 24.2401 7.67999 24.5103V30.5236H9.21785V20.9424C9.21785 20.6722 9.43696 20.4529 9.70737 20.4529H12.3873C12.6576 20.4529 12.8768 20.6722 12.8768 20.9424V30.5235H14.4147V25.8677C14.4147 25.5975 14.6338 25.3782 14.9042 25.3782H17.5841C17.8544 25.3782 18.0735 25.5975 18.0735 25.8677V30.5235H25.9778V30.5236Z" fill="#0053E2"/>
</svg>
