<svg width="38" height="38" viewBox="0 0 38 38" fill="#001E60" xmlns="http://www.w3.org/2000/svg">
<g clip-path="url(#clip0_681_2043)">
<path d="M17.8125 2.375H16.625C16.4675 2.375 16.3165 2.43756 16.2052 2.54891C16.0938 2.66026 16.0312 2.81128 16.0312 2.96875C16.0312 3.12622 16.0938 3.27724 16.2052 3.38859C16.3165 3.49994 16.4675 3.5625 16.625 3.5625H17.8125C17.97 3.5625 18.121 3.49994 18.2323 3.38859C18.3437 3.27724 18.4062 3.12622 18.4062 2.96875C18.4062 2.81128 18.3437 2.66026 18.2323 2.54891C18.121 2.43756 17.97 2.375 17.8125 2.375Z" fill="#001E60"/>
<path d="M8.01562 30.875C7.8582 30.8748 7.70727 30.8122 7.59595 30.7009C7.48464 30.5896 7.42203 30.4387 7.42188 30.2812V28.5H16.4387L15.8092 27.3125H7.42188V5.9375H27.0156V22.201C27.4442 22.2825 27.8496 22.4574 28.2031 22.7131V1.78125C28.2026 1.30899 28.0148 0.856224 27.6808 0.522286C27.3469 0.188349 26.8941 0.000516275 26.4219 0L8.01562 0C7.54337 0.000514707 7.0906 0.188347 6.75666 0.522285C6.42272 0.856222 6.23489 1.30899 6.23438 1.78125V30.2812C6.23489 30.7535 6.42272 31.2063 6.75666 31.5402C7.0906 31.8742 7.54337 32.062 8.01562 32.0625H13.9534C13.9415 32.0013 13.9299 31.94 13.922 31.878C13.879 31.5425 13.9013 31.202 13.9875 30.875H8.01562ZM7.42188 1.78125C7.42203 1.62383 7.48464 1.47289 7.59595 1.36158C7.70727 1.25026 7.8582 1.18766 8.01562 1.1875H26.4219C26.5793 1.18768 26.7302 1.2503 26.8415 1.36161C26.9528 1.47292 27.0154 1.62383 27.0156 1.78125V4.75H7.42188V1.78125Z" fill="#001E60"/>
<path d="M31.7096 32.74C31.2904 31.1198 30.7222 29.5419 30.0124 28.0263C30.0066 28.0127 28.0218 24.2606 28.0218 24.2606C27.7943 23.8457 27.4115 23.5379 26.9574 23.4047C26.5033 23.2715 26.015 23.3237 25.5993 23.5499C25.339 23.6914 25.1109 23.8854 24.9293 24.1196C24.7294 23.8726 24.4663 23.6845 24.168 23.5751C23.9478 23.4977 23.7137 23.4675 23.4811 23.4864C23.2484 23.5053 23.0224 23.573 22.8176 23.685C22.6126 23.7939 22.4302 23.9406 22.2797 24.1173C22.0637 23.8793 21.7858 23.7061 21.477 23.617C21.0222 23.4872 20.5348 23.5394 20.1178 23.7625C19.8701 23.8973 19.6514 24.0796 19.4742 24.299L17.8585 21.2511C17.654 20.855 17.3264 20.536 16.925 20.342C16.7053 20.2356 16.4636 20.1828 16.2195 20.1878C15.9755 20.1929 15.7362 20.2556 15.5211 20.3709C15.1015 20.5909 14.7841 20.9656 14.6362 21.4157C14.5618 21.6382 14.5334 21.8736 14.5528 22.1075C14.5722 22.3414 14.639 22.5689 14.7491 22.7761L18.7152 30.257C18.0863 29.9394 17.3823 29.8005 16.6799 29.8554C16.437 29.8879 16.2032 29.9691 15.9924 30.0941C15.7817 30.2192 15.5984 30.3855 15.4535 30.5831C15.315 30.7369 15.2117 30.919 15.1508 31.1168C15.0899 31.3146 15.0729 31.5233 15.101 31.7283C15.2122 32.6011 16.0319 33.4239 17.6069 34.2432L23.0541 37.6401C23.4507 37.8634 23.8955 37.987 24.3503 38.0006C24.8052 38.0141 25.2566 37.9171 25.6657 37.7179L30.6337 35.0819C31.0418 34.86 31.3671 34.5119 31.561 34.0898C31.7549 33.6677 31.807 33.1942 31.7096 32.74ZM30.0774 34.0329L25.109 36.6689C24.8836 36.7695 24.6385 36.8184 24.3917 36.8121C24.145 36.8058 23.9027 36.7444 23.6827 36.6325C23.6827 36.6325 17.1704 32.6431 16.7481 32.2512C16.6283 32.172 16.5285 32.0661 16.4565 31.9418C16.3846 31.8174 16.3425 31.6781 16.3335 31.5348C16.3485 31.4036 16.4084 31.2816 16.5032 31.1896C16.5979 31.0976 16.7216 31.0412 16.8532 31.0302C17.6859 30.9083 19.1462 31.7628 19.8732 32.3313C19.9779 32.4127 20.1069 32.4566 20.2395 32.456C20.3721 32.4554 20.5007 32.4104 20.6047 32.3281C20.7088 32.2459 20.7822 32.1311 20.8134 32.0022C20.8445 31.8733 20.8315 31.7377 20.7765 31.617C20.7719 31.6067 15.8018 22.2266 15.7984 22.2199C15.598 21.8421 15.9687 21.2069 16.4247 21.4189C16.5904 21.505 16.7249 21.6409 16.8095 21.8073C16.8095 21.8073 21.7011 31.0338 21.7028 31.0373C21.7778 31.1752 21.9038 31.2782 22.0538 31.3242C22.2038 31.3703 22.3659 31.3558 22.5053 31.2837C22.5742 31.2472 22.6353 31.1975 22.6849 31.1374C22.7346 31.0773 22.772 31.0079 22.7949 30.9334C22.8177 30.8588 22.8257 30.7805 22.8183 30.7029C22.8109 30.6252 22.7883 30.5498 22.7517 30.4809L20.2199 25.7048C20.0938 25.4668 20.3356 24.9911 20.6742 24.8116C20.8118 24.7341 20.9742 24.7135 21.1268 24.7544C21.2793 24.7952 21.4098 24.8941 21.4903 25.0299C21.4903 25.0299 24.041 29.8568 24.0419 29.8586C24.1168 29.9966 24.2427 30.0997 24.3927 30.1458C24.5428 30.192 24.7049 30.1775 24.8444 30.1055C24.9835 30.0318 25.0878 29.9059 25.1341 29.7553C25.1804 29.6048 25.165 29.442 25.0914 29.3028L23.0779 25.4893C23.0247 25.3491 23.0255 25.1941 23.0803 25.0545C23.1351 24.9149 23.2398 24.8007 23.3742 24.7341C23.4391 24.7014 23.51 24.6824 23.5825 24.6782C23.655 24.6741 23.7276 24.6849 23.7958 24.7099C23.864 24.735 23.9263 24.7737 23.9789 24.8238C24.0315 24.874 24.0733 24.9343 24.1016 25.0012C24.1016 25.0012 26.073 28.7204 26.0756 28.7249C26.1487 28.8682 26.2752 28.977 26.4278 29.0278C26.5804 29.0785 26.7468 29.0672 26.8912 28.9963C26.9601 28.9598 27.0211 28.91 27.0708 28.85C27.1205 28.7899 27.1578 28.7206 27.1807 28.646C27.2036 28.5715 27.2116 28.4932 27.2042 28.4155C27.1968 28.3379 27.1741 28.2625 27.1376 28.1936L26.2965 26.6071L25.7046 25.49C25.5787 25.2521 25.8191 24.7777 26.1559 24.5991C26.2933 24.5201 26.4563 24.4987 26.6094 24.5395C26.7625 24.5803 26.8932 24.6801 26.9729 24.817L28.8933 28.4402C29.5906 29.9184 30.1488 31.4583 30.5607 33.0399C30.5896 33.2348 30.5589 33.434 30.4727 33.6112C30.3864 33.7884 30.2486 33.9354 30.0774 34.0329Z" fill="#001E60"/>
</g>
<defs>
<clipPath id="clip0_681_2043">
<rect width="38" height="38" fill="#001E60"/>
</clipPath>
</defs>
</svg>
