<svg width="38" height="38" viewBox="0 0 38 38" fill="#001E60" xmlns="http://www.w3.org/2000/svg">
<path d="M10.5171 29.2031C10.381 29.203 10.2504 29.1503 10.1541 29.0565C10.0579 28.9628 10.0037 28.8357 10.0036 28.7031V27.2031H17.802L17.2575 26.2031H10.0036V8.20312H26.9495V21.8987C27.3202 21.9674 27.6708 22.1146 27.9766 22.33V4.70312C27.9761 4.30543 27.8137 3.92416 27.5249 3.64295C27.236 3.36173 26.8445 3.20356 26.436 3.20312H10.5171C10.1087 3.20356 9.71708 3.36173 9.42827 3.64294C9.13946 3.92415 8.97701 4.30543 8.97656 4.70312V28.7031C8.97701 29.1008 9.13946 29.4821 9.42827 29.7633C9.71708 30.0445 10.1087 30.2027 10.5171 30.2031H15.6525C15.6422 30.1516 15.6322 30.1 15.6253 30.0477C15.5882 29.7653 15.6074 29.4785 15.6819 29.2031H10.5171ZM10.0036 4.70312C10.0037 4.57056 10.0579 4.44346 10.1541 4.34972C10.2504 4.25598 10.381 4.20326 10.5171 4.20312H26.436C26.5722 4.20328 26.7027 4.25601 26.799 4.34974C26.8952 4.44348 26.9494 4.57056 26.9495 4.70312V7.20312H10.0036V4.70312Z" fill="#001E60"/>
<path d="M30.9348 31.0679C30.5695 29.7947 30.0743 28.5546 29.4556 27.3636C29.4506 27.3528 27.7207 24.4041 27.7207 24.4041C27.5224 24.0781 27.1888 23.8362 26.7931 23.7315C26.3973 23.6268 25.9716 23.6678 25.6094 23.8456C25.3825 23.9568 25.1837 24.1093 25.0254 24.2933C24.8512 24.0992 24.6219 23.9513 24.3619 23.8654C24.17 23.8046 23.966 23.7808 23.7632 23.7957C23.5604 23.8105 23.3634 23.8637 23.1849 23.9518C23.0063 24.0373 22.8473 24.1526 22.7162 24.2915C22.5279 24.1045 22.2856 23.9684 22.0165 23.8983C21.6202 23.7963 21.1954 23.8373 20.832 24.0127C20.6161 24.1186 20.4254 24.2619 20.271 24.4343L18.8629 22.039C18.6846 21.7277 18.399 21.477 18.0492 21.3245C17.8577 21.2409 17.6471 21.1994 17.4344 21.2034C17.2217 21.2073 17.0131 21.2567 16.8256 21.3473C16.46 21.5202 16.1833 21.8147 16.0545 22.1683C15.9896 22.3432 15.9648 22.5282 15.9817 22.712C15.9986 22.8958 16.0569 23.0746 16.1529 23.2375L19.6095 29.1166C19.0614 28.867 18.4478 28.7578 17.8356 28.801C17.6239 28.8265 17.4201 28.8903 17.2365 28.9886C17.0528 29.0869 16.893 29.2176 16.7667 29.3729C16.646 29.4937 16.556 29.6369 16.5029 29.7923C16.4499 29.9477 16.435 30.1117 16.4595 30.2729C16.5564 30.9588 17.2708 31.6054 18.6435 32.2493L23.3911 34.9189C23.7367 35.0943 24.1244 35.1915 24.5208 35.2021C24.9173 35.2128 25.3106 35.1365 25.6672 34.98L29.9971 32.9084C30.3528 32.734 30.6363 32.4605 30.8053 32.1287C30.9743 31.797 31.0198 31.4249 30.9348 31.0679ZM29.5123 32.084L25.1821 34.1556C24.9856 34.2346 24.772 34.2731 24.5569 34.2681C24.3418 34.2632 24.1307 34.215 23.9389 34.127C23.9389 34.127 18.2631 30.9918 17.8951 30.6838C17.7906 30.6216 17.7036 30.5383 17.6409 30.4406C17.5782 30.3429 17.5415 30.2334 17.5337 30.1208C17.5467 30.0177 17.599 29.9218 17.6816 29.8495C17.7641 29.7772 17.872 29.7329 17.9867 29.7242C18.7124 29.6284 19.9851 30.3 20.6187 30.7468C20.71 30.8107 20.8224 30.8452 20.938 30.8447C21.0536 30.8443 21.1657 30.8089 21.2563 30.7443C21.347 30.6796 21.411 30.5894 21.4382 30.4881C21.4653 30.3868 21.454 30.2802 21.4061 30.1854C21.402 30.1773 17.0703 22.8056 17.0673 22.8003C16.8927 22.5035 17.2157 22.0043 17.6132 22.1708C17.7576 22.2386 17.8748 22.3453 17.9485 22.4761C17.9485 22.4761 22.2118 29.7271 22.2134 29.7298C22.2787 29.8382 22.3885 29.9191 22.5192 29.9553C22.65 29.9915 22.7913 29.9801 22.9128 29.9235C22.9728 29.8948 23.026 29.8557 23.0693 29.8085C23.1126 29.7612 23.1452 29.7067 23.1651 29.6482C23.1851 29.5896 23.192 29.528 23.1856 29.467C23.1791 29.406 23.1594 29.3467 23.1276 29.2926L20.9209 25.5391C20.811 25.3521 21.0217 24.9782 21.3169 24.8371C21.4368 24.7762 21.5784 24.7601 21.7113 24.7921C21.8443 24.8242 21.958 24.902 22.0282 25.0087C22.0282 25.0087 24.2512 28.802 24.252 28.8035C24.3172 28.9119 24.427 28.993 24.5578 29.0292C24.6885 29.0655 24.8298 29.0541 24.9514 28.9975C25.0727 28.9396 25.1635 28.8406 25.2039 28.7223C25.2443 28.604 25.2309 28.4761 25.1667 28.3667L23.4118 25.3697C23.3654 25.2595 23.3662 25.1377 23.4139 25.028C23.4616 24.9183 23.553 24.8285 23.6701 24.7762C23.7266 24.7505 23.7884 24.7356 23.8516 24.7323C23.9148 24.7291 23.9781 24.7375 24.0375 24.7572C24.097 24.7769 24.1513 24.8074 24.1971 24.8468C24.243 24.8861 24.2794 24.9336 24.304 24.9862C24.304 24.9862 26.0223 27.909 26.0245 27.9126C26.0882 28.0252 26.1984 28.1106 26.3314 28.1506C26.4644 28.1905 26.6095 28.1816 26.7353 28.1258C26.7953 28.0971 26.8485 28.058 26.8918 28.0108C26.9351 27.9636 26.9677 27.9091 26.9876 27.8505C27.0076 27.792 27.0145 27.7304 27.0081 27.6694C27.0016 27.6084 26.9819 27.5491 26.9501 27.495L26.2171 26.2482L25.7011 25.3703C25.5914 25.1833 25.8009 24.8105 26.0945 24.6701C26.2142 24.6081 26.3563 24.5912 26.4897 24.6233C26.6231 24.6554 26.737 24.7338 26.8066 24.8414L28.4803 27.6888C29.088 28.8505 29.5745 30.0606 29.9335 31.3036C29.9587 31.4568 29.932 31.6133 29.8568 31.7526C29.7816 31.8918 29.6615 32.0074 29.5123 32.084Z" fill="#001E60"/>
</svg>
