<svg width="32" height="32" viewBox="0 0 32 32" fill="#001E60" xmlns="http://www.w3.org/2000/svg">
<path d="M13.4972 16.6075C13.2872 16.6075 13.1172 16.7775 13.1172 16.9875C13.1172 17.1975 13.2872 17.3675 13.4972 17.3675H15.6272V18.2475C15.6272 18.4575 15.7972 18.6275 16.0072 18.6275C16.2172 18.6275 16.3872 18.4575 16.3872 18.2475V17.3675H16.8472C17.9772 17.3675 18.8872 16.4475 18.8872 15.3275C18.8872 14.1975 17.9672 13.2875 16.8472 13.2875H16.3872V10.7075H18.5172C18.7272 10.7075 18.8972 10.5375 18.8972 10.3275C18.8972 10.1175 18.7272 9.9475 18.5172 9.9475H16.3872V9.0675C16.3872 8.8575 16.2172 8.6875 16.0072 8.6875C15.7972 8.6875 15.6272 8.8575 15.6272 9.0675V9.9475H15.1672C14.0372 9.9475 13.1272 10.8675 13.1272 11.9875C13.1272 13.1075 14.0472 14.0275 15.1672 14.0275H15.6272V16.6075H13.4972ZM16.3772 14.0275H16.8372C17.5472 14.0275 18.1272 14.6075 18.1272 15.3175C18.1272 16.0275 17.5472 16.6075 16.8372 16.6075H16.3772V14.0275ZM15.1672 13.2775C14.4572 13.2775 13.8772 12.6975 13.8772 11.9875C13.8772 11.2775 14.4572 10.6975 15.1672 10.6975H15.6272V13.2775H15.1672Z" fill="#001E60"/>
<path d="M15.9991 21.1075C20.1091 21.1075 23.4591 17.7575 23.4591 13.6475C23.4591 9.5375 20.1091 6.1875 15.9991 6.1875C11.8891 6.1875 8.53906 9.5375 8.53906 13.6475C8.53906 17.7575 11.8891 21.1075 15.9991 21.1075ZM15.9991 6.9375C19.6991 6.9375 22.7091 9.9475 22.7091 13.6475C22.7091 17.3475 19.6991 20.3575 15.9991 20.3575C12.2991 20.3575 9.28906 17.3475 9.28906 13.6475C9.28906 9.9475 12.2991 6.9375 15.9991 6.9375Z" fill="#001E60"/>
<path d="M30.5791 2.85938H1.41906C1.20906 2.85938 1.03906 3.02938 1.03906 3.23938V4.89938C1.03906 5.10938 1.20906 5.27938 1.41906 5.27938H1.87906V22.8194C1.87906 23.0294 2.04906 23.1994 2.25906 23.1994H10.8891L7.27906 28.5694C7.15906 28.7394 7.20906 28.9694 7.37906 29.0894C7.54906 29.2094 7.77906 29.1594 7.89906 28.9894L11.7891 23.2094H15.6291V26.9794C15.6291 27.1894 15.7991 27.3594 16.0091 27.3594C16.2191 27.3594 16.3891 27.1894 16.3891 26.9794V23.2094H20.2291L24.1191 28.9894C24.1891 29.0994 24.3091 29.1594 24.4291 29.1594C24.4991 29.1594 24.5691 29.1394 24.6391 29.0994C24.8091 28.9794 24.8591 28.7494 24.7391 28.5794L21.1291 23.2094H29.7591C29.9691 23.2094 30.1391 23.0394 30.1391 22.8294V5.27938H30.5991C30.8091 5.27938 30.9791 5.10938 30.9791 4.89938V3.22938C30.9591 3.02938 30.7891 2.85938 30.5791 2.85938ZM29.3791 22.4394H20.4191H11.5891H2.62906V5.27938H29.3791V22.4394ZM30.2091 4.52938H29.7491H2.24906H1.78906V3.60938H30.2091V4.52938Z" fill="#001E60"/>
</svg>
