<svg width="46" height="36" viewBox="0 0 46 36" fill="#001E60" xmlns="http://www.w3.org/2000/svg">
<path d="M35.6563 25.5282H21.5777C21.1893 25.5282 20.8746 25.2134 20.8746 24.8251C20.8746 24.4367 21.1893 24.122 21.5777 24.122H35.6563C35.8731 24.122 36.0598 23.9674 36.1003 23.7544L37.8792 14.4025C37.9138 14.2207 37.834 14.0909 37.7834 14.0298C37.7327 13.9686 37.6202 13.866 37.4351 13.866H19.3594C18.971 13.866 18.6562 13.5512 18.6562 13.1628C18.6562 12.7745 18.971 12.4597 19.3594 12.4597H37.4351C37.9906 12.4597 38.5124 12.7051 38.8666 13.1331C39.2208 13.561 39.3645 14.1195 39.2606 14.6652L37.4818 24.0172C37.3153 24.8927 36.5475 25.5282 35.6563 25.5282Z" fill="#001E60"/>
<path d="M38.3831 16.2051H19.7969C19.4085 16.2051 19.0938 15.8903 19.0938 15.502C19.0938 15.1136 19.4085 14.7988 19.7969 14.7988H38.3831C38.7715 14.7988 39.0863 15.1136 39.0863 15.502C39.0863 15.8903 38.7715 16.2051 38.3831 16.2051Z" fill="#001E60"/>
<path d="M37.9378 18.5359H20.2383C19.85 18.5359 19.5352 18.2211 19.5352 17.8328C19.5352 17.4444 19.85 17.1296 20.2383 17.1296H37.9378C38.3262 17.1296 38.641 17.4444 38.641 17.8328C38.641 18.2211 38.3262 18.5359 37.9378 18.5359Z" fill="#001E60"/>
<path d="M37.4964 20.8665H20.6836C20.2953 20.8665 19.9805 20.5517 19.9805 20.1633C19.9805 19.775 20.2953 19.4602 20.6836 19.4602H37.4964C37.8848 19.4602 38.1996 19.775 38.1996 20.1633C38.1996 20.5517 37.8848 20.8665 37.4964 20.8665Z" fill="#001E60"/>
<path d="M37.0512 23.1973H21.125C20.7367 23.1973 20.4219 22.8825 20.4219 22.4941C20.4219 22.1058 20.7367 21.791 21.125 21.791H37.0512C37.4395 21.791 37.7543 22.1058 37.7543 22.4941C37.7543 22.8825 37.4395 23.1973 37.0512 23.1973Z" fill="#001E60"/>
<path d="M35.4376 28.8933H24.405C22.7964 28.8933 21.4106 27.7463 21.11 26.166L18.3125 11.4594C18.3094 11.4435 18.307 11.4274 18.3051 11.4113C18.2608 11.0398 18.0744 10.7078 17.7804 10.4764C17.4863 10.2451 17.1199 10.1421 16.7483 10.1863L16.4624 10.2205C16.0766 10.2665 15.7269 9.9913 15.6808 9.60575C15.6348 9.22018 15.91 8.87026 16.2956 8.82417L16.5816 8.78998C18.11 8.60758 19.5024 9.69549 19.6982 11.2188L22.4915 25.9032C22.666 26.8209 23.4708 27.487 24.405 27.487H35.4376C35.8259 27.487 36.1407 27.8018 36.1407 28.1902C36.1407 28.5785 35.826 28.8933 35.4376 28.8933Z" fill="#001E60"/>
<path d="M12.2523 11.7827C11.8714 11.7827 11.5035 11.6568 11.1983 11.4187C10.8362 11.1362 10.6058 10.7296 10.5495 10.2739L10.5404 10.2004C10.4242 9.25944 11.0951 8.39949 12.036 8.2833L15.155 7.8981C16.096 7.78185 16.9559 8.45278 17.072 9.39365L17.0812 9.46727C17.1374 9.92301 17.0129 10.3734 16.7304 10.7355C16.4479 11.0976 16.0414 11.328 15.5856 11.3843L12.4665 11.7695C12.3949 11.7783 12.3234 11.7827 12.2523 11.7827ZM15.3661 9.29134C15.3533 9.29134 15.3404 9.29211 15.3275 9.29372L12.2084 9.67891C12.0371 9.70007 11.9149 9.85663 11.9361 10.0279L11.9452 10.1014C11.959 10.2135 12.0252 10.2801 12.0633 10.3099C12.1015 10.3397 12.1822 10.3875 12.2942 10.3738L15.4133 9.98858C15.5252 9.97475 15.5919 9.90866 15.6217 9.87049C15.6515 9.83231 15.6994 9.75154 15.6856 9.6396L15.6765 9.56597C15.6569 9.40768 15.5217 9.29134 15.3661 9.29134Z" fill="#001E60"/>
<path d="M25.5751 32.7466C24.125 32.7466 22.9453 31.5669 22.9453 30.1168C22.9453 28.6668 24.125 27.4871 25.5751 27.4871C27.0251 27.4871 28.2048 28.6668 28.2048 30.1168C28.2048 31.5669 27.0251 32.7466 25.5751 32.7466ZM25.5751 28.8933C24.9004 28.8933 24.3516 29.4422 24.3516 30.1168C24.3516 30.7915 24.9004 31.3403 25.5751 31.3403C26.2497 31.3403 26.7986 30.7915 26.7986 30.1168C26.7986 29.4422 26.2497 28.8933 25.5751 28.8933Z" fill="#001E60"/>
<path d="M33.5126 32.7466C32.0625 32.7466 30.8828 31.5669 30.8828 30.1168C30.8828 28.6668 32.0625 27.4871 33.5126 27.4871C34.9626 27.4871 36.1423 28.6668 36.1423 30.1168C36.1423 31.5669 34.9626 32.7466 33.5126 32.7466ZM33.5126 28.8933C32.8379 28.8933 32.2891 29.4422 32.2891 30.1168C32.2891 30.7915 32.8379 31.3403 33.5126 31.3403C34.1872 31.3403 34.7361 30.7915 34.7361 30.1168C34.7361 29.4422 34.1872 28.8933 33.5126 28.8933Z" fill="#001E60"/>
<path d="M43.1007 35.8635H6.71914C5.39642 35.8635 4.32031 34.7875 4.32031 33.465V31.6498C4.32031 31.2615 4.63511 30.9467 5.02344 30.9467C5.41177 30.9467 5.72656 31.2615 5.72656 31.6498V33.465C5.72656 34.0121 6.17185 34.4572 6.71914 34.4572H43.1007C43.648 34.4572 44.0933 34.0121 44.0933 33.465V2.64734C44.0933 2.1002 43.648 1.65503 43.1007 1.65503H6.71914C6.17185 1.65503 5.72656 2.10017 5.72656 2.64734V22.2189C5.72656 22.6073 5.41177 22.9221 5.02344 22.9221C4.63511 22.9221 4.32031 22.6073 4.32031 22.2189V2.64734C4.32031 1.32477 5.39642 0.248779 6.71914 0.248779H43.1007C44.4234 0.248779 45.4995 1.32477 45.4995 2.64734V33.465C45.4995 34.7875 44.4234 35.8635 43.1007 35.8635Z" fill="#001E60"/>
<path d="M44.7961 6.98877H5.02344C4.63511 6.98877 4.32031 6.67397 4.32031 6.28564C4.32031 5.89731 4.63511 5.58252 5.02344 5.58252H44.7961C45.1845 5.58252 45.4993 5.89731 45.4993 6.28564C45.4993 6.67397 45.1845 6.98877 44.7961 6.98877Z" fill="#001E60"/>
<path d="M9.45473 4.32593H7.62109C7.23276 4.32593 6.91797 4.01113 6.91797 3.6228C6.91797 3.23447 7.23276 2.91968 7.62109 2.91968H9.45473C9.84306 2.91968 10.1579 3.23447 10.1579 3.6228C10.1579 4.01113 9.84306 4.32593 9.45473 4.32593Z" fill="#001E60"/>
<path d="M13.861 4.32593H12.0273C11.639 4.32593 11.3242 4.01113 11.3242 3.6228C11.3242 3.23447 11.639 2.91968 12.0273 2.91968H13.861C14.2493 2.91968 14.5641 3.23447 14.5641 3.6228C14.5641 4.01113 14.2493 4.32593 13.861 4.32593Z" fill="#001E60"/>
<path d="M18.2633 4.32593H16.4297C16.0414 4.32593 15.7266 4.01113 15.7266 3.6228C15.7266 3.23447 16.0414 2.91968 16.4297 2.91968H18.2633C18.6517 2.91968 18.9664 3.23447 18.9664 3.6228C18.9664 4.01113 18.6517 4.32593 18.2633 4.32593Z" fill="#001E60"/>
<path d="M3.68791 33.5267C3.39556 33.5267 3.12075 33.4128 2.91403 33.2061L0.820537 31.1126C0.613848 30.9059 0.5 30.6311 0.5 30.3388C0.5 30.0464 0.613848 29.7716 0.820537 29.5649L5.10682 25.2786L3.10426 23.6501C2.76843 23.377 2.62502 22.9307 2.7389 22.5131C2.85277 22.0955 3.20287 21.7837 3.63087 21.7189L12.3879 20.3928C12.7303 20.341 13.0808 20.4562 13.3256 20.701C13.5705 20.9458 13.6857 21.2964 13.6339 21.6388L12.3078 30.3958C12.2429 30.8238 11.9312 31.1739 11.5136 31.2878C11.0961 31.4017 10.6497 31.2583 10.3766 30.9224L8.74809 28.9199L4.46182 33.2061C4.25507 33.4128 3.98023 33.5267 3.68791 33.5267ZM2.03542 30.3388L3.68791 31.9913L7.99807 27.6811C8.21674 27.4625 8.5192 27.346 8.8281 27.362C9.13692 27.3778 9.42594 27.5246 9.62103 27.7645L11.0229 29.4883L12.1801 21.8466L4.53837 23.0038L6.2622 24.4056C6.50211 24.6007 6.6488 24.8897 6.66468 25.1985C6.68056 25.5074 6.56425 25.8099 6.34558 26.0286L2.03542 30.3388ZM10.9175 30.1844C10.9174 30.1847 10.9174 30.185 10.9174 30.1852L10.9175 30.1844Z" fill="#001E60"/>
</svg>
