<svg width="54" height="54" viewBox="0 0 54 54" fill="none" xmlns="http://www.w3.org/2000/svg">
<path d="M46.5177 22.3218H46.384V19.047C46.384 8.52766 37.8565 0 27.337 0C16.8175 0 8.28997 8.52766 8.28997 19.047V22.3218H7.48804C4.54742 22.3218 2.27518 24.9281 2.27518 27.9357V36.2896C2.20111 39.2045 4.50418 41.6276 7.41909 41.7016C7.44212 41.7023 7.46502 41.7027 7.48804 41.7029H12.4336C13.134 41.6701 13.6753 41.0754 13.6423 40.3749C13.6411 40.3497 13.6392 40.3245 13.6365 40.2994V23.9256C13.6365 23.1237 13.1687 22.3216 12.4336 22.3216H10.9632V19.0469C10.9632 10.004 18.2941 2.67314 27.337 2.67314C36.3799 2.67314 43.7108 10.004 43.7108 19.0469V22.3216H42.2404C41.5053 22.3216 41.0375 23.1236 41.0375 23.9256V40.2994C40.9629 40.9967 41.4677 41.6225 42.165 41.697C42.19 41.6997 42.2152 41.7016 42.2404 41.7028H43.7775L43.6439 41.9033C41.6385 44.5685 38.4916 46.1295 35.1562 46.1136C34.4261 42.5333 30.9315 40.2226 27.3512 40.9529C24.2894 41.5773 22.0819 44.2588 22.0572 47.3835C22.0938 51.0484 25.0754 54 28.7404 53.9997C30.5547 53.9703 32.284 53.2258 33.5522 51.928C34.4079 51.0517 34.9686 49.9302 35.1562 48.72C39.3331 48.7358 43.2721 46.7787 45.7824 43.4403L47.0523 41.569C49.926 41.3685 51.7304 39.5641 51.7304 36.9576V28.6037C51.7306 25.7302 49.592 22.3218 46.5177 22.3218ZM10.9632 39.0297H7.48804C6.04894 38.9946 4.91071 37.7997 4.94576 36.3606C4.9464 36.3369 4.94729 36.3133 4.94845 36.2895V27.9355C4.94845 26.3985 6.01773 24.9949 7.48804 24.9949H10.9632V39.0297ZM31.6143 50.0569C30.8736 50.86 29.833 51.3198 28.7405 51.3267C26.5662 51.2922 24.8016 49.5571 24.7306 47.3836C24.7297 45.2059 26.4944 43.4398 28.6721 43.4389C30.8498 43.438 32.6159 45.2027 32.6168 47.3804C32.6168 47.3814 32.6168 47.3826 32.6168 47.3836C32.6724 48.3759 32.3086 49.3459 31.6143 50.0569ZM49.0573 36.9579C49.0573 38.7623 47.3196 39.0297 46.5177 39.0297H43.7108V24.995H46.5177C47.988 24.995 49.0573 27.0668 49.0573 28.6039V36.9579Z" fill="#0053E2"/>
</svg>
