<svg width="121" height="81" viewBox="0 0 121 81" fill="none" xmlns="http://www.w3.org/2000/svg">
<path d="M114.795 0.166626H6.20527C2.79222 0.166626 0 2.95884 0 6.37166V74.6282C0 78.0408 2.79222 80.8335 6.20527 80.8335H114.795C118.208 80.8335 121 78.0412 121 74.6282V6.37166C121 2.95884 118.208 0.166626 114.795 0.166626ZM112.466 4.82016L64.0695 41.1206C63.1993 41.7828 61.8636 42.1971 60.4998 42.191C59.1362 42.1971 57.8007 41.7828 56.9303 41.1206L8.53357 4.82016H112.466ZM86.6143 43.5158L112.986 76.0929C113.013 76.1256 113.045 76.1504 113.073 76.1799H7.92692C7.9548 76.149 7.98742 76.1256 8.01389 76.0929L34.3857 43.5158C35.1937 42.5169 35.0406 41.0523 34.0398 40.2424C33.0408 39.4344 31.5763 39.5876 30.768 40.5868L4.65377 72.8458V7.72889L54.1395 44.8433C55.9996 46.2286 58.2627 46.8384 60.4995 46.8445C62.7333 46.8398 64.9983 46.23 66.8596 44.8433L116.345 7.72889V72.8453L90.2317 40.5868C89.4235 39.5878 87.9576 39.4342 86.96 40.2424C85.9594 41.0504 85.8058 42.5169 86.6143 43.5158Z" fill="#0053E2"/>
</svg>
