<svg width="38" height="38" viewBox="0 0 38 38" fill="#001E60" xmlns="http://www.w3.org/2000/svg">
<path d="M25.625 30.6315C23.6241 32.0078 21.3151 32.8703 18.9019 33.143C20.2605 31.8976 21.4892 30.5174 22.5689 29.0238C22.1813 29.0974 21.7879 29.1366 21.3933 29.141C21.2666 29.141 21.1439 29.1291 21.0199 29.121C20.0501 30.3492 18.977 31.4924 17.8125 32.5379V28.1113C17.3964 27.8924 16.9992 27.6392 16.625 27.3544V32.4741C15.01 30.8565 13.5969 29.0492 12.4168 27.0916C13.583 26.9078 14.7592 26.7948 15.9391 26.7531C15.5862 26.4032 15.2692 26.0189 14.9928 25.606C13.9225 25.6746 12.8569 25.8026 11.8009 25.9896C10.6297 23.8269 9.9099 21.449 9.68497 18.9999H14.1409C14.2813 18.5905 14.4551 18.1933 14.6604 17.8124H9.63925C9.65634 15.323 10.2849 12.876 11.4697 10.6866C13.1709 11.0074 14.8946 11.1937 16.625 11.2436V15.3845C16.9951 15.0862 17.3927 14.8238 17.8125 14.6008V11.2555C19.4283 11.2404 21.0402 11.0935 22.632 10.8161C23.1974 11.8853 23.6666 13.0027 24.034 14.155C24.5331 14.3331 25.0126 14.5619 25.4649 14.8378C25.0885 13.3611 24.5499 11.9305 23.8589 10.5722C25.5211 10.2069 27.1462 9.68948 28.7138 9.02661C30.7518 11.5142 31.9223 14.599 32.0474 17.8124H28.1995C28.3995 18.194 28.5683 18.5911 28.7042 18.9999H32.0417C31.959 21.196 31.3856 23.3456 30.3638 25.2913L31.2366 26.1641C32.8324 23.2948 33.5051 20.0033 33.1631 16.738C32.8211 13.4726 31.481 10.392 29.3253 7.91564C29.3121 7.90127 29.3016 7.88477 29.2874 7.87188C27.7868 6.14712 25.9339 4.76403 23.8536 3.81582C21.7733 2.86761 19.5139 2.3763 17.2277 2.375C14.9415 2.3737 12.6816 2.86244 10.6002 3.80829C8.51884 4.75413 6.66438 6.13511 5.16179 7.85817C5.13314 7.88519 5.10728 7.91503 5.0846 7.94723C2.56888 10.8561 1.18538 14.574 1.1875 18.4198C1.18963 22.2656 2.57724 25.982 5.09618 28.8881C5.10443 28.8976 5.11334 28.9064 5.12159 28.9159L5.12646 28.9213C7.73009 31.9248 11.3591 33.8509 15.3058 34.3239C19.2524 34.7969 23.2338 33.7829 26.4734 31.4797L25.625 30.6315ZM27.8788 8.09216C26.3906 8.69661 24.851 9.16577 23.2786 9.49395C22.0476 7.36146 20.5462 5.39695 18.8117 3.64919C22.2612 4.02215 25.4702 5.59477 27.8788 8.09216ZM17.8125 4.33937C19.4262 5.95749 20.8381 7.76499 22.0173 9.72242C20.6263 9.94295 19.2209 10.0603 17.8125 10.0734V4.33937ZM16.625 10.0627C15.1041 10.0177 13.5885 9.86282 12.0899 9.59922C13.3425 7.61847 14.8694 5.82515 16.625 4.27269V10.0627ZM15.544 3.65946C13.709 5.31819 12.1268 7.23673 10.8478 9.354C9.38802 9.04292 7.95398 8.62127 6.55811 8.0927C8.9473 5.61572 12.1246 4.04819 15.544 3.65946ZM5.71783 9.03474C7.19198 9.62249 8.71118 10.0903 10.2606 10.4335C9.08411 12.716 8.46486 15.2446 8.45354 17.8124H2.3901C2.51532 14.6025 3.68359 11.5209 5.71783 9.03474ZM2.40168 18.9999H8.49534C8.70773 21.5264 9.4203 23.9856 10.5916 26.2343C8.92849 26.6015 7.30223 27.1194 5.73297 27.7815C3.69741 25.2943 2.52792 22.2114 2.40168 18.9999ZM6.55834 28.7271C8.05144 28.1211 9.59598 27.6506 11.1733 27.3212C12.4057 29.4503 13.9041 31.4139 15.6324 33.1645C12.1814 32.7935 8.9701 31.2231 6.55834 28.7271Z" fill="#001E60"/>
<path d="M36.1199 32.7229L29.4046 26.0076C29.2921 25.8979 29.1411 25.8365 28.984 25.8368C28.8268 25.837 28.676 25.8987 28.5638 26.0088L27.9887 25.4321L27.988 25.433L27.1289 24.5715C27.2973 24.2912 27.4362 23.994 27.5431 23.6849C27.9182 22.6139 28.0168 21.4655 27.8297 20.3462C27.6426 19.2269 27.1758 18.173 26.4727 17.2822C25.7997 16.4497 24.931 15.7968 23.9442 15.3818C22.9573 14.9668 21.8831 14.8027 20.8173 14.9042C19.8035 15.0128 18.8288 15.3551 17.9697 15.9043C17.1107 16.4535 16.3908 17.1946 15.8668 18.0692C15.3427 18.9438 15.0287 19.9281 14.9496 20.9446C14.8704 21.9611 15.0282 22.9821 15.4106 23.9273C15.8838 24.9327 16.5877 25.8121 17.465 26.4941C18.3423 27.1761 19.3682 27.6413 20.4592 27.852C21.8805 28.0831 23.3377 27.7989 24.5679 27.0504L26.0409 28.5275C25.9321 28.6397 25.8714 28.7899 25.8715 28.9462C25.8716 29.1025 25.9326 29.2526 26.0415 29.3647L32.7628 36.0859C33.2087 36.5311 33.8133 36.7809 34.4434 36.7804C35.0736 36.7799 35.6777 36.529 36.1229 36.083C36.5681 35.6371 36.8179 35.0325 36.8174 34.4024C36.8168 33.7722 36.5659 33.1681 36.1199 32.7229ZM20.6355 26.6776C19.8246 26.5553 19.0529 26.2474 18.3804 25.7781C17.708 25.3088 17.1529 24.6907 16.7583 23.9718C16.3638 23.2529 16.1404 22.4526 16.1056 21.6333C16.0709 20.814 16.2256 19.9977 16.5578 19.248C16.89 18.4983 17.3908 17.8353 18.0211 17.3107C18.6514 16.7861 19.3942 16.414 20.1918 16.2234C20.9894 16.0327 21.8202 16.0287 22.6196 16.2116C23.4189 16.3945 24.1653 16.7594 24.8007 17.2778C25.5303 17.8986 26.0858 18.6985 26.4127 19.599C26.7395 20.4995 26.8263 21.4696 26.6647 22.4138C26.5185 23.1896 26.1878 23.9189 25.7005 24.54C24.3563 25.9744 22.6838 26.9826 20.6355 26.6776ZM26.4062 25.5274L27.7224 26.8483C27.4406 27.126 27.157 27.4031 26.8814 27.6871C26.4426 27.2472 26.0037 26.8075 25.5648 26.3682C25.7136 26.2257 26.2795 25.6706 26.4062 25.5274ZM34.9574 35.4787C34.7253 35.5842 34.466 35.6146 34.2157 35.5657C33.9655 35.5167 33.7368 35.3908 33.5615 35.2055L27.304 28.9481C27.8643 28.3879 28.4246 27.8277 28.9848 27.2673L35.2785 33.561C35.4126 33.6958 35.5125 33.8605 35.5702 34.0416C35.6279 34.2227 35.6416 34.4149 35.6102 34.6023C35.5789 34.7897 35.5033 34.967 35.3898 35.1194C35.2762 35.2718 35.128 35.3949 34.9574 35.4787Z" fill="#001E60"/>
</svg>
