<svg width="32" height="32" viewBox="0 0 32 32" fill="none" xmlns="http://www.w3.org/2000/svg">
<path d="M21.0409 12.6752C23.1626 10.7409 26.0317 8.12481 26.2932 1.875H28.1875V0H3.8125V1.875H5.70681C5.96831 8.12481 8.83744 10.7409 10.9591 12.6752C12.3822 13.9727 13.1875 14.7669 13.1875 16C13.1875 17.2331 12.3822 18.0273 10.9591 19.3248C8.83744 21.2591 5.96831 23.8752 5.70681 30.125H3.8125V32H28.1875V30.125H26.2932C26.0317 23.8752 23.1626 21.2591 21.0409 19.3248C19.6178 18.0273 18.8125 17.2331 18.8125 16C18.8125 14.7669 19.6178 13.9727 21.0409 12.6752ZM15.0625 23.0274C14.7729 23.0871 14.4869 23.1741 14.2077 23.2896L8.46537 25.6658C9.40312 23.2814 10.9135 21.9037 12.2223 20.7104C13.6829 19.3787 15.0625 18.1209 15.0625 16V23.0274ZM19.7777 20.7104C21.0865 21.9037 22.5968 23.2814 23.5346 25.6657L17.7923 23.2895C17.5131 23.174 17.2271 23.0871 16.9375 23.0273V16C16.9375 18.1209 18.3171 19.3787 19.7777 20.7104ZM8.43244 6.25C7.97913 5.06881 7.66606 3.64262 7.58413 1.875H24.4158C24.3339 3.64262 24.0209 5.06881 23.5675 6.25H8.43244Z" fill="#0053E2"/>
</svg>
