<svg width="90" height="90" viewBox="0 0 90 90" fill="none" xmlns="http://www.w3.org/2000/svg">
<g clip-path="url(#clip0_635_3383)">
<path d="M6.21736 60.4502C6.7246 56.903 8.30359 53.5955 10.7429 50.9707L19.433 41.6194C30.0541 30.1902 49.1903 36.4984 50.9327 52.0031V52.0031C51.6012 57.9512 49.31 63.8489 44.8014 67.7857L35.1856 76.1822C22.9058 86.9048 3.90967 76.5885 6.21736 60.4502V60.4502Z" fill="white"/>
<path d="M40.7518 66.2613L32.7922 74.192C29.5018 77.4825 24.1295 77.4825 20.8391 74.192L12.8795 66.2325C9.61652 62.9709 9.61652 57.5986 12.8795 54.3082L20.8391 46.3486L40.7518 66.2613ZM78.5228 44.3518L42.7197 8.5762C42.1017 7.92938 41.2008 7.62039 40.3288 7.76047C39.4293 7.90192 38.6699 8.43613 38.2483 9.22302L22.1327 39.6826L47.4727 65.024L77.8471 48.8232C78.6354 48.4305 79.171 47.6422 79.311 46.7702C79.4511 45.8707 79.1407 44.9986 78.5228 44.3518ZM16.873 78.1581L8.91339 70.1985C7.78867 69.0738 6.91663 67.8365 6.26981 66.4865C4.86356 70.4237 5.76306 75.0078 8.91339 78.1581C11.0516 80.295 13.8641 81.4774 16.873 81.4774C18.1666 81.4774 19.4328 81.2521 20.6138 80.8305C19.235 80.1823 17.9702 79.2828 16.873 78.1581ZM49.6946 75.1767L44.7453 70.2274L36.7569 78.1856C36.0826 78.8612 35.3506 79.4518 34.5637 79.9585L39.7383 85.1331C41.0608 86.4555 42.8323 87.1861 44.7165 87.1861C46.6006 87.1861 48.3735 86.4555 49.6946 85.1331C52.422 82.3769 52.422 77.9329 49.6946 75.1767ZM59.0605 11.25V5.625C59.0605 4.07181 57.8026 2.8125 56.248 2.8125C54.6934 2.8125 53.4355 4.07181 53.4355 5.625V11.25C53.4355 12.8032 54.6934 14.0625 56.248 14.0625C57.8026 14.0625 59.0605 12.8032 59.0605 11.25ZM84.373 30.9361C84.373 29.3829 83.1151 28.1236 81.5605 28.1236H75.9355C74.3809 28.1236 73.123 29.3829 73.123 30.9361C73.123 32.4893 74.3809 33.7486 75.9355 33.7486H81.5605C83.1151 33.7486 84.373 32.4893 84.373 30.9361ZM69.4865 21.6747L75.1115 16.0497C76.2101 14.951 76.2101 13.1712 75.1115 12.0726C74.0129 10.974 72.2331 10.974 71.1345 12.0726L65.5095 17.6976C64.4108 18.7962 64.4108 20.576 65.5095 21.6747C66.0588 22.224 66.7784 22.4986 67.498 22.4986C68.2176 22.4986 68.9372 22.224 69.4865 21.6747Z" fill="#0053E2"/>
<rect x="32.2734" y="76.875" width="13.9386" height="4" transform="rotate(-39.5451 32.2734 76.875)" fill="white"/>
</g>
<defs>
<clipPath id="clip0_635_3383">
<rect width="90" height="90" fill="white"/>
</clipPath>
</defs>
</svg>
