<svg width="64" height="64" viewBox="0 0 64 64" fill="none" xmlns="http://www.w3.org/2000/svg">
<path d="M41.2628 20.3551C35.0386 11.1982 26.7256 6.33135 22.3722 9.31333C21.8928 9.65091 21.4763 10.0698 21.1414 10.5511C21.1414 10.5863 11.0632 30.9819 11.0632 30.9819L5.43682 34.7938C4.57309 35.3801 3.83334 36.1308 3.25983 37.0031C2.68632 37.8754 2.29029 38.8522 2.09436 39.8775C1.89842 40.9029 1.90643 41.9569 2.11792 42.9792C2.32941 44.0014 2.74023 44.972 3.32693 45.8355L3.58012 46.2083C4.76602 47.9358 6.58517 49.1261 8.64301 49.5211C10.7008 49.9161 12.8314 49.4838 14.5726 48.3182L23.61 61.6316C24.9392 63.2703 27.4922 64.9019 30.643 62.9819C31.2012 62.62 31.6773 62.1451 32.0407 61.5879C32.4041 61.0306 32.6467 60.4035 32.7529 59.7467C32.8802 59.0935 32.8767 58.4216 32.7427 57.7697C32.6087 57.1178 32.3468 56.499 31.9722 55.9489L24.0109 44.2039C24.0109 44.2039 42.8311 42.7059 42.9014 42.6777C43.489 42.5547 44.0462 42.3156 44.5401 41.9744C46.7766 40.4553 47.5784 37.2694 46.8047 33.0004C46.1085 29.0689 44.1322 24.6171 41.2628 20.3551ZM5.62671 44.8228L5.37352 44.45C4.96873 43.8541 4.68545 43.1842 4.53988 42.4786C4.39432 41.7731 4.38933 41.0458 4.52521 40.3383C4.66109 39.6308 4.93516 38.9571 5.33174 38.3556C5.72833 37.7542 6.23963 37.2369 6.83638 36.8333L11.6962 33.5278L18.1102 42.9731L13.2504 46.2786C12.6544 46.6839 11.9843 46.9678 11.2785 47.114C10.5726 47.2602 9.84489 47.2658 9.13687 47.1306C8.42885 46.9954 7.75442 46.722 7.15213 46.326C6.54983 45.93 6.03148 45.4192 5.62671 44.8228ZM29.9467 57.3344C30.3311 57.9064 30.4729 58.6074 30.3411 59.2838C30.2092 59.9602 29.8145 60.5566 29.2434 60.9423C28.6704 61.3271 27.9682 61.4691 27.2907 61.3373C26.6132 61.2055 26.0155 60.8106 25.6285 60.239L16.6192 46.9678L20.2412 44.5063L21.1977 44.4289L29.9467 57.3344ZM20.4381 42.0166L13.4474 31.7204L20.1146 18.1256C20.7617 21.9445 22.6535 26.4808 25.6777 30.9327C28.7019 35.3845 32.2184 38.8166 35.5239 40.8281L20.4381 42.0166ZM41.1854 40.3779C37.8236 40.1599 32.352 36.3692 27.7173 29.5401C23.0825 22.7111 21.5775 16.2478 22.6113 13.0338C22.798 12.4305 23.1706 11.9016 23.6758 11.5227C24.181 11.1438 24.7931 10.9342 25.4245 10.9239C28.7581 10.9239 34.4337 14.7357 39.2021 21.7617C41.8887 25.7142 43.8439 29.8496 44.3784 33.4645C45.4263 40.3779 41.1854 40.3779 41.1854 40.3779Z" fill="#001E60"/>
<path d="M32.4697 20.612C31.6083 20.4429 30.7217 20.4472 29.8619 20.6247C29.0021 20.8022 28.1863 21.1494 27.4623 21.6459C27.3288 21.7383 27.2149 21.856 27.1269 21.9924C27.039 22.1288 26.9787 22.2812 26.9497 22.4409C26.9206 22.6005 26.9233 22.7644 26.9575 22.923C26.9918 23.0817 27.057 23.232 27.1493 23.3655C27.2417 23.4989 27.3594 23.6129 27.4958 23.7008C27.6322 23.7888 27.7846 23.849 27.9443 23.8781C28.1039 23.9071 28.2678 23.9045 28.4264 23.8702C28.5851 23.8359 28.7354 23.7708 28.8689 23.6784C29.3274 23.3672 29.8428 23.1493 30.3856 23.0372C30.9283 22.9252 31.4879 22.9211 32.0322 23.0252C32.5765 23.1294 33.095 23.3398 33.558 23.6443C34.0211 23.9489 34.4196 24.3416 34.7308 24.8002C35.0421 25.2587 35.26 25.7741 35.372 26.3169C35.4841 26.8596 35.4882 27.4192 35.384 27.9635C35.2799 28.5078 35.0695 29.0263 34.765 29.4894C34.4604 29.9524 34.0677 30.3509 33.6091 30.6622C33.3929 30.8115 33.2301 31.0261 33.1446 31.2745C33.0592 31.523 33.0554 31.7923 33.134 32.0431C33.2126 32.2938 33.3694 32.5128 33.5815 32.668C33.7935 32.8232 34.0496 32.9065 34.3124 32.9057C34.5631 32.9104 34.809 32.8366 35.0157 32.6947C36.1096 31.9537 36.9589 30.9046 37.4561 29.6805C37.9533 28.4564 38.076 27.1122 37.8087 25.8183C37.5413 24.5244 36.8959 23.3389 35.9542 22.4121C35.0126 21.4853 33.817 20.8588 32.519 20.612H32.4697Z" fill="#001E60"/>
<path d="M42.7833 11.7941H42.9029C43.2073 11.794 43.5009 11.681 43.7269 11.4771C43.9529 11.2732 44.0953 10.9927 44.1266 10.6899L45.0761 1.46265C45.0977 1.29949 45.0863 1.13365 45.0427 0.974949C44.9991 0.816246 44.9241 0.667902 44.8222 0.538694C44.7202 0.409487 44.5934 0.30204 44.4492 0.22271C44.305 0.143381 44.1463 0.0937816 43.9826 0.0768458C43.8189 0.0599099 43.6534 0.0759821 43.496 0.124111C43.3386 0.17224 43.1925 0.251449 43.0663 0.357051C42.94 0.462652 42.8362 0.592501 42.7611 0.738916C42.6859 0.885331 42.6408 1.04534 42.6286 1.20947L41.6862 10.4438C41.6527 10.7683 41.7495 11.0928 41.9552 11.346C42.161 11.5992 42.4588 11.7604 42.7833 11.7941Z" fill="#001E60"/>
<path d="M58.6942 9.89339C58.5135 9.62099 58.2323 9.43113 57.9122 9.36525C57.592 9.29937 57.2587 9.36281 56.9852 9.54174L48.412 15.1681C48.1894 15.3151 48.0205 15.5305 47.9309 15.7817C47.8413 16.033 47.8357 16.3066 47.9151 16.5613C47.9944 16.8159 48.1544 17.038 48.3708 17.1939C48.5873 17.3498 48.8486 17.4311 49.1153 17.4257C49.3641 17.4314 49.6089 17.3629 49.8186 17.2288L58.3917 11.6024C58.6577 11.4153 58.8388 11.1305 58.8955 10.8103C58.9521 10.4901 58.8798 10.1604 58.6942 9.89339Z" fill="#001E60"/>
<path d="M61.314 24.9183L51.3413 23.1249C51.0195 23.0671 50.688 23.1394 50.4196 23.3261C50.1512 23.5127 49.9679 23.7983 49.9101 24.1201C49.8522 24.4418 49.9246 24.7734 50.1112 25.0418C50.2979 25.3102 50.5835 25.4935 50.9052 25.5513L60.8709 27.3447H61.089C61.4026 27.3539 61.7078 27.2429 61.9424 27.0346C62.1769 26.8262 62.323 26.5361 62.3508 26.2236C62.3787 25.9112 62.2861 25.5998 62.0921 25.3533C61.8981 25.1068 61.6173 24.9436 61.307 24.8972L61.314 24.9183Z" fill="#001E60"/>
</svg>
