<svg width="38" height="38" viewBox="0 0 38 38" fill="none" xmlns="http://www.w3.org/2000/svg">
<g clip-path="url(#clip0_681_2026)">
<path d="M4.15625 37.4062C5.4815 37.4062 6.63813 36.6771 7.25147 35.6007C9.15444 35.4819 11.5241 34.6786 14.1503 33.25H14.291C14.5849 35.5894 16.5822 37.4062 19 37.4062C21.4178 37.4062 23.4151 35.5894 23.709 33.25H23.8497C26.73 34.8163 29.26 35.6155 31.2336 35.6155C32.5987 35.6155 33.6989 35.2349 34.4672 34.4666C36.2354 32.6984 35.9753 29.2802 33.7541 24.8187C34.1757 24.3907 34.4375 23.804 34.4375 23.1562C34.4375 21.8464 33.3723 20.7812 32.0625 20.7812C31.844 20.7812 31.6362 20.8204 31.4349 20.8762C31.0163 20.254 30.5734 19.6288 30.1043 19.0024C33.44 14.5487 35.4136 10.3318 35.6036 7.24969C36.6789 6.63575 37.4062 5.48031 37.4062 4.15625C37.4062 2.19153 35.8085 0.59375 33.8438 0.59375C32.5173 0.59375 31.3601 1.32347 30.7473 2.40172C29.5723 2.47356 28.2447 2.80131 26.8102 3.35766C24.6709 1.63222 21.9557 0.59375 19 0.59375C16.0402 0.59375 13.3214 1.63459 11.1809 3.36419C7.80544 2.06387 5.04331 2.02291 3.53281 3.53281C1.76462 5.301 2.02469 8.71922 4.24591 13.1807C3.82434 13.6093 3.5625 14.196 3.5625 14.8438C3.5625 16.1536 4.62769 17.2188 5.9375 17.2188C6.36737 17.2188 6.77706 17.1024 7.13391 16.894C7.35597 17.5869 7.63563 18.256 7.97228 18.8943C4.64372 23.3088 2.59528 27.5856 2.40172 30.7473C1.32347 31.3601 0.59375 32.5173 0.59375 33.8438C0.59375 35.8085 2.19153 37.4062 4.15625 37.4062ZM13.924 23.1402C12.0163 22.1777 10.4696 20.7349 9.39728 19C10.7279 17.2882 12.239 15.5657 13.9027 13.9021C15.5699 12.2348 17.2971 10.7202 19.0125 9.38719C20.6696 10.6798 22.3784 12.1826 24.0979 13.9021C25.7379 15.542 27.2608 17.2657 28.6069 18.9947C28.5873 19.0267 28.5647 19.057 28.5445 19.0885C28.5398 19.0944 28.5356 19.1003 28.5309 19.1063L28.5321 19.1075C27.4627 20.7931 25.9439 22.1973 24.0772 23.1396C23.8759 23.2412 23.75 23.446 23.75 23.6698V25.5312H21.375V16.8708L22.9823 15.2635L22.1427 14.424L20.3615 16.2052C20.2498 16.3162 20.1875 16.4677 20.1875 16.625V25.5312H17.8125V16.625C17.8125 16.4677 17.7502 16.3162 17.6385 16.2052L15.8573 14.424L15.0177 15.2635L16.625 16.8708V25.5312H14.25V23.6698C14.25 23.446 14.1241 23.2412 13.924 23.1402ZM30.2812 13.0625C30.2812 14.7577 29.9036 16.3839 29.2167 17.8535C27.9217 16.2242 26.4807 14.6062 24.9375 13.0625C23.2982 11.4232 21.6333 9.94531 19.988 8.64678C22.2906 6.94984 24.5462 5.60797 26.581 4.73159C28.8473 6.79666 30.2812 9.76184 30.2812 13.0625ZM24.9375 26.7188L24.9381 27.9062H13.0625V26.7188H24.9375ZM23.75 29.0938V29.6875H14.25V29.0938H23.75ZM24.9375 30.875L24.9381 32.0625H13.0625V30.875H24.9375ZM19 36.2188C17.2383 36.2188 15.7753 34.9321 15.4909 33.25H22.5091C22.2247 34.9321 20.7617 36.2188 19 36.2188ZM33.25 23.1562C33.25 23.8112 32.7174 24.3438 32.0625 24.3438C31.4076 24.3438 30.875 23.8112 30.875 23.1562C30.875 22.5013 31.4076 21.9688 32.0625 21.9688C32.7174 21.9688 33.25 22.5013 33.25 23.1562ZM32.0625 25.5312C32.2952 25.5312 32.5161 25.4873 32.7293 25.4244C34.615 29.2499 34.9582 32.2964 33.6276 33.6276C32.3249 34.9297 29.4464 34.6453 25.7771 32.9021C25.992 32.6865 26.125 32.3897 26.125 32.0625V30.875C26.125 30.2201 25.5924 29.6875 24.9375 29.6875V29.0938C25.5924 29.0938 26.125 28.5612 26.125 27.9062V26.7188C26.125 26.0638 25.5924 25.5312 24.9375 25.5312V24.0297C26.7591 23.0434 28.2625 21.6517 29.3681 19.9999C29.7291 20.4897 30.0711 20.9784 30.3994 21.4647C29.9612 21.8957 29.6875 22.4942 29.6875 23.1562C29.6875 24.4661 30.7527 25.5312 32.0625 25.5312ZM33.8438 1.78125C35.1536 1.78125 36.2188 2.84644 36.2188 4.15625C36.2188 5.46606 35.1536 6.53125 33.8438 6.53125C32.5339 6.53125 31.4688 5.46606 31.4688 4.15625C31.4688 2.84644 32.5339 1.78125 33.8438 1.78125ZM33.8438 7.71875C34.0237 7.71875 34.1988 7.70094 34.3716 7.67541C34.1121 9.72147 33.025 12.3381 31.2871 15.1608C31.4023 14.475 31.4688 13.775 31.4688 13.0625C31.4688 9.62587 30.0711 6.50988 27.8148 4.25244C28.7114 3.93775 29.5569 3.71866 30.3252 3.62247C30.2991 3.79703 30.2812 3.97456 30.2812 4.15625C30.2812 6.12097 31.879 7.71875 33.8438 7.71875ZM19 1.78125C21.4421 1.78125 23.6983 2.56916 25.5467 3.89322C23.4893 4.83788 21.2652 6.19281 19.0006 7.89094C16.717 6.18094 14.4917 4.83194 12.4468 3.89797C14.2963 2.57094 16.5555 1.78125 19 1.78125ZM4.37237 4.37237C5.39778 3.34697 7.47591 3.3155 10.1822 4.25541C8.03878 6.40122 6.68622 9.32603 6.55678 12.5608C6.3555 12.5062 6.14947 12.4688 5.9375 12.4688C5.70475 12.4688 5.48387 12.5127 5.27072 12.5756C3.38497 8.75009 3.04119 5.70356 4.37237 4.37237ZM5.9375 16.0312C5.28259 16.0312 4.75 15.4987 4.75 14.8438C4.75 14.1888 5.28259 13.6562 5.9375 13.6562C6.15838 13.6562 6.37212 13.7174 6.55737 13.8308C6.59478 14.4483 6.67553 15.0557 6.80022 15.6495C6.57756 15.8882 6.27119 16.0312 5.9375 16.0312ZM7.71875 13.0625C7.71875 9.76303 9.15147 6.79903 11.4172 4.73456C13.3974 5.57769 15.6453 6.88156 18.0257 8.63906C16.3632 9.95006 14.6917 11.4338 13.0625 13.0625C11.492 14.633 10.0569 16.2438 8.78038 17.8475C8.09519 16.3798 7.71875 14.7553 7.71875 13.0625ZM8.63491 20.0046C9.74047 21.6541 11.2427 23.0446 13.0625 24.0297V25.5312C12.4076 25.5312 11.875 26.0638 11.875 26.7188V27.9062C11.875 28.5612 12.4076 29.0938 13.0625 29.0938V29.6875C12.4076 29.6875 11.875 30.2201 11.875 30.875V32.0625C11.875 32.3885 12.0074 32.6842 12.2206 32.8991C10.5201 33.7072 8.97869 34.2095 7.67481 34.3734C7.70094 34.2 7.71875 34.0242 7.71875 33.8438C7.71875 31.879 6.12097 30.2812 4.15625 30.2812C3.97456 30.2812 3.79703 30.2991 3.62247 30.3258C3.96862 27.5589 5.80569 23.8462 8.63491 20.0046ZM4.15625 31.4688C5.46606 31.4688 6.53125 32.5339 6.53125 33.8438C6.53125 35.1536 5.46606 36.2188 4.15625 36.2188C2.84644 36.2188 1.78125 35.1536 1.78125 33.8438C1.78125 32.5339 2.84644 31.4688 4.15625 31.4688Z" fill="#0053E2"/>
</g>
<defs>
<clipPath id="clip0_681_2026">
<rect width="38" height="38" fill="white"/>
</clipPath>
</defs>
</svg>
