<svg width="38" height="38" viewBox="0 0 38 38" fill="none" xmlns="http://www.w3.org/2000/svg">
<path fill-rule="evenodd" clip-rule="evenodd" d="M18.672 17.0809H12.3035C12.0232 17.0809 11.7962 16.8538 11.7962 16.5738C11.7962 16.2928 12.0232 16.0662 12.3035 16.0662H18.672C18.9521 16.0662 19.1793 16.2928 19.1793 16.5738C19.1793 16.8539 18.9521 17.0809 18.672 17.0809ZM33.6707 30.9716L25.7072 23.0078L26.7634 21.9521L34.7271 29.9153L33.6707 30.9716ZM18.763 21.0879L22.4775 24.8022L28.5577 18.7226L24.8431 15.0082L18.763 21.0879ZM22.8936 26.9155L22.0782 27.7306C21.6761 28.1326 21.0221 28.1326 20.62 27.7306L15.8348 22.9451C15.4331 22.5441 15.4339 21.8881 15.8348 21.4869L16.6504 20.6718C16.7215 20.6004 16.8403 20.6004 16.9115 20.6718L22.8936 26.6534C22.9645 26.7244 22.9645 26.8442 22.8936 26.9155ZM4.04761 26.6705H18.1248L15.1172 23.663C14.3192 22.865 14.3195 21.5678 15.1172 20.7697L15.9329 19.9538C16.4002 19.4865 17.1618 19.4866 17.6293 19.9538L18.0454 20.3699L21.7713 16.644V4.82128C21.7713 4.39363 21.4237 4.046 20.9964 4.046H7.34252V6.32608C7.34252 7.31347 6.53973 8.11656 5.55287 8.11656H3.27272V25.8956C3.27272 26.3229 3.62034 26.6705 4.04761 26.6705ZM6.32776 4.76397V6.32608C6.32776 6.75373 5.98014 7.10135 5.55287 7.10135H3.99031L6.32776 4.76397ZM24.4269 12.8953L25.2426 12.0798C25.6445 11.6774 26.2984 11.6774 26.7006 12.0798L31.4858 16.8645C31.8869 17.2658 31.8871 17.9216 31.4858 18.3228L30.6703 19.1387C30.5995 19.2088 30.48 19.2088 30.4091 19.1387L24.427 13.1562C24.356 13.0853 24.3556 12.9659 24.4269 12.8953ZM35.4573 29.2102L27.481 21.2341L29.2754 19.4397C29.674 19.8383 29.9449 20.2069 30.5397 20.2069C30.8469 20.2069 31.1541 20.0897 31.3879 19.8558L32.2036 19.0403C33.0013 18.2429 33.0011 16.9452 32.2036 16.1475L27.4181 11.3619C26.6205 10.5644 25.3227 10.5644 24.525 11.3619L23.7093 12.1774C23.2413 12.645 23.2416 13.4067 23.7093 13.8742L24.1254 14.2903L22.7861 15.6292V4.82128C22.7861 3.83434 21.9832 3.03125 20.9964 3.03125H6.83506C6.70062 3.03125 6.5715 3.08468 6.47627 3.18006L2.40647 7.24978C2.31124 7.34516 2.25781 7.47429 2.25781 7.60903V25.8957C2.25781 26.8826 3.06083 27.6853 4.04769 27.6853H19.1396L19.9025 28.4486C20.6997 29.2457 21.9987 29.2456 22.7958 28.4486L23.6114 27.6327C24.0791 27.1648 24.0791 26.4037 23.6114 25.9363L23.1952 25.5202L24.9896 23.7259L32.9658 31.702C33.3547 32.0912 33.9869 32.0912 34.3756 31.702L35.4573 30.6205C35.8462 30.2319 35.8461 29.5993 35.4573 29.2102ZM10.2509 20.0769L7.90826 23.0648C7.7308 23.2908 7.4024 23.324 7.1836 23.1413L5.63882 21.8511C5.42367 21.6711 5.39494 21.3508 5.57468 21.1357C5.75427 20.9206 6.0743 20.8923 6.28946 21.0715L7.4325 22.0264L9.4522 19.4504C9.6251 19.2297 9.94415 19.1912 10.1646 19.3644C10.3852 19.5372 10.4239 19.8567 10.2509 20.0769ZM10.2509 14.6067L7.90826 17.5945C7.73072 17.8212 7.4037 17.8548 7.1836 17.6711L5.63882 16.3809C5.42367 16.2017 5.39494 15.8814 5.57468 15.6663C5.75427 15.4512 6.0743 15.423 6.28946 15.6022L7.4325 16.5567L9.4522 13.9811C9.6251 13.7605 9.94415 13.7219 10.1646 13.8943C10.3852 14.0674 10.4239 14.3869 10.2509 14.6067ZM11.7962 10.9398C11.7962 10.6598 12.0232 10.4322 12.3035 10.4322H18.672C18.9521 10.4322 19.1793 10.6597 19.1793 10.9398C19.1793 11.2208 18.9521 11.4474 18.672 11.4474H12.3035C12.0232 11.4474 11.7962 11.2207 11.7962 10.9398ZM10.251 9.13732L7.90826 12.1252C7.73126 12.351 7.40248 12.3845 7.1836 12.2017L5.63882 10.9115C5.42367 10.7319 5.39494 10.4121 5.57468 10.197C5.75427 9.98191 6.0743 9.95242 6.28946 10.1324L7.4325 11.0873L9.4522 8.51123C9.62525 8.29098 9.94415 8.25253 10.1646 8.42482C10.3852 8.5981 10.4239 8.91669 10.251 9.13732ZM22.4724 33.9611H6.73269V32.5153C6.73269 32.1309 7.04482 31.8191 7.42878 31.8191H21.7765C22.1602 31.8191 22.4724 32.1309 22.4724 32.5153V33.9611H22.4724ZM10.4036 30.3254C10.4036 30.2151 10.4964 30.1223 10.6063 30.1223H18.5986C18.7087 30.1223 18.8014 30.2151 18.8014 30.3254V30.8044H10.4036V30.3254ZM21.7764 30.8044C22.7199 30.8044 23.4873 31.5715 23.4873 32.5153V34.4687C23.4873 34.7489 23.2601 34.9763 22.9798 34.9763H6.22516C5.94488 34.9763 5.71771 34.7489 5.71771 34.4687V32.5153C5.71771 31.5715 6.48524 30.8044 7.4287 30.8044H9.38859V30.3254C9.38859 29.6536 9.93495 29.1075 10.6063 29.1075H18.5986C19.2701 29.1075 19.8163 29.6536 19.8163 30.3254V30.8044H21.7764Z" fill="#0053E2"/>
</svg>
