<svg width="38" height="38" viewBox="0 0 38 38" fill="#001E60" xmlns="http://www.w3.org/2000/svg">
<path fill-rule="evenodd" clip-rule="evenodd" d="M34.3878 24.7723L32.5177 25.8663C32.5101 25.8709 32.5019 25.874 32.4939 25.8782C32.4851 25.8829 32.4766 25.8874 32.4676 25.8913C32.4557 25.8967 32.4436 25.9006 32.4313 25.9047C32.4227 25.9078 32.4143 25.9109 32.4056 25.9136C32.3925 25.9174 32.3794 25.9197 32.366 25.9224C32.3575 25.9239 32.3493 25.9262 32.341 25.9274C32.3249 25.9297 32.3088 25.9301 32.2928 25.9309C32.2871 25.9309 32.2814 25.932 32.2757 25.932C32.2632 25.932 32.2508 25.9309 32.2385 25.9301C32.2358 25.9297 32.2331 25.9301 32.2304 25.9297C32.2212 25.929 32.2121 25.9271 32.2029 25.9259C32.1964 25.9247 32.1898 25.924 32.1833 25.9228C32.1756 25.9213 32.1679 25.9189 32.1601 25.917C32.1521 25.9151 32.1443 25.9132 32.1364 25.9109C32.1297 25.909 32.1229 25.9063 32.1161 25.904C32.1099 25.9016 32.1036 25.9001 32.0976 25.8974C32.0953 25.8967 32.0932 25.8952 32.091 25.8943C32.0884 25.8932 32.0858 25.8924 32.0832 25.8913C32.0754 25.8879 32.0681 25.884 32.0608 25.8802C32.0553 25.8775 32.0496 25.8748 32.0442 25.8721C32.0307 25.8645 32.0179 25.8564 32.0054 25.8479C32.0039 25.8467 32.0023 25.846 32.0008 25.8452C31.9861 25.8348 31.9723 25.8237 31.9589 25.8122C31.9583 25.8118 31.9579 25.811 31.9571 25.8103C31.9451 25.7995 31.9335 25.788 31.9226 25.7761C31.9199 25.773 31.9172 25.7699 31.9145 25.7665C31.906 25.7569 31.898 25.7473 31.8906 25.7369C31.8873 25.7327 31.8841 25.7281 31.881 25.7235C31.8746 25.7143 31.8684 25.7046 31.8627 25.6947C31.8597 25.6893 31.8567 25.6839 31.8539 25.6785C31.8485 25.6685 31.8436 25.6585 31.8388 25.6478C31.8366 25.6428 31.8341 25.6378 31.8319 25.6324C31.8264 25.6186 31.8214 25.6044 31.8173 25.5902C31.8167 25.5883 31.8159 25.5868 31.8153 25.5848L31.8148 25.5833L31.2185 23.5022C31.1457 23.2479 31.2928 22.9827 31.5472 22.9097C31.8015 22.8367 32.0668 22.9839 32.1397 23.2383L32.3408 23.9403C32.8075 22.5105 33.044 21.0201 33.044 19.4915C33.044 12.1528 27.5505 6.01683 20.2655 5.21952C20.0025 5.19071 19.8127 4.95397 19.8415 4.69116C19.8703 4.42798 20.1067 4.23813 20.3698 4.26693C24.0967 4.67498 27.5385 6.43947 30.0611 9.2352C32.6026 12.0521 34.0023 15.6944 34.0023 19.4915C34.0023 21.1618 33.7369 22.7898 33.2144 24.3487L33.9041 23.9452C34.1324 23.8119 34.4258 23.8888 34.5594 24.117C34.6929 24.3451 34.6161 24.6386 34.3878 24.7723ZM31.0264 28.5637C29.6319 30.4581 27.7932 32.0288 25.7093 33.1062C23.5551 34.2201 21.1261 34.8088 18.6846 34.8088C16.2433 34.8088 13.8141 34.2201 11.66 33.1062C9.98557 32.2405 8.46998 31.0559 7.21552 29.6411L7.22016 30.4434C7.22168 30.7081 7.00835 30.9237 6.74372 30.9252C6.7428 30.9252 6.74189 30.9252 6.74106 30.9252C6.47764 30.9252 6.26347 30.7127 6.26195 30.4492L6.24964 28.2824C6.24964 28.2789 6.2501 28.2755 6.25025 28.2716C6.2504 28.2604 6.25101 28.2493 6.25192 28.2378C6.25253 28.2316 6.25314 28.2255 6.2539 28.2189C6.25542 28.2078 6.25732 28.197 6.25944 28.1859C6.26066 28.1801 6.26157 28.1747 6.26286 28.169C6.26613 28.1548 6.27024 28.141 6.27487 28.1275C6.27563 28.1252 6.27609 28.1229 6.27685 28.1206C6.28255 28.1045 6.28931 28.0883 6.29684 28.0726C6.2979 28.0706 6.29912 28.0683 6.3001 28.0664C6.30672 28.053 6.31378 28.0403 6.32161 28.0276C6.32389 28.0237 6.32655 28.0203 6.32914 28.0164C6.3359 28.0061 6.34312 27.9956 6.35087 27.9857C6.35437 27.9814 6.35779 27.9773 6.36136 27.973C6.36873 27.9642 6.37641 27.9557 6.38446 27.9472C6.38895 27.9426 6.39328 27.938 6.39784 27.9338C6.40582 27.9261 6.41403 27.9192 6.42246 27.9123C6.42588 27.9092 6.42908 27.9057 6.4328 27.9031C6.43462 27.9016 6.43652 27.9004 6.4385 27.8988C6.44063 27.8973 6.44253 27.8953 6.44466 27.8938C6.45157 27.8888 6.45864 27.8846 6.46571 27.88C6.47095 27.8765 6.4762 27.8727 6.48159 27.8696C6.49466 27.8615 6.50804 27.8546 6.52164 27.8481C6.52332 27.8473 6.52476 27.8462 6.52643 27.8454C6.54247 27.8377 6.55904 27.8316 6.57553 27.8258C6.57735 27.8254 6.57925 27.8246 6.58108 27.8243C6.59567 27.8196 6.61018 27.8155 6.62478 27.8123C6.62926 27.8112 6.63382 27.8104 6.6383 27.8097C6.65046 27.8073 6.66262 27.8054 6.67494 27.8039C6.68048 27.8031 6.68618 27.8028 6.69173 27.8024C6.70313 27.8016 6.71438 27.8012 6.72578 27.8012H6.74379C6.7555 27.8016 6.76705 27.8028 6.7786 27.8039C6.784 27.8043 6.78939 27.8047 6.79479 27.8054C6.81082 27.8078 6.82678 27.8104 6.84236 27.8142C6.84312 27.8146 6.84388 27.8146 6.84464 27.815H6.84525C6.84556 27.815 6.84586 27.815 6.84632 27.8154L8.9468 28.3395C9.20361 28.4036 9.35971 28.6634 9.29564 28.92C9.23158 29.1768 8.97158 29.3331 8.71493 29.269L8.01246 29.0938C10.7202 32.094 14.6137 33.8507 18.6847 33.8507C23.2302 33.8507 27.5556 31.6617 30.255 27.9956C30.4119 27.7823 30.7117 27.737 30.9247 27.8937C31.1378 28.0511 31.1833 28.3508 31.0264 28.5637ZM5.53205 25.26C5.63845 25.5024 5.52848 25.7848 5.28619 25.8913C5.22341 25.919 5.15798 25.932 5.09376 25.932C4.90946 25.932 4.73367 25.8252 4.65486 25.6453C3.80039 23.7003 3.36719 21.6296 3.36719 19.4913C3.36719 15.6942 4.7668 12.052 7.30824 9.23505C9.51734 6.78664 12.4315 5.12938 15.6246 4.48118L14.932 4.08658C14.7023 3.95556 14.6221 3.66311 14.753 3.43336C14.884 3.20362 15.1765 3.12328 15.4063 3.25431L17.2889 4.32674C17.2921 4.32864 17.2952 4.331 17.2984 4.3329C17.3079 4.33868 17.3172 4.34483 17.3264 4.35099C17.3317 4.35486 17.3369 4.35866 17.342 4.36254C17.3508 4.36908 17.3592 4.37637 17.3675 4.38367C17.372 4.38754 17.3765 4.39134 17.3809 4.3956C17.3908 4.4048 17.4001 4.41483 17.4093 4.42478C17.4114 4.42706 17.4136 4.42904 17.4157 4.4317C17.427 4.44477 17.4374 4.4586 17.4473 4.47282C17.4483 4.47434 17.4491 4.47586 17.4501 4.47745C17.4587 4.49014 17.4664 4.50322 17.4739 4.51667C17.4758 4.52054 17.4776 4.52472 17.4796 4.5286C17.4853 4.5397 17.4905 4.55125 17.4953 4.56318C17.4974 4.5682 17.4994 4.57321 17.5011 4.57853C17.505 4.58932 17.5088 4.60042 17.5119 4.61159C17.5138 4.61775 17.5153 4.6239 17.5167 4.63006C17.5192 4.6404 17.5214 4.65119 17.5233 4.66198C17.5241 4.66662 17.5252 4.6708 17.5258 4.67505C17.5263 4.67771 17.5261 4.68007 17.5264 4.68235C17.5269 4.68539 17.5277 4.68812 17.528 4.69116C17.5289 4.69922 17.5289 4.70728 17.5293 4.71571C17.5298 4.72187 17.5304 4.72802 17.5304 4.73456C17.5309 4.74915 17.5302 4.76374 17.5292 4.77834C17.529 4.78062 17.529 4.78297 17.5289 4.78525C17.5274 4.80334 17.5248 4.82059 17.5214 4.83792C17.521 4.83868 17.5207 4.8399 17.5206 4.84066C17.5172 4.85639 17.5132 4.8722 17.5083 4.88717C17.5071 4.89135 17.5055 4.8956 17.5039 4.89986C17.4998 4.91179 17.4955 4.92334 17.4904 4.93482C17.4882 4.93984 17.4858 4.94485 17.4832 4.95017C17.4784 4.96013 17.4732 4.97016 17.4675 4.98019C17.4644 4.98559 17.4614 4.99053 17.4581 4.99592C17.4521 5.0055 17.4458 5.01477 17.439 5.02397C17.4357 5.0286 17.4324 5.03354 17.429 5.0378C17.4197 5.04973 17.4098 5.06121 17.3994 5.07238C17.3982 5.07352 17.3973 5.07504 17.3961 5.07626L17.3952 5.07702C17.3949 5.0774 17.3947 5.07778 17.3944 5.07778L15.8908 6.63433C15.7968 6.73154 15.6717 6.78033 15.5462 6.78033C15.4264 6.78033 15.3063 6.73572 15.2134 6.64581C15.0232 6.46212 15.0179 6.15857 15.2017 5.96842L15.7113 5.44121C9.13004 6.81757 4.32517 12.6281 4.32517 19.4915C4.32532 21.4963 4.73131 23.4371 5.53205 25.26ZM26.5518 18.6836C26.5518 18.4903 26.3945 18.3328 26.2012 18.3328H24.8402V21.975C24.8402 22.169 24.7235 22.3435 24.5444 22.4176C24.4853 22.4422 24.423 22.4541 24.3614 22.4541C24.2366 22.4541 24.114 22.4053 24.0225 22.3139L22.8579 21.1493L21.6933 22.3139C21.5563 22.4507 21.3502 22.4918 21.1713 22.4176C20.9922 22.3435 20.8754 22.169 20.8754 21.975V18.3328H19.1639V25.721H26.2013C26.3946 25.721 26.5519 25.5639 26.5519 25.3702V18.6836H26.5518ZM21.8335 18.3328V20.8184L22.519 20.1329C22.706 19.9458 23.0095 19.9458 23.1965 20.1329L23.882 20.8184V18.3328H21.8335ZM14.9907 17.3749H22.3787V10.3374C22.3787 10.1442 22.2215 9.987 22.0282 9.987H20.6671V13.6288C20.6671 13.8229 20.5504 13.9974 20.3713 14.0715C20.3121 14.096 20.2498 14.1079 20.1882 14.1079C20.0635 14.1079 19.941 14.0595 19.8493 13.9677L18.6847 12.8031L17.5201 13.9677C17.3833 14.1049 17.177 14.1456 16.9981 14.0715C16.819 13.9973 16.7024 13.8229 16.7024 13.6288V9.987H15.3413C15.1479 9.987 14.9907 10.1442 14.9907 10.3374V17.3749ZM18.2057 25.721V18.3328H16.494V21.975C16.494 22.169 16.3772 22.3435 16.1983 22.4176C16.139 22.4422 16.0767 22.4541 16.015 22.4541C15.8903 22.4541 15.7678 22.4053 15.6762 22.3139L14.5115 21.1493L13.3471 22.3139C13.21 22.4507 13.0039 22.4918 12.8249 22.4176C12.6458 22.3435 12.5292 22.169 12.5292 21.975V18.3328H11.1681C10.9749 18.3328 10.8175 18.4903 10.8175 18.6836V25.3702C10.8175 25.5639 10.9749 25.721 11.1681 25.721H18.2057ZM13.4873 18.3328V20.8184L14.1729 20.1329C14.36 19.9458 14.6633 19.9458 14.8505 20.1329L15.536 20.8184V18.3328H13.4873ZM17.6604 9.987H19.7089V12.4723L19.0234 11.7868C18.8364 11.5996 18.5331 11.5996 18.3459 11.7868L17.6604 12.4723V9.987H17.6604ZM22.0282 9.02871H15.3413C14.6196 9.02871 14.0326 9.61581 14.0326 10.3374V17.3749H11.1681C10.4465 17.3749 9.85949 17.9621 9.85949 18.6836V25.3702C9.85949 26.0922 10.4465 26.6789 11.1681 26.6789H26.2012C26.9228 26.6789 27.5098 26.0922 27.5098 25.3702V18.6836C27.5098 17.962 26.9228 17.3749 26.2012 17.3749H23.3369V10.3374C23.3369 9.61581 22.7497 9.02871 22.0282 9.02871Z" fill="#001E60"/>
</svg>
