<svg width="43" height="43" viewBox="0 0 43 43" fill="#001E60" xmlns="http://www.w3.org/2000/svg">
<path d="M38.2969 33.8785V26.2031C38.2969 26.0249 38.2261 25.854 38.1001 25.728C37.9741 25.602 37.8032 25.5312 37.625 25.5312H29.5625C29.3843 25.5312 29.2134 25.602 29.0874 25.728C28.9614 25.854 28.8906 26.0249 28.8906 26.2031V33.5938H26.2031V26.2031C26.2031 26.0249 26.1323 25.854 26.0063 25.728C25.8803 25.602 25.7094 25.5312 25.5313 25.5312H17.4688C17.2906 25.5312 17.1197 25.602 16.9937 25.728C16.8677 25.854 16.7969 26.0249 16.7969 26.2031V33.5938H14.1094V26.2031C14.1094 26.0249 14.0386 25.854 13.9126 25.728C13.7866 25.602 13.6157 25.5312 13.4375 25.5312H5.375C5.19681 25.5312 5.02592 25.602 4.89992 25.728C4.77392 25.854 4.70313 26.0249 4.70313 26.2031V33.8785C3.99583 34.1868 3.41632 34.7293 3.06212 35.4147C2.70792 36.1002 2.60067 36.8867 2.7584 37.642C2.91614 38.3972 3.32924 39.0751 3.92818 39.5615C4.52712 40.0479 5.27532 40.3131 6.04688 40.3125H36.9531C37.7206 40.3055 38.4625 40.0363 39.0559 39.5495C39.6493 39.0628 40.0583 38.3877 40.2152 37.6365C40.3722 36.8852 40.2674 36.1029 39.9185 35.4193C39.5696 34.7358 38.9974 34.1921 38.2969 33.8785ZM30.2344 26.875H36.9531V33.5938H30.2344V26.875ZM18.1406 26.875H24.8594V33.5938H18.1406V26.875ZM6.04688 26.875H12.7656V33.5938H6.04688V26.875ZM36.9531 38.9688H6.04688C5.51633 38.9626 5.0096 38.7475 4.6366 38.3702C4.26361 37.9929 4.05442 37.4837 4.05444 36.9531C4.05445 36.4225 4.26365 35.9133 4.63666 35.536C5.00967 35.1587 5.51641 34.9436 6.04696 34.9375H36.9531C37.4837 34.9436 37.9904 35.1587 38.3634 35.536C38.7364 35.9134 38.9456 36.4225 38.9456 36.9531C38.9456 37.4837 38.7364 37.9929 38.3634 38.3702C37.9904 38.7476 37.4837 38.9626 36.9531 38.9688Z" fill="#001E60"/>
<path d="M8.55649 36.2812C8.38003 36.2839 8.21168 36.3558 8.08782 36.4815C7.96395 36.6073 7.89453 36.7767 7.89453 36.9531C7.89454 37.1296 7.96398 37.299 8.08784 37.4247C8.21171 37.5505 8.38007 37.6224 8.55653 37.625C8.733 37.6224 8.90135 37.5504 9.02521 37.4247C9.14907 37.299 9.2185 37.1296 9.2185 36.9531C9.21849 36.7766 9.14905 36.6072 9.02518 36.4815C8.90132 36.3558 8.73296 36.2839 8.55649 36.2812Z" fill="#001E60"/>
<path d="M13.7401 36.2812C13.5636 36.2839 13.3953 36.3558 13.2714 36.4815C13.1475 36.6073 13.0781 36.7767 13.0781 36.9531C13.0781 37.1296 13.1476 37.299 13.2714 37.4247C13.3953 37.5505 13.5637 37.6224 13.7401 37.625C13.9166 37.6224 14.0849 37.5504 14.2088 37.4247C14.3327 37.299 14.4021 37.1296 14.4021 36.9531C14.4021 36.7766 14.3326 36.6072 14.2088 36.4815C14.0849 36.3558 13.9166 36.2839 13.7401 36.2812Z" fill="#001E60"/>
<path d="M18.9237 36.2812C18.7472 36.2839 18.5789 36.3558 18.455 36.4815C18.3311 36.6073 18.2617 36.7767 18.2617 36.9531C18.2617 37.1296 18.3312 37.299 18.455 37.4247C18.5789 37.5505 18.7473 37.6224 18.9237 37.625C19.1002 37.6224 19.2685 37.5504 19.3924 37.4247C19.5163 37.299 19.5857 37.1296 19.5857 36.9531C19.5857 36.7766 19.5162 36.6072 19.3924 36.4815C19.2685 36.3558 19.1001 36.2839 18.9237 36.2812Z" fill="#001E60"/>
<path d="M24.1034 36.2812C23.9269 36.2839 23.7586 36.3558 23.6347 36.4815C23.5108 36.6073 23.4414 36.7767 23.4414 36.9531C23.4414 37.1296 23.5108 37.299 23.6347 37.4247C23.7586 37.5505 23.9269 37.6224 24.1034 37.625C24.2799 37.6224 24.4482 37.5504 24.5721 37.4247C24.6959 37.299 24.7654 37.1296 24.7654 36.9531C24.7654 36.7766 24.6959 36.6072 24.5721 36.4815C24.4482 36.3558 24.2798 36.2839 24.1034 36.2812Z" fill="#001E60"/>
<path d="M29.287 36.2812C29.1105 36.2839 28.9421 36.3558 28.8183 36.4815C28.6944 36.6073 28.625 36.7767 28.625 36.9531C28.625 37.1296 28.6944 37.299 28.8183 37.4247C28.9422 37.5505 29.1105 37.6224 29.287 37.625C29.4635 37.6224 29.6318 37.5504 29.7557 37.4247C29.8795 37.299 29.949 37.1296 29.949 36.9531C29.949 36.7766 29.8795 36.6072 29.7557 36.4815C29.6318 36.3558 29.4634 36.2839 29.287 36.2812Z" fill="#001E60"/>
<path d="M34.4706 36.2812C34.2941 36.2839 34.1257 36.3558 34.0019 36.4815C33.878 36.6073 33.8086 36.7767 33.8086 36.9531C33.8086 37.1296 33.878 37.299 34.0019 37.4247C34.1258 37.5505 34.2941 37.6224 34.4706 37.625C34.6471 37.6224 34.8154 37.5504 34.9393 37.4247C35.0631 37.299 35.1326 37.1296 35.1326 36.9531C35.1326 36.7766 35.0631 36.6072 34.9392 36.4815C34.8154 36.3558 34.647 36.2839 34.4706 36.2812Z" fill="#001E60"/>
<path d="M38.9688 2.6875H4.03125C3.67497 2.68786 3.33339 2.82954 3.08147 3.08147C2.82954 3.33339 2.68786 3.67497 2.6875 4.03125V5.375C2.68786 5.73128 2.82954 6.07286 3.08147 6.32478C3.33339 6.57671 3.67497 6.71839 4.03125 6.71875H15.4531V12.7656C15.4507 13.4698 15.6704 14.1567 16.0809 14.7288C16.4914 15.3009 17.0718 15.729 17.7396 15.9523C18.4074 16.1755 19.1286 16.1825 19.8006 15.9723C20.4727 15.762 21.0613 15.3453 21.4828 14.7812H28.8906V18.2085C28.3264 18.3309 27.8028 18.5956 27.3698 18.9774C26.9367 19.3593 26.6086 19.8456 26.4166 20.3901C26.2246 20.9346 26.1751 21.5192 26.2729 22.0882C26.3707 22.6572 26.6124 23.1918 26.9751 23.641C27.0898 23.7745 27.2522 23.8577 27.4276 23.8727C27.6029 23.8878 27.7772 23.8334 27.9129 23.7213C28.0485 23.6092 28.1348 23.4484 28.1532 23.2734C28.1716 23.0983 28.1205 22.9231 28.011 22.7853C27.7669 22.4908 27.6117 22.1328 27.5635 21.7534C27.5153 21.3739 27.5761 20.9885 27.7388 20.6423C27.9015 20.2961 28.1594 20.0033 28.4824 19.7983C28.8053 19.5932 29.18 19.4844 29.5625 19.4844C29.945 19.4844 30.3197 19.5933 30.6426 19.7983C30.9655 20.0034 31.2234 20.2961 31.3861 20.6423C31.5489 20.9886 31.6096 21.3739 31.5614 21.7534C31.5132 22.1329 31.358 22.4908 31.1138 22.7853C31.0345 22.8841 30.9846 23.0032 30.9697 23.129C30.9547 23.2548 30.9754 23.3822 31.0294 23.4968C31.0833 23.6114 31.1684 23.7086 31.2749 23.7772C31.3814 23.8458 31.505 23.8832 31.6316 23.885C32.5442 23.7612 32.9031 22.284 32.922 21.5C32.9209 20.726 32.653 19.976 32.1634 19.3764C31.6738 18.7769 30.9926 18.3644 30.2344 18.2085V14.6574C30.6825 14.4999 31.0604 14.1887 31.301 13.7792C31.5417 13.3696 31.6295 12.8881 31.549 12.4199C31.4685 11.9517 31.2249 11.5272 30.8613 11.2215C30.4976 10.9159 30.0375 10.7488 29.5625 10.75H22.1719V6.71875H38.9688C39.325 6.71839 39.6666 6.57671 39.9185 6.32478C40.1705 6.07286 40.3121 5.73128 40.3125 5.375V4.03125C40.3121 3.67497 40.1705 3.33339 39.9185 3.08147C39.6666 2.82954 39.325 2.68786 38.9688 2.6875ZM29.5625 12.0938C29.7385 12.0972 29.906 12.1695 30.0292 12.2951C30.1524 12.4207 30.2214 12.5897 30.2214 12.7656C30.2214 12.9416 30.1524 13.1105 30.0292 13.2362C29.906 13.3618 29.7384 13.4341 29.5625 13.4375C29.3866 13.4341 29.219 13.3618 29.0958 13.2361C28.9726 13.1105 28.9036 12.9416 28.9036 12.7656C28.9036 12.5896 28.9726 12.4207 29.0958 12.2951C29.2191 12.1695 29.3866 12.0972 29.5625 12.0938ZM18.8125 14.7812C18.2819 14.7753 17.775 14.5603 17.4018 14.1829C17.0287 13.8056 16.8194 13.2963 16.8195 12.7656C16.8195 12.2349 17.0287 11.7257 17.4019 11.3483C17.775 10.971 18.2819 10.756 18.8125 10.75C19.3432 10.756 19.8501 10.971 20.2232 11.3483C20.5963 11.7257 20.8056 12.235 20.8056 12.7656C20.8056 13.2963 20.5963 13.8056 20.2232 14.1829C19.85 14.5603 19.3431 14.7753 18.8125 14.7812ZM20.8281 10.0953C20.2484 9.65505 19.5404 9.41672 18.8125 9.41673C18.0845 9.41673 17.3766 9.65508 16.7969 10.0953V6.71875H20.8281V10.0953ZM27.6707 12.0938C27.5089 12.5271 27.5089 13.0042 27.6707 13.4375H22.104C22.1941 12.9941 22.1941 12.5371 22.104 12.0938H27.6707ZM4.03125 5.375V4.03125H38.9688L38.9697 5.375H4.03125Z" fill="#001E60"/>
</svg>
