<svg width="101" height="102" viewBox="0 0 101 102" fill="none" xmlns="http://www.w3.org/2000/svg">
<path d="M93.438 8.25H7.5606C3.39198 8.25 0.000591797 11.6758 0.000591797 15.8869V26.3134C0.000591797 26.3179 0 26.3225 0 26.3271C0 26.3317 0.000591797 26.3363 0.000591797 26.3409V86.1129C0.000591797 90.3239 3.39198 93.7497 7.5606 93.7497H93.438C97.6078 93.7497 101 90.3239 101 86.1129V15.8869C101 11.6758 97.6078 8.25 93.438 8.25ZM98 86.1131C98 88.6533 95.9535 90.7202 93.438 90.7202H7.5606C5.04625 90.7202 3.00061 88.6535 3.00061 86.1131V27.842H98V86.1131ZM98 24.8125H3.00061V15.8869C3.00061 13.3464 5.04625 11.2797 7.5606 11.2797H93.438C95.9535 11.2797 98 13.3464 98 15.8869V24.8125Z" fill="#0053E2"/>
<path d="M11.9015 12.6938C8.9792 12.6938 6.60156 15.095 6.60156 18.0463C6.60156 20.9975 8.9792 23.3987 11.9015 23.3987C14.8238 23.3987 17.2014 20.9975 17.2014 18.0463C17.2014 15.095 14.824 12.6938 11.9015 12.6938ZM11.9015 20.3692C10.6333 20.3692 9.60158 19.3272 9.60158 18.0465C9.60158 16.7657 10.6335 15.7238 11.9015 15.7238C13.1695 15.7238 14.2014 16.7657 14.2014 18.0465C14.2016 19.327 13.1697 20.3692 11.9015 20.3692Z" fill="#0053E2"/>
<path d="M35.7023 12.6938C32.78 12.6938 30.4023 15.095 30.4023 18.0463C30.4023 20.9975 32.78 23.3987 35.7023 23.3987C38.6246 23.3987 41.0022 20.9975 41.0022 18.0463C41.0022 15.095 38.6248 12.6938 35.7023 12.6938ZM35.7023 20.3692C34.4341 20.3692 33.4024 19.3272 33.4024 18.0465C33.4024 16.7657 34.4341 15.7238 35.7023 15.7238C36.9705 15.7238 38.0022 16.7657 38.0022 18.0465C38.0024 19.327 36.9705 20.3692 35.7023 20.3692Z" fill="#0053E2"/>
<path d="M23.7999 12.6938C20.8776 12.6938 18.5 15.095 18.5 18.0463C18.5 20.9975 20.8776 23.3987 23.7999 23.3987C26.7222 23.3987 29.0999 20.9975 29.0999 18.0463C29.0999 15.095 26.7222 12.6938 23.7999 12.6938ZM23.7999 20.3692C22.5317 20.3692 21.5 19.3272 21.5 18.0465C21.5 16.7657 22.5317 15.7238 23.7999 15.7238C25.0682 15.7238 26.0999 16.7657 26.0999 18.0465C26.0999 19.327 25.0682 20.3692 23.7999 20.3692Z" fill="#0053E2"/>
<path d="M31.6775 31.4893H8.12891C7.3006 31.4893 6.62891 32.1676 6.62891 33.0041V56.7859C6.62891 57.6224 7.3006 58.3007 8.12891 58.3007H31.6775C32.5058 58.3007 33.1775 57.6226 33.1775 56.7859V33.0039C33.1775 32.1674 32.506 31.4893 31.6775 31.4893ZM30.1777 55.271H9.62892V34.5188H30.1777V55.271Z" fill="#0053E2"/>
<path d="M62.2752 31.4893H38.7266C37.8982 31.4893 37.2266 32.1676 37.2266 33.0041V56.7859C37.2266 57.6224 37.8982 58.3007 38.7266 58.3007H62.2752C63.1035 58.3007 63.7752 57.6226 63.7752 56.7859V33.0039C63.7752 32.1674 63.1039 31.4893 62.2752 31.4893ZM60.7751 55.271H40.2266V34.5188H60.7753V55.271H60.7751Z" fill="#0053E2"/>
<path d="M92.873 31.4893H69.3244C68.4961 31.4893 67.8244 32.1676 67.8244 33.0041V38.6587C67.8244 39.4953 68.4961 40.1736 69.3244 40.1736C70.1527 40.1736 70.8244 39.4953 70.8244 38.6587V34.519H91.3732V55.2712H70.8242V43.7085C70.8242 42.872 70.1525 42.1937 69.3242 42.1937C68.4959 42.1937 67.8242 42.872 67.8242 43.7085V56.7861C67.8242 57.6226 68.4959 58.3009 69.3242 58.3009H92.8728C93.7011 58.3009 94.3728 57.6228 94.3728 56.7861V33.0039C94.373 32.1674 93.7013 31.4893 92.873 31.4893Z" fill="#0053E2"/>
<path d="M31.6775 60.8682H8.12891C7.3006 60.8682 6.62891 61.5463 6.62891 62.383V86.1648C6.62891 87.0013 7.3006 87.6796 8.12891 87.6796H16.0324C16.8607 87.6796 17.5324 87.0013 17.5324 86.1648C17.5324 85.3282 16.8607 84.6499 16.0324 84.6499H9.62892V63.8979H30.1777V84.6501H21.0326C20.2043 84.6501 19.5326 85.3284 19.5326 86.165C19.5326 87.0015 20.2043 87.6798 21.0326 87.6798H31.6775C32.5058 87.6798 33.1775 87.0015 33.1775 86.165V62.383C33.1775 61.5463 32.506 60.8682 31.6775 60.8682Z" fill="#0053E2"/>
<path d="M62.2752 60.8682H38.7266C37.8982 60.8682 37.2266 61.5463 37.2266 62.383V86.1648C37.2266 87.0013 37.8982 87.6796 38.7266 87.6796H62.2752C63.1035 87.6796 63.7752 87.0013 63.7752 86.1648V62.383C63.7752 61.5463 63.1039 60.8682 62.2752 60.8682ZM60.7751 84.6501H40.2266V63.8979H60.7753V84.6501H60.7751Z" fill="#0053E2"/>
<path d="M92.8728 60.8682H69.3242C68.4959 60.8682 67.8242 61.5463 67.8242 62.383V86.1648C67.8242 87.0013 68.4959 87.6796 69.3242 87.6796H92.8728C93.7011 87.6796 94.3728 87.0013 94.3728 86.1648V62.383C94.3728 61.5463 93.7011 60.8682 92.8728 60.8682ZM91.3728 84.6501H70.824V63.8979H91.3728V84.6501Z" fill="#0053E2"/>
</svg>
