<svg width="60" height="56" viewBox="0 0 60 56" fill="none" xmlns="http://www.w3.org/2000/svg">
<path d="M55.2 0.680054H3.55C2.60854 0.68026 1.70571 1.05434 1.04 1.72005C0.37429 2.38576 0.000206787 3.2886 0 4.23005L0 47.5201C0.000220037 48.4615 0.374307 49.3643 1.04001 50.03C1.70572 50.6958 2.60855 51.0698 3.55 51.0701H37.95C38.1489 51.0701 38.3397 50.991 38.4803 50.8504C38.621 50.7097 38.7 50.519 38.7 50.3201C38.7 50.1211 38.621 49.9304 38.4803 49.7897C38.3397 49.6491 38.1489 49.5701 37.95 49.5701H3.55C3.00654 49.5693 2.48555 49.3531 2.10126 48.9688C1.71697 48.5845 1.50075 48.0635 1.5 47.5201V10.3501H57.25V33.4301C57.25 33.629 57.329 33.8197 57.4697 33.9604C57.6103 34.101 57.8011 34.1801 58 34.1801C58.1989 34.1801 58.3897 34.101 58.5303 33.9604C58.671 33.8197 58.75 33.629 58.75 33.4301V4.23005C58.7498 3.2886 58.3757 2.38576 57.71 1.72005C57.0443 1.05434 56.1415 0.68026 55.2 0.680054ZM57.25 4.68005H26.78C26.5811 4.68005 26.3903 4.75907 26.2497 4.89972C26.109 5.04038 26.03 5.23114 26.03 5.43005C26.03 5.62897 26.109 5.81973 26.2497 5.96038C26.3903 6.10104 26.5811 6.18005 26.78 6.18005H57.25V8.85005H1.5V4.23005C1.50074 3.68659 1.71695 3.16559 2.10124 2.7813C2.48553 2.39701 3.00653 2.18079 3.55 2.18005H55.2C55.7435 2.18079 56.2645 2.39701 56.6488 2.7813C57.033 3.16559 57.2493 3.68659 57.25 4.23005V4.68005ZM6.19 5.43005C6.192 5.59267 6.1456 5.7522 6.05671 5.88838C5.96782 6.02456 5.84045 6.13123 5.69078 6.19485C5.54112 6.25846 5.37592 6.27614 5.21618 6.24564C5.05644 6.21514 4.90938 6.13783 4.79368 6.02355C4.67799 5.90926 4.59888 5.76316 4.56642 5.60381C4.53396 5.44446 4.54962 5.27905 4.61139 5.12862C4.67316 4.97818 4.77827 4.84951 4.91335 4.75896C5.04842 4.6684 5.20738 4.62005 5.37 4.62005C5.58597 4.61932 5.79345 4.70411 5.9471 4.85589C6.10075 5.00766 6.18808 5.21409 6.19 5.43005ZM9.46 5.43005C9.462 5.59267 9.4156 5.7522 9.32671 5.88838C9.23782 6.02456 9.11045 6.13123 8.96078 6.19485C8.81112 6.25846 8.64592 6.27614 8.48618 6.24564C8.32644 6.21514 8.17938 6.13783 8.06368 6.02355C7.94799 5.90926 7.86888 5.76316 7.83642 5.60381C7.80396 5.44446 7.81962 5.27905 7.88139 5.12862C7.94316 4.97818 8.04827 4.84951 8.18334 4.75896C8.31842 4.6684 8.47738 4.62005 8.64 4.62005C8.85597 4.61932 9.06345 4.70411 9.2171 4.85589C9.37075 5.00766 9.45808 5.21409 9.46 5.43005ZM12.74 5.43005C12.742 5.59267 12.6956 5.7522 12.6067 5.88838C12.5178 6.02456 12.3904 6.13123 12.2408 6.19485C12.0911 6.25846 11.9259 6.27614 11.7662 6.24564C11.6064 6.21514 11.4594 6.13783 11.3437 6.02355C11.228 5.90926 11.1489 5.76316 11.1164 5.60381C11.084 5.44446 11.0996 5.27905 11.1614 5.12862C11.2232 4.97818 11.3283 4.84951 11.4633 4.75896C11.5984 4.6684 11.7574 4.62005 11.92 4.62005C12.136 4.61932 12.3435 4.70411 12.4971 4.85589C12.6508 5.00766 12.7381 5.21409 12.74 5.43005ZM47.82 15.9601C47.4464 15.6019 47.0035 15.324 46.5186 15.1435C46.0336 14.9629 45.5168 14.8835 45 14.9101L44.92 14.9201C44.7134 14.6248 44.464 14.3619 44.18 14.1401C43.7261 13.7823 43.1963 13.5331 42.6312 13.4118C42.0661 13.2905 41.4808 13.3001 40.92 13.4401C36.1375 14.616 31.683 16.8586 27.89 20.0001C24.0897 16.8582 19.6286 14.6157 14.84 13.4401C14.2792 13.3001 13.6939 13.2905 13.1288 13.4118C12.5637 13.5331 12.0339 13.7823 11.58 14.1401C11.296 14.3619 11.0466 14.6248 10.84 14.9201L10.75 14.9101C10.2364 14.8872 9.72351 14.9685 9.24217 15.1491C8.76083 15.3297 8.32101 15.6058 7.94917 15.9608C7.57734 16.3158 7.28119 16.7424 7.07854 17.2149C6.87589 17.6874 6.77094 18.196 6.77 18.7101V40.6201C6.77248 41.5048 7.08187 42.3612 7.64538 43.0433C8.2089 43.7254 8.99162 44.1907 9.86 44.3601L27.74 47.7601C27.78 47.7601 27.83 47.77 27.88 47.77H27.89C27.93 47.77 27.98 47.7601 28.02 47.7601H28.05L36.58 46.1301C36.775 46.0916 36.9468 45.9776 37.0581 45.813C37.1694 45.6484 37.2112 45.4464 37.1742 45.2512C37.1373 45.0559 37.0247 44.8831 36.8609 44.7706C36.6972 44.658 36.4955 44.6147 36.3 44.6501L30.82 45.7001C32.6611 44.4 34.6438 43.313 36.73 42.4601C36.8206 42.422 36.9028 42.3664 36.972 42.2966C37.0411 42.2267 37.0958 42.1439 37.133 42.0529C37.1701 41.9619 37.189 41.8645 37.1885 41.7662C37.1879 41.6679 37.1681 41.5707 37.13 41.4801C37.0919 41.3894 37.0364 41.3072 36.9665 41.2381C36.8966 41.1689 36.8138 41.1142 36.7228 41.0771C36.6318 41.0399 36.5344 41.0211 36.4361 41.0216C36.3378 41.0221 36.2406 41.042 36.15 41.0801C33.462 42.189 30.9359 43.6556 28.64 45.4401V21.3301C32.3023 18.2425 36.628 16.042 41.28 14.9001C41.6213 14.815 41.9774 14.809 42.3214 14.8824C42.6653 14.9559 42.988 15.1068 43.2647 15.3238C43.5415 15.5408 43.7651 15.8181 43.9185 16.1346C44.072 16.4511 44.1511 16.7984 44.15 17.1501V30.9001C44.15 31.099 44.229 31.2897 44.3697 31.4304C44.5103 31.571 44.7011 31.6501 44.9 31.6501C45.0989 31.6501 45.2897 31.571 45.4303 31.4304C45.571 31.2897 45.65 31.099 45.65 30.9001V17.1501C45.652 16.9116 45.6285 16.6736 45.58 16.4401C46.1162 16.5316 46.6028 16.8095 46.9541 17.2248C47.3054 17.6401 47.4987 18.1661 47.5 18.7101V30.9001C47.5 31.099 47.579 31.2897 47.7197 31.4304C47.8603 31.571 48.0511 31.6501 48.25 31.6501C48.4489 31.6501 48.6397 31.571 48.7803 31.4304C48.921 31.2897 49 31.099 49 30.9001V18.7101C49.0012 18.1954 48.8971 17.686 48.6942 17.2131C48.4912 16.7402 48.1938 16.3138 47.82 15.9601ZM11.61 17.1501C11.6104 16.7966 11.6918 16.4479 11.8478 16.1307C12.0038 15.8135 12.2303 15.5362 12.51 15.3201C12.7845 15.1042 13.1047 14.9541 13.4462 14.8813C13.7877 14.8085 14.1414 14.8149 14.48 14.9001C19.1337 16.0403 23.4622 18.2371 27.13 21.3201C27.1313 21.32 27.1326 21.3203 27.1338 21.3208C27.1351 21.3212 27.1362 21.322 27.1371 21.3229C27.1381 21.3238 27.1388 21.3249 27.1393 21.3262C27.1398 21.3274 27.14 21.3287 27.14 21.33V45.4601L27.13 45.4501C22.6086 41.9531 17.2643 39.6769 11.61 38.8401V17.1501ZM10.14 42.8801C9.61498 42.7778 9.14166 42.4967 8.80067 42.0846C8.45969 41.6725 8.27215 41.1549 8.27 40.6201V18.7101C8.26926 18.1682 8.46082 17.6437 8.81058 17.2298C9.16034 16.816 9.6456 16.5396 10.18 16.4501C10.1315 16.6802 10.108 16.9149 10.11 17.1501V39.4801C10.1092 39.6599 10.1736 39.834 10.2913 39.9701C10.4089 40.1061 10.5719 40.1949 10.75 40.2201C15.8478 40.8949 20.7118 42.7734 24.94 45.7001L10.14 42.8801ZM59.78 49.5401L53.07 42.8401L56.83 39.0801C56.9254 38.9852 56.9934 38.8664 57.0268 38.7361C57.0603 38.6059 57.0579 38.469 57.02 38.3399C56.9821 38.2109 56.9101 38.0945 56.8115 38.003C56.7129 37.9115 56.5915 37.8483 56.46 37.8201L39.65 34.0801C39.527 34.0556 39.3998 34.0621 39.2799 34.0988C39.16 34.1356 39.0511 34.2015 38.9629 34.2907C38.8747 34.3798 38.81 34.4895 38.7746 34.6098C38.7392 34.7301 38.7342 34.8573 38.76 34.9801L42.49 51.7901C42.5195 51.9199 42.5834 52.0394 42.6748 52.1361C42.7663 52.2329 42.882 52.3033 43.01 52.3401C43.1388 52.3807 43.2764 52.3844 43.4072 52.3508C43.5379 52.3172 43.6567 52.2477 43.75 52.1501L47.51 48.4001L54.22 55.1001C54.3614 55.2392 54.5517 55.3171 54.75 55.3171C54.9483 55.3171 55.1387 55.2392 55.2801 55.1001L59.7801 50.6001C59.9194 50.4588 59.9975 50.2684 59.9975 50.07C59.9975 49.8717 59.9194 49.6813 59.78 49.5401ZM54.75 53.5101L48.04 46.8001C47.8982 46.6619 47.708 46.5845 47.51 46.5845C47.312 46.5845 47.1218 46.6619 46.98 46.8001L43.66 50.1301L40.48 35.8001L54.8 38.9801L51.48 42.3101C51.3406 42.4513 51.2625 42.6417 51.2625 42.8401C51.2625 43.0384 51.3406 43.2289 51.48 43.3701L58.19 50.0701L54.75 53.5101ZM37.65 33.1101C37.5091 33.2501 37.3186 33.3287 37.12 33.3287C36.9214 33.3287 36.7309 33.2501 36.59 33.1101L33.26 29.7801C33.1194 29.6395 33.0405 29.4488 33.0405 29.2501C33.0405 29.0513 33.1194 28.8606 33.26 28.7201C33.4006 28.5795 33.5912 28.5005 33.79 28.5005C33.9888 28.5005 34.1794 28.5795 34.32 28.7201L37.65 32.0501C37.7894 32.1913 37.8675 32.3817 37.8675 32.5801C37.8675 32.7785 37.7894 32.9689 37.65 33.1101ZM42.63 29.8801C42.4378 29.9245 42.2359 29.8918 42.0676 29.789C41.8993 29.6861 41.7781 29.5214 41.73 29.3301L41.02 26.3701C40.9763 26.1765 41.0106 25.9736 41.1154 25.8052C41.2202 25.6367 41.3871 25.5164 41.58 25.4701C41.6759 25.4457 41.7758 25.4409 41.8736 25.4561C41.9715 25.4713 42.0652 25.5061 42.1493 25.5584C42.2333 25.6107 42.3059 25.6794 42.3628 25.7605C42.4196 25.8415 42.4595 25.9332 42.48 26.0301L43.19 28.9801C43.2337 29.1736 43.1994 29.3765 43.0946 29.5449C42.9898 29.7134 42.8229 29.8338 42.63 29.8801ZM34.52 38.0001C34.4677 38.1909 34.3441 38.3543 34.1747 38.4566C34.0054 38.559 33.8033 38.5924 33.61 38.5501L31.26 38.0001C31.1641 37.9765 31.0737 37.9343 30.9941 37.8758C30.9146 37.8173 30.8473 37.7437 30.7962 37.6592C30.7451 37.5746 30.7112 37.4809 30.6964 37.3832C30.6816 37.2855 30.6862 37.1859 30.71 37.0901C30.7318 36.9942 30.7726 36.9037 30.8299 36.8238C30.8873 36.7439 30.96 36.6764 31.0439 36.6251C31.1278 36.5739 31.2211 36.5399 31.3184 36.5253C31.4156 36.5107 31.5147 36.5157 31.61 36.5401L33.96 37.0901C34.1536 37.1387 34.3205 37.2611 34.4251 37.4311C34.5298 37.6011 34.5638 37.8053 34.52 38.0001Z" fill="#0053E2"/>
</svg>
