<svg width="51" height="51" viewBox="0 0 51 51" fill="#001E60" xmlns="http://www.w3.org/2000/svg">
<path fill-rule="evenodd" clip-rule="evenodd" d="M41.9712 0.361084C46.4673 0.361084 50.1122 4.00596 50.1122 8.50213C50.1122 12.9983 46.4673 16.6432 41.9712 16.6432C37.475 16.6432 33.8301 12.9983 33.8301 8.50213C33.8301 4.00596 37.475 0.361084 41.9712 0.361084ZM37.131 4.80147C36.8236 4.80147 36.5744 5.05071 36.5744 5.35814C36.5744 5.66556 36.8236 5.9148 37.131 5.9148H38.6066L39.8063 11.5785C39.8623 11.8428 40.0974 12.0232 40.3576 12.0197H40.9392V12.9545C40.9392 13.2619 41.1884 13.5111 41.4959 13.5111C41.8033 13.5111 42.0525 13.2619 42.0525 12.9545V12.0197H43.6096V12.9545C43.6096 13.2619 43.8589 13.5111 44.1663 13.5111C44.4737 13.5111 44.723 13.2619 44.723 12.9545V12.0197H45.3638C45.6238 12.0197 45.8422 11.8415 45.9033 11.6005L47.4836 6.73698C47.5785 6.44458 47.4185 6.13054 47.1261 6.03561C47.0653 6.01588 47.0037 6.00721 46.9432 6.00839H39.7626L39.6073 5.27586C39.5675 5.00745 39.3362 4.80147 39.0567 4.80147H37.131Z" fill="#001E60"/>
<path fill-rule="evenodd" clip-rule="evenodd" d="M36.5326 38.7173V15.9909C34.22 14.3085 32.7167 11.581 32.7167 8.50238C32.7167 5.53481 34.1135 2.89347 36.2855 1.19997C36.19 1.04149 36.0698 0.899583 35.9305 0.779697C35.6277 0.519182 35.2335 0.361328 34.803 0.361328H1.80752C1.33165 0.361328 0.89938 0.555704 0.58594 0.869143C0.2725 1.18258 0.078125 1.61492 0.078125 2.09085V45.8419C0.078125 47.111 0.597741 48.2652 1.43484 49.1023C2.27197 49.9394 3.42616 50.459 4.6953 50.459C5.96441 50.459 7.11863 49.9394 7.95573 49.1023C8.79283 48.2652 9.31245 47.111 9.31245 45.8419V41.5603C9.31245 40.7771 9.63164 40.0662 10.1465 39.5514C10.6613 39.0366 11.3721 38.7174 12.1553 38.7174L36.5326 38.7173ZM11.4094 21.7874C11.6268 21.5701 11.6268 21.2176 11.4094 21.0003C11.1921 20.7829 10.8396 20.7829 10.6223 21.0003L7.60064 24.0219L6.69681 23.1181C6.47946 22.9008 6.127 22.9008 5.90965 23.1181C5.6923 23.3355 5.6923 23.6879 5.90965 23.9053L7.20453 25.2001L7.20703 25.2027C7.42442 25.4201 7.77687 25.4201 7.99426 25.2027L11.4094 21.7874ZM11.4094 27.2917C11.6268 27.0744 11.6268 26.7219 11.4094 26.5046C11.1921 26.2872 10.8396 26.2872 10.6223 26.5046L7.60064 29.5262L6.69681 28.6224C6.47946 28.4051 6.127 28.4051 5.90965 28.6224C5.6923 28.8398 5.6923 29.1923 5.90965 29.4096L7.20453 30.7045L7.20703 30.707C7.42442 30.9244 7.77687 30.9244 7.99426 30.707L11.4094 27.2917ZM11.4094 32.796C11.6268 32.5787 11.6268 32.2262 11.4094 32.0089C11.1921 31.7915 10.8396 31.7915 10.6223 32.0089L7.60064 35.0305L6.69681 34.1268C6.47946 33.9094 6.127 33.9094 5.90965 34.1268C5.6923 34.3441 5.6923 34.6966 5.90965 34.9139L7.20453 36.2088L7.20703 36.2113C7.42442 36.4287 7.77687 36.4287 7.99426 36.2113L11.4094 32.796ZM11.4094 16.2831C11.6268 16.0658 11.6268 15.7133 11.4094 15.4959C11.1921 15.2786 10.8396 15.2786 10.6223 15.4959L7.60064 18.5176L6.69681 17.6138C6.47946 17.3965 6.127 17.3965 5.90965 17.6138C5.6923 17.8312 5.6923 18.1836 5.90965 18.401L7.20453 19.6958L7.20703 19.6984C7.42442 19.9158 7.77687 19.9158 7.99426 19.6984L11.4094 16.2831ZM30.5083 34.6667C30.8157 34.6667 31.065 34.4175 31.065 34.1101C31.065 33.8027 30.8157 33.5534 30.5083 33.5534H13.564C13.2566 33.5534 13.0073 33.8027 13.0073 34.1101C13.0073 34.4175 13.2566 34.6667 13.564 34.6667H30.5083ZM30.5083 29.1624C30.8157 29.1624 31.065 28.9132 31.065 28.6058C31.065 28.2984 30.8157 28.0491 30.5083 28.0491H13.564C13.2566 28.0491 13.0073 28.2984 13.0073 28.6058C13.0073 28.9132 13.2566 29.1624 13.564 29.1624H30.5083ZM30.5083 23.6581C30.8157 23.6581 31.065 23.4089 31.065 23.1015C31.065 22.794 30.8157 22.5448 30.5083 22.5448H13.564C13.2566 22.5448 13.0073 22.794 13.0073 23.1015C13.0073 23.4089 13.2566 23.6581 13.564 23.6581H30.5083ZM30.5083 18.1538C30.8157 18.1538 31.065 17.9046 31.065 17.5972C31.065 17.2897 30.8157 17.0405 30.5083 17.0405H13.564C13.2566 17.0405 13.0073 17.2897 13.0073 17.5972C13.0073 17.9046 13.2566 18.1538 13.564 18.1538H30.5083ZM30.1945 12.6937H6.58531C6.12345 12.6937 5.74663 12.3169 5.74663 11.855V5.98408C5.74663 5.52219 6.12339 5.14543 6.58531 5.14543H30.1945C30.6564 5.14543 31.0331 5.52225 31.0331 5.98408V11.855C31.0331 12.3168 30.6563 12.6937 30.1945 12.6937Z" fill="#001E60"/>
<path fill-rule="evenodd" clip-rule="evenodd" d="M44.32 41.5601C44.32 41.0842 44.1256 40.6519 43.8122 40.3384C43.4987 40.0249 43.0664 39.8306 42.5905 39.8306H37.0893H12.1553C11.6794 39.8306 11.2471 40.0249 10.9336 40.3384C10.6201 40.6519 10.4257 41.0842 10.4257 41.5601V45.8417C10.4257 47.4182 9.7812 48.851 8.74285 49.8893C8.53684 50.0953 8.31522 50.2858 8.08008 50.4589H39.7028C40.972 50.4589 42.1262 49.9393 42.9633 49.1022C43.8004 48.2651 44.32 47.1108 44.32 45.8417V41.5601Z" fill="#001E60"/>
</svg>
