<svg width="38" height="38" viewBox="0 0 38 38" fill="none" xmlns="http://www.w3.org/2000/svg">
<path d="M20.1967 18.5101C20.4416 18.6762 20.8038 18.605 20.9684 18.3624L27.6439 8.52774C27.8162 8.27388 27.7502 7.92839 27.4962 7.75608C27.2424 7.58385 26.8969 7.64978 26.7246 7.90379L20.0491 17.7384C19.8767 17.9922 19.9429 18.3378 20.1967 18.5101Z" fill="#0053E2"/>
<path d="M27.464 18.6033C28.6201 18.6033 29.5608 17.4472 29.5608 16.026C29.4424 12.6055 25.4853 12.6063 25.3672 16.026C25.3672 17.4472 26.3078 18.6033 27.464 18.6033ZM27.464 14.5599C27.9983 14.5599 28.4497 15.2312 28.4497 16.026C28.4497 16.8208 27.9983 17.4921 27.464 17.4921C26.9297 17.4921 26.4783 16.8208 26.4783 16.026C26.4783 15.2312 26.9298 14.5599 27.464 14.5599Z" fill="#0053E2"/>
<path d="M22.2445 10.2374C22.2445 8.81628 21.3038 7.66016 20.1476 7.66016C17.3669 7.79757 17.368 12.678 20.1476 12.8147C21.3038 12.8147 22.2445 11.6585 22.2445 10.2374ZM19.162 10.2374C19.162 9.44267 19.6134 8.77131 20.1477 8.77131C20.682 8.77131 21.1334 9.44267 21.1334 10.2374C21.1334 11.0322 20.682 11.7036 20.1477 11.7036C19.6134 11.7036 19.162 11.0321 19.162 10.2374Z" fill="#0053E2"/>
<path d="M19.863 25.6262C33.4989 29.6907 42.9388 12.6193 32.3209 3.18822C32.0883 2.98799 31.7376 3.01407 31.5374 3.24667C31.3372 3.4792 31.3633 3.82995 31.5958 4.03018C41.4522 12.8105 32.4107 28.5877 19.863 24.4551V20.6798C19.863 20.2036 19.5749 19.5331 18.2024 19.0432C16.6365 18.4842 14.8299 18.4346 13.1954 18.6657C7.95662 8.43903 18.6785 -2.63802 29.0411 2.3453C29.3165 2.47982 29.6494 2.36567 29.7841 2.08995C29.9188 1.81431 29.8045 1.48163 29.5289 1.34689C18.3513 -4.04037 6.6736 7.73759 12.0678 18.8943C11.9017 18.9399 11.7421 18.9893 11.5912 19.0432C10.2187 19.5332 9.93055 20.2037 9.93055 20.6798V24.3778C8.80065 23.8431 7.58223 23.6719 6.08247 23.6515C5.34696 23.6765 5.34673 24.737 6.08187 24.7627C7.19659 24.7633 8.23626 24.9158 9.00948 25.1922C9.77047 25.4642 9.93062 25.7388 9.93062 25.7816C9.93062 25.8245 9.77017 26.0995 9.00755 26.3717C7.23888 27.0031 4.91146 27.0028 3.14361 26.3717C2.38098 26.0995 2.22053 25.8244 2.22053 25.7816C2.22053 25.7312 2.4155 25.4146 3.34213 25.1258C4.03698 24.8825 3.72074 23.8704 3.01153 24.065C1.43939 24.555 1.10938 25.269 1.10938 25.7816V35.8256C1.10938 36.3018 1.39754 36.9723 2.77004 37.4622C4.77886 38.1793 7.37296 38.1791 9.38112 37.4622C9.88033 37.284 10.2356 37.0818 10.4862 36.8739C10.7368 37.0818 11.0921 37.284 11.5913 37.4622C13.6002 38.1793 16.1943 38.1791 18.2024 37.4622C18.7016 37.284 19.0569 37.0818 19.3075 36.8739C19.5581 37.0818 19.9134 37.284 20.4126 37.4622C22.4214 38.1793 25.0155 38.1791 27.0237 37.4622C28.3962 36.9722 28.6844 36.3017 28.6844 35.8256V30.8036C28.6844 30.3274 28.3962 29.6569 27.0237 29.167C25.0149 28.4499 22.4208 28.4501 20.4126 29.167C20.2056 29.2409 20.0236 29.319 19.8631 29.3999C19.8625 28.6756 19.8641 26.5262 19.8625 25.7706C19.8634 25.7506 19.8629 25.648 19.863 25.6262ZM27.5731 33.3146C27.5731 33.3575 27.4127 33.6326 26.65 33.9047C24.8814 34.5362 22.554 34.5359 20.7861 33.9047C20.0235 33.6325 19.863 33.3575 19.863 33.3146V32.2074C20.0235 32.2882 20.2055 32.3664 20.4125 32.4403C22.4214 33.1574 25.0155 33.1572 27.0236 32.4403C27.2307 32.3664 27.4127 32.2883 27.5731 32.2074V33.3146ZM18.7519 23.1908C18.7519 23.2337 18.5914 23.5088 17.8288 23.7809C16.0601 24.4123 13.7326 24.4121 11.9648 23.7809C11.2022 23.5087 11.0417 23.2336 11.0417 23.1908V22.0836C11.2022 22.1644 11.3842 22.2426 11.5912 22.3165C13.6001 23.0336 16.1942 23.0333 18.2024 22.3165C18.4094 22.2426 18.5914 22.1645 18.7519 22.0836V23.1908ZM11.5912 24.8274C13.7907 25.5937 16.6254 25.5722 18.7519 24.5946V25.7417C18.7519 25.7846 18.5914 26.0597 17.8288 26.3319C16.06 26.9633 13.7328 26.963 11.9648 26.3319C11.2022 26.0597 11.0417 25.7846 11.0417 25.7417V24.5946C11.2022 24.6754 11.3841 24.7535 11.5912 24.8274ZM9.93055 30.8036C9.93055 30.8465 9.7701 31.1215 9.00747 31.3937C7.23866 32.0252 4.91153 32.0249 3.14353 31.3937C2.38091 31.1215 2.22046 30.8465 2.22046 30.8036V29.6963C2.38091 29.7772 2.56292 29.8553 2.76996 29.9292C4.77878 30.6463 7.37289 30.6461 9.38105 29.9292C9.58809 29.8553 9.7701 29.7772 9.93055 29.6963V30.8036ZM2.22046 32.2073C2.38091 32.2882 2.56292 32.3663 2.76996 32.4402C4.77878 33.1573 7.37289 33.1571 9.38105 32.4402C9.58809 32.3663 9.7701 32.2882 9.93055 32.2073V33.3146C9.93055 33.3575 9.7701 33.6325 9.00747 33.9047C7.23881 34.5361 4.91138 34.5358 3.14353 33.9047C2.38091 33.6324 2.22046 33.3574 2.22046 33.3146V32.2073ZM11.0417 32.2073C11.2022 32.2882 11.3842 32.3663 11.5912 32.4402C13.6001 33.1573 16.1942 33.1571 18.2024 32.4402C18.4094 32.3663 18.5914 32.2882 18.7519 32.2073V33.3146C18.7519 33.3575 18.5914 33.6325 17.8288 33.9047C16.0601 34.5361 13.7326 34.5359 11.9648 33.9047C11.2022 33.6324 11.0417 33.3574 11.0417 33.3146V32.2073ZM17.8288 31.3937C16.06 32.0252 13.7328 32.0248 11.9648 31.3937C11.2022 31.1215 11.0417 30.8465 11.0417 30.8036V29.6963C11.2022 29.7772 11.3842 29.8553 11.5912 29.9292C13.6001 30.6463 16.1942 30.6461 18.2024 29.9292C18.4094 29.8553 18.5914 29.7772 18.7519 29.6963V30.8036C18.7519 30.8465 18.5914 31.1215 17.8288 31.3937ZM18.7519 28.2926C18.7519 28.3355 18.5914 28.6104 17.8288 28.8827C16.06 29.5141 13.7328 29.5137 11.9648 28.8827C11.2022 28.6104 11.0417 28.3354 11.0417 28.2926V27.1454C11.2022 27.2262 11.3842 27.3044 11.5912 27.3783C13.6001 28.0954 16.1942 28.0952 18.2024 27.3783C18.4094 27.3044 18.5914 27.2263 18.7519 27.1454V28.2926ZM11.9648 20.0897C13.7329 19.4585 16.0612 19.4587 17.8288 20.0897C18.5914 20.3619 18.7519 20.6369 18.7519 20.6798C18.7519 20.7226 18.5914 20.9977 17.8288 21.2699C16.06 21.9014 13.7328 21.901 11.9648 21.2699C11.2022 20.9977 11.0417 20.7226 11.0417 20.6798C11.0417 20.6369 11.2022 20.3619 11.9648 20.0897ZM2.76996 27.4182C4.96946 28.1844 7.80409 28.1629 9.93055 27.1854V28.2927C9.93055 28.3355 9.7701 28.6106 9.00747 28.8828C7.23866 29.5142 4.91153 29.5139 3.14353 28.8828C2.38091 28.6105 2.22046 28.3355 2.22046 28.2927V27.1854C2.38083 27.2662 2.56284 27.3442 2.76996 27.4182ZM9.00747 36.4158C7.23866 37.0472 4.91153 37.0469 3.14353 36.4158C2.38091 36.1436 2.22046 35.8685 2.22046 35.8257V34.7184C4.52907 35.7569 7.62253 35.7567 9.93055 34.7184V35.8257C9.93055 35.8685 9.7701 36.1436 9.00747 36.4158ZM17.8288 36.4158C16.06 37.0472 13.7328 37.0469 11.9648 36.4158C11.2022 36.1436 11.0417 35.8685 11.0417 35.8257V34.7184C13.3503 35.7569 16.4439 35.7567 18.7519 34.7184V35.8257C18.7519 35.8685 18.5914 36.1435 17.8288 36.4158ZM26.65 36.4158C24.8812 37.0472 22.5541 37.0469 20.7861 36.4158C20.0235 36.1436 19.863 35.8685 19.863 35.8257V34.7184C22.1716 35.7569 25.2651 35.7567 27.5731 34.7184V35.8257C27.5731 35.8685 27.4127 36.1436 26.65 36.4158ZM20.7861 30.2135C22.5549 29.582 24.882 29.5823 26.65 30.2135C27.4127 30.4857 27.5731 30.7608 27.5731 30.8036C27.5731 30.8464 27.4127 31.1215 26.65 31.3937C24.8812 32.0252 22.5541 32.0249 20.7861 31.3937C20.0235 31.1215 19.863 30.8465 19.863 30.8036C19.863 30.7607 20.0235 30.4857 20.7861 30.2135Z" fill="#0053E2"/>
</svg>
