<svg width="38" height="38" viewBox="0 0 38 38" fill="#001E60" xmlns="http://www.w3.org/2000/svg">
<path d="M24.4963 12.0839C20.8007 6.64695 15.8649 3.75728 13.2801 5.52783C12.9955 5.72827 12.7481 5.97701 12.5493 6.26278C12.5493 6.28366 6.56535 18.3935 6.56535 18.3935L3.22469 20.6568C2.71186 21.005 2.27263 21.4507 1.93211 21.9687C1.59159 22.4866 1.35644 23.0665 1.24011 23.6753C1.12377 24.2842 1.12852 24.9099 1.2541 25.5169C1.37967 26.1239 1.6236 26.7002 1.97195 27.2129L2.12228 27.4342C2.82641 28.4599 3.90653 29.1667 5.12837 29.4012C6.35021 29.6357 7.61524 29.3791 8.64909 28.687L14.015 36.5918C14.8043 37.5648 16.3201 38.5336 18.1908 37.3936C18.5223 37.1787 18.805 36.8967 19.0207 36.5658C19.2365 36.235 19.3806 35.8626 19.4436 35.4727C19.5192 35.0848 19.5171 34.6858 19.4376 34.2988C19.358 33.9118 19.2025 33.5443 18.9801 33.2177L14.253 26.2441C14.253 26.2441 25.4276 25.3546 25.4693 25.3379C25.8182 25.2649 26.149 25.123 26.4423 24.9204C27.7702 24.0184 28.2462 22.1267 27.7869 19.592C27.3735 17.2577 26.2001 14.6144 24.4963 12.0839ZM3.33744 26.6116L3.18711 26.3903C2.94677 26.0364 2.77857 25.6387 2.69214 25.2197C2.60571 24.8008 2.60275 24.369 2.68343 23.9489C2.7641 23.5288 2.92683 23.1288 3.1623 22.7717C3.39778 22.4146 3.70136 22.1075 4.05568 21.8678L6.94118 19.9052L10.7495 25.5133L7.86404 27.476C7.51012 27.7166 7.11225 27.8852 6.69316 27.972C6.27407 28.0588 5.84199 28.0621 5.4216 27.9819C5.00121 27.9016 4.60077 27.7392 4.24316 27.5041C3.88554 27.269 3.57778 26.9657 3.33744 26.6116ZM17.7774 34.0404C18.0057 34.38 18.0899 34.7962 18.0116 35.1978C17.9333 35.5994 17.6989 35.9536 17.3599 36.1826C17.0196 36.411 16.6027 36.4953 16.2004 36.4171C15.7981 36.3388 15.4433 36.1043 15.2135 35.765L9.86426 27.8852L12.0148 26.4237L12.5827 26.3777L17.7774 34.0404ZM12.1317 24.9454L7.98096 18.832L11.9396 10.7601C12.3238 13.0276 13.4471 15.721 15.2427 18.3643C17.0383 21.0076 19.1262 23.0454 21.0889 24.2397L12.1317 24.9454ZM24.4504 23.9725C22.4544 23.843 19.2056 21.5922 16.4537 17.5375C13.7018 13.4828 12.8082 9.6452 13.4221 7.73685C13.5329 7.37864 13.7541 7.06462 14.0541 6.83964C14.3541 6.61466 14.7175 6.49022 15.0924 6.4841C17.0717 6.4841 20.4416 8.74739 23.2728 12.919C24.868 15.2659 26.0289 17.7212 26.3462 19.8676C26.9684 23.9725 24.4504 23.9725 24.4504 23.9725Z" fill="#001E60"/>
<path d="M19.2738 12.2375C18.7623 12.1371 18.2359 12.1397 17.7254 12.2451C17.2149 12.3505 16.7305 12.5566 16.3006 12.8514C16.2214 12.9062 16.1537 12.9761 16.1015 13.0571C16.0493 13.1381 16.0135 13.2286 15.9962 13.3234C15.979 13.4182 15.9806 13.5155 16.0009 13.6097C16.0212 13.7039 16.0599 13.7931 16.1148 13.8724C16.1696 13.9516 16.2395 14.0193 16.3205 14.0715C16.4015 14.1237 16.492 14.1595 16.5868 14.1768C16.6816 14.194 16.7789 14.1924 16.8731 14.1721C16.9673 14.1517 17.0565 14.113 17.1358 14.0582C17.408 13.8734 17.714 13.744 18.0363 13.6775C18.3586 13.611 18.6908 13.6085 19.014 13.6704C19.3372 13.7322 19.645 13.8571 19.92 14.038C20.1949 14.2188 20.4315 14.452 20.6163 14.7243C20.8011 14.9965 20.9305 15.3025 20.997 15.6248C21.0636 15.9471 21.066 16.2793 21.0041 16.6025C20.9423 16.9257 20.8174 17.2335 20.6366 17.5085C20.4557 17.7834 20.2225 18.02 19.9503 18.2048C19.8219 18.2935 19.7253 18.4209 19.6745 18.5684C19.6237 18.7159 19.6215 18.8758 19.6682 19.0247C19.7149 19.1736 19.808 19.3036 19.9339 19.3958C20.0598 19.4879 20.2118 19.5374 20.3679 19.5369C20.5167 19.5397 20.6627 19.4959 20.7854 19.4116C21.4349 18.9716 21.9392 18.3488 22.2345 17.6219C22.5297 16.8951 22.6025 16.097 22.4438 15.3288C22.285 14.5605 21.9018 13.8566 21.3427 13.3063C20.7836 12.756 20.0737 12.3841 19.303 12.2375H19.2738Z" fill="#001E60"/>
<path d="M25.3975 7.00005H25.4685C25.6492 6.99998 25.8235 6.93292 25.9577 6.81184C26.0919 6.69075 26.1765 6.52423 26.195 6.34445L26.7588 0.865765C26.7716 0.768887 26.7649 0.670421 26.739 0.576191C26.7131 0.481961 26.6686 0.393881 26.608 0.317164C26.5475 0.240447 26.4722 0.17665 26.3866 0.129549C26.3009 0.0824471 26.2067 0.0529973 26.1095 0.0429416C26.0123 0.032886 25.9141 0.0424288 25.8206 0.0710055C25.7272 0.0995822 25.6404 0.146612 25.5655 0.209313C25.4905 0.272014 25.4289 0.349112 25.3843 0.436046C25.3396 0.52298 25.3129 0.617983 25.3056 0.715435L24.746 6.19829C24.7262 6.39098 24.7836 6.58367 24.9058 6.73401C25.0279 6.88435 25.2048 6.98004 25.3975 7.00005Z" fill="#001E60"/>
<path d="M34.8472 5.87554C34.7399 5.71381 34.573 5.60108 34.3829 5.56196C34.1928 5.52284 33.9949 5.56051 33.8325 5.66675L28.7422 9.00741C28.61 9.09469 28.5097 9.22255 28.4565 9.37174C28.4033 9.52092 28.4 9.68336 28.4471 9.83459C28.4942 9.98581 28.5892 10.1176 28.7177 10.2102C28.8463 10.3028 29.0014 10.3511 29.1597 10.3479C29.3075 10.3513 29.4529 10.3105 29.5773 10.2309L34.6677 6.89027C34.8256 6.77916 34.9331 6.61008 34.9667 6.41994C35.0004 6.22981 34.9574 6.03409 34.8472 5.87554Z" fill="#001E60"/>
<path d="M36.3998 14.7951L30.4785 13.7303C30.2875 13.696 30.0906 13.7389 29.9312 13.8497C29.7719 13.9605 29.6631 14.1301 29.6287 14.3212C29.5944 14.5122 29.6374 14.7091 29.7482 14.8684C29.859 15.0278 30.0286 15.1366 30.2196 15.171L36.1368 16.2358H36.2662C36.4524 16.2412 36.6336 16.1754 36.7729 16.0516C36.9122 15.9279 36.9989 15.7557 37.0154 15.5702C37.032 15.3846 36.977 15.1998 36.8618 15.0534C36.7466 14.907 36.5799 14.8102 36.3957 14.7826L36.3998 14.7951Z" fill="#001E60"/>
</svg>
