<svg xmlns="http://www.w3.org/2000/svg" id="Layer_1" data-name="Layer 1" viewBox="0 0 512 512"><path d="M431.968,107.011a7,7,0,0,0,9.9,0l28.619-28.618,9.41,9.41a10.6,10.6,0,0,0,18.068-6.628l5-60.7A10.6,10.6,0,0,0,491.522,9.038l-60.7,5A10.606,10.606,0,0,0,424.2,32.1l9.41,9.411L404.988,70.133a7,7,0,0,0,0,9.9Zm16.488-60.548a7,7,0,0,0,0-9.9l-9.179-9.178,49.4-4.067-4.068,49.4-9.177-9.178a7,7,0,0,0-9.9,0L436.917,92.162l-17.08-17.08Zm54.506,445.06-5-60.7A10.606,10.606,0,0,0,479.9,424.2l-9.41,9.41-28.619-28.618a7,7,0,0,0-9.9,0l-26.98,26.98a7,7,0,0,0,0,9.9l28.618,28.619L424.2,479.9a10.606,10.606,0,0,0,6.63,18.068l60.7,5h0c.306.024.609.037.911.037a10.608,10.608,0,0,0,10.527-11.477Zm-63.684-6.909,9.179-9.178a7,7,0,0,0,0-9.9l-28.619-28.619,17.08-17.08,28.619,28.618a7,7,0,0,0,9.9,0l9.177-9.178,4.068,49.4ZM80.031,404.989a7,7,0,0,0-9.9,0L41.514,433.607,32.1,424.2a10.605,10.605,0,0,0-18.068,6.629l-5,60.7h0A10.607,10.607,0,0,0,19.566,503c.3,0,.605-.013.911-.037l60.7-5A10.606,10.606,0,0,0,87.8,479.9l-9.41-9.411,28.618-28.617a7,7,0,0,0,0-9.9ZM63.543,465.536a7,7,0,0,0,0,9.9l9.179,9.178-49.4,4.068,4.068-49.4,9.178,9.178a7,7,0,0,0,9.9,0l28.619-28.618,17.08,17.081ZM14.035,81.175A10.605,10.605,0,0,0,32.1,87.8l9.411-9.41,28.618,28.618a7,7,0,0,0,9.9,0L107.011,80.03a7,7,0,0,0,0-9.9L78.393,41.514,87.8,32.1a10.605,10.605,0,0,0-6.629-18.069l-60.7-5h0A10.605,10.605,0,0,0,9.038,20.477ZM72.722,27.386l-9.179,9.178a7,7,0,0,0,0,9.9L92.162,75.081,75.082,92.162,46.463,63.544a7,7,0,0,0-9.9,0l-9.178,9.178-4.067-49.4ZM403.213,195.105h7.265a15.369,15.369,0,0,0,13.31-23.053L387.03,108.386a15.369,15.369,0,0,0-26.62,0l-36.758,63.667a15.369,15.369,0,0,0,13.31,23.052h7.266V379.988a7,7,0,0,0,7,7h44.985a7,7,0,0,0,7-7Zm-7-14a7,7,0,0,0-7,7V372.988H358.228V188.105a7,7,0,0,0-7-7H336.962a1.368,1.368,0,0,1-1.185-2.053l36.757-63.666a1.369,1.369,0,0,1,2.372,0l36.757,63.665a1.369,1.369,0,0,1-1.185,2.054ZM319.82,214.612l-22.492-17.251a7.007,7.007,0,0,0-8.52,0l-22.493,17.251a7,7,0,0,0-2.739,5.555V379.988a7,7,0,0,0,7,7H315.56a7,7,0,0,0,7-7V220.167A7,7,0,0,0,319.82,214.612ZM308.56,372.988H277.576V223.62l15.492-11.883L308.56,223.62Zm-69.393-110.8-22.491-17.251a7,7,0,0,0-8.52,0l-22.493,17.251a7,7,0,0,0-2.74,5.554V379.988a7,7,0,0,0,7,7h44.984a7,7,0,0,0,7-7V267.737A7,7,0,0,0,239.167,262.183Zm-11.26,110.805H196.923V271.19l15.493-11.882,15.491,11.882Zm-69.392-69.441L136.023,286.3a7.005,7.005,0,0,0-8.521,0L105.01,303.547a7,7,0,0,0-2.739,5.555v70.886a7,7,0,0,0,7,7h44.984a7,7,0,0,0,7-7V309.1A7,7,0,0,0,158.515,303.547Zm-11.26,69.441H116.271V312.555l15.492-11.883,15.492,11.883ZM217,155.188c5.343,6.416,6.814,14.635,3.934,21.984-3.284,8.381-11.372,14.2-21.652,15.589V198.8a7,7,0,0,1-14,0v-6.452c-12.064-2.5-21.212-10.632-23.892-22.289a7,7,0,1,1,13.644-3.137c2.3,9.985,12.833,13.217,22.263,11.989,5.148-.67,9.211-3.292,10.6-6.843,1.034-2.635.46-5.374-1.658-7.917-3.467-4.164-6.989-4.861-13.429-5.827a56.943,56.943,0,0,1-11.634-2.653c-.073-.026-.145-.055-.217-.084-10.354-4.194-16.45-12.343-16.309-21.795.144-9.632,6.659-18.236,16.6-21.921a35.045,35.045,0,0,1,4.033-1.218v-6.633a7,7,0,1,1,14,0v6.459c9.834,2.206,18.159,9.377,22.285,20.27a7,7,0,1,1-13.091,4.959c-3.776-9.965-12.764-14.269-22.36-10.71-4.409,1.635-7.409,5.253-7.466,9-.052,3.528,2.6,6.567,7.46,8.567a45.1,45.1,0,0,0,8.778,1.912C201.6,145.481,209.958,146.734,217,155.188Zm-25.2-83.8A80.019,80.019,0,1,0,271.819,151.4,80.11,80.11,0,0,0,191.8,71.386Zm0,146.038a66.019,66.019,0,1,1,66.019-66.02A66.094,66.094,0,0,1,191.8,217.424Z" fill="#001E60"/></svg>