<svg width="58" height="58" viewBox="0 0 58 58" fill="none" xmlns="http://www.w3.org/2000/svg">
<path d="M37.12 25.2289C36.9931 25.0454 36.7847 24.9366 36.5615 24.9366H24.2059L23.7302 23.6667C23.4639 22.9553 22.8013 22.4965 22.0423 22.4965H21.4385C21.0635 22.4965 20.7588 22.8013 20.7588 23.1762C20.7588 23.5512 21.0635 23.8559 21.4385 23.8559H22.0423C22.2371 23.8559 22.3889 23.9613 22.4569 24.1436L23.0969 25.8542L25.5472 32.3984C25.6469 32.6635 25.9006 32.8402 26.1838 32.8402H34.1112C34.3945 32.8402 34.6482 32.6646 34.7479 32.3984L37.1982 25.8542C37.2763 25.6457 37.2469 25.4113 37.12 25.2289ZM33.64 31.4797H26.6551L24.7146 26.2948H35.5816L33.64 31.4797ZM27.985 33.2197C26.893 33.2197 26.0048 34.1079 26.0048 35.1999C26.0048 36.2919 26.893 37.18 27.985 37.18C29.077 37.18 29.9652 36.2919 29.9652 35.1999C29.9652 34.1079 29.077 33.2197 27.985 33.2197ZM27.985 35.8207C27.6429 35.8207 27.3642 35.542 27.3642 35.1999C27.3642 34.8578 27.6429 34.5791 27.985 34.5791C28.3271 34.5791 28.6058 34.8578 28.6058 35.1999C28.6058 35.542 28.3271 35.8207 27.985 35.8207ZM41.3816 29.6797H46.8373C47.168 31.9816 49.1527 33.7567 51.5441 33.7567C54.1666 33.7567 56.3008 31.6225 56.3008 29C56.3008 26.3775 54.1666 24.2433 51.5441 24.2433C49.1516 24.2433 47.168 26.0184 46.8373 28.3203H41.3816C41.231 25.554 40.1707 23.0267 38.4941 21.0318L42.6459 16.88C44.0902 18.0933 45.8732 18.7016 47.6574 18.7016C49.6546 18.7016 51.6517 17.9415 53.172 16.4213C56.2124 13.3808 56.2124 8.43379 53.172 5.39332C50.1315 2.35285 45.1845 2.35285 42.144 5.39332C39.2655 8.2718 39.1138 12.8586 41.6852 15.9194L37.5641 20.0395C35.4899 18.0559 32.7292 16.7837 29.6797 16.6184V11.1627C31.9816 10.832 33.7567 8.84727 33.7567 6.4559C33.7567 3.83344 31.6225 1.69922 29 1.69922C26.3775 1.69922 24.2433 3.83344 24.2433 6.4559C24.2433 8.84727 26.0184 10.832 28.3203 11.1627V16.6184C25.4124 16.7758 22.7684 17.9404 20.7305 19.7687L16.8812 15.9194C19.4527 12.8586 19.3009 8.27293 16.4224 5.39332C13.3819 2.35285 8.43492 2.35285 5.39445 5.39332C2.35398 8.43379 2.35398 13.3808 5.39445 16.4213C6.91469 17.9415 8.91184 18.7016 10.909 18.7016C12.6932 18.7016 14.4762 18.0933 15.9205 16.88L19.7687 20.7305C17.9404 22.7684 16.777 25.4124 16.6184 28.3203H11.1627C10.832 26.0184 8.84727 24.2433 6.4559 24.2433C3.83344 24.2433 1.69922 26.3775 1.69922 29C1.69922 31.6225 3.83344 33.7567 6.4559 33.7567C8.84727 33.7567 10.832 31.9816 11.1627 29.6797H16.6184C16.7713 32.5027 17.8735 35.0775 19.609 37.0894L15.5796 41.1188C14.1771 39.9384 12.4224 39.2939 10.568 39.2939C8.48477 39.2939 6.52727 40.105 5.05348 41.5776C3.58082 43.0503 2.76973 45.0089 2.76973 47.0921C2.76973 49.1754 3.58082 51.1329 5.05348 52.6067C6.52613 54.0793 8.48477 54.8904 10.568 54.8904C12.6512 54.8904 14.6088 54.0793 16.0825 52.6067C17.5563 51.134 18.3663 49.1754 18.3663 47.0921C18.3663 45.2377 17.7217 43.483 16.5413 42.0806L20.5526 38.0693C22.6132 39.9905 25.3274 41.2196 28.3203 41.3816V46.8373C26.0184 47.168 24.2433 49.1527 24.2433 51.5441C24.2433 54.1666 26.3775 56.3008 29 56.3008C31.6225 56.3008 33.7567 54.1666 33.7567 51.5441C33.7567 49.1516 31.9816 47.168 29.6797 46.8373V41.3816C32.5876 41.2242 35.2316 40.0596 37.2695 38.2313L41.1188 42.0806C39.9384 43.483 39.2939 45.2377 39.2939 47.0921C39.2939 49.1754 40.105 51.1329 41.5776 52.6067C43.0503 54.0793 45.0089 54.8904 47.0921 54.8904C49.1754 54.8904 51.1329 54.0793 52.6067 52.6067C54.0805 51.134 54.8904 49.1754 54.8904 47.0921C54.8904 45.0089 54.0793 43.0514 52.6067 41.5776C51.134 40.105 49.1754 39.2939 47.0921 39.2939C45.2377 39.2939 43.483 39.9384 42.0806 41.1188L38.2313 37.2695C40.0585 35.2316 41.2242 32.5876 41.3816 29.6797ZM51.5441 25.6027C53.4178 25.6027 54.9414 27.1263 54.9414 29C54.9414 30.8737 53.4178 32.3973 51.5441 32.3973C49.6704 32.3973 48.1468 30.8737 48.1468 29C48.1468 27.1263 49.6716 25.6027 51.5441 25.6027ZM43.8364 16.0916C44.1978 14.6348 45.5187 13.5756 47.0514 13.5756H48.2623C49.7939 13.5756 51.1159 14.6337 51.4773 16.0916C49.2139 17.7602 46.0987 17.7602 43.8364 16.0916ZM47.6563 11.9682C46.6186 11.9682 45.7736 11.1242 45.7736 10.0854C45.7736 9.04664 46.6175 8.2027 47.6563 8.2027C48.6951 8.2027 49.539 9.04664 49.539 10.0854C49.539 11.1242 48.6951 11.9682 47.6563 11.9682ZM43.1035 6.35508C44.3587 5.09992 46.008 4.47234 47.6563 4.47234C49.3045 4.47234 50.9539 5.09992 52.2091 6.35508C54.5936 8.73965 54.7114 12.5448 52.5648 15.0721C52.0539 13.8668 51.0536 12.9288 49.8279 12.4893C50.4838 11.8957 50.8973 11.0381 50.8973 10.0854C50.8973 8.29785 49.4427 6.84332 47.6552 6.84332C45.8676 6.84332 44.413 8.29785 44.413 10.0854C44.413 11.0381 44.8265 11.8957 45.4824 12.4893C44.2579 12.9288 43.2564 13.8656 42.7455 15.0721C40.6011 12.5448 40.7189 8.73965 43.1035 6.35508ZM25.6027 6.4559C25.6027 4.58223 27.1263 3.05859 29 3.05859C30.8737 3.05859 32.3973 4.58223 32.3973 6.4559C32.3973 8.32957 30.8737 9.8532 29 9.8532C27.1263 9.8532 25.6027 8.32844 25.6027 6.4559ZM6.35508 6.35508C8.86539 3.84477 12.9503 3.84477 15.4606 6.35508C17.8452 8.73965 17.963 12.5448 15.8163 15.0721C15.3054 13.8668 14.3052 12.9288 13.0795 12.4893C13.7354 11.8957 14.1488 11.0381 14.1488 10.0854C14.1488 8.29785 12.6943 6.84332 10.9067 6.84332C9.11914 6.84332 7.66461 8.29785 7.66461 10.0854C7.66461 11.0381 8.07809 11.8957 8.73398 12.4893C7.50941 12.9288 6.50801 13.8656 5.99711 15.0721C3.8527 12.5448 3.97051 8.73965 6.35508 6.35508ZM10.9079 11.9682C9.8702 11.9682 9.02512 11.1242 9.02512 10.0854C9.02512 9.04664 9.86906 8.2027 10.9079 8.2027C11.9455 8.2027 12.7906 9.04664 12.7906 10.0854C12.7906 11.1242 11.9455 11.9682 10.9079 11.9682ZM7.08801 16.0916C7.44938 14.6348 8.77023 13.5756 10.3029 13.5756H11.5139C13.0455 13.5756 14.3675 14.6337 14.7288 16.0916C13.5971 16.9265 12.2536 17.3445 10.909 17.3434C9.5632 17.3434 8.21855 16.9254 7.08801 16.0916ZM6.4559 32.3973C4.58223 32.3973 3.05859 30.8737 3.05859 29C3.05859 27.1263 4.58223 25.6027 6.4559 25.6027C8.32957 25.6027 9.8532 27.1263 9.8532 29C9.8532 30.8737 8.32844 32.3973 6.4559 32.3973ZM6.74816 52.2759C7.10953 50.818 8.43039 49.7599 9.96309 49.7599H11.1741C12.7068 49.7599 14.0276 50.8191 14.389 52.2759C13.289 53.0904 11.9625 53.5299 10.5691 53.5299C9.17465 53.5311 7.84812 53.0904 6.74816 52.2759ZM10.5691 48.1525C9.53148 48.1525 8.68641 47.3074 8.68641 46.2697C8.68641 45.2321 9.53035 44.387 10.5691 44.387C11.6079 44.387 12.4519 45.2321 12.4519 46.2697C12.4519 47.3074 11.6068 48.1525 10.5691 48.1525ZM15.4776 51.2564C14.9667 50.0511 13.9664 49.1131 12.7407 48.6736C13.3966 48.08 13.8101 47.2224 13.8101 46.2697C13.8101 44.4822 12.3556 43.0276 10.568 43.0276C8.78043 43.0276 7.3259 44.4822 7.3259 46.2697C7.3259 47.2224 7.73938 48.08 8.39527 48.6736C7.1707 49.1131 6.1693 50.0511 5.6584 51.2564C4.66945 50.0941 4.1291 48.635 4.1291 47.0921C4.1291 45.3725 4.79859 43.7549 6.01523 42.5394C7.23187 41.3227 8.8484 40.6532 10.568 40.6532C12.2876 40.6532 13.9053 41.3227 15.1208 42.5394C16.3374 43.756 17.0069 45.3725 17.0069 47.0921C17.008 48.635 16.4666 50.0941 15.4776 51.2564ZM32.3973 51.5441C32.3973 53.4178 30.8737 54.9414 29 54.9414C27.1263 54.9414 25.6027 53.4178 25.6027 51.5441C25.6027 49.6704 27.1263 48.1468 29 48.1468C30.8737 48.1468 32.3973 49.6716 32.3973 51.5441ZM29 40.0415C22.9123 40.0415 17.9585 35.0889 17.9585 29C17.9585 22.9123 22.9111 17.9596 29 17.9596C35.0889 17.9596 40.0415 22.9123 40.0415 29C40.0415 35.0877 35.0877 40.0415 29 40.0415ZM43.2712 52.2759C43.6325 50.818 44.9534 49.7599 46.4861 49.7599H47.6971C49.2298 49.7599 50.5506 50.8191 50.912 52.2759C49.812 53.0904 48.4855 53.5299 47.0921 53.5299C45.6977 53.5311 44.3723 53.0904 43.2712 52.2759ZM47.0921 48.1525C46.0545 48.1525 45.2094 47.3074 45.2094 46.2697C45.2094 45.2321 46.0534 44.387 47.0921 44.387C48.1309 44.387 48.9749 45.2321 48.9749 46.2697C48.9749 47.3074 48.1298 48.1525 47.0921 48.1525ZM47.0921 40.6532C48.8118 40.6532 50.4294 41.3227 51.6449 42.5394C52.8616 43.756 53.5311 45.3725 53.5311 47.0921C53.5311 48.635 52.9907 50.0941 52.0018 51.2564C51.4909 50.0511 50.4906 49.1131 49.2649 48.6736C49.9208 48.08 50.3343 47.2224 50.3343 46.2697C50.3343 44.4822 48.8797 43.0276 47.0921 43.0276C45.3046 43.0276 43.85 44.4822 43.85 46.2697C43.85 47.2224 44.2635 48.08 44.9194 48.6736C43.6948 49.1131 42.6934 50.0511 42.1825 51.2564C41.1936 50.0941 40.6532 48.635 40.6532 47.0921C40.6532 45.3725 41.3227 43.7549 42.5394 42.5394C43.7549 41.3227 45.3725 40.6532 47.0921 40.6532ZM32.4075 33.2197C31.3155 33.2197 30.4273 34.1079 30.4273 35.1999C30.4273 36.2919 31.3155 37.18 32.4075 37.18C33.4995 37.18 34.3877 36.2919 34.3877 35.1999C34.3877 34.1079 33.4995 33.2197 32.4075 33.2197ZM32.4075 35.8207C32.0654 35.8207 31.7867 35.542 31.7867 35.1999C31.7867 34.8578 32.0654 34.5791 32.4075 34.5791C32.7496 34.5791 33.0283 34.8578 33.0283 35.1999C33.0283 35.542 32.7507 35.8207 32.4075 35.8207Z" fill="#0053E2"/>
</svg>
