<svg width="38" height="38" viewBox="0 0 38 38" fill="#001E60" xmlns="http://www.w3.org/2000/svg">
<path d="M36.0928 36.734V13.3129C36.0928 12.9634 35.8094 12.6799 35.4598 12.6799H29.1298C28.7802 12.6799 28.4968 12.9634 28.4968 13.3129V36.734H27.2308V22.1749C27.2308 21.8254 26.9473 21.5419 26.5978 21.5419H20.2678C19.9182 21.5419 19.6348 21.8254 19.6348 22.1749V36.734H18.3687V15.8449C18.3687 15.4954 18.0853 15.2119 17.7357 15.2119H11.4057C11.0562 15.2119 10.7727 15.4954 10.7727 15.8449V36.734H9.50673V24.707C9.50673 24.3574 9.22331 24.074 8.87373 24.074H2.54372C2.19415 24.074 1.91072 24.3574 1.91072 24.707V36.734H0.0117188V38H37.9918V36.734H36.0928ZM8.24073 36.734H3.17672V25.34H8.24073V36.734ZM17.1027 36.734H12.0387V16.4779H17.1027V36.734ZM25.9648 36.734H20.9008V22.8079H25.9648V36.734ZM34.8268 36.734H29.7628V13.9459H34.8268V36.734Z" fill="#001E60"/>
<path d="M3.96296 17.2192C4.48075 17.5615 5.0878 17.744 5.70853 17.744C7.45649 17.7439 8.87346 16.3268 8.87338 14.5788C8.87338 13.9583 8.69092 13.3514 8.34878 12.8338L12.8292 8.35276C13.3427 8.6964 13.9463 8.88053 14.5642 8.88195C14.7506 8.88203 14.9365 8.86573 15.12 8.83321C15.7222 8.72766 16.2805 8.44866 16.7265 8.03057L20.4821 10.9177C19.8553 12.5494 20.6699 14.3804 22.3016 15.0072C23.9333 15.634 25.7643 14.8194 26.3911 13.1877C26.7587 12.2308 26.6401 11.1551 26.0728 10.3011L30.5519 5.82203C32.0139 6.78973 33.9836 6.38896 34.9512 4.92696C35.9189 3.46497 35.5181 1.49531 34.0561 0.527685C32.5941 -0.440015 30.6245 -0.0392465 29.6569 1.42275C28.9538 2.485 28.9538 3.86471 29.6569 4.92696L25.1777 9.40608C23.9232 8.57685 22.2584 8.74483 21.1949 9.80803C21.1829 9.82006 21.1759 9.83399 21.1645 9.84538L17.4634 7.00067C18.1743 5.40377 17.4561 3.53294 15.8592 2.822C14.2623 2.11106 12.3914 2.82928 11.6805 4.42618C11.2408 5.4139 11.3357 6.55781 11.9322 7.45952L7.45372 11.9386C5.99552 10.9747 4.03203 11.3753 3.06805 12.8335C2.10415 14.2917 2.50476 16.2552 3.96296 17.2192ZM32.2946 1.28594C33.3434 1.28594 34.1936 2.13614 34.1936 3.18494C34.1936 4.23375 33.3434 5.08395 32.2946 5.08395C31.2458 5.08395 30.3956 4.23375 30.3956 3.18494C30.3956 2.13614 31.2458 1.28594 32.2946 1.28594ZM22.0891 10.7046C22.4453 10.3481 22.9286 10.1479 23.4326 10.148C24.4814 10.1478 25.3316 10.9979 25.3318 12.0467C25.3319 12.5507 25.1316 13.034 24.7752 13.3902C24.0235 14.1067 22.8417 14.1067 22.09 13.3902C21.3481 12.6488 21.3478 11.4464 22.0891 10.7046ZM13.0151 4.62779L13.0153 4.62755C13.3031 4.21405 13.7443 3.93276 14.2408 3.84643C14.351 3.82752 14.4625 3.81802 14.5743 3.81794C14.9629 3.81834 15.3419 3.93837 15.6599 4.16166C16.519 4.76333 16.7277 5.94744 16.1261 6.8065C15.5244 7.66556 14.3403 7.87422 13.4812 7.27263C12.6222 6.67096 12.4134 5.48685 13.0151 4.62779ZM4.36507 13.2366C4.36539 13.2363 4.36562 13.236 4.36594 13.2357C5.10782 12.4943 6.31028 12.4945 7.05176 13.2364C7.79324 13.9782 7.79301 15.1807 7.05113 15.9222C6.29944 16.6387 5.11763 16.6387 4.36594 15.9222C3.62406 15.1808 3.62375 13.9784 4.36507 13.2366Z" fill="#001E60"/>
</svg>
