<svg width="38" height="38" viewBox="0 0 38 38" fill="none" xmlns="http://www.w3.org/2000/svg">
<g clip-path="url(#clip0_681_2060)">
<path d="M19.4425 36.2426H16.9776C16.7656 36.2426 16.5938 36.0712 16.5938 35.8596C16.5938 35.648 16.7656 35.4766 16.9776 35.4766H19.4425C19.6546 35.4766 19.8263 35.648 19.8263 35.8596C19.8263 36.0712 19.6545 36.2426 19.4425 36.2426Z" fill="#0053E2"/>
<path d="M18.6526 29.8076C18.5469 29.5817 18.2774 29.4839 18.0507 29.5893C17.824 29.6946 17.7259 29.9632 17.8316 30.1891C17.9373 30.4151 18.2068 30.5128 18.4335 30.4075C18.6602 30.3021 18.7583 30.0336 18.6526 29.8076Z" fill="#0053E2"/>
<path d="M17.1539 32.2535L14.5732 27.6957C14.4689 27.5115 14.5339 27.2778 14.7185 27.1736C14.9033 27.0697 15.1372 27.1346 15.2416 27.3187L17.6477 31.5683L19.7415 30.5952L17.2901 26.9481C17.172 26.7724 17.2189 26.5345 17.395 26.4166C17.5711 26.2986 17.8095 26.3456 17.9276 26.5213L20.629 30.5401C20.7582 30.7324 20.682 31.0034 20.4722 31.1008L17.6501 32.4123C17.5979 32.4366 17.3222 32.611 17.1539 32.2535Z" fill="#0053E2"/>
<path d="M33.269 30.7102C31.32 30.7102 29.7344 29.1254 29.7344 27.1774C29.7344 25.2294 31.32 23.6445 33.269 23.6445C35.2179 23.6445 36.8036 25.2294 36.8036 27.1774C36.8036 29.1254 35.2179 30.7102 33.269 30.7102ZM33.269 24.4108C31.7433 24.4108 30.5021 25.6518 30.5021 27.1775C30.5021 28.7029 31.7433 29.9441 33.269 29.9441C34.7947 29.9441 36.0359 28.703 36.0359 27.1775C36.0359 25.6518 34.7947 24.4108 33.269 24.4108Z" fill="#0053E2"/>
<path d="M18.6675 8.65541C16.7185 8.65541 15.1328 7.07066 15.1328 5.12263C15.1328 3.1746 16.7185 1.58984 18.6675 1.58984C20.6164 1.58984 22.2021 3.1746 22.2021 5.12263C22.2021 7.07066 20.6164 8.65541 18.6675 8.65541ZM18.6675 2.35608C17.1417 2.35608 15.9005 3.59716 15.9005 5.1227C15.9005 6.64825 17.1417 7.88933 18.6675 7.88933C20.1932 7.88933 21.4344 6.64825 21.4344 5.1227C21.4344 3.59716 20.1931 2.35608 18.6675 2.35608Z" fill="#0053E2"/>
<path d="M32.6644 33.7641H31.4016L31.4018 31.6584C31.4018 31.4469 31.2299 31.2754 31.0179 31.2754C30.8059 31.2754 30.634 31.4468 30.634 31.6584L30.6339 33.7641H5.70259L5.70313 26.0002C5.70313 25.7887 5.53129 25.6172 5.31925 25.6172C5.10729 25.6172 4.93537 25.7886 4.93537 26.0002L4.93484 33.7641H3.67294C3.4609 33.7641 3.28906 33.9365 3.28906 34.1481C3.28906 36.2301 4.98629 37.9239 7.07242 37.9239H29.2648C31.3509 37.9239 33.0482 36.2301 33.0482 34.1471C33.0482 33.9356 32.8764 33.7641 32.6644 33.7641ZM29.2649 37.1579H7.07249C5.53957 37.1579 4.27007 36.0105 4.08113 34.5302H32.2564C32.0676 36.01 30.798 37.1579 29.2649 37.1579Z" fill="#0053E2"/>
<path d="M13.354 23.0725C12.9527 23.0725 12.8292 22.5105 13.1917 22.3421L13.5986 22.1531C13.7906 22.0638 14.019 22.1468 14.1085 22.3386C14.1981 22.5303 14.1148 22.7582 13.9226 22.8475L13.5158 23.0366C13.4634 23.061 13.4083 23.0725 13.354 23.0725Z" fill="#0053E2"/>
<path d="M13.7837 24.1195C13.3824 24.1195 13.2588 23.5574 13.6214 23.3891L14.0283 23.2C14.2203 23.1106 14.4487 23.1936 14.5382 23.3855C14.6278 23.5773 14.5445 23.8052 14.3523 23.8944L13.9455 24.0835C13.8931 24.108 13.838 24.1195 13.7837 24.1195Z" fill="#0053E2"/>
<path d="M14.3853 25.1468C13.984 25.1468 13.8604 24.5849 14.223 24.4164L14.6297 24.2273C14.8219 24.138 15.0503 24.221 15.1398 24.4128C15.2293 24.6046 15.1461 24.8325 14.9539 24.9218L14.5472 25.1108C14.4947 25.1353 14.4396 25.1468 14.3853 25.1468Z" fill="#0053E2"/>
<path d="M29.9712 17.0027H23.9991C23.2843 15.7575 22.4699 14.6293 21.6291 13.7315C20.9293 12.9842 19.627 11.7901 18.7684 12.1888C18.4906 12.3179 18.3361 12.5821 18.2508 12.8647L17.0061 17.0027H8.2805C7.5278 16.2606 6.4939 15.8017 5.35428 15.8017C3.05672 15.8017 1.1875 17.666 1.1875 19.9575C1.1875 22.2491 3.05672 24.1134 5.35428 24.1134C5.9546 24.1134 6.52506 23.9851 7.04117 23.7562L7.05523 31.8771C7.05561 32.0884 7.22737 32.2595 7.43903 32.2595H7.43972C7.65176 32.2591 7.82329 32.0874 7.82291 31.8758L7.80862 23.313C8.84564 22.5564 9.5209 21.3344 9.5209 19.9576C9.5209 19.9509 9.52044 19.9442 9.52037 19.9375H14.869C14.2419 20.4785 13.5714 20.919 12.9773 21.1951L11.4432 21.9081C10.1338 22.5165 9.54651 24.1148 10.1592 25.4243C10.7776 26.7464 12.3601 27.3204 13.6862 26.7039L15.2203 25.991C16.802 25.256 19.4225 24.9184 21.0701 25.6261L25.0077 27.317C25.6346 27.599 26.1863 27.306 26.4122 26.6864C26.8202 25.5679 26.5712 22.9366 25.403 19.9375H28.5401V31.8766C28.5401 32.0881 28.712 32.2596 28.924 32.2596C29.136 32.2596 29.3079 32.0881 29.3079 31.8766V19.5544C29.3079 19.3428 29.136 19.1713 28.924 19.1713H25.0871C24.8808 18.6959 24.6578 18.2284 24.4182 17.7688H29.9711C30.3385 17.7688 30.6375 18.067 30.6375 18.4335L30.6372 20.4322C30.6372 20.6438 30.809 20.8154 31.021 20.8154H31.0211C31.233 20.8154 31.4049 20.6439 31.4049 20.4323L31.4053 18.4335C31.4054 17.6445 30.762 17.0027 29.9712 17.0027ZM5.35428 23.3472C3.47996 23.3472 1.95518 21.8266 1.95518 19.9575C1.95518 18.0885 3.47996 16.5679 5.35428 16.5679C7.22851 16.5679 8.7533 18.0885 8.7533 19.9575C8.7533 21.8266 7.22851 23.3472 5.35428 23.3472ZM9.4452 19.1713C9.34762 18.6652 9.15694 18.1919 8.89299 17.7687H16.6781C16.416 18.2578 16.0621 18.7328 15.6602 19.1713H9.4452ZM10.8549 25.1002C10.3845 24.1117 10.9133 22.9643 11.8913 22.5449C12.1782 23.7781 12.7226 24.9401 13.486 25.952C13.486 25.9519 11.7255 26.9293 10.8549 25.1002ZM14.1979 25.6211C13.413 24.6224 12.8667 23.4549 12.6035 22.2138C12.6035 22.2138 13.8511 21.6107 14.1349 21.4335C14.4224 22.7126 14.9839 23.9114 15.7821 24.9532C15.4639 25.0557 14.1979 25.6211 14.1979 25.6211ZM21.3737 24.9222C20.0038 24.3339 18.1544 24.3721 16.5862 24.7326C15.6855 23.6441 15.0795 22.3492 14.8216 20.9618C15.9997 20.0776 17.1264 18.8362 17.6352 17.5239C17.9292 16.7672 18.1209 15.9609 18.3547 15.1838C18.6991 16.8279 19.4655 18.89 20.3146 20.7048C20.9966 22.1625 22.1456 24.2816 23.3036 25.751L21.3737 24.9222ZM21.5914 20.1109C21.5019 19.9192 21.2738 19.8361 21.0814 19.9255L20.8587 20.029L20.6504 19.5838L21.3257 19.2699C21.7647 19.066 22.2878 19.2558 22.4924 19.6928C22.6947 20.1253 22.5 20.6534 22.068 20.8543L21.3919 21.1685L21.1835 20.7232L21.4056 20.62C21.5978 20.5306 21.6809 20.3027 21.5914 20.1109C21.6809 20.3027 21.5019 19.9192 21.5914 20.1109ZM25.5415 26.6644C25.4553 26.7052 24.9145 26.5733 23.8446 25.2003C23.1577 24.3187 22.4322 23.1603 21.7414 21.8512L22.392 21.5488C23.2033 21.1718 23.5678 20.1805 23.1879 19.3688C22.8045 18.5492 21.8235 18.1932 21.0017 18.5755L20.3501 18.8783C19.1484 15.953 18.744 13.7397 19.0065 13.0199C19.034 12.9446 19.0646 12.8726 19.1547 12.8726C19.3896 12.8726 20.0629 13.181 21.0685 14.2547C22.2045 15.4676 23.2942 17.1276 24.1369 18.9287C25.6253 22.1097 26.1025 25.2963 25.6911 26.4245C25.6318 26.5865 25.5692 26.6516 25.5415 26.6644C25.5692 26.6516 25.4552 26.7051 25.5415 26.6644Z" fill="#0053E2"/>
<path d="M37.5051 6.34757C37.7172 6.34757 37.889 6.17612 37.889 5.96453V2.15648C37.889 1.94489 37.7172 1.77344 37.5051 1.77344H25.1468C24.9348 1.77344 24.7631 1.94482 24.7629 2.15633L24.7578 12.0964C24.7577 12.3034 24.9338 12.4797 25.1417 12.4797H37.5052C37.7173 12.4797 37.8891 12.3083 37.8891 12.0967V9.10493C37.8891 8.89023 37.6973 8.6788 37.4792 8.6788H25.5272L25.5304 2.53959H37.1213V5.96453C37.1213 6.17612 37.2932 6.34757 37.5051 6.34757ZM37.1213 9.44488V11.7135H25.5257L25.5269 9.44488H37.1213Z" fill="#0053E2"/>
<path d="M27.2547 10.9536H26.4854C26.2734 10.9536 26.1016 10.7821 26.1016 10.5705C26.1016 10.359 26.2734 10.1875 26.4854 10.1875H27.2547C27.4668 10.1875 27.6386 10.359 27.6386 10.5705C27.6386 10.7821 27.4668 10.9536 27.2547 10.9536Z" fill="#0053E2"/>
<path d="M36.1777 10.1891H36.1764V10.1877C36.1764 9.97614 36.0045 9.80469 35.7925 9.80469C35.5804 9.80469 35.4086 9.97614 35.4086 10.1877V10.1891H35.4072C35.1952 10.1891 35.0234 10.3606 35.0234 10.5721C35.0234 10.7837 35.1953 10.9552 35.4072 10.9552H35.4086V10.9565C35.4086 11.1681 35.5804 11.3396 35.7925 11.3396C36.0045 11.3396 36.1764 11.1681 36.1764 10.9565V10.9552H36.1777C36.3897 10.9552 36.5615 10.7837 36.5615 10.5721C36.5615 10.3606 36.3897 10.1891 36.1777 10.1891Z" fill="#0053E2"/>
<path d="M34.0383 10.1898H30.8845C30.7642 10.0207 30.567 9.91016 30.3436 9.91016C30.1201 9.91016 29.9228 10.0207 29.8026 10.1898H28.5948C28.3828 10.1898 28.2109 10.3612 28.2109 10.5728C28.2109 10.7844 28.3828 10.9558 28.5948 10.9558H29.8026C29.9229 11.1248 30.1201 11.2354 30.3436 11.2354C30.567 11.2354 30.7642 11.1248 30.8845 10.9558H34.0383C34.2504 10.9558 34.4222 10.7844 34.4222 10.5728C34.4222 10.3612 34.2504 10.1898 34.0383 10.1898Z" fill="#0053E2"/>
<path d="M32.1432 7.46697L29.5763 6.11235C29.1727 5.89924 29.1722 5.30089 29.5764 5.08787L32.1434 3.73317C32.522 3.53336 32.9947 3.81791 32.9947 4.24541V6.95488C32.9947 7.34058 32.6771 7.67263 32.1432 7.46697ZM30.2479 5.60011L32.227 6.6445V4.55571L30.2479 5.60011Z" fill="#0053E2"/>
<path d="M31.024 22.4798C31.2961 22.4798 31.5167 22.2596 31.5167 21.988C31.5167 21.7163 31.2961 21.4961 31.024 21.4961C30.7518 21.4961 30.5312 21.7163 30.5312 21.988C30.5312 22.2596 30.7518 22.4798 31.024 22.4798Z" fill="#0053E2"/>
<path d="M37.5083 8.00718C37.7804 8.00718 38.001 7.78696 38.001 7.51531C38.001 7.24366 37.7804 7.02344 37.5083 7.02344C37.2362 7.02344 37.0156 7.24366 37.0156 7.51531C37.0156 7.78696 37.2362 8.00718 37.5083 8.00718Z" fill="#0053E2"/>
<path d="M3.30691 13.7875H0.383876C0.171836 13.7875 0 13.6161 0 13.4045V5.8557C0 5.64411 0.171836 5.47266 0.383876 5.47266H3.30699C3.51903 5.47266 3.69086 5.64411 3.69086 5.8557V13.4045C3.69079 13.6161 3.51895 13.7875 3.30691 13.7875ZM0.767676 13.0214H2.92311V6.23874H0.767676V13.0214Z" fill="#0053E2"/>
<path d="M10.7257 13.989H5.80605C5.59401 13.989 5.42225 13.8175 5.42225 13.6059C5.42225 13.3943 5.59408 13.2229 5.80605 13.2229H10.7257C11.0412 13.2229 11.298 12.9668 11.298 12.652C11.298 12.3339 11.0386 12.0751 10.7197 12.0751H9.60468C9.43748 12.0751 9.28989 11.9671 9.23912 11.8088C9.15848 11.5654 9.34294 11.3028 9.6027 11.3028H11.2645C11.5801 11.3028 11.8367 11.0467 11.8367 10.732C11.8367 10.4139 11.5773 10.1551 11.2585 10.1551H9.93733C9.73175 10.1551 9.55885 9.9858 9.55087 9.78144C9.54251 9.56742 9.71929 9.38282 9.93391 9.38282H11.8033C12.1188 9.38282 12.3755 9.1267 12.3755 8.81198C12.3755 8.49392 12.1161 8.23522 11.7973 8.23522H10.0539C9.84188 8.23522 9.67004 8.06376 9.67004 7.85218C9.67004 7.64059 9.84188 7.46291 10.0539 7.46291H12.3422C12.6577 7.46291 12.9143 7.20686 12.9143 6.89207C12.9154 6.57804 12.654 6.31523 12.3391 6.31523L7.38647 6.30497C7.36595 6.30489 7.34543 6.30322 7.32521 6.29995C7.05792 6.25625 6.91732 6.12272 6.84641 6.01837C6.7755 5.91403 6.70323 5.73413 6.76144 5.47003C6.76578 5.45027 6.7717 5.43089 6.77915 5.41212C6.95274 4.97208 7.17291 4.33148 7.24085 4.02117C7.44841 3.07436 7.15725 2.00892 6.45904 1.11508C6.08086 2.59093 5.61901 3.80427 5.08336 4.7282C4.97719 4.91121 4.74228 4.97383 4.55889 4.86796C4.37535 4.76194 4.31272 4.52763 4.41882 4.34455C4.98396 3.36985 5.46564 2.03293 5.85036 0.370891C5.9617 -0.109809 6.58148 0.0897665 6.81145 0.343607C7.83061 1.46795 8.27164 2.90397 7.99082 4.18495C7.91915 4.51183 7.72649 5.0835 7.55291 5.53919L12.3398 5.54892C13.0731 5.54892 13.6844 6.16156 13.682 6.89321C13.682 7.41807 13.3763 7.87361 12.9329 8.09181C13.0661 8.30005 13.1432 8.54705 13.1432 8.81191C13.1432 9.33767 12.8375 9.79352 12.3942 10.0118C12.5273 10.22 12.6045 10.4671 12.6045 10.732C12.6045 11.2577 12.2987 11.7136 11.8554 11.9319C11.9886 12.1402 12.0657 12.3872 12.0657 12.652C12.0657 13.3891 11.4646 13.989 10.7257 13.989Z" fill="#0053E2"/>
<path d="M1.84353 11.9932C2.14112 11.9932 2.38237 11.7525 2.38237 11.4556C2.38237 11.1587 2.14112 10.918 1.84353 10.918C1.54593 10.918 1.30469 11.1587 1.30469 11.4556C1.30469 11.7525 1.54593 11.9932 1.84353 11.9932Z" fill="#0053E2"/>
<path d="M4.93888 19.2009C4.93888 18.4602 4.56937 18 3.97437 18C3.38689 18 2.97656 18.5143 2.97656 19.2513C2.98333 20.0877 3.46866 20.4621 3.94678 20.4621C4.44063 20.4621 4.93888 20.0721 4.93888 19.2009ZM3.95795 19.8941C3.66535 19.8941 3.63275 19.4279 3.63731 19.2339C3.63731 18.9866 3.70479 18.5681 3.95795 18.5681C4.23664 18.5681 4.27829 18.9783 4.27829 19.2229C4.27821 19.4248 4.24705 19.8941 3.95795 19.8941Z" fill="#0053E2"/>
<path d="M6.20029 18L3.95312 21.9563H4.57891L6.82608 18H6.20029Z" fill="#0053E2"/>
<path d="M6.77079 19.4727C6.27435 19.4727 5.77344 19.8611 5.77344 20.7293C5.77967 21.562 6.26501 21.9348 6.7432 21.9348C7.23431 21.9348 7.72983 21.5448 7.72983 20.6737C7.72991 19.9328 7.36237 19.4727 6.77079 19.4727ZM6.75437 21.3667C6.46595 21.3667 6.42597 20.9076 6.42825 20.7064C6.42825 20.3858 6.53025 20.0407 6.75437 20.0407C7.04385 20.0407 7.07509 20.4987 7.07509 20.6956C7.07509 20.8974 7.04385 21.3667 6.75437 21.3667Z" fill="#0053E2"/>
<path d="M33.0091 26.4624C33.0091 26.3376 33.0992 26.2043 33.3518 26.2043C33.5728 26.2043 33.7493 26.2872 33.9353 26.3934L34.1141 25.922C33.9472 25.8114 33.76 25.7456 33.5607 25.7231V25.3086H33.0827V25.7524C32.711 25.8478 32.4444 26.1387 32.4444 26.5128C32.4444 26.9744 32.8077 27.1809 33.201 27.335C33.5621 27.4812 33.611 27.6157 33.611 27.7394C33.611 27.9239 33.451 28.0479 33.2135 28.0479C32.963 28.0479 32.7575 27.9464 32.5548 27.8114L32.3828 28.2905C32.5638 28.4396 32.798 28.5119 33.0295 28.5343V28.9846H33.5075V28.508C33.9323 28.4083 34.177 28.0967 34.177 27.7099C34.177 27.2025 33.7997 26.9816 33.4668 26.8459C33.0752 26.6843 33.0091 26.5969 33.0091 26.4624Z" fill="#0053E2"/>
<path d="M18.8184 4.81475C18.4267 4.65302 18.3607 4.5657 18.3607 4.43118C18.3607 4.30638 18.4508 4.17308 18.7034 4.17308C18.9244 4.17308 19.1009 4.256 19.2868 4.36217L19.4657 3.89074C19.2988 3.78016 19.1116 3.71434 18.9122 3.69185V3.27734H18.4343V3.72111C18.0625 3.81656 17.796 4.10742 17.796 4.48156C17.796 4.94311 18.1593 5.14968 18.5525 5.30373C18.9137 5.44996 18.9626 5.58448 18.9626 5.70813C18.9626 5.89266 18.8026 6.01669 18.5651 6.01669C18.3146 6.01669 18.1091 5.91515 17.9064 5.78018L17.7344 6.2592C17.9153 6.40832 18.1496 6.48067 18.3811 6.50301V6.95331H18.859V6.47672C19.2839 6.37708 19.5286 6.0654 19.5286 5.67864C19.5287 5.17134 19.1513 4.95041 18.8184 4.81475C19.1513 4.95041 18.4268 4.65302 18.8184 4.81475Z" fill="#0053E2"/>
</g>
<defs>
<clipPath id="clip0_681_2060">
<rect width="38" height="38" fill="white"/>
</clipPath>
</defs>
</svg>
