<svg width="65" height="70" viewBox="0 0 65 70" fill="#001E60" xmlns="http://www.w3.org/2000/svg">
<path d="M28.882 52.169L22.3375 58.6898C19.632 61.3953 15.2148 61.3953 12.5093 58.6898L5.96478 52.1453C3.28191 49.4636 3.28191 45.0463 5.96478 42.3409L12.5093 35.7963L28.882 52.169ZM59.9382 34.1545L30.5001 4.73904C29.992 4.20721 29.2512 3.95316 28.5342 4.06833C27.7946 4.18463 27.1702 4.62387 26.8236 5.27087L13.573 30.3154L34.4081 51.1516L59.3826 37.8311C60.0308 37.5081 60.4711 36.86 60.5863 36.143C60.7015 35.4034 60.4463 34.6864 59.9382 34.1545ZM9.24834 61.9508L2.70379 55.4063C1.77901 54.4815 1.062 53.4641 0.530174 52.3542C-0.626076 55.5915 0.113518 59.3606 2.70379 61.9508C4.46188 63.7078 6.77438 64.68 9.24834 64.68C10.312 64.68 11.3531 64.4948 12.3241 64.1482C11.1905 63.6152 10.1505 62.8756 9.24834 61.9508ZM36.235 59.4995L32.1656 55.43L25.5973 61.9734C25.0429 62.529 24.4411 63.0145 23.7941 63.4312L28.0487 67.6858C29.1361 68.7732 30.5927 69.3739 32.1419 69.3739C33.6911 69.3739 35.1488 68.7732 36.235 67.6858C38.4775 65.4196 38.4775 61.7657 36.235 59.4995ZM43.9358 6.9375V2.3125C43.9358 1.03543 42.9015 0 41.6233 0C40.3451 0 39.3108 1.03543 39.3108 2.3125V6.9375C39.3108 8.21457 40.3451 9.25 41.6233 9.25C42.9015 9.25 43.9358 8.21457 43.9358 6.9375ZM64.7483 23.1239C64.7483 21.8468 63.714 20.8114 62.4358 20.8114H57.8108C56.5326 20.8114 55.4983 21.8468 55.4983 23.1239C55.4983 24.4009 56.5326 25.4364 57.8108 25.4364H62.4358C63.714 25.4364 64.7483 24.4009 64.7483 23.1239ZM52.5084 15.5089L57.1334 10.8839C58.0367 9.98056 58.0367 8.51718 57.1334 7.61386C56.23 6.71054 54.7667 6.71054 53.8633 7.61386L49.2383 12.2389C48.335 13.1422 48.335 14.6056 49.2383 15.5089C49.69 15.9605 50.2817 16.1864 50.8733 16.1864C51.465 16.1864 52.0567 15.9605 52.5084 15.5089Z" fill="#001E60"/>
</svg>
