<svg width="38" height="38" viewBox="0 0 38 38" fill="#001E60" xmlns="http://www.w3.org/2000/svg">
<g clip-path="url(#clip0_681_2039)">
<path d="M37.4361 37.3981C37.4287 37.3061 37.2394 35.1188 35.7721 32.8886C34.4362 30.855 28.0036 28.3033 26.2491 27.6354V26.1072C26.249 25.7992 26.3402 25.498 26.5111 25.2418L27.3661 23.9593C28.6926 21.973 29.3995 19.6377 29.3975 17.2492V10.3973C29.3975 4.66391 24.7336 0 19.0002 0C13.2668 0 8.60285 4.66391 8.60285 10.3973V17.2492C8.60077 19.6377 9.30775 21.973 10.6342 23.9593L11.4892 25.2418C11.6601 25.498 11.7513 25.7992 11.7512 26.1072V27.6368C11.058 27.9033 9.4675 28.5275 7.79535 29.3008C4.69969 30.7266 2.87836 31.8985 2.22895 32.8886C0.7609 35.1188 0.571642 37.3061 0.564221 37.3981C0.558184 37.4748 0.568072 37.5519 0.593264 37.6246C0.618456 37.6973 0.658407 37.764 0.71061 37.8205C0.762812 37.8771 0.826138 37.9222 0.89661 37.9531C0.967081 37.984 1.04318 37.9999 1.12012 38H36.8802C36.9571 37.9999 37.0332 37.984 37.1037 37.9531C37.1742 37.9222 37.2375 37.8771 37.2897 37.8205C37.3419 37.764 37.3819 37.6973 37.4071 37.6246C37.4322 37.5519 37.4421 37.4748 37.4361 37.3981ZM1.77102 36.8867C2.01724 35.6817 2.48861 34.534 3.16039 33.5038C4.23063 31.877 10.2668 29.3743 12.5023 28.5475C12.6093 28.508 12.7016 28.4367 12.7667 28.3431C12.8319 28.2496 12.8668 28.1383 12.8667 28.0243V26.1094C12.8671 25.5811 12.7108 25.0646 12.4177 24.625L11.5627 23.3433C10.3581 21.5401 9.71622 19.4199 9.71836 17.2514V10.3973C9.71836 7.93562 10.6963 5.57476 12.4369 3.83408C14.1776 2.09341 16.5385 1.11551 19.0002 1.11551C21.4618 1.11551 23.8227 2.09341 25.5634 3.83408C27.3041 5.57476 28.282 7.93562 28.282 10.3973V17.2492C28.2841 19.4177 27.6422 21.5379 26.4376 23.3411L25.5826 24.6228C25.2895 25.0623 25.1332 25.5789 25.1336 26.1072V28.022C25.1335 28.136 25.1684 28.2473 25.2336 28.3409C25.2988 28.4345 25.391 28.5058 25.498 28.5453C27.7335 29.3721 33.7697 31.8747 34.8399 33.5016C35.5104 34.5331 35.9812 35.6814 36.2278 36.8867H1.77102Z" fill="#001E60"/>
<path d="M26.1714 18.6995V16.7862C26.5124 16.6023 26.7974 16.3296 26.996 15.9969C27.1946 15.6642 27.2995 15.284 27.2995 14.8966V11.6243C27.2982 11.0552 27.0715 10.5099 26.6691 10.1075C26.2668 9.70515 25.7214 9.47849 25.1524 9.47712H25.1138C24.8137 8.99104 24.4567 8.54255 24.0502 8.14119L24.6551 7.46728C24.7084 7.4136 24.7502 7.34964 24.778 7.27929C24.8057 7.20894 24.8189 7.13367 24.8167 7.05807C24.8144 6.98247 24.7968 6.90812 24.7649 6.83954C24.733 6.77097 24.6875 6.7096 24.6311 6.65918C24.5747 6.60875 24.5087 6.57033 24.437 6.54625C24.3653 6.52216 24.2895 6.51292 24.2141 6.51909C24.1387 6.52526 24.0654 6.5467 23.9985 6.58212C23.9317 6.61753 23.8728 6.66618 23.8254 6.72509L23.1982 7.42349C22.6301 7.0144 22.0049 6.69106 21.3427 6.46384L21.6121 5.64001C21.6459 5.50379 21.6271 5.35985 21.5594 5.23688C21.4918 5.11391 21.3803 5.02094 21.2472 4.97647C21.1141 4.93201 20.9691 4.93932 20.8412 4.99696C20.7132 5.0546 20.6117 5.15832 20.5568 5.28747L20.2651 6.1781C19.4612 6.03758 18.639 6.03758 17.8352 6.1781L17.5435 5.28747C17.4944 5.15079 17.394 5.03861 17.2635 4.97478C17.1331 4.91094 16.9829 4.90047 16.8448 4.94558C16.7068 4.99069 16.5917 5.08784 16.5242 5.2164C16.4566 5.34495 16.4418 5.49478 16.4829 5.63408L16.7486 6.45865C16.0865 6.68602 15.4613 7.00935 14.8931 7.41829L14.266 6.7199C14.1654 6.61853 14.0297 6.55966 13.8869 6.55542C13.7442 6.55118 13.6052 6.6019 13.4988 6.69711C13.3923 6.79233 13.3265 6.92477 13.3149 7.06711C13.3032 7.20945 13.3467 7.35084 13.4362 7.46208L14.0411 8.13599C13.6346 8.53736 13.2776 8.98585 12.9775 9.47193H12.8425C12.2734 9.4733 11.7281 9.69996 11.3257 10.1023C10.9233 10.5047 10.6967 11.05 10.6953 11.6191V14.8914C10.696 15.2971 10.8113 15.6943 11.028 16.0373C11.2446 16.3803 11.5538 16.6551 11.9199 16.83V18.6943C11.9221 20.4869 12.599 22.2129 13.8159 23.529C15.0329 24.8451 16.7007 25.6548 18.4875 25.7971V33.2442C18.4978 33.3848 18.5609 33.5163 18.6642 33.6123C18.7674 33.7083 18.9032 33.7616 19.0442 33.7616C19.1852 33.7616 19.3209 33.7083 19.4242 33.6123C19.5274 33.5163 19.5905 33.3848 19.6008 33.2442V25.8023C21.3882 25.6607 23.0567 24.8513 24.2743 23.5351C25.4919 22.2189 26.1692 20.4925 26.1714 18.6995ZM13.0347 18.6995V17.0437H16.923C17.2303 17.0428 17.5334 16.972 17.8093 16.8367C18.0852 16.7015 18.3268 16.5053 18.5157 16.2629L18.9521 15.7004C18.9574 15.6937 18.964 15.6884 18.9716 15.6847C18.9792 15.681 18.9875 15.6791 18.9959 15.6791C19.0044 15.6791 19.0127 15.681 19.0203 15.6847C19.0279 15.6884 19.0345 15.6937 19.0397 15.7004L19.4754 16.2629C19.6645 16.5053 19.9062 16.7015 20.1823 16.8368C20.4583 16.972 20.7615 17.0428 21.0689 17.0437H25.0537V18.6995C25.0537 18.7983 25.0537 18.8955 25.0462 18.9964C23.8038 18.2208 21.7843 17.3339 19.0442 17.3339C16.304 17.3339 14.2845 18.2208 13.0421 18.9964C13.0399 18.8955 13.0369 18.7983 13.0369 18.6995H13.0347ZM19.0464 7.1897C19.953 7.19148 20.8474 7.39814 21.6629 7.79424C22.4784 8.19034 23.1937 8.76564 23.7556 9.47712H14.3372C14.8991 8.76564 15.6145 8.19034 16.4299 7.79424C17.2454 7.39814 18.1398 7.19148 19.0464 7.1897ZM11.8123 11.6243C11.8127 11.3508 11.9215 11.0886 12.1149 10.8952C12.3083 10.7018 12.5705 10.593 12.8439 10.5926H25.1524C25.4259 10.593 25.688 10.7018 25.8814 10.8952C26.0748 11.0886 26.1836 11.3508 26.184 11.6243V14.8966C26.1838 15.1701 26.0751 15.4324 25.8816 15.6258C25.6882 15.8193 25.4259 15.928 25.1524 15.9282H21.0704C20.9331 15.9278 20.7978 15.8962 20.6746 15.8358C20.5514 15.7754 20.4436 15.6877 20.3593 15.5794L19.9229 15.0168C19.814 14.8753 19.6739 14.7608 19.5135 14.6821C19.3531 14.6035 19.1768 14.5628 18.9982 14.5633C18.8194 14.5627 18.6429 14.6033 18.4824 14.682C18.3219 14.7606 18.1817 14.8752 18.0727 15.0168L17.6362 15.5794C17.552 15.6877 17.4442 15.7754 17.321 15.8358C17.1978 15.8962 17.0625 15.9278 16.9252 15.9282H12.8432C12.5697 15.928 12.3074 15.8193 12.1139 15.6258C11.9205 15.4324 11.8118 15.1701 11.8116 14.8966L11.8123 11.6243ZM19.0464 24.709C17.7157 24.7073 16.423 24.2647 15.3705 23.4504C14.318 22.6361 13.565 21.4961 13.2291 20.2084C14.2764 19.4699 16.235 18.4465 19.0464 18.4465C21.8578 18.4465 23.8164 19.4699 24.8637 20.2084C24.5278 21.4961 23.7748 22.6361 22.7223 23.4504C21.6698 24.2647 20.3771 24.7073 19.0464 24.709Z" fill="#001E60"/>
</g>
<defs>
<clipPath id="clip0_681_2039">
<rect width="38" height="38" fill="#001E60"/>
</clipPath>
</defs>
</svg>
