<svg xmlns="http://www.w3.org/2000/svg" width="128" height="128" viewBox="0 0 128 128"><g><path d="M22.594,39.407H67.125a2,2,0,0,0,0-4H22.594a2,2,0,0,0,0,4Z" fill="#0053e2"/><path d="M56.405,51.454H22.594a2,2,0,0,0,0,4H56.405a2,2,0,0,0,0-4Z" fill="#0053e2"/><path d="M46.022,67.5H22.594a2,2,0,0,0,0,4H46.022a2,2,0,1,0,0-4Z" fill="#0053e2"/><path d="M42.278,83.549H22.594a2,2,0,1,0,0,4H42.278a2,2,0,0,0,0-4Z" fill="#0053e2"/><path d="M83.72,97.5a5.956,5.956,0,0,0-5.97,5.96,5.627,5.627,0,0,0,.312,1.889A5.962,5.962,0,1,0,83.72,97.5Zm0,7.92a1.967,1.967,0,0,1-1.877-1.375,1.751,1.751,0,0,1-.093-.585,1.956,1.956,0,0,1,1.189-1.8,2.027,2.027,0,0,1,.781-.156,1.96,1.96,0,1,1,0,3.92Z" fill="#0053e2"/><path d="M90.51,58.32a31.962,31.962,0,0,0-6.09.593V20.27C84.42,7.119,82.6,5.3,69.45,5.3H24.98a1.988,1.988,0,0,0-.891.219l-.079.042a2.039,2.039,0,0,0-.444.324L5.886,23.556A1.947,1.947,0,0,0,5.562,24c-.015.026-.029.052-.042.079a1.99,1.99,0,0,0-.22.892V93.31c0,13.151,1.818,14.97,14.97,14.97H63.693A32.182,32.182,0,1,0,90.51,58.32ZM22.983,12.128v8a13.686,13.686,0,0,1-.169,2.678,13.676,13.676,0,0,1-2.677.169H12.132ZM9.3,93.31V26.973H20.137c5.631,0,6.846-1.216,6.846-6.847V9.3H69.45c10.97,0,10.97,0,10.97,10.97V59.951A32.134,32.134,0,0,0,61.435,104.28H20.27C9.3,104.28,9.3,104.28,9.3,93.31ZM90.51,118.7a28.187,28.187,0,0,1-7.545-55.346A27.731,27.731,0,0,1,90.51,62.32a28.19,28.19,0,0,1,0,56.38Z" fill="#0053e2"/><path d="M103.9,93.743l2.4-14.645a2,2,0,0,0-1.974-2.323H87.6a2,2,0,0,0,0,4h14.36L100.222,91.42H84.865L81.234,76.046a2,2,0,0,0-1.946-1.54H73.874a2,2,0,0,0,0,4h3.831l3.631,15.373a2,2,0,0,0,1.946,1.541h18.639A2,2,0,0,0,103.9,93.743Z" fill="#0053e2"/><path d="M100.354,97.5a5.964,5.964,0,1,0,5.963,5.963A5.97,5.97,0,0,0,100.354,97.5Zm0,7.927a1.964,1.964,0,1,1,1.963-1.964A1.965,1.965,0,0,1,100.354,105.424Z" fill="#0053e2"/></g></svg>