<svg xmlns="http://www.w3.org/2000/svg" id="Layer_3" data-name="Layer 3" viewBox="0 0 64 64" width="512" height="512"><path d="M23.293,36.293l-5,5a1,1,0,0,0,0,1.414l3,3a1,1,0,0,0,1.414,0l5-5a1,1,0,0,0,0-1.414l-3-3A1,1,0,0,0,23.293,36.293ZM22,43.586,20.414,42,24,38.414,25.586,40Z" fill="#001E60"/><path d="M40,28a1,1,0,0,0,.707-.293l5-5a1,1,0,0,0,0-1.414l-3-3a1,1,0,0,0-1.414,0l-5,5a1,1,0,0,0,0,1.414l3,3A1,1,0,0,0,40,28Zm2-7.586L43.586,22,40,25.586,38.414,24Z" fill="#001E60"/><path d="M32,1A31,31,0,1,0,63,32,31.036,31.036,0,0,0,32,1ZM59.64,23.226,40.774,4.36A29.128,29.128,0,0,1,59.64,23.226ZM55,32a22.762,22.762,0,0,1-4.154,13.189l-5.811-5.81,9.826-9.826A23.23,23.23,0,0,1,55,32ZM43.621,37.965l-1.414-1.414L54.05,24.707a1,1,0,0,0,0-1.414L40.707,9.95a1,1,0,0,0-1.414,0L27.449,21.793l-1.414-1.414L40,6.414,57.586,24ZM32.73,27.074a4.981,4.981,0,0,1,4.2,4.2ZM32,25a7.05,7.05,0,0,0-1.223.12l-1.913-1.913L40,12.071,51.929,24,40.793,35.136,38.88,33.223A6.937,6.937,0,0,0,32,25ZM18.811,13.154A22.762,22.762,0,0,1,32,9a23.23,23.23,0,0,1,2.447.139l-9.826,9.826ZM4.36,40.774,23.226,59.64A29.128,29.128,0,0,1,4.36,40.774ZM9,32a22.756,22.756,0,0,1,4.155-13.189l5.81,5.81L9.139,34.447A23.23,23.23,0,0,1,9,32Zm11.379-5.965,1.414,1.414L9.95,39.293a1,1,0,0,0,0,1.414L23.293,54.05a1,1,0,0,0,1.414,0L36.551,42.207l1.414,1.414L24,57.586,6.414,40ZM31.27,36.926a4.981,4.981,0,0,1-4.2-4.2ZM32,39a7.04,7.04,0,0,0,1.223-.12l1.913,1.913L24,51.929,12.071,40,23.207,28.864l1.913,1.913A6.937,6.937,0,0,0,32,39ZM45.189,50.846A22.762,22.762,0,0,1,32,55a23.23,23.23,0,0,1-2.447-.139l9.826-9.826ZM32,61a28.924,28.924,0,0,1-7.726-1.053.976.976,0,0,0,.433-.24l3.07-3.069A25.237,25.237,0,0,0,32,57a24.76,24.76,0,0,0,15.331-5.251,1,1,0,0,0,.093-1.5L13.748,16.576a.993.993,0,0,0-.769-.291,1,1,0,0,0-.728.384A24.76,24.76,0,0,0,7,32a25.133,25.133,0,0,0,.363,4.223l-3.07,3.07a.976.976,0,0,0-.24.433A28.984,28.984,0,0,1,39.726,4.053a.976.976,0,0,0-.433.24l-3.07,3.069A25.237,25.237,0,0,0,32,7a24.76,24.76,0,0,0-15.331,5.251,1,1,0,0,0-.093,1.5L50.252,47.424a1,1,0,0,0,.707.293c.021,0,.042,0,.063,0a1,1,0,0,0,.727-.384A24.76,24.76,0,0,0,57,32a25.237,25.237,0,0,0-.362-4.223l3.069-3.07a.976.976,0,0,0,.24-.433A28.984,28.984,0,0,1,32,61Z" fill="#001E60"/></svg>