<svg width="38" height="38" viewBox="0 0 38 38" fill="none" xmlns="http://www.w3.org/2000/svg">
<path d="M18.7533 24.5417H5.54036C4.91048 24.5417 4.30639 24.2915 3.86099 23.8461C3.41559 23.4007 3.16536 22.7966 3.16536 22.1667H21.4449C21.6549 22.1667 21.8563 22.0833 22.0047 21.9349C22.1532 21.7864 22.2366 21.585 22.2366 21.3751C22.2366 21.1651 22.1532 20.9638 22.0047 20.8153C21.8563 20.6668 21.6549 20.5834 21.4449 20.5834H21.3737V19.0001C21.3716 17.762 20.9552 16.5603 20.191 15.5863C19.4267 14.6123 18.3585 13.922 17.1565 13.6255C17.8813 13.1669 18.4376 12.4854 18.7416 11.6835C19.0457 10.8815 19.081 10.0025 18.8423 9.17867C18.6036 8.35488 18.1039 7.6309 17.4182 7.11569C16.7325 6.60048 15.898 6.32192 15.0404 6.32192C14.1827 6.32192 13.3482 6.60048 12.6626 7.11569C11.9769 7.6309 11.4771 8.35488 11.2384 9.17867C10.9997 10.0025 11.0351 10.8815 11.3391 11.6835C11.6431 12.4854 12.1994 13.1669 12.9242 13.6255C11.7222 13.922 10.654 14.6123 9.88977 15.5863C9.12551 16.5603 8.70916 17.762 8.70703 19.0001V20.5834H3.16536V7.12508C3.16536 6.49519 3.41559 5.8911 3.86099 5.4457C4.30639 5.0003 4.91048 4.75008 5.54036 4.75008H27.707C28.3369 4.75008 28.941 5.0003 29.3864 5.4457C29.8318 5.8911 30.082 6.49519 30.082 7.12508V8.28091C30.082 8.49088 30.1654 8.69224 30.3139 8.84071C30.4624 8.98917 30.6637 9.07258 30.8737 9.07258C31.0837 9.07258 31.285 8.98917 31.4335 8.84071C31.582 8.69224 31.6654 8.49088 31.6654 8.28091V7.12508C31.6641 6.07565 31.2467 5.06956 30.5046 4.32751C29.7625 3.58545 28.7565 3.16801 27.707 3.16675H5.54036C4.49094 3.16801 3.48485 3.58545 2.74279 4.32751C2.00073 5.06956 1.58329 6.07565 1.58203 7.12508V22.1667C1.58329 23.2162 2.00073 24.2223 2.74279 24.9643C3.48485 25.7064 4.49094 26.1238 5.54036 26.1251H12.6654V27.7084H7.65411C6.88381 27.7093 6.14529 28.0156 5.6006 28.5603C5.05591 29.105 4.74954 29.8435 4.7487 30.6138C4.74912 31.1029 4.94359 31.5719 5.28943 31.9177C5.63526 32.2635 6.1042 32.458 6.59328 32.4584H18.207C18.417 32.4584 18.6184 32.375 18.7668 32.2265C18.9153 32.0781 18.9987 31.8767 18.9987 31.6667C18.9987 31.4568 18.9153 31.2554 18.7668 31.107C18.6184 30.9585 18.417 30.8751 18.207 30.8751H6.59328C6.52425 30.8743 6.45828 30.8465 6.40946 30.7977C6.36064 30.7488 6.33285 30.6829 6.33203 30.6138C6.33245 30.2633 6.47188 29.9273 6.71972 29.6794C6.96757 29.4316 7.30361 29.2922 7.65411 29.2917H18.207C18.417 29.2917 18.6184 29.2083 18.7668 29.0599C18.9153 28.9114 18.9987 28.71 18.9987 28.5001C18.9987 28.2901 18.9153 28.0888 18.7668 27.9403C18.6184 27.7918 18.417 27.7084 18.207 27.7084H14.2487V26.1251H18.7533C18.9632 26.1251 19.1646 26.0417 19.3131 25.8932C19.4615 25.7447 19.5449 25.5434 19.5449 25.3334C19.5449 25.1235 19.4615 24.9221 19.3131 24.7736C19.1646 24.6252 18.9632 24.5417 18.7533 24.5417ZM15.0404 7.91675C15.5101 7.91675 15.9693 8.05604 16.3598 8.31701C16.7504 8.57798 17.0548 8.9489 17.2346 9.38287C17.4143 9.81685 17.4614 10.2944 17.3697 10.7551C17.2781 11.2158 17.0519 11.639 16.7197 11.9711C16.3876 12.3033 15.9644 12.5295 15.5037 12.6211C15.043 12.7128 14.5655 12.6657 14.1315 12.486C13.6975 12.3062 13.3266 12.0018 13.0656 11.6112C12.8047 11.2207 12.6654 10.7615 12.6654 10.2917C12.6654 9.66186 12.9156 9.05777 13.361 8.61237C13.8064 8.16697 14.4105 7.91675 15.0404 7.91675ZM10.2904 19.0001C10.2916 17.9507 10.7091 16.9446 11.4511 16.2025C12.1932 15.4604 13.1993 15.043 14.2487 15.0417H15.832C16.8815 15.043 17.8875 15.4604 18.6296 16.2025C19.3717 16.9446 19.7891 17.9507 19.7904 19.0001V20.5834H10.2904V19.0001Z" fill="#0053E2"/>
<path d="M30.9624 20.79C32.0818 20.2344 32.9806 19.3167 33.5128 18.1859C34.045 17.0551 34.1793 15.7776 33.894 14.5608C33.6087 13.3441 32.9204 12.2595 31.941 11.4832C30.9615 10.7069 29.7485 10.2844 28.4987 10.2844C27.2489 10.2844 26.0359 10.7069 25.0564 11.4832C24.077 12.2595 23.3887 13.3441 23.1034 14.5608C22.8181 15.7776 22.9524 17.0551 23.4846 18.1859C24.0168 19.3167 24.9156 20.2344 26.035 20.79C24.4826 21.1658 23.1012 22.052 22.1124 23.3064C21.1237 24.5609 20.5847 26.1111 20.582 27.7084V32.4584C20.582 33.0883 20.8323 33.6924 21.2777 34.1378C21.7231 34.5832 22.3271 34.8334 22.957 34.8334H34.0404C34.6703 34.8334 35.2743 34.5832 35.7197 34.1378C36.1651 33.6924 36.4154 33.0883 36.4154 32.4584V27.7084C36.4127 26.1111 35.8737 24.5609 34.885 23.3064C33.8962 22.052 32.5148 21.1658 30.9624 20.79ZM24.5404 15.8334C24.5404 15.0505 24.7725 14.2852 25.2075 13.6342C25.6424 12.9833 26.2606 12.476 26.9839 12.1764C27.7072 11.8768 28.5031 11.7984 29.2709 11.9511C30.0388 12.1038 30.7441 12.4808 31.2977 13.0344C31.8512 13.588 32.2282 14.2933 32.381 15.0611C32.5337 15.829 32.4553 16.6249 32.1557 17.3482C31.8561 18.0715 31.3488 18.6897 30.6978 19.1246C30.0469 19.5596 29.2816 19.7917 28.4987 19.7917C27.4493 19.7905 26.4432 19.373 25.7011 18.631C24.9591 17.8889 24.5416 16.8828 24.5404 15.8334ZM34.832 32.4584C34.832 32.6683 34.7486 32.8697 34.6002 33.0182C34.4517 33.1666 34.2503 33.25 34.0404 33.25H22.957C22.7471 33.25 22.5457 33.1666 22.3972 33.0182C22.2488 32.8697 22.1654 32.6683 22.1654 32.4584V27.7084C22.167 26.2392 22.7514 24.8306 23.7903 23.7917C24.8292 22.7528 26.2378 22.1684 27.707 22.1667H29.2904C30.7596 22.1684 32.1682 22.7528 33.2071 23.7917C34.246 24.8306 34.8304 26.2392 34.832 27.7084V32.4584Z" fill="#0053E2"/>
</svg>
