<svg width="34" height="34" viewBox="0 0 34 34" fill="none" xmlns="http://www.w3.org/2000/svg">
<g clip-path="url(#clip0_735_956)">
<path d="M33.739 2.92453C33.4197 2.1584 32.7653 1.48816 31.972 1.15746C31.5629 0.984805 31.1279 0.896484 30.6797 0.896484H19.9789C19.6124 0.896484 19.3149 1.19465 19.3149 1.56055C19.3149 1.92645 19.6124 2.22461 19.9789 2.22461H30.6797C31.7761 2.2266 32.6699 3.12043 32.6719 4.2168V11.3223H29.4835C29.4701 9.83237 28.5606 8.55286 27.2685 7.99797C27.6164 7.54873 27.8242 6.9858 27.8242 6.375C27.8242 4.91034 26.6326 3.71875 25.168 3.71875C23.7033 3.71875 22.5117 4.91034 22.5117 6.375C22.5117 6.9858 22.7195 7.54873 23.0674 7.99797C21.7753 8.55293 20.8658 9.83237 20.8524 11.3223H17.6641V4.2168C17.6641 3.85004 17.3667 3.55273 17 3.55273C16.6333 3.55273 16.3359 3.85004 16.3359 4.2168V11.3223H13.1476C13.1342 9.83237 12.2247 8.55286 10.9326 7.99797C11.2805 7.54873 11.4883 6.9858 11.4883 6.375C11.4883 4.91034 10.2967 3.71875 8.83203 3.71875C7.36737 3.71875 6.17578 4.91034 6.17578 6.375C6.17578 6.9858 6.38357 7.54873 6.73147 7.99797C5.4394 8.55293 4.5299 9.83237 4.51649 11.3223H1.32812V4.2168C1.33012 3.12043 2.22395 2.2266 3.32031 2.22461H14.0024C14.3683 2.22461 14.6664 1.92645 14.6664 1.56055C14.6664 1.19465 14.3683 0.896484 14.0024 0.896484H3.32031C2.87207 0.896484 2.43711 0.984805 2.02805 1.15746C1.26212 1.47727 0.591148 2.13098 0.260977 2.92453C0.0875898 3.33359 0 3.76855 0 4.2168V22.8105C0 24.6414 1.48949 26.1309 3.32031 26.1309H13.3477V28.4551H12.3516C10.5207 28.4551 9.03125 29.9446 9.03125 31.7754V32.4395C9.03125 32.8062 9.32862 33.1035 9.69531 33.1035H24.3047C24.6714 33.1035 24.9688 32.8062 24.9688 32.4395V31.7754C24.9688 29.9446 23.4793 28.4551 21.6484 28.4551H20.6523V26.1309H30.6797C32.5105 26.1309 34 24.6414 34 22.8105V4.2168C34 3.76855 33.9123 3.33359 33.739 2.92453ZM25.168 5.04688C25.9003 5.04688 26.4961 5.64267 26.4961 6.375C26.4961 7.10733 25.9003 7.70312 25.168 7.70312C24.4356 7.70312 23.8398 7.10733 23.8398 6.375C23.8398 5.64267 24.4356 5.04688 25.168 5.04688ZM24.5039 9.03125H25.832C27.1025 9.03125 28.1382 10.056 28.156 11.3223H22.18C22.1978 10.056 23.2334 9.03125 24.5039 9.03125ZM32.6719 12.6504V21.748H17.6641V12.6504H32.6719ZM8.83203 5.04688C9.56436 5.04688 10.1602 5.64267 10.1602 6.375C10.1602 7.10733 9.56436 7.70312 8.83203 7.70312C8.0997 7.70312 7.50391 7.10733 7.50391 6.375C7.50391 5.64267 8.0997 5.04688 8.83203 5.04688ZM8.16797 9.03125H9.49609C10.7666 9.03125 11.8022 10.056 11.82 11.3223H5.84402C5.86181 10.056 6.89748 9.03125 8.16797 9.03125ZM16.3359 12.6504V21.748H13.1476C13.1342 20.2582 12.2247 18.9786 10.9326 18.4237C11.2805 17.9745 11.4883 17.4116 11.4883 16.8008C11.4883 15.3361 10.2967 14.1445 8.83203 14.1445C7.36737 14.1445 6.17578 15.3361 6.17578 16.8008C6.17578 17.4116 6.38357 17.9745 6.73147 18.4237C5.4394 18.9787 4.5299 20.2582 4.51649 21.748H1.32812V12.6504H16.3359ZM8.83203 18.1289C8.0997 18.1289 7.50391 17.5331 7.50391 16.8008C7.50391 16.0685 8.0997 15.4727 8.83203 15.4727C9.56436 15.4727 10.1602 16.0685 10.1602 16.8008C10.1602 17.5331 9.56436 18.1289 8.83203 18.1289ZM8.16797 19.457H9.49609C10.7666 19.457 11.8022 20.4817 11.82 21.748H5.84402C5.86181 20.4817 6.89748 19.457 8.16797 19.457ZM19.3242 28.4551H19.1914C18.8247 28.4551 18.5273 28.7524 18.5273 29.1191C18.5273 29.4859 18.8247 29.7832 19.1914 29.7832H21.6484C22.7469 29.7832 23.6406 30.6769 23.6406 31.7754H10.3594C10.3594 30.6769 11.2531 29.7832 12.3516 29.7832H16.5352C16.9019 29.7832 17.1992 29.4859 17.1992 29.1191C17.1992 28.7524 16.9019 28.4551 16.5352 28.4551H14.6758V26.1309H19.3242V28.4551ZM30.6797 24.8027H3.32031C2.3118 24.8027 1.47601 24.0496 1.34579 23.0762H32.6543C32.524 24.0496 31.6882 24.8027 30.6797 24.8027Z" fill="#0053E2"/>
<path d="M16.9922 2.22461C17.3589 2.22461 17.6563 1.9273 17.6563 1.56055C17.6563 1.1938 17.3589 0.896484 16.9922 0.896484C16.6254 0.896484 16.3281 1.1938 16.3281 1.56055C16.3281 1.9273 16.6254 2.22461 16.9922 2.22461Z" fill="#0053E2"/>
<path d="M26.0312 18.5273C26.0312 18.8941 26.3286 19.1914 26.6953 19.1914H30.6797C31.0464 19.1914 31.3438 18.8941 31.3438 18.5273C31.3438 18.1606 31.0464 17.8633 30.6797 17.8633H26.6953C26.3286 17.8633 26.0312 18.1606 26.0312 18.5273Z" fill="#0053E2"/>
<path d="M19.6562 19.1914H23.707C24.0737 19.1914 24.3711 18.8941 24.3711 18.5273C24.3711 18.1606 24.0737 17.8633 23.707 17.8633H19.6562C19.2896 17.8633 18.9922 18.1606 18.9922 18.5273C18.9922 18.8941 19.2896 19.1914 19.6562 19.1914Z" fill="#0053E2"/>
<path d="M22.1797 16.5352H28.1562C28.5229 16.5352 28.8203 16.2379 28.8203 15.8711C28.8203 15.5043 28.5229 15.207 28.1562 15.207H22.1797C21.813 15.207 21.5156 15.5043 21.5156 15.8711C21.5156 16.2379 21.813 16.5352 22.1797 16.5352Z" fill="#0053E2"/>
</g>
<defs>
<clipPath id="clip0_735_956">
<rect width="34" height="34" fill="white"/>
</clipPath>
</defs>
</svg>
