<svg width="52" height="52" viewBox="0 0 52 52" fill="none" xmlns="http://www.w3.org/2000/svg">
<path d="M13.4028 8.43588L24.8103 10.7224H11.0741C11.349 10.6116 11.6119 10.4731 11.8587 10.309C12.5498 9.85378 13.0878 9.20109 13.4028 8.43588ZM7.87625 10.7224L8.02812 9.94619C8.04785 9.83698 8.08941 9.73287 8.1503 9.64008C8.21118 9.5473 8.29016 9.46775 8.3825 9.40619C8.57157 9.282 8.80167 9.23658 9.02375 9.27963C9.68157 9.41082 10.3646 9.27575 10.9229 8.90403C11.4813 8.53232 11.8694 7.95432 12.0022 7.29681C12.0463 7.07838 12.1746 6.88606 12.3593 6.76135C12.544 6.63665 12.7703 6.58956 12.9894 6.63025L33.4166 10.7224H47.0938C48.2772 10.7177 49.4339 11.0738 50.4097 11.7434C50.3145 11.1545 50.0928 10.5931 49.76 10.0981C49.454 9.63582 49.0592 9.23893 48.5986 8.93043C48.1381 8.62192 47.6208 8.40793 47.0769 8.30088L9.02375 0.673376C7.92652 0.45691 6.78822 0.683177 5.85719 1.30281C4.92616 1.92244 4.27798 2.88515 4.05406 3.98088L2.61125 11.1865C3.33805 10.8816 4.11809 10.7239 4.90625 10.7224H7.87625ZM26 22.5349C24.9987 22.5349 24.0199 22.8318 23.1874 23.3881C22.3549 23.9444 21.706 24.7351 21.3229 25.6601C20.9397 26.5852 20.8394 27.6031 21.0348 28.5851C21.2301 29.5671 21.7123 30.4692 22.4203 31.1772C23.1283 31.8852 24.0303 32.3673 25.0124 32.5627C25.9944 32.758 27.0123 32.6577 27.9373 32.2746C28.8624 31.8914 29.653 31.2425 30.2093 30.41C30.7656 29.5775 31.0625 28.5987 31.0625 27.5974C31.0614 26.2551 30.5277 24.9681 29.5785 24.0189C28.6294 23.0697 27.3423 22.536 26 22.5349ZM39.5 36.0349H41.2719C41.4382 35.2246 41.8387 34.481 42.4236 33.896C43.0085 33.3111 43.7522 32.9107 44.5625 32.7443V22.4506C43.7522 22.2842 43.0085 21.8837 42.4236 21.2988C41.8387 20.7139 41.4382 19.9702 41.2719 19.1599H10.7281C10.5618 19.9702 10.1613 20.7139 9.57639 21.2988C8.99147 21.8837 8.24779 22.2842 7.4375 22.4506V32.7443C8.24779 32.9107 8.99147 33.3111 9.57639 33.896C10.1613 34.481 10.5618 35.2246 10.7281 36.0349H31.0625V32.0524C30.0955 33.1501 28.7979 33.9036 27.3652 34.1995C25.9326 34.4953 24.4426 34.3175 23.1199 33.6927C21.7972 33.0679 20.7134 32.0301 20.0319 30.7357C19.3505 29.4413 19.1082 27.9604 19.3418 26.5163C19.5753 25.0722 20.2719 23.7432 21.3266 22.7295C22.3813 21.7159 23.737 21.0725 25.1892 20.8965C26.6414 20.7205 28.1115 21.0213 29.3779 21.7536C30.6442 22.4859 31.6382 23.61 32.21 24.9565C32.7549 24.205 33.4705 23.5937 34.2978 23.1727C35.1251 22.7517 36.0405 22.5331 36.9688 22.5349C37.6395 22.5369 38.2822 22.8042 38.7565 23.2785C39.2307 23.7528 39.498 24.3955 39.5 25.0662V36.0349ZM47.0938 12.4099H4.90625C3.78749 12.4103 2.71467 12.8549 1.92359 13.646C1.13251 14.4371 0.687903 15.5099 0.6875 16.6287V38.5662C0.687903 39.6849 1.13251 40.7578 1.92359 41.5489C2.71467 42.3399 3.78749 42.7845 4.90625 42.7849H24.3631C24.586 40.7939 25.5906 38.9729 27.1559 37.7224H9.96875C9.74517 37.7218 9.53094 37.6327 9.37284 37.4746C9.21475 37.3165 9.12565 37.1023 9.125 36.8787C9.12304 36.208 8.85573 35.5653 8.38145 35.091C7.90717 34.6167 7.26448 34.3494 6.59375 34.3474C6.37017 34.3468 6.15594 34.2577 5.99784 34.0996C5.83975 33.9415 5.75065 33.7273 5.75 33.5037V21.6912C5.75065 21.4676 5.83975 21.2534 5.99784 21.0953C6.15594 20.9372 6.37017 20.8481 6.59375 20.8474C7.26448 20.8455 7.90717 20.5782 8.38145 20.1039C8.85573 19.6296 9.12304 18.9869 9.125 18.3162C9.12565 18.0926 9.21475 17.8784 9.37284 17.7203C9.53094 17.5622 9.74517 17.4731 9.96875 17.4724H42.0312C42.2548 17.4731 42.4691 17.5622 42.6272 17.7203C42.7853 17.8784 42.8744 18.0926 42.875 18.3162C42.877 18.9869 43.1443 19.6296 43.6185 20.1039C44.0928 20.5782 44.7355 20.8455 45.4062 20.8474C45.6298 20.8481 45.8441 20.9372 46.0022 21.0953C46.1603 21.2534 46.2494 21.4676 46.25 21.6912V33.5037C46.2494 33.7273 46.1603 33.9415 46.0022 34.0996C45.8441 34.2577 45.6298 34.3468 45.4062 34.3474C44.7355 34.3494 44.0928 34.6167 43.6185 35.091C43.1443 35.5653 42.877 36.208 42.875 36.8787C42.8744 37.1023 42.7853 37.3165 42.6272 37.4746C42.4691 37.6327 42.2548 37.7218 42.0312 37.7224H39.5V42.7849H47.0938C48.2125 42.7845 49.2853 42.3399 50.0764 41.5489C50.8675 40.7578 51.3121 39.6849 51.3125 38.5662V16.6287C51.3121 15.5099 50.8675 14.4371 50.0764 13.646C49.2853 12.8549 48.2125 12.4103 47.0938 12.4099ZM36.9688 24.2224C35.8499 24.2224 34.7768 24.6669 33.9856 25.4581C33.1945 26.2493 32.75 27.3223 32.75 28.4412V36.8787C32.7492 36.9903 32.7264 37.1007 32.683 37.2035C32.6395 37.3063 32.5763 37.3996 32.4968 37.4779C32.4173 37.5563 32.3231 37.6182 32.2197 37.6602C32.1162 37.7021 32.0056 37.7233 31.8939 37.7224C30.3302 37.7274 28.832 38.3516 27.7274 39.4586C26.6228 40.5655 26.0017 42.0649 26 43.6287V45.3162C26 45.54 25.9111 45.7546 25.7529 45.9128C25.5946 46.071 25.38 46.1599 25.1562 46.1599C24.9325 46.1599 24.7179 46.071 24.5596 45.9128C24.4014 45.7546 24.3125 45.54 24.3125 45.3162V44.4724H14.1875V47.0037C14.1667 48.4538 14.4543 49.8918 15.0312 51.2224H36.9688C37.5457 49.8918 37.8333 48.4538 37.8125 47.0037V25.0662C37.8125 24.8424 37.7236 24.6278 37.5654 24.4696C37.4071 24.3113 37.1925 24.2224 36.9688 24.2224Z" fill="#0053E2"/>
</svg>
