<svg width="56" height="56" viewBox="0 0 56 56" fill="none" xmlns="http://www.w3.org/2000/svg">
<path d="M48.7337 44.6821H48.404C48.7815 44.3329 49.1227 43.918 49.4185 43.4379C50.1859 42.1923 50.6441 40.5112 50.6441 38.9411C50.6441 35.9029 48.1724 33.4312 45.1341 33.4312C42.0959 33.4312 39.6272 35.9029 39.6272 38.9411C39.6272 41.0907 40.3952 43.3243 41.8589 44.6822H41.5346C39.4393 44.6822 37.599 45.7239 36.5679 47.2843C35.5368 45.724 33.6965 44.6822 31.6012 44.6822H31.2693C31.6466 44.3329 31.9877 43.918 32.2835 43.4378C33.0506 42.1921 33.5086 40.5111 33.5086 38.9411C33.5086 35.9029 31.0382 33.4312 28.0016 33.4312C24.9651 33.4312 22.4917 35.9029 22.4917 38.9411C22.4917 41.0907 23.2601 43.3243 24.7247 44.6822H24.4022C22.3057 44.6822 20.4643 45.724 19.4327 47.2845C18.4016 45.724 16.5612 44.6822 14.4657 44.6822H14.1413C15.605 43.3243 16.373 41.0907 16.373 38.9411C16.373 35.9029 13.9027 33.4312 10.8661 33.4312C7.8295 33.4312 5.3562 35.9029 5.3562 38.9411C5.3562 40.5113 5.81427 42.1923 6.58175 43.4379C6.87761 43.918 7.21886 44.3329 7.59631 44.6821H7.26666C4.04381 44.6821 1.42188 47.1427 1.42188 50.1673V53.5187C1.42188 54.002 1.81366 54.3937 2.29687 54.3937C2.78009 54.3937 3.17187 54.002 3.17187 53.5187V50.1673C3.17187 48.1076 5.00872 46.4321 7.26666 46.4321H14.4656C16.7218 46.4321 18.5572 48.1077 18.5572 50.1673V53.5187C18.5572 54.002 18.949 54.3937 19.4322 54.3937C19.9154 54.3937 20.3072 54.002 20.3072 53.5187V50.1673C20.3072 48.1076 22.1442 46.4321 24.402 46.4321H31.6008C33.857 46.4321 35.6926 48.1077 35.6926 50.1673V53.5187C35.6926 54.002 36.0843 54.3937 36.5676 54.3937C37.0508 54.3937 37.4426 54.002 37.4426 53.5187V50.1673C37.4426 48.1076 39.2781 46.4321 41.5343 46.4321H48.7331C50.9911 46.4321 52.8279 48.1077 52.8279 50.1673V53.5187C52.8279 54.002 53.2197 54.3937 53.7029 54.3937C54.1861 54.3937 54.5779 54.002 54.5779 53.5187V50.1673C54.5779 47.1427 51.9559 44.6821 48.7331 44.6821H48.7337ZM41.3773 38.941C41.3773 36.8678 43.0627 35.181 45.1342 35.181C47.2058 35.181 48.8942 36.8677 48.8942 38.941C48.8942 40.9833 47.8734 44.2233 45.1342 44.2233C42.5429 44.2233 41.3773 41.1344 41.3773 38.941ZM24.2419 38.941C24.2419 36.8678 25.9287 35.181 28.0019 35.181C30.0751 35.181 31.7588 36.8677 31.7588 38.941C31.7588 40.9833 30.7389 44.2233 28.0019 44.2233C25.4084 44.2233 24.2419 41.1344 24.2419 38.941ZM7.10653 38.941C7.10653 36.8678 8.7932 35.181 10.8664 35.181C12.9396 35.181 14.6233 36.8677 14.6233 38.941C14.6233 41.1343 13.4578 44.2233 10.8664 44.2233C8.12733 44.2233 7.10653 40.9833 7.10653 38.941Z" fill="#0053E2"/>
<path d="M11.9705 28.1055C12.687 28.8259 13.5654 29.1913 14.5814 29.1913C15.5871 29.1913 16.4905 28.8152 17.1924 28.1053L19.5722 25.7103V32.5606C19.5722 33.0438 19.9639 33.4356 20.4472 33.4356C20.9304 33.4356 21.3222 33.0438 21.3222 32.5606V23.5883C21.3222 23.2339 21.1083 22.9144 20.7807 22.7794C20.4531 22.6443 20.0763 22.7202 19.8264 22.9715L15.9494 26.8733C15.5717 27.2554 15.1241 27.4413 14.5814 27.4413C14.0387 27.4413 13.5926 27.2549 13.212 26.8722L6.90926 20.5199C6.5504 20.1579 6.35374 19.6747 6.3556 19.1594C6.35768 18.6442 6.55784 18.163 6.91943 17.8044C7.28146 17.4455 7.76315 17.2482 8.27667 17.2482H8.28312C8.79828 17.2498 9.27942 17.45 9.63806 17.8116L13.9631 22.1736C14.1272 22.3394 14.3509 22.4325 14.5842 22.4325H14.5844C14.8176 22.4325 15.0412 22.3395 15.2055 22.174L18.985 18.3665C20.298 17.0426 21.9091 16.3714 23.7738 16.3714H25.1172C25.0579 16.8778 25.1244 17.4142 25.2964 17.7418C25.2982 17.7451 25.2999 17.7483 25.3017 17.7516C25.4434 18.0131 25.634 18.2493 25.86 18.4468L24.532 27.7869C24.4951 28.046 24.5762 28.3081 24.753 28.5011L27.2178 31.1922C27.3835 31.3731 27.6174 31.4761 27.8627 31.4762H27.863C28.1081 31.4762 28.3422 31.3733 28.5079 31.1926L30.9757 28.5015C31.1527 28.3085 31.2339 28.0463 31.197 27.787L29.8689 18.4469C30.0963 18.248 30.2869 18.0104 30.4263 17.748C30.6024 17.4189 30.671 16.8797 30.6116 16.3716H31.9553C33.82 16.3716 35.4311 17.0429 36.7441 18.3667L40.5202 22.1739C40.6845 22.3396 40.9081 22.4328 41.1416 22.4326C41.3749 22.4326 41.5985 22.3394 41.7628 22.1738L46.0869 17.8125C46.4471 17.4503 46.9294 17.2499 47.4449 17.2483H47.4515C47.9645 17.2483 48.4452 17.4454 48.8064 17.8046C49.1689 18.164 49.3695 18.6459 49.3715 19.1615C49.3733 19.676 49.1766 20.1581 48.8169 20.5198L42.5129 26.8734C42.1349 27.2556 41.6873 27.4414 41.1446 27.4414C40.6019 27.4414 40.156 27.255 39.7751 26.8721L35.9028 22.9719C35.6531 22.7204 35.2762 22.6444 34.9485 22.7794C34.6207 22.9144 34.4069 23.2339 34.4069 23.5883V32.5606C34.4069 33.0438 34.7987 33.4356 35.2819 33.4356C35.7651 33.4356 36.1569 33.0438 36.1569 32.5606V25.7115L38.5337 28.1054C39.2501 28.8259 40.1285 29.1913 41.1445 29.1913C42.1605 29.1913 43.0435 28.8254 43.7561 28.1047L50.0583 21.7529C50.7473 21.06 51.1248 20.1374 51.1214 19.155C51.1179 18.1715 50.7332 17.2506 50.0393 16.5626C49.3487 15.8758 48.4301 15.4981 47.4516 15.4981C47.4475 15.4981 47.4433 15.4981 47.4393 15.4981C46.4565 15.5012 45.5356 15.8849 44.8451 16.5793L41.1413 20.3149L37.9866 17.1343C36.333 15.4669 34.3037 14.6215 31.9552 14.6215H31.2689C31.8048 14.1828 32.284 13.6288 32.6963 12.96C33.5703 11.5421 34.0921 9.62637 34.0921 7.83568C34.0921 4.40087 31.2977 1.60645 27.8629 1.60645C24.4281 1.60645 21.6336 4.40087 21.6336 7.83568C21.6336 10.4233 22.61 13.1175 24.4644 14.6215H23.7736C21.4251 14.6215 19.3958 15.4669 17.7424 17.134L14.5845 20.3151L10.8806 16.5793C10.1924 15.8852 9.27198 15.5012 8.28881 15.4981C7.30454 15.492 6.38207 15.8726 5.68721 16.5616C4.99345 17.2495 4.60932 18.1696 4.60549 19.1526C4.60189 20.135 4.97857 21.0581 5.66665 21.7521L11.9703 28.1054L11.9705 28.1055ZM28.8529 16.4408C28.8882 16.5666 28.8972 16.8308 28.8688 16.9487C28.7963 17.0721 28.6784 17.1798 28.5414 17.2469C28.2012 17.4136 28.0068 17.7805 28.0603 18.1558L29.4065 27.6237L27.8637 29.3062L26.3229 27.624L27.6692 18.1558C27.7226 17.7805 27.5283 17.4135 27.1879 17.2469C27.0531 17.1808 26.9349 17.0739 26.8591 16.9503C26.8314 16.8297 26.8406 16.5663 26.8756 16.4389C26.9404 16.3841 27.0344 16.3716 27.1068 16.3716H28.6197C28.6688 16.3716 28.7805 16.3786 28.8532 16.4409L28.8529 16.4408ZM23.3838 7.83568C23.3838 5.36577 25.3931 3.35645 27.863 3.35645C30.3329 3.35645 32.3422 5.36577 32.3422 7.83568C32.3422 10.2471 31.1262 14.0728 27.863 14.0728C24.5998 14.0728 23.3838 10.2471 23.3838 7.83568Z" fill="#0053E2"/>
<path d="M38.9633 12.7875H39.5516V14.9787C39.5516 15.3155 39.7449 15.6224 40.0485 15.7679C40.1689 15.8255 40.298 15.8539 40.4265 15.8537C40.6223 15.8537 40.8164 15.788 40.9749 15.6607L44.5482 12.7875H48.965C50.3039 12.7875 51.3932 11.6983 51.3932 10.3593V4.03468C51.3932 2.69571 50.3039 1.60645 48.965 1.60645H38.9634C37.6244 1.60645 36.5352 2.69571 36.5352 4.03468V10.3593C36.5352 11.6983 37.6244 12.7875 38.9634 12.7875H38.9633ZM38.285 4.03468C38.285 3.66073 38.5893 3.35645 38.9633 3.35645H48.9649C49.3388 3.35645 49.6431 3.66073 49.6431 4.03468V10.3593C49.6431 10.7332 49.3388 11.0375 48.9649 11.0375H44.24C44.0406 11.0375 43.8471 11.1057 43.6917 11.2306L41.3015 13.1524V11.9125C41.3015 11.4293 40.9097 11.0375 40.4265 11.0375H38.9632C38.5892 11.0375 38.2849 10.7332 38.2849 10.3593V4.03468H38.285Z" fill="#0053E2"/>
<path d="M40.6836 9.49805H47.2438C47.727 9.49805 48.1188 9.10627 48.1188 8.62305C48.1188 8.13983 47.727 7.74805 47.2438 7.74805H40.6836C40.2004 7.74805 39.8086 8.13983 39.8086 8.62305C39.8086 9.10627 40.2004 9.49805 40.6836 9.49805Z" fill="#0053E2"/>
<path d="M42.918 6.64575H47.2459C47.7292 6.64575 48.1209 6.25397 48.1209 5.77075C48.1209 5.28753 47.7292 4.89575 47.2459 4.89575H42.918C42.4347 4.89575 42.043 5.28753 42.043 5.77075C42.043 6.25397 42.4347 6.64575 42.918 6.64575Z" fill="#0053E2"/>
<path d="M40.6841 6.64575C41.1675 6.64575 41.5591 6.25397 41.5591 5.77075C41.5591 5.28753 41.1675 4.89575 40.6841 4.89575H40.683C40.1998 4.89575 39.8086 5.28753 39.8086 5.77075C39.8086 6.25397 40.2009 6.64575 40.6841 6.64575Z" fill="#0053E2"/>
</svg>
