<svg width="20" height="26" viewBox="0 0 20 26" fill="none" xmlns="http://www.w3.org/2000/svg">
<path d="M10 0C7.41519 0.00342881 4.93723 1.03176 3.1095 2.8595C1.28176 4.68723 0.253429 7.16519 0.25 9.75C0.25 16.7497 9.33375 25.5166 9.71969 25.8862C9.79476 25.9592 9.89532 26 10 26C10.1047 26 10.2052 25.9592 10.2803 25.8862C10.6662 25.5166 19.75 16.7497 19.75 9.75C19.7466 7.16519 18.7182 4.68723 16.8905 2.8595C15.0628 1.03176 12.5848 0.00342881 10 0ZM10 14.2188C9.11617 14.2188 8.25218 13.9567 7.5173 13.4656C6.78241 12.9746 6.20964 12.2767 5.87141 11.4601C5.53318 10.6436 5.44469 9.74504 5.61712 8.87819C5.78954 8.01134 6.21515 7.21508 6.84012 6.59012C7.46508 5.96515 8.26134 5.53954 9.12819 5.36712C9.99504 5.19469 10.8936 5.28318 11.7101 5.62141C12.5267 5.95964 13.2246 6.53241 13.7156 7.2673C14.2067 8.00218 14.4688 8.86617 14.4688 9.75C14.468 10.935 13.997 12.0712 13.1591 12.9091C12.3212 13.747 11.185 14.218 10 14.2188Z" fill="#0053E2"/>
</svg>
