<svg width="38" height="38" viewBox="0 0 38 38" fill="none" xmlns="http://www.w3.org/2000/svg">
<path d="M22.3267 22.5607L21.2594 23.1336C20.6946 22.1554 19.444 21.7977 18.4443 22.3395L16.3959 23.455L15.1891 23.0661C14.1552 22.7329 13.1213 22.4004 12.0867 22.0664C10.5452 21.5698 9.04301 21.7101 7.62172 22.4842L4.10375 24.3998L3.78758 23.8513C3.65695 23.6235 3.44543 23.4595 3.19086 23.3904C2.93703 23.3214 2.67133 23.3555 2.44199 23.4869L0.490781 24.6106C0.264414 24.742 0.101875 24.9542 0.0343355 25.208C-0.0339457 25.4626 0.000194903 25.7276 0.131562 25.9547L4.51641 33.5695C4.69824 33.8835 5.03 34.0594 5.37066 34.0594C5.53691 34.0594 5.70539 34.0171 5.86051 33.9288L7.80949 32.8058C8.03809 32.6745 8.20211 32.4622 8.26965 32.2061C8.33719 31.953 8.3023 31.6888 8.17168 31.4602L7.87629 30.9474L7.9134 30.9273C8.68898 30.5058 9.50687 30.4293 10.3455 30.6995L12.2322 31.3073C12.6753 31.4506 13.1221 31.5218 13.5637 31.5218C14.2606 31.5218 14.9471 31.3445 15.5928 30.9927L24.3261 26.2397C25.3385 25.6875 25.7155 24.4139 25.1648 23.3979C24.6111 22.3855 23.3361 22.0107 22.3267 22.5607ZM19.0106 23.3823C19.4336 23.1529 19.9598 23.2954 20.2129 23.6962L18.4198 24.6588C18.2736 24.4087 18.0739 24.1927 17.8342 24.0235L19.0106 23.3823ZM5.44266 32.8006L1.25969 25.5368L2.8591 24.6158L6.53293 30.9941C6.53441 30.9964 6.53516 30.9993 6.53664 31.0016C6.54035 31.009 6.5448 31.0157 6.54926 31.0223L7.04281 31.8788L5.44266 32.8006ZM23.7584 25.1984L15.025 29.9514C14.2509 30.3729 13.4338 30.4494 12.5959 30.1792L10.7085 29.5714C9.54918 29.198 8.41809 29.3042 7.34637 29.8861L7.28328 29.9202L4.69602 25.4285L8.18949 23.527C9.31391 22.9147 10.5029 22.8034 11.723 23.196C12.7569 23.53 13.7908 23.8625 14.8254 24.1957L16.8887 24.8607C17.2293 24.9698 17.4594 25.2392 17.5039 25.5806C17.5047 25.5858 17.5054 25.5918 17.5062 25.597C17.527 25.732 17.5151 25.8686 17.4728 26.0014C17.3199 26.4779 16.807 26.7407 16.3305 26.5878C15.6002 26.3518 14.8699 26.1172 14.1389 25.882C13.4086 25.6467 12.6782 25.4121 11.9479 25.1761C11.6362 25.0752 11.3015 25.2466 11.2013 25.5584C11.1004 25.8701 11.2718 26.2048 11.5835 26.305C12.3138 26.541 13.0441 26.7755 13.7752 27.0108C14.5055 27.2461 15.2358 27.4806 15.9669 27.7166C17.0668 28.0699 18.2498 27.4628 18.6031 26.3614C18.6566 26.1944 18.6885 26.0245 18.6989 25.8545L21.1095 24.5601C21.1845 24.5371 21.252 24.5 21.3106 24.4525L22.8915 23.6042C23.3309 23.3645 23.883 23.5277 24.1228 23.9656C24.361 24.4065 24.1977 24.9594 23.7584 25.1984ZM12.4207 10.1825C12.0927 10.1825 11.8277 10.4482 11.8277 10.7755V20.4929C11.8277 20.821 12.0934 21.0859 12.4207 21.0859H22.1404C22.4684 21.0859 22.7334 20.8202 22.7334 20.4929V10.7762C22.7334 10.4482 22.4677 10.1832 22.1404 10.1832H12.4207V10.1825ZM16.0537 11.3692H18.5066V13.8266H16.0537V11.3692ZM21.5466 19.9007H13.0137V11.3692H14.867V14.4196C14.867 14.7477 15.1327 15.0126 15.46 15.0126H19.0996C19.4277 15.0126 19.6927 14.7469 19.6927 14.4196V11.3692H21.5459V19.9007H21.5466ZM16.6868 7.44379V4.53441C16.6868 4.20637 16.9525 3.94141 17.2798 3.94141C17.6071 3.94141 17.8728 4.20711 17.8728 4.53441V7.44379C17.8728 7.77184 17.6071 8.0368 17.2798 8.0368C16.9525 8.0368 16.6868 7.77109 16.6868 7.44379ZM18.8473 7.61227L20.3012 5.09402C20.4653 4.80977 20.8282 4.71328 21.1117 4.87656C21.3952 5.03984 21.4925 5.40352 21.3292 5.68703L19.8752 8.20527C19.7654 8.39602 19.5657 8.50215 19.3609 8.50215C19.26 8.50215 19.1583 8.47617 19.0648 8.42273C18.7805 8.25871 18.6833 7.89578 18.8473 7.61227ZM21.0167 8.12883L23.535 6.67266C23.8185 6.50863 24.1814 6.60586 24.3454 6.88938C24.5095 7.17289 24.4122 7.53582 24.1287 7.69984L21.6105 9.15602C21.517 9.2102 21.4145 9.23543 21.3143 9.23543C21.1095 9.23543 20.9098 9.1293 20.8 8.9393C20.636 8.65578 20.7332 8.29285 21.0167 8.12883ZM13.2341 5.68703C13.0701 5.40352 13.1673 5.04059 13.4516 4.87656C13.7351 4.71254 14.098 4.80977 14.2621 5.09402L15.716 7.61227C15.88 7.89578 15.7828 8.25871 15.4986 8.42273C15.405 8.47691 15.3034 8.50215 15.2024 8.50215C14.9976 8.50215 14.7979 8.39602 14.6881 8.20527L13.2341 5.68703ZM10.2179 6.89012C10.3819 6.6066 10.7448 6.50938 11.0284 6.6734L13.5466 8.12957C13.8301 8.29359 13.9273 8.65652 13.7633 8.94004C13.6535 9.13004 13.4538 9.23617 13.249 9.23617C13.148 9.23617 13.0464 9.2102 12.9529 9.15676L10.4346 7.70059C10.1504 7.53656 10.0539 7.17363 10.2179 6.89012ZM36.147 15.2924C36.5025 14.7959 36.7132 14.188 36.7132 13.532C36.7132 11.8628 35.3543 10.5046 33.6836 10.5046C32.0145 10.5046 30.6562 11.8628 30.6562 13.532C30.6562 14.188 30.8663 14.7959 31.2218 15.2924C30.0966 15.9136 29.3686 17.1011 29.3686 18.4386V19.7537C29.3686 20.3118 29.8228 20.7653 30.3802 20.7653H36.9864C37.5445 20.7653 37.998 20.3111 37.998 19.7537V18.4386C37.9987 17.1011 37.2714 15.9136 36.147 15.2924ZM33.6844 11.6913C34.7004 11.6913 35.5272 12.5174 35.5272 13.532C35.5272 14.548 34.7004 15.3748 33.6844 15.3748C32.6691 15.3748 31.8437 14.548 31.8437 13.532C31.843 12.5174 32.6691 11.6913 33.6844 11.6913ZM36.8127 19.5786H30.5561V18.4386C30.5561 17.4166 31.227 16.494 32.1822 16.1608C32.6253 16.4154 33.1381 16.5616 33.6844 16.5616C34.2314 16.5616 34.745 16.4154 35.188 16.16C36.1418 16.4933 36.8127 17.4158 36.8127 18.4378V19.5786ZM29.4205 16.0532L27.8196 17.6563C27.7038 17.7721 27.5517 17.8307 27.3995 17.8307C27.2481 17.8307 27.096 17.7728 26.9802 17.657C26.7486 17.4255 26.7479 17.0499 26.9795 16.8184L27.5695 16.2276H23.8734C23.5461 16.2276 23.2804 15.9619 23.2804 15.6346C23.2804 15.3073 23.5461 15.0416 23.8734 15.0416H27.568L26.9802 14.4538C26.7486 14.2222 26.7486 13.8466 26.9802 13.6151C27.2118 13.3835 27.5873 13.3835 27.8189 13.6151L29.4198 15.216C29.6521 15.4461 29.6521 15.8216 29.4205 16.0532Z" fill="#0053E2"/>
</svg>
