<svg width="38" height="38" viewBox="0 0 38 38" fill="#001E60" xmlns="http://www.w3.org/2000/svg">
<path d="M18.9901 7.51172C16.6122 7.51172 14.6719 9.44626 14.6719 11.8299C14.6719 14.2135 16.6064 16.1481 18.9901 16.1481C21.3737 16.1481 23.3082 14.2135 23.3082 11.8299C23.3082 9.44626 21.3679 7.51172 18.9901 7.51172ZM18.9901 15.2844C17.0843 15.2844 15.5355 13.7357 15.5355 11.8299C15.5355 9.92414 17.0843 8.37536 18.9901 8.37536C20.8958 8.37536 22.4446 9.92414 22.4446 11.8299C22.4446 13.7357 20.8901 15.2844 18.9901 15.2844Z" fill="#001E60"/>
<path d="M9.86505 24.8828H3.65838C3.42232 24.8828 3.22656 25.0786 3.22656 25.3146C3.22656 25.5507 3.42232 25.7464 3.65838 25.7464H9.86505C10.1011 25.7464 10.2969 25.5507 10.2969 25.3146C10.2969 25.0786 10.1011 24.8828 9.86505 24.8828Z" fill="#001E60"/>
<path d="M9.86505 27.0156H3.65838C3.42232 27.0156 3.22656 27.2114 3.22656 27.4474C3.22656 27.6835 3.42232 27.8793 3.65838 27.8793H9.86505C10.1011 27.8793 10.2969 27.6835 10.2969 27.4474C10.2969 27.2114 10.1011 27.0156 9.86505 27.0156Z" fill="#001E60"/>
<path d="M9.86505 29.1445H3.65838C3.42232 29.1445 3.22656 29.3403 3.22656 29.5763C3.22656 29.8124 3.42232 30.0082 3.65838 30.0082H9.86505C10.1011 30.0082 10.2969 29.8124 10.2969 29.5763C10.2969 29.3403 10.1011 29.1445 9.86505 29.1445Z" fill="#001E60"/>
<path d="M5.13232 23.6162C6.18596 23.6162 7.03808 22.7583 7.03808 21.7104C7.03808 20.6626 6.1802 19.8047 5.13232 19.8047C4.07868 19.8047 3.22656 20.6626 3.22656 21.7104C3.22656 22.7583 4.08444 23.6162 5.13232 23.6162ZM5.13232 20.6626C5.70808 20.6626 6.17444 21.1289 6.17444 21.7047C6.17444 22.2804 5.70808 22.7468 5.13232 22.7468C4.55656 22.7468 4.0902 22.2804 4.0902 21.7047C4.0902 21.1289 4.55656 20.6626 5.13232 20.6626Z" fill="#001E60"/>
<path d="M35.5924 18.159H32.9209V11.653C32.9209 11.4169 32.7251 11.2211 32.4891 11.2211H28.6315V10.2481C28.6315 10.0293 28.4703 9.85083 28.2572 9.82204L26.0406 9.52265C25.9197 9.15992 25.7757 8.80871 25.6087 8.47477L26.9618 6.69568C27.0942 6.52295 27.0769 6.28114 26.9215 6.13144L24.6875 3.8975C24.5436 3.74205 24.296 3.72477 24.1291 3.8572L22.35 5.21023C22.016 5.04326 21.6648 4.89356 21.3021 4.77841L21.0027 2.56174C20.9739 2.34871 20.7897 2.1875 20.5766 2.1875H17.4157C17.1969 2.1875 17.0184 2.34871 16.9897 2.56174L16.6845 4.77841C16.3218 4.89932 15.9706 5.04326 15.6366 5.21023L13.8575 3.8572C13.6848 3.72477 13.443 3.74205 13.2933 3.8975L11.0594 6.13144C10.9039 6.28689 10.8924 6.52871 11.0191 6.69568L12.3721 8.47477C12.2051 8.80871 12.0612 9.15992 11.9403 9.52265L9.7236 9.82204C9.51057 9.85083 9.34936 10.0351 9.34936 10.2481V11.2211H5.50905C5.27299 11.2211 5.07723 11.4169 5.07723 11.653V18.1533H2.40572C1.47299 18.1533 0.71875 18.9075 0.71875 19.8402V30.5205C0.71875 31.4533 1.47299 32.2075 2.40572 32.2075H11.1227C12.0554 32.2075 12.8097 31.4533 12.8097 30.5205V22.5578C12.8097 22.4427 12.7636 22.3333 12.683 22.2527L8.71602 18.2857C8.63542 18.2051 8.52602 18.159 8.41087 18.159H5.94087V12.0848H9.34936V13.409C9.34936 13.6278 9.51057 13.8063 9.7236 13.8351L11.9403 14.1345C12.0612 14.4972 12.2051 14.8484 12.3721 15.1823L11.0191 16.9557C10.8866 17.1284 10.9039 17.3702 11.0594 17.5199L13.2933 19.7539C13.4487 19.9093 13.6906 19.9208 13.8575 19.7942L15.6309 18.4411C15.9648 18.6081 16.316 18.7578 16.6787 18.873L16.9781 21.0896C17.0069 21.3027 17.1912 21.4639 17.4042 21.4639H18.5557V27.1581H15.6136C14.6809 27.1581 13.9266 27.9123 13.9266 28.8451V34.1133C13.9266 35.046 14.6809 35.8002 15.6136 35.8002H22.3672C23.3 35.8002 24.0542 35.046 24.0542 34.1133V28.8451C24.0542 27.9123 23.3 27.1581 22.3672 27.1581H19.4251V21.4754H20.5766C20.7954 21.4754 20.9739 21.3142 21.0027 21.1011L21.3021 18.8845C21.6648 18.7636 22.016 18.6196 22.35 18.4527L24.1291 19.8057C24.3018 19.9381 24.5436 19.9208 24.6933 19.7654L26.9272 17.5314C27.0827 17.376 27.0942 17.1342 26.9675 16.9672L25.6145 15.1939C25.7815 14.8599 25.9254 14.5087 26.0463 14.146L28.263 13.8466C28.476 13.8178 28.6372 13.6336 28.6372 13.4205V12.0963H32.063V18.1648H29.593C29.4778 18.1648 29.3684 18.2108 29.2878 18.2914L25.3209 22.2584C25.2403 22.339 25.1942 22.4484 25.1942 22.5636V30.532C25.1942 31.4648 25.9484 32.219 26.8812 32.219H35.5981C36.5309 32.219 37.2851 31.4648 37.2851 30.532V19.846C37.2794 18.9133 36.5251 18.159 35.5924 18.159ZM11.1227 31.3496H2.40572C1.95087 31.3496 1.58239 30.9811 1.58239 30.5263V19.846C1.58239 19.3911 1.95087 19.0227 2.40572 19.0227H7.97905V21.3027C7.97905 22.2354 8.7333 22.9896 9.66602 22.9896H11.946V30.5263C11.946 30.9754 11.5718 31.3496 11.1227 31.3496ZM8.84269 19.633L11.3357 22.126H9.66602C9.21117 22.126 8.84269 21.7575 8.84269 21.3027V19.633ZM23.1906 28.8566V34.1248C23.1906 34.5796 22.8221 34.9481 22.3672 34.9481H15.6194C15.1645 34.9481 14.796 34.5796 14.796 34.1248V28.8566C14.796 28.4017 15.1645 28.0333 15.6194 28.0333H22.373C22.8221 28.0333 23.1906 28.4017 23.1906 28.8566ZM27.7736 13.0348L25.6548 13.3227C25.4878 13.3457 25.3439 13.4666 25.2978 13.6336C25.1597 14.123 24.9639 14.5951 24.7221 15.0211C24.6357 15.1708 24.653 15.3551 24.7566 15.4933L26.0463 17.1917L24.3421 18.896L22.6436 17.6063C22.5054 17.5027 22.3212 17.4911 22.1715 17.5717C21.7397 17.8136 21.2733 18.0036 20.7839 18.1475C20.6169 18.1936 20.496 18.3375 20.473 18.5045L20.1851 20.6175H17.79L17.5021 18.5045C17.4791 18.3317 17.3581 18.1936 17.1912 18.1475C16.7018 18.0093 16.2354 17.8136 15.8036 17.5717C15.6539 17.4854 15.4697 17.5027 15.3315 17.6063L13.633 18.896L11.9287 17.1917L13.2184 15.4933C13.3221 15.3551 13.3336 15.1708 13.253 15.0211C13.0112 14.5893 12.8212 14.123 12.6772 13.6336C12.6312 13.4666 12.4872 13.3457 12.3203 13.3227L10.2072 13.0348V10.6281L12.3203 10.3402C12.4872 10.3172 12.6312 10.1963 12.6772 10.0293C12.8154 9.53992 13.0112 9.0678 13.253 8.64174C13.3394 8.49205 13.3221 8.3078 13.2184 8.16962L11.9287 6.47114L13.633 4.76689L15.3315 6.05659C15.4697 6.16023 15.6539 6.17174 15.8036 6.09114C16.2354 5.84932 16.7018 5.65932 17.1912 5.51538C17.3581 5.46932 17.4791 5.32538 17.5021 5.15841L17.79 3.04538H20.1966L20.4845 5.15841C20.5075 5.33114 20.6284 5.46932 20.7954 5.51538C21.2848 5.65356 21.7569 5.84932 22.183 6.09114C22.3327 6.1775 22.5169 6.16023 22.6551 6.05659L24.3536 4.76689L26.0578 6.47114L24.7566 8.16962C24.653 8.3078 24.6415 8.49205 24.7221 8.64174C24.9639 9.07356 25.1539 9.53992 25.2978 10.0293C25.3439 10.1963 25.4878 10.3172 25.6548 10.3402L27.7736 10.6281V13.0348ZM29.1554 19.633V21.3027C29.1554 21.7575 28.7869 22.126 28.3321 22.126H26.6624L29.1554 19.633ZM36.4157 30.5263C36.4157 30.9811 36.0472 31.3496 35.5924 31.3496H26.8754C26.4206 31.3496 26.0521 30.9811 26.0521 30.5263V22.9896H28.3321C29.2648 22.9896 30.0191 22.2354 30.0191 21.3027V19.0227H35.5924C36.0472 19.0227 36.4157 19.3911 36.4157 19.846V30.5263Z" fill="#001E60"/>
<path d="M34.3338 24.8828H28.1271C27.8911 24.8828 27.6953 25.0786 27.6953 25.3146C27.6953 25.5507 27.8911 25.7464 28.1271 25.7464H34.3338C34.5699 25.7464 34.7656 25.5507 34.7656 25.3146C34.7656 25.0786 34.5756 24.8828 34.3338 24.8828Z" fill="#001E60"/>
<path d="M34.3338 27.0156H28.1271C27.8911 27.0156 27.6953 27.2114 27.6953 27.4474C27.6953 27.6835 27.8911 27.8793 28.1271 27.8793H34.3338C34.5699 27.8793 34.7656 27.6835 34.7656 27.4474C34.7656 27.2114 34.5756 27.0156 34.3338 27.0156Z" fill="#001E60"/>
<path d="M34.3338 29.1445H28.1271C27.8911 29.1445 27.6953 29.3403 27.6953 29.5763C27.6953 29.8124 27.8911 30.0082 28.1271 30.0082H34.3338C34.5699 30.0082 34.7656 29.8124 34.7656 29.5763C34.7656 29.3403 34.5756 29.1445 34.3338 29.1445Z" fill="#001E60"/>
<path d="M32.8667 19.8008C31.8131 19.8008 30.9609 20.6587 30.9609 21.7065C30.9609 22.7544 31.8188 23.6123 32.8667 23.6123C33.9203 23.6123 34.7725 22.7544 34.7725 21.7065C34.7725 20.6587 33.9203 19.8008 32.8667 19.8008ZM32.8667 22.7544C32.2909 22.7544 31.8246 22.2881 31.8246 21.7123C31.8246 21.1365 32.2909 20.6702 32.8667 20.6702C33.4425 20.6702 33.9088 21.1365 33.9088 21.7123C33.9088 22.2881 33.4425 22.7544 32.8667 22.7544Z" fill="#001E60"/>
<path d="M16.4865 30.8988H21.5071C21.7432 30.8988 21.9389 30.703 21.9389 30.467C21.9389 30.2309 21.7432 30.0352 21.5071 30.0352H16.4865C16.2504 30.0352 16.0547 30.2309 16.0547 30.467C16.0547 30.703 16.2447 30.8988 16.4865 30.8988Z" fill="#001E60"/>
<path d="M16.4865 32.9457H19.8144C20.0504 32.9457 20.2462 32.7499 20.2462 32.5138C20.2462 32.2778 20.0504 32.082 19.8144 32.082H16.4865C16.2504 32.082 16.0547 32.2778 16.0547 32.5138C16.0547 32.7499 16.2447 32.9457 16.4865 32.9457Z" fill="#001E60"/>
</svg>
