<svg width="38" height="38" viewBox="0 0 38 38" fill="none" xmlns="http://www.w3.org/2000/svg">
<path d="M3.59734 24.1435C3.62577 24.2225 3.67064 24.2946 3.72898 24.355C3.78732 24.4154 3.8578 24.4627 3.93577 24.4939L6.53046 25.5329V32.0642C6.53095 32.1869 6.56947 32.3065 6.64071 32.4064C6.71195 32.5064 6.81241 32.5818 6.92827 32.6223L18.8033 36.7785C18.9296 36.8259 19.0688 36.8259 19.1952 36.7785L31.0702 32.6223C31.186 32.5818 31.2865 32.5064 31.3577 32.4064C31.429 32.3065 31.4675 32.1869 31.468 32.0642V25.5329L34.0626 24.5117C34.1406 24.4805 34.2111 24.4332 34.2694 24.3728C34.3278 24.3124 34.3727 24.2404 34.4011 24.1614C34.4291 24.0832 34.4404 24 34.4343 23.9171C34.4282 23.8343 34.4047 23.7536 34.3655 23.6804L31.5273 18.3723L33.8014 12.6901C33.8341 12.6152 33.851 12.5343 33.851 12.4526C33.851 12.3709 33.8341 12.29 33.8014 12.2151C33.7662 12.1403 33.7159 12.0737 33.6535 12.0195C33.5911 11.9654 33.5182 11.9248 33.4392 11.9004L25.477 9.50167C24.9088 8.26108 23.9963 7.20975 22.8479 6.47266C21.6996 5.73558 20.3637 5.34375 18.9992 5.34375C17.6347 5.34375 16.2988 5.73558 15.1505 6.47266C14.0022 7.20975 13.0896 8.26108 12.5214 9.50167L4.57702 11.8767C4.49808 11.901 4.42509 11.9416 4.36273 11.9958C4.30036 12.05 4.24999 12.1166 4.21484 12.1914C4.18214 12.2663 4.16527 12.3471 4.16527 12.4289C4.16527 12.5106 4.18214 12.5914 4.21484 12.6664L6.4889 18.3485L3.63296 23.6626C3.59371 23.7358 3.57026 23.8165 3.56412 23.8993C3.55799 23.9821 3.5693 24.0653 3.59734 24.1435ZM7.71796 25.9782L15.5317 29.0539C15.6016 29.0815 15.6762 29.0956 15.7514 29.0954C15.8621 29.0962 15.9707 29.066 16.0651 29.0083C16.1596 28.9506 16.236 28.8677 16.2858 28.7689L18.4055 24.4998V35.3832L7.71796 31.6426V25.9782ZM16.0305 18.9364V20.4623L9.19046 18.4079L13.5842 17.0898C14.256 17.8755 15.0907 18.5056 16.0305 18.9364ZM17.218 19.3639C18.3854 19.6727 19.613 19.6727 20.7805 19.3639V20.8185L18.9992 21.3767L17.218 20.8423V19.3639ZM18.9992 13.6579C18.7643 13.6579 18.5348 13.5883 18.3395 13.4578C18.1442 13.3273 17.992 13.1418 17.9021 12.9249C17.8122 12.7079 17.7887 12.4691 17.8345 12.2387C17.8803 12.0084 17.9934 11.7968 18.1595 11.6307C18.3256 11.4647 18.5372 11.3516 18.7675 11.3057C18.9979 11.2599 19.2367 11.2834 19.4536 11.3733C19.6706 11.4632 19.8561 11.6154 19.9866 11.8107C20.1171 12.006 20.1867 12.2356 20.1867 12.4704C20.1867 12.7854 20.0616 13.0874 19.8389 13.3101C19.6162 13.5328 19.3142 13.6579 18.9992 13.6579ZM24.4142 17.0898L28.808 18.4079L21.968 20.4623V18.9364C22.9077 18.5056 23.7424 17.8755 24.4142 17.0898ZM30.2805 31.6426L19.593 35.3832V24.4998L21.7126 28.7689C21.7624 28.8677 21.8389 28.9506 21.9333 29.0083C22.0277 29.066 22.1364 29.0962 22.247 29.0954C22.3222 29.0956 22.3968 29.0815 22.4667 29.0539L30.2805 25.9782V31.6426ZM33.0058 23.6329L22.5617 27.7476L19.8661 22.3385L30.607 19.1145L33.0058 23.6329ZM32.4595 12.8504L30.5239 17.6835L25.1386 16.0685C25.7838 14.9792 26.1243 13.7365 26.1242 12.4704C26.1227 11.943 26.063 11.4173 25.9461 10.9029L32.4595 12.8504ZM18.9992 6.53292C20.5739 6.45418 22.1154 7.00423 23.2846 8.06205C24.4538 9.11987 25.1549 10.5988 25.2336 12.1735C25.3123 13.7483 24.7623 15.2898 23.7045 16.4589C22.6466 17.6281 21.1677 18.3292 19.593 18.4079V14.7623C20.1527 14.6178 20.6404 14.2741 20.9649 13.7957C21.2893 13.3172 21.4281 12.7369 21.3553 12.1634C21.2824 11.59 21.003 11.0628 20.5692 10.6807C20.1355 10.2985 19.5773 10.0877 18.9992 10.0877C18.4212 10.0877 17.8629 10.2985 17.4292 10.6807C16.9955 11.0628 16.716 11.59 16.6431 12.1634C16.5703 12.7369 16.7091 13.3172 17.0335 13.7957C17.358 14.2741 17.8458 14.6178 18.4055 14.7623V18.4079C16.8307 18.3292 15.3518 17.6281 14.294 16.4589C13.2361 15.2898 12.6861 13.7483 12.7648 12.1735C12.8436 10.5988 13.5446 9.11987 14.7138 8.06205C15.883 7.00423 17.4245 6.45418 18.9992 6.53292ZM5.5389 12.8504L12.0701 10.9029C11.9473 11.4166 11.8816 11.9423 11.8742 12.4704C11.8742 13.7365 12.2146 14.9792 12.8598 16.0685L7.47452 17.6835L5.5389 12.8504ZM7.41515 19.1145L18.1561 22.3385L15.4367 27.7476L4.99265 23.6329L7.41515 19.1145Z" fill="#0053E2"/>
<path d="M18.4062 1.78125H19.5938V4.15625H18.4062V1.78125Z" fill="#0053E2"/>
<path d="M24.4531 6.17969L26.1325 4.50031L26.9722 5.34L25.2928 7.01938L24.4531 6.17969Z" fill="#0053E2"/>
<path d="M11.0234 5.32812L11.8631 4.48844L13.5425 6.16781L12.7028 7.0075L11.0234 5.32812Z" fill="#0053E2"/>
</svg>
