<svg width="68" height="68" viewBox="0 0 68 68" fill="none" xmlns="http://www.w3.org/2000/svg">
<path d="M60.0246 0H7.97539C3.57797 0 0 3.57797 0 7.97539V15.9375H68V7.97539C68 3.57797 64.422 0 60.0246 0ZM8.63281 9.96094C7.53312 9.96094 6.64062 9.06844 6.64062 7.96875C6.64062 6.86906 7.53312 5.97656 8.63281 5.97656C9.7325 5.97656 10.625 6.86906 10.625 7.96875C10.625 9.06844 9.7325 9.96094 8.63281 9.96094ZM16.6016 9.96094C15.5019 9.96094 14.6094 9.06844 14.6094 7.96875C14.6094 6.86906 15.5019 5.97656 16.6016 5.97656C17.7013 5.97656 18.5938 6.86906 18.5938 7.96875C18.5938 9.06844 17.7013 9.96094 16.6016 9.96094ZM59.3672 9.96094H27.2266C26.1269 9.96094 25.2344 9.06844 25.2344 7.96875C25.2344 6.86906 26.1269 5.97656 27.2266 5.97656H59.3672C60.4669 5.97656 61.3594 6.86906 61.3594 7.96875C61.3594 9.06844 60.4669 9.96094 59.3672 9.96094Z" fill="#0053E2"/>
<path d="M27.2168 58.0391C28.3171 58.0391 29.209 57.1471 29.209 56.0469C29.209 54.9466 28.3171 54.0547 27.2168 54.0547C26.1165 54.0547 25.2246 54.9466 25.2246 56.0469C25.2246 57.1471 26.1165 58.0391 27.2168 58.0391Z" fill="#0053E2"/>
<path d="M45.9434 58.0391C47.0436 58.0391 47.9355 57.1471 47.9355 56.0469C47.9355 54.9466 47.0436 54.0547 45.9434 54.0547C44.8431 54.0547 43.9512 54.9466 43.9512 56.0469C43.9512 57.1471 44.8431 58.0391 45.9434 58.0391Z" fill="#0053E2"/>
<path d="M49.0713 37.9727C49.6105 38.7098 49.7606 39.6328 49.483 40.5027L46.4297 50.0679H25.9898L23.5355 39.9356V39.9303L22.7891 36.8105H46.7856C47.6994 36.8105 48.5321 37.2342 49.0713 37.9727Z" fill="#0053E2"/>
<path d="M0 19.9219V60.0246C0 64.422 3.57797 68 7.97539 68H60.0246C64.422 68 68 64.422 68 60.0246V19.9219H0ZM53.2777 41.7151L50.0783 51.7384C51.2125 52.8262 51.9204 54.3548 51.9204 56.0469C51.9204 59.342 49.2389 62.0234 45.9438 62.0234C42.6488 62.0234 39.9673 59.342 39.9673 56.0469C39.9673 55.347 40.0895 54.6763 40.3112 54.052H32.8498C33.0716 54.6763 33.1938 55.347 33.1938 56.0469C33.1938 59.342 30.5123 62.0234 27.2173 62.0234C23.9222 62.0234 21.2407 59.342 21.2407 56.0469C21.2407 54.6882 21.6963 53.4358 22.4626 52.4304L17.0345 29.8828H11.0752C9.97422 29.8828 9.08305 28.9903 9.08305 27.8906C9.08305 26.7909 9.97422 25.8984 11.0752 25.8984H18.607C19.5076 25.8898 20.3433 26.5495 20.5448 27.4271L21.8357 32.8259H46.7859C48.9852 32.8259 50.992 33.8446 52.2896 35.6216C53.5872 37.3973 53.9471 39.6193 53.2777 41.7151Z" fill="#0053E2"/>
</svg>
