<svg width="102" height="102" viewBox="0 0 102 102" fill="none" xmlns="http://www.w3.org/2000/svg">
<path d="M94.2293 65.6379C93.3716 64.2059 89.8578 59.9504 80.6521 65.3116L64.6648 74.6234C64.0058 75.0071 63.3374 75.2964 62.6465 75.4934C62.8706 75.0689 63.0523 74.6043 63.1866 74.1029C64.0279 70.9624 62.1642 67.6848 58.9438 66.6407C58.8757 66.6186 58.806 66.6011 58.7353 66.5883C54.155 65.7622 49.6276 64.1254 45.9898 62.8104C44.7224 62.3522 43.5253 61.9195 42.5059 61.589C38.3476 60.2398 34.6043 61.9003 31.4913 63.7029L19.7499 70.5008L18.7156 68.6732C18.1974 67.7578 17.3516 67.0981 16.3335 66.8161C15.3161 66.534 14.2509 66.664 13.3355 67.182L8.85009 69.7207C6.95572 70.7929 6.28695 73.2062 7.35894 75.1006L20.5466 98.4024C21.0648 99.3178 21.9107 99.9774 22.9287 100.259C23.2807 100.357 23.6383 100.405 23.9933 100.405C24.6651 100.405 25.3279 100.233 25.9267 99.8937L30.4125 97.3549C32.3069 96.2827 32.9759 93.8694 31.9037 91.975L30.6295 89.7236L33.1277 88.2815L53.5341 93.7492C54.6794 94.0562 55.8185 94.2088 56.9393 94.2086C59.206 94.2086 61.396 93.5845 63.3978 92.3521L92.411 74.487C95.1325 72.8111 95.9993 68.5933 94.2293 65.6379ZM28.8423 94.5808L24.3565 97.1196C24.1212 97.2529 23.8943 97.2194 23.7797 97.1879C23.6654 97.1563 23.4536 97.0678 23.3205 96.8325L10.1329 73.5307C9.92986 73.1721 10.0615 72.6976 10.4199 72.4948L14.9055 69.9561C15.0364 69.882 15.1649 69.8595 15.2727 69.8595C15.3586 69.8595 15.4315 69.8739 15.4823 69.888C15.5966 69.9197 15.8082 70.0079 15.9415 70.2432L29.1294 93.5448C29.3324 93.9036 29.2007 94.378 28.8423 94.5808ZM56.0996 78.4925L58.088 78.8158C61.103 79.2979 63.7789 78.8275 66.2687 77.3778L82.2562 68.0659C86.7645 65.44 90.2182 65.1444 91.4946 67.2755C92.3686 68.7347 91.9875 71.0042 90.7392 71.7726L61.7261 89.6378C59.468 91.0279 56.9895 91.3755 54.3588 90.6703L33.3146 85.0316C32.9064 84.9226 32.4715 84.9796 32.1053 85.1908L29.0592 86.9493L21.32 73.2747L33.0882 66.461C35.7195 64.9376 38.5624 63.6598 41.5224 64.6205C42.4916 64.9348 43.6104 65.3392 44.9059 65.8076C48.6263 67.1527 53.249 68.824 58.0527 69.7037C59.6278 70.2605 60.5085 71.7806 60.1073 73.2775C59.5789 75.2492 57.9248 75.4934 56.6062 75.343C54.2622 74.8603 52.0312 74.2238 49.6706 73.5496C48.5472 73.2289 47.3856 72.897 46.1909 72.5769C45.341 72.3495 44.4668 72.8538 44.2389 73.7038C44.011 74.5541 44.5156 75.4279 45.3659 75.6558C46.5353 75.9692 47.6842 76.2973 48.7952 76.6144C51.2391 77.3123 53.5472 77.9715 56.0359 78.4803M16.121 74.3041C16.2489 75.1793 15.6433 75.9925 14.7679 76.1204C13.8927 76.2483 13.0795 75.6426 12.9516 74.7673C12.8237 73.8921 13.4293 73.0789 14.3047 72.951C15.1799 72.8231 15.9931 73.4289 16.121 74.3041ZM39.6284 26.4874C40.3657 27.9254 40.7359 28.6469 40.8416 29.247C40.9474 29.8468 40.8464 30.6515 40.6456 32.2548C40.595 32.6582 40.5386 33.1074 40.4783 33.6123C40.1464 36.3888 41.6505 38.994 44.221 40.095C44.6884 40.2952 45.1055 40.471 45.48 40.6289C45.5482 40.6576 45.6131 40.6851 45.6783 40.7126L39.7547 53.4355C39.5041 53.9738 39.5734 54.6065 39.9346 55.0779C40.2958 55.549 40.8887 55.7807 41.4738 55.6781L47.9848 54.5406L51.3056 60.2554C51.5917 60.7477 52.1176 61.0483 52.6834 61.0483C52.7075 61.0483 52.7318 61.0477 52.7559 61.0467C53.349 61.0198 53.8779 60.6654 54.1285 60.1273L60.0089 47.497L59.8927 47.443C60.8996 47.1384 61.4936 46.9852 61.9807 46.9852C62.5899 46.9852 63.3649 47.2243 64.9088 47.7008C65.0708 47.7508 65.2423 47.8036 65.4204 47.8584L69.6642 57.711C69.8991 58.2562 70.4174 58.6258 71.0095 58.6698C71.0492 58.6728 71.0888 58.6742 71.1283 58.6742C71.6765 58.6742 72.1901 58.3915 72.4821 57.9207L75.9673 52.3048L82.4423 53.631C83.024 53.7501 83.6237 53.5359 83.9982 53.0755C84.3729 52.6149 84.4606 51.9844 84.2259 51.4391L79.4024 40.2399C79.5122 40.1932 79.6249 40.145 79.7407 40.0954C82.3112 38.9945 83.8153 36.3892 83.4834 33.6127C83.423 33.1078 83.3669 32.6586 83.3163 32.2554C83.1151 30.6521 83.0143 29.8474 83.12 29.2474C83.2258 28.6475 83.596 27.9258 84.3331 26.488C84.5185 26.1262 84.7251 25.7234 84.9546 25.2698C86.2163 22.7742 85.6937 19.8116 83.6549 17.8981C83.2842 17.55 82.9525 17.2423 82.6545 16.9657C81.4699 15.8666 80.8752 15.3152 80.5706 14.7875C80.266 14.2599 80.0855 13.4692 79.7263 11.894C79.6359 11.4976 79.5353 11.0561 79.4192 10.5611C78.7814 7.83833 76.4769 5.90472 73.6848 5.74952C73.1772 5.72123 72.7252 5.69892 72.3192 5.6786C70.7053 5.59832 69.8953 5.55787 69.3227 5.34949C68.7502 5.14111 68.1037 4.65143 66.816 3.67566C66.4918 3.43022 66.1311 3.15689 65.7241 2.85209C63.4854 1.17626 60.4772 1.17626 58.2386 2.85209C57.8316 3.15689 57.4708 3.43022 57.1467 3.67566C55.8587 4.65143 55.2125 5.14111 54.6399 5.34949C54.0674 5.55787 53.2575 5.59832 51.6435 5.6786C51.2375 5.69892 50.7852 5.72123 50.2778 5.74952C47.4858 5.90491 45.1812 7.83853 44.5435 10.5611C44.4276 11.0561 44.327 11.4974 44.2363 11.8938C43.8769 13.4692 43.6966 14.2597 43.3918 14.7875C43.0872 15.315 42.4926 15.8666 41.3082 16.9655C41.0102 17.2421 40.6783 17.55 40.3075 17.8979C38.2685 19.8116 37.7462 22.774 39.0076 25.2696C39.2363 25.723 39.4429 26.1258 39.6284 26.4874ZM52.5276 56.0136L50.1828 51.9784C49.8475 51.4015 49.1887 51.0947 48.5305 51.2092L43.9331 52.0125L48.4775 42.2518C48.8536 42.6707 49.2734 43.3202 49.9661 44.393C50.1866 44.7346 50.4322 45.1149 50.7105 45.5407C51.8929 47.3486 53.8486 48.3738 55.9115 48.3738C55.9699 48.3738 56.0289 48.369 56.0874 48.3674L52.5276 56.0136ZM75.5184 48.9589C74.8646 48.825 74.1964 49.1127 73.8446 49.6798L71.3839 53.6453L69.0749 48.2845C70.7462 48.004 72.2668 47.0454 73.2507 45.5407C73.529 45.1151 73.7745 44.735 73.995 44.3934C74.8716 43.0359 75.3115 42.3546 75.7782 41.9629C75.9603 41.8101 76.1862 41.6687 76.4815 41.5161L80.0903 49.8952L75.5184 48.9589ZM42.4882 20.2218C42.8539 19.8785 43.1813 19.5747 43.4755 19.302C46.3044 16.6777 46.4851 16.3645 47.3435 12.6024C47.4328 12.2114 47.532 11.7761 47.6465 11.2876C47.9637 9.93371 49.066 9.00894 50.4543 8.93164C50.9552 8.90375 51.401 8.88164 51.8017 8.86152C55.6557 8.66967 55.9954 8.54596 59.0711 6.2157C59.3907 5.97345 59.7469 5.7037 60.1485 5.40308C60.7051 4.98632 61.343 4.77813 61.9811 4.77813C62.619 4.77813 63.2569 4.98632 63.8137 5.40308C64.2154 5.7035 64.5714 5.97325 64.8909 6.2155C67.9667 8.54576 68.3063 8.66927 72.1604 8.86132C72.561 8.88124 73.0069 8.90336 73.5077 8.93145C74.8963 9.00874 75.9984 9.93352 76.3155 11.2874C76.4299 11.7759 76.5293 12.2114 76.6185 12.6024C77.4768 16.3643 77.6574 16.6775 80.4866 19.3018C80.7806 19.5745 81.1079 19.8783 81.4737 20.2216C82.4877 21.1732 82.7375 22.5901 82.11 23.8312C81.8837 24.2789 81.6799 24.6763 81.497 25.0331C79.7363 28.4668 79.6735 28.8228 80.1537 32.6516C80.2035 33.0495 80.259 33.4925 80.3186 33.9906C80.4838 35.3714 79.7644 36.6173 78.486 37.1647C78.025 37.3622 77.6134 37.5357 77.2437 37.6915C73.6878 39.19 73.4109 39.4223 71.3175 42.664C71.1 43.0008 70.8577 43.376 70.5832 43.7957C69.8222 44.9594 68.4705 45.4514 67.1389 45.0494C66.6588 44.9042 66.2321 44.7727 65.849 44.6544C62.162 43.5168 61.8004 43.5166 58.1127 44.6544C57.7296 44.7727 57.3029 44.9042 56.8228 45.0494C55.492 45.4516 54.1395 44.9596 53.3785 43.7957C53.1039 43.376 52.8615 43.0006 52.644 42.6638C50.5508 39.4223 50.2738 39.1898 46.7178 37.6915C46.3482 37.5357 45.9369 37.3624 45.4757 37.1647C44.1973 36.6173 43.4779 35.3714 43.643 33.9904C43.7026 33.4923 43.7582 33.0491 43.8082 32.6512C44.2883 28.8224 44.2256 28.4666 42.4647 25.0327C42.2818 24.6759 42.078 24.2787 41.8517 23.831C41.2243 22.5903 41.4742 21.1734 42.4882 20.2218ZM61.9805 39.597C70.0385 39.597 76.5942 33.0413 76.5942 24.9833C76.5942 16.9253 70.0385 10.3698 61.9805 10.3698C53.9225 10.3698 47.367 16.9255 47.367 24.9833C47.367 33.0413 53.9227 39.597 61.9805 39.597ZM61.9805 13.5571C68.2808 13.5571 73.4067 18.6828 73.4067 24.9831C73.4067 31.2834 68.281 36.4093 61.9805 36.4093C55.68 36.4093 50.5545 31.2836 50.5545 24.9831C50.5545 18.6826 55.6802 13.5571 61.9805 13.5571ZM57.9234 30.6307L53.8219 26.529C53.1994 25.9067 53.1996 24.8976 53.8219 24.2753C54.4445 23.6527 55.4537 23.6529 56.0757 24.2753L59.1036 27.3034L67.9414 19.2829C68.5932 18.6912 69.601 18.7402 70.1927 19.392C70.7842 20.0439 70.7354 21.0519 70.0836 21.6434L60.1214 30.6841C59.8168 30.9605 59.4333 31.0977 59.0506 31.0977C58.6418 31.0975 58.2338 30.9411 57.9234 30.6307Z" fill="#0053E2"/>
</svg>
