
<svg width="38" height="38" viewBox="0 0 38 38" fill="none" xmlns="http://www.w3.org/2000/svg">
<g clip-path="url(#clip0_681_2029)">
<path d="M35.4234 16.3047H2.58191C1.69671 16.3047 0.976562 17.0248 0.976562 17.91V35.9476C0.976562 36.8328 1.69671 37.5529 2.58191 37.5529H35.4234C36.3086 37.5529 37.0288 36.8328 37.0288 35.9476V17.91C37.0288 17.0248 36.3086 16.3047 35.4234 16.3047ZM36.1237 35.9476C36.1237 36.3337 35.8096 36.6479 35.4234 36.6479H2.58191C2.19568 36.6479 1.88159 36.3336 1.88159 35.9476V17.91C1.88159 17.524 2.19568 17.2097 2.58191 17.2097H35.4234C35.8096 17.2097 36.1237 17.524 36.1237 17.91V35.9476Z" fill="#0053E2"/>
<path d="M33.4139 21.929C32.3068 21.929 31.406 21.0282 31.406 19.9213C31.406 19.6713 31.2035 19.4688 30.9535 19.4688H7.05356C6.80359 19.4688 6.60105 19.6713 6.60105 19.9213C6.60105 21.0282 5.70026 21.929 4.59314 21.929C4.34317 21.929 4.14062 22.1315 4.14062 22.3815V31.4779C4.14062 31.7278 4.34317 31.9304 4.59314 31.9304C5.70026 31.9304 6.60105 32.8312 6.60105 33.9381C6.60105 34.188 6.80359 34.3906 7.05356 34.3906H30.9535C31.2035 34.3906 31.406 34.188 31.406 33.9381C31.406 32.8312 32.3068 31.9304 33.4139 31.9304C33.6639 31.9304 33.8664 31.7278 33.8664 31.4779V22.3815C33.8664 22.1315 33.6639 21.929 33.4139 21.929ZM32.9614 31.0603C31.717 31.2554 30.7311 32.2411 30.5362 33.4856H7.47089C7.27592 32.2411 6.29007 31.2555 5.04565 31.0603V22.7989C6.29007 22.6038 7.27592 21.6181 7.47089 20.3737H30.5362C30.7311 21.6181 31.717 22.6037 32.9614 22.7989V31.0603Z" fill="#0053E2"/>
<path d="M19.004 22.0469C16.9986 22.0469 15.3672 24.2366 15.3672 26.9281C15.3672 29.6196 16.9986 31.8093 19.004 31.8093C21.0094 31.8093 22.6409 29.6196 22.6409 26.9281C22.6409 24.2366 21.0094 22.0469 19.004 22.0469ZM19.004 30.9042C17.4978 30.9042 16.2722 29.1207 16.2722 26.928C16.2722 24.7354 17.4977 22.9518 19.004 22.9518C20.5104 22.9518 21.7359 24.7354 21.7359 26.928C21.7359 29.1207 20.5104 30.9042 19.004 30.9042Z" fill="#0053E2"/>
<path d="M19.0009 11.2076C19.913 11.2076 20.6551 10.4656 20.6551 9.55343V6.16735L21.5609 7.0717C22.2325 7.74234 23.3258 7.74234 23.9976 7.07029C24.6697 6.39824 24.6697 5.30507 23.9976 4.63302L20.3827 1.0182C19.6189 0.254784 18.3798 0.25367 17.6152 1.01894L14.0035 4.6331C13.332 5.30515 13.3321 6.39831 14.004 7.06999C14.6761 7.74167 15.7696 7.74167 16.4413 7.06999L17.3469 6.16423V9.5535C17.3469 10.4656 18.089 11.2076 19.0009 11.2076ZM15.8015 6.43001C15.4921 6.73898 14.9534 6.73898 14.644 6.43001C14.325 6.11109 14.325 5.59178 14.6439 5.27286L18.2556 1.65871C18.668 1.24531 19.3342 1.24998 19.7429 1.65796L23.3578 5.27279C23.6763 5.59126 23.6788 6.10923 23.3578 6.43023C23.3216 6.46645 23.3212 6.46682 23.3575 6.4306C23.0383 6.74952 22.5194 6.74915 22.2005 6.43097L20.5223 4.75571C20.2361 4.47071 19.75 4.67525 19.75 5.07603V9.5535C19.75 9.96646 19.4139 10.3027 19.0008 10.3027C18.5879 10.3027 18.2519 9.96646 18.2519 9.5535V5.07173C18.2519 4.66701 17.7619 4.4687 17.4794 4.75177L15.8015 6.43001Z" fill="#0053E2"/>
<path d="M1.4803 11.0078C2.15369 11.6812 3.24404 11.6817 3.91757 11.0078L4.82334 10.1021V13.4914C4.82334 14.4035 5.56538 15.1455 6.4773 15.1455C7.38923 15.1455 8.13127 14.4035 8.13127 13.4914V10.1052L9.03718 11.0096C9.70871 11.6802 10.802 11.6802 11.4739 11.0081H11.4741C12.1456 10.3361 12.1456 9.24293 11.4739 8.57087L7.85911 4.95605C7.09525 4.19219 5.85632 4.19115 5.09149 4.95642L1.48001 8.57095C0.808624 9.243 0.808772 10.3362 1.4803 11.0078ZM2.12022 9.21086L5.73155 5.59634C6.14228 5.18561 6.8081 5.18487 7.21919 5.59596L10.8339 9.21079C11.1529 9.53 11.1529 10.049 10.8339 10.3682C10.7977 10.4044 10.7973 10.4048 10.8335 10.3686C10.5144 10.6875 9.99579 10.6871 9.67673 10.369L7.99849 8.69356C7.86891 8.56449 7.6743 8.5256 7.50531 8.59596C7.33631 8.66595 7.22617 8.83071 7.22617 9.01381V13.4913C7.22617 13.9042 6.89011 14.2404 6.47723 14.2404C6.06435 14.2404 5.72829 13.9042 5.72829 13.4913V9.00958C5.72829 8.82648 5.618 8.66172 5.449 8.59136C5.27533 8.52011 5.08236 8.56308 4.95582 8.68962L3.27744 10.3679C2.96846 10.6765 2.42949 10.6772 2.12051 10.3679C1.80152 10.0491 1.8013 9.52971 2.12022 9.21086Z" fill="#0053E2"/>
<path d="M31.5242 15.1455C32.4361 15.1455 33.1782 14.4035 33.1782 13.4914V10.1052L34.0839 11.0096C34.7562 11.6802 35.8492 11.6795 36.5207 11.0081C37.1927 10.3361 37.1927 9.24293 36.5207 8.57087L32.906 4.95605C32.1422 4.19219 30.9032 4.19115 30.1384 4.95642L26.5267 8.57095C25.8555 9.243 25.8557 10.3362 26.5272 11.0078C27.1993 11.6795 28.2924 11.6795 28.9645 11.0078L29.8702 10.1021V13.4914C29.8702 14.4035 30.6122 15.1455 31.5242 15.1455ZM28.3246 10.3679C28.0053 10.6869 27.4862 10.6869 27.1673 10.3679C26.8482 10.049 26.8482 9.52971 27.1669 9.21079L30.7784 5.59626C31.1891 5.18553 31.8549 5.18479 32.266 5.59589L35.8807 9.21071C36.1998 9.52993 36.1998 10.0489 35.8807 10.3682L35.8803 10.3685C35.5614 10.6874 35.0426 10.6871 34.7234 10.3689L33.0454 8.69348C32.916 8.56442 32.7212 8.52553 32.5522 8.59589C32.3832 8.66587 32.2731 8.83064 32.2731 9.01374V13.4912C32.2731 13.9042 31.937 14.2404 31.5241 14.2404C31.1113 14.2404 30.7752 13.9042 30.7752 13.4912V9.00951C30.7752 8.82641 30.6649 8.66164 30.4959 8.59128C30.3222 8.52003 30.1293 8.56301 30.0027 8.68955L28.3246 10.3679Z" fill="#0053E2"/>
</g>
<defs>
<clipPath id="clip0_681_2029">
<rect width="38" height="38" fill="white"/>
</clipPath>
</defs>
</svg>
