<svg xmlns="http://www.w3.org/2000/svg" id="Layer_2" enable-background="new 0 0 500 500" viewBox="0 0 500 500"><g fill="#001E60"><path d="m445.2051 358.8203v-277.8447c0-16.2129-13.1904-29.4033-29.4033-29.4033h-331.6036c-16.2129 0-29.4033 13.1904-29.4033 29.4033v277.8447c0 16.2129 13.1904 29.4033 29.4033 29.4033h41.3145c-5.6431 8.1626-8.9385 17.9111-8.9385 28.3809 0 .8418.0254 1.6777.0664 2.5107.0889 1.79.9131 3.4629 2.2773 4.625 14.1211 12.0283 32.3662 18.6533 51.375 18.6533 10.6582 0 20.9434-2.0483 30.6162-6.0405 15.0044 7.8682 31.9668 12.0747 49.4189 12.0747 17.0957 0 33.5908-3.9834 48.2749-11.4688 9.2456 3.5918 19.0293 5.4346 29.1226 5.4346 20.1309 0 39.165-7.3281 53.5957-20.6348 1.3086-1.207 2.0664-2.9062 2.0938-4.6865.0059-.1553.0107-.3105.0107-.4678 0-10.4697-3.2954-20.2183-8.9385-28.3809h41.3145c16.2129.0001 29.4034-13.1903 29.4034-29.4032zm-361.0069-294.248h331.6035c9.0449 0 16.4033 7.3584 16.4033 16.4033v36.5391h-364.4101v-36.5391c0-9.0449 7.3584-16.4033 16.4033-16.4033zm86.0948 364.8213c-14.9307 0-29.2715-4.8564-40.707-13.7295.5371-21.0186 19.0361-37.9619 41.6982-37.9619 6.3384 0 12.5371 1.355 18.1753 3.9058-6.1699 10.0459-9.7231 21.7031-9.7231 34.1382 0 1.0332.0283 2.1094.0869 3.291.0889 1.79.9131 3.4639 2.2773 4.626 1.5142 1.29 3.0767 2.5156 4.6602 3.7109-5.3282 1.332-10.8331 2.0195-16.4678 2.0195zm22.4433-13.8086c.0938-30.3232 26.4961-54.9658 58.9365-54.9658 31.6475 0 57.5488 23.4541 58.8818 52.7646-16.4756 14.2373-37.7471 22.0439-60.2266 22.0439-21.1825 0-41.5175-7.0263-57.5917-19.8427zm134.9893 13.8086c-4.918 0-9.7422-.5317-14.4414-1.5503 2.8452-2.1191 5.5913-4.3867 8.2188-6.8091 1.3252-1.2217 2.085-2.9678 2.0957-4.7705.0068-.1719.0117-.3438.0117-.5176 0-12.8936-3.8027-24.9609-10.4004-35.252 4.9043-1.8296 10.1709-2.792 15.5059-2.792 22.1143 0 40.2646 16.1367 41.6279 36.4072-11.7354 9.877-26.7559 15.2843-42.6182 15.2843zm88.0762-54.17h-54.1089c-9.1763-6.5977-20.6011-10.5215-32.9771-10.5215-8.2896 0-16.4761 1.7905-23.8799 5.1968-13.1665-13.6802-32.124-22.2798-53.1631-22.2798-21.6079 0-41.0059 9.0815-54.2036 23.4116-8.0024-4.1426-16.9971-6.3286-26.1851-6.3286-12.376 0-23.8008 3.9238-32.9771 10.5215h-54.1088c-9.0449 0-16.4033-7.3584-16.4033-16.4033v-228.3057h364.4102v228.3057c0 9.0449-7.3584 16.4033-16.4033 16.4033z" fill="#001E60"/><path d="m97.4854 97.6865h2.5381c3.5898 0 6.5-2.9102 6.5-6.5s-2.9102-6.5-6.5-6.5h-2.5381c-3.5898 0-6.5 2.9102-6.5 6.5s2.9101 6.5 6.5 6.5z" fill="#001E60"/><path d="m152.041 97.6865h2.5371c3.5898 0 6.5-2.9102 6.5-6.5s-2.9102-6.5-6.5-6.5h-2.5371c-3.5898 0-6.5 2.9102-6.5 6.5s2.9102 6.5 6.5 6.5z" fill="#001E60"/><path d="m124.7627 97.6865h2.5381c3.5898 0 6.5-2.9102 6.5-6.5s-2.9102-6.5-6.5-6.5h-2.5381c-3.5898 0-6.5 2.9102-6.5 6.5s2.9102 6.5 6.5 6.5z" fill="#001E60"/><path d="m254.3994 97.6865h139.8369c3.5898 0 6.5-2.9102 6.5-6.5s-2.9102-6.5-6.5-6.5h-139.8369c-3.5898 0-6.5 2.9102-6.5 6.5s2.9102 6.5 6.5 6.5z" fill="#001E60"/><path d="m250.3281 252.1836c-24.2793 0-44.0312 19.7529-44.0312 44.0322s19.752 44.0312 44.0312 44.0312 44.0322-19.752 44.0322-44.0312-19.7529-44.0322-44.0322-44.0322zm0 75.0635c-17.1104 0-31.0312-13.9209-31.0312-31.0312 0-17.1113 13.9209-31.0322 31.0312-31.0322 17.1113 0 31.0322 13.9209 31.0322 31.0322.0001 17.1103-13.9208 31.0312-31.0322 31.0312z" fill="#001E60"/><path d="m327.7256 292.8359c-18.8311 0-34.1504 15.3193-34.1504 34.1504s15.3193 34.1514 34.1504 34.1514 34.1504-15.3203 34.1504-34.1514-15.3194-34.1504-34.1504-34.1504zm0 55.3018c-11.6621 0-21.1504-9.4883-21.1504-21.1514 0-11.6621 9.4883-21.1504 21.1504-21.1504s21.1504 9.4883 21.1504 21.1504c0 11.6631-9.4883 21.1514-21.1504 21.1514z" fill="#001E60"/><path d="m170.293 292.8359c-18.8311 0-34.1504 15.3193-34.1504 34.1504s15.3193 34.1514 34.1504 34.1514 34.1514-15.3203 34.1514-34.1514-15.3204-34.1504-34.1514-34.1504zm0 55.3018c-11.6621 0-21.1504-9.4883-21.1504-21.1514 0-11.6621 9.4883-21.1504 21.1504-21.1504 11.6631 0 21.1514 9.4883 21.1514 21.1504-.0001 11.6631-9.4883 21.1514-21.1514 21.1514z" fill="#001E60"/><path d="m115.3213 171.1104h41.5527c3.5898 0 6.5-2.9102 6.5-6.5s-2.9102-6.5-6.5-6.5h-41.5527c-3.5898 0-6.5 2.9102-6.5 6.5s2.9101 6.5 6.5 6.5z" fill="#001E60"/><path d="m379.2217 192.1572h-263.9004c-3.5898 0-6.5 2.9102-6.5 6.5s2.9102 6.5 6.5 6.5h263.9004c3.5898 0 6.5-2.9102 6.5-6.5s-2.9102-6.5-6.5-6.5z" fill="#001E60"/><path d="m379.2217 226.2041h-29.5801c-3.5898 0-6.5 2.9102-6.5 6.5s2.9102 6.5 6.5 6.5h29.5801c3.5898 0 6.5-2.9102 6.5-6.5s-2.9102-6.5-6.5-6.5z" fill="#001E60"/><path d="m296.3555 239.2041c3.5898 0 6.5-2.9102 6.5-6.5s-2.9102-6.5-6.5-6.5h-181.0342c-3.5898 0-6.5 2.9102-6.5 6.5s2.9102 6.5 6.5 6.5z" fill="#001E60"/><path d="m379.2217 158.1104h-20.0645c-3.5898 0-6.5 2.9102-6.5 6.5s2.9102 6.5 6.5 6.5h20.0645c3.5898 0 6.5-2.9102 6.5-6.5s-2.9102-6.5-6.5-6.5z" fill="#001E60"/><path d="m115.3213 330.2393h-20.0645c-3.5898 0-6.5 2.9102-6.5 6.5s2.9102 6.5 6.5 6.5h20.0645c3.5898 0 6.5-2.9102 6.5-6.5s-2.9102-6.5-6.5-6.5z" fill="#001E60"/></g></svg>