<svg width="54" height="54" viewBox="0 0 54 54" fill="#001E60" xmlns="http://www.w3.org/2000/svg">
<g clip-path="url(#clip0_762_1816)">
<path d="M40.4684 11.4608L29.3254 0.248906C29.247 0.17002 29.1537 0.107418 29.051 0.0647009C28.9483 0.0219839 28.8382 -4.74827e-06 28.7269 7.69097e-10L4.32422 7.69097e-10C3.40147 0.00106073 2.51681 0.368093 1.86433 1.02058C1.21184 1.67306 0.844811 2.55772 0.84375 3.48047V50.5195C0.844811 51.4423 1.21184 52.3269 1.86433 52.9794C2.51681 53.6319 3.40147 53.9989 4.32422 54H37.2335C38.1563 53.9989 39.0409 53.6319 39.6934 52.9794C40.3459 52.3269 40.7129 51.4423 40.714 50.5195V34.0453L51.713 23.0461C52.6403 22.1188 53.1612 20.8612 53.1612 19.5498C53.1612 18.2384 52.6403 16.9808 51.713 16.0535C50.7857 15.1262 49.5281 14.6053 48.2167 14.6053C46.9054 14.6053 45.6477 15.1262 44.7204 16.0535L40.7137 20.0603V12.0552C40.7136 11.8324 40.6254 11.6188 40.4684 11.4608ZM42.023 21.1376L46.6289 25.7436L30.4816 41.8908L25.8757 37.2849L42.023 21.1376ZM44.35 18.8105L48.956 23.4164L47.8221 24.5503L43.2165 19.9441L44.35 18.8105ZM25.113 38.9074L28.8423 42.6369L24.1882 43.5047L25.113 38.9074ZM29.9876 3.30908L37.3599 10.7264H29.9876V3.30908ZM39.0265 50.5195C39.026 50.9949 38.8369 51.4506 38.5008 51.7868C38.1646 52.1229 37.7089 52.312 37.2335 52.3125H4.32422C3.84886 52.312 3.39312 52.1229 3.05698 51.7868C2.72085 51.4506 2.53178 50.9949 2.53125 50.5195V3.48047C2.53178 3.00511 2.72085 2.54937 3.05698 2.21323C3.39312 1.8771 3.84886 1.68803 4.32422 1.6875H28.3001V11.5699C28.3001 11.7937 28.389 12.0083 28.5472 12.1665C28.7055 12.3248 28.9201 12.4137 29.1439 12.4137H39.0263V21.7477L23.956 36.8184C23.8384 36.936 23.7582 37.0856 23.7254 37.2486L22.2874 44.3972C22.2602 44.5325 22.2666 44.6725 22.3061 44.8047C22.3456 44.937 22.4169 45.0576 22.5138 45.1559C22.6107 45.2542 22.7303 45.3273 22.862 45.3686C22.9937 45.4099 23.1335 45.4183 23.2693 45.393L30.5064 44.0438C30.6739 44.0126 30.828 43.9314 30.9484 43.811L39.0265 35.7328V50.5195ZM50.5195 17.2469C51.1274 17.8592 51.4685 18.687 51.4685 19.5498C51.4685 20.4127 51.1274 21.2405 50.5195 21.8528L50.1491 22.2232L45.5433 17.6173L45.9136 17.2469C46.5249 16.637 47.3531 16.2945 48.2166 16.2945C49.0801 16.2945 49.9083 16.637 50.5195 17.2469ZM21.3089 39.5515C21.3089 39.7753 21.22 39.9899 21.0618 40.1481C20.9035 40.3064 20.6889 40.3953 20.4652 40.3953H7.29179C7.06802 40.3953 6.85341 40.3064 6.69517 40.1481C6.53694 39.9899 6.44804 39.7753 6.44804 39.5515C6.44804 39.3277 6.53694 39.1131 6.69517 38.9549C6.85341 38.7967 7.06802 38.7078 7.29179 38.7078H20.4648C20.5757 38.7077 20.6854 38.7295 20.7878 38.7719C20.8902 38.8143 20.9833 38.8764 21.0617 38.9548C21.1401 39.0331 21.2022 39.1262 21.2447 39.2286C21.2871 39.3309 21.3089 39.4407 21.3089 39.5515ZM6.44836 32.1982C6.44836 31.9745 6.53725 31.7599 6.69549 31.6016C6.85372 31.4434 7.06833 31.3545 7.29211 31.3545H24.6981C24.9219 31.3545 25.1365 31.4434 25.2948 31.6016C25.453 31.7599 25.5419 31.9745 25.5419 32.1982C25.5419 32.422 25.453 32.6366 25.2948 32.7949C25.1365 32.9531 24.9219 33.042 24.6981 33.042H7.29179C7.06802 33.042 6.85341 32.9531 6.69517 32.7949C6.53694 32.6366 6.44804 32.422 6.44804 32.1982H6.44836ZM6.44836 24.845C6.44836 24.6212 6.53725 24.4066 6.69549 24.2483C6.85372 24.0901 7.06833 24.0012 7.29211 24.0012H34.266C34.4897 24.0012 34.7043 24.0901 34.8626 24.2483C35.0208 24.4066 35.1097 24.6212 35.1097 24.845C35.1097 25.0687 35.0208 25.2833 34.8626 25.4416C34.7043 25.5998 34.4897 25.6887 34.266 25.6887H7.29179C7.06802 25.6887 6.85341 25.5998 6.69517 25.4416C6.53694 25.2833 6.44804 25.0687 6.44804 24.845H6.44836ZM6.44836 17.4918C6.44836 17.268 6.53725 17.0534 6.69549 16.8952C6.85372 16.7369 7.06833 16.648 7.29211 16.648H34.266C34.4897 16.648 34.7043 16.7369 34.8626 16.8952C35.0208 17.0534 35.1097 17.268 35.1097 17.4918C35.1097 17.7156 35.0208 17.9302 34.8626 18.0884C34.7043 18.2466 34.4897 18.3355 34.266 18.3355H7.29179C7.06802 18.3355 6.85341 18.2466 6.69517 18.0884C6.53694 17.9302 6.44804 17.7156 6.44804 17.4918H6.44836ZM6.44836 10.1385C6.44836 9.91472 6.53725 9.70011 6.69549 9.54188C6.85372 9.38364 7.06833 9.29475 7.29211 9.29475H25.1535C25.3772 9.29475 25.5918 9.38364 25.7501 9.54188C25.9083 9.70011 25.9972 9.91472 25.9972 10.1385C25.9972 10.3623 25.9083 10.5769 25.7501 10.7351C25.5918 10.8934 25.3772 10.9822 25.1535 10.9822H7.29179C7.06802 10.9822 6.85341 10.8934 6.69517 10.7351C6.53694 10.5769 6.44804 10.3623 6.44804 10.1385H6.44836Z" fill="#001E60"/>
</g>
<defs>
<clipPath id="clip0_762_1816">
<rect width="54" height="54" fill="#001E60"/>
</clipPath>
</defs>
</svg>
