<svg width="39" height="39" viewBox="0 0 39 39" fill="#001E60" xmlns="http://www.w3.org/2000/svg">
<path d="M5.52229 14.0798C5.52229 13.7886 5.75819 13.5527 6.04932 13.5527H21.8369C22.1279 13.5527 22.364 13.7886 22.364 14.0798C22.364 14.3709 22.1279 14.6068 21.8369 14.6068H6.04932C5.75819 14.6067 5.52229 14.3709 5.52229 14.0798ZM14.1433 17.9972H6.04932C5.75819 17.9972 5.52229 18.2331 5.52229 18.5242C5.52229 18.8154 5.75819 19.0513 6.04932 19.0513H14.1434C14.4346 19.0513 14.6705 18.8154 14.6705 18.5242C14.6705 18.2331 14.4345 17.9972 14.1433 17.9972ZM14.1433 22.4416H6.04932C5.75819 22.4416 5.52229 22.6777 5.52229 22.9686C5.52229 23.2596 5.75819 23.4957 6.04932 23.4957H14.1434C14.4346 23.4957 14.6705 23.2596 14.6705 22.9686C14.6705 22.6777 14.4345 22.4416 14.1433 22.4416ZM14.1433 26.886H6.04932C5.75819 26.886 5.52229 27.1221 5.52229 27.413C5.52229 27.704 5.75819 27.9401 6.04932 27.9401H14.1434C14.4346 27.9401 14.6705 27.704 14.6705 27.413C14.6704 27.1221 14.4345 26.886 14.1433 26.886ZM38.7627 26.5127C38.621 26.8219 38.3681 27.0569 38.0507 27.1749L36.4079 27.7853C36.2645 27.8385 36.1153 27.8649 35.9664 27.8649C35.7859 27.8649 35.6058 27.8261 35.4363 27.7482C35.3167 27.6934 35.2124 27.6176 35.1175 27.5322C35.0771 27.9042 34.9368 28.2606 34.6921 28.5288C34.3562 28.8969 33.9032 29.0408 33.4198 28.9467C33.4077 29.1896 33.3436 29.4339 33.2211 29.6624C32.8608 30.3356 32.1105 30.6681 31.3961 30.5291C31.3827 30.7703 31.3165 31.0074 31.1995 31.2263C31.1319 31.3528 31.0451 31.4639 30.9504 31.5671V33.0715C30.9504 34.9265 29.4719 36.4389 27.6319 36.5013C27.2227 37.9412 25.899 39 24.3296 39H3.55637C1.6622 39 0.121094 37.459 0.121094 35.5647V5.928C0.121094 4.07283 1.60035 2.56029 3.44074 2.49859C3.85557 1.04744 5.20039 0 6.74172 0H27.5151C29.4094 0 30.9504 1.54111 30.9504 3.43528V19.8361C31.0207 19.8651 31.0896 19.894 31.1569 19.9221C31.6805 20.1411 32.011 20.2608 32.2726 20.2501C32.2152 19.9838 32.2403 19.7076 32.3561 19.455C32.4978 19.146 32.7507 18.9108 33.0681 18.793L34.7113 18.1828C35.029 18.0652 35.3742 18.0779 35.683 18.2198C35.9918 18.3615 36.2269 18.6143 36.3449 18.9318L38.7999 25.541C38.9175 25.8587 38.9045 26.2039 38.7627 26.5127ZM30.75 20.8945C29.7574 20.4793 28.7313 20.0497 27.3039 21.0349C27.0012 21.2441 26.6902 21.5084 26.379 21.8226C26.1917 22.0117 25.9995 22.2008 25.8118 22.385C25.43 22.76 24.9777 23.2044 24.7341 23.5073C25.4543 24.2581 26.205 24.0296 27.3877 23.5845C28.3512 23.2218 29.4409 22.8107 30.4064 23.5461C30.6717 23.6974 31.0625 23.8902 31.4756 24.0944C32.6515 24.6751 33.6417 25.1872 34.2795 25.7053L32.6289 21.2612C32.5037 21.2892 32.3784 21.3066 32.2537 21.3066C31.7344 21.3066 31.2228 21.0924 30.75 20.8945ZM4.55704 2.49272H24.3296C26.2239 2.49272 27.7649 4.03383 27.7649 5.928V19.6067C28.5638 19.3115 29.2728 19.3381 29.8963 19.4834V3.43528C29.8963 2.12238 28.8282 1.05407 27.5151 1.05407H6.74172C5.78013 1.05407 4.92769 1.64181 4.55704 2.49272ZM16.7909 8.5554L19.6336 6.63891C19.8118 6.51879 20.0445 6.51879 20.2229 6.63891L22.7646 8.35225V3.54679H16.7909V8.5554ZM26.7108 35.5647V34.2754C26.6004 34.3025 26.4891 34.3178 26.3783 34.3178C26.1206 34.3178 25.867 34.2485 25.6416 34.1277C25.2718 33.9301 24.9633 33.5866 24.7983 33.1863C24.7876 33.1897 24.777 33.1931 24.766 33.1962C24.344 33.3239 23.8983 33.2806 23.511 33.0734C23.2231 32.9296 22.9867 32.6929 22.8333 32.3954C22.7596 32.43 22.6831 32.4595 22.6038 32.4836C22.1818 32.6112 21.7357 32.568 21.3487 32.3607C20.9795 32.1764 20.6953 31.8392 20.5612 31.4175C20.4895 31.1917 20.4665 30.955 20.4909 30.7251C20.2507 30.7151 20.0092 30.6523 19.7834 30.5315C19.4146 30.3476 19.1305 30.0103 18.9963 29.5887C18.8592 29.1581 18.8997 28.6887 19.1073 28.3006L19.2968 27.9463C19.1873 27.9766 19.0759 27.9959 18.963 27.9959C18.8322 27.9959 18.7006 27.9753 18.5726 27.9338L16.9049 27.3961C16.2382 27.181 15.8707 26.4632 16.0857 25.7965L18.2506 19.0864C18.3546 18.764 18.5786 18.5012 18.8812 18.3461C19.1839 18.1914 19.5282 18.1634 19.8504 18.2671L21.5186 18.8052C21.9465 18.9434 22.2485 19.2892 22.3549 19.695C22.7418 19.7086 23.1278 19.6322 23.5574 19.5468C24.4572 19.3681 25.4616 19.1699 26.711 19.7869V5.928C26.711 4.6151 25.6429 3.54679 24.3298 3.54679H23.8189V9.34324C23.8189 9.53817 23.7115 9.71709 23.5393 9.8085C23.3671 9.90014 23.1591 9.88894 22.9972 9.78016L19.9284 7.71149L16.7878 9.82869C16.7008 9.88734 16.5982 9.91872 16.4932 9.91872H16.264C15.9729 9.91872 15.737 9.68282 15.737 9.39169V3.54679H3.55637C2.24347 3.54679 1.17516 4.6151 1.17516 5.928V35.5647C1.17516 36.8779 2.24347 37.9459 3.55637 37.9459H24.3296C25.6427 37.9459 26.7108 36.8779 26.7108 35.5647ZM28.2702 31.5825C28.3505 31.9175 28.2837 32.2503 28.1827 32.5262L28.2363 32.554C28.564 32.7228 28.7321 32.4682 28.775 32.3861C28.8231 32.2943 28.9341 31.9938 28.5733 31.7453L28.2702 31.5825ZM27.7486 33.4885L27.7077 33.4671C27.7034 33.4744 27.6989 33.4813 27.6946 33.4885H27.7486ZM26.0493 31.8231L26.0486 31.8242L25.7768 32.3323C25.6036 32.6566 25.8708 33.0552 26.1388 33.1983C26.239 33.2525 26.5457 33.4158 26.8254 32.8933L27.0229 32.5238C27.0231 32.5235 27.0232 32.5231 27.0233 32.5227C27.3969 31.8235 27.2889 31.7229 26.8909 31.5099C26.72 31.4182 26.5367 31.4611 26.4431 31.4941C26.2727 31.5544 26.1292 31.6745 26.0493 31.8231ZM25.1816 29.9493C24.8937 29.7956 24.532 29.9044 24.3773 30.1936C24.377 30.1941 24.3767 30.1945 24.3764 30.195L23.7641 31.3396V31.34C23.69 31.4786 23.6769 31.6506 23.7281 31.8111C23.7555 31.8969 23.8262 32.0531 23.995 32.1374C24.1466 32.2184 24.3076 32.2339 24.4602 32.1876C24.6129 32.1413 24.7382 32.0393 24.8126 31.9004L24.8482 31.8338C24.8485 31.8332 24.849 31.8328 24.8493 31.8322L25.1178 31.3302C25.1183 31.3293 25.1185 31.3283 25.119 31.3274H25.1193L25.4257 30.7545C25.5802 30.465 25.4708 30.104 25.1816 29.9493ZM23.6427 28.9608C23.5964 28.8077 23.4944 28.6828 23.3555 28.6084C23.067 28.4536 22.7057 28.5635 22.5509 28.8524C22.5507 28.8528 22.5503 28.8532 22.55 28.8537L22.0136 29.8566L21.6019 30.6266C21.5278 30.7655 21.5147 30.9371 21.5658 31.098C21.593 31.1838 21.6639 31.3402 21.8327 31.4246C22.1354 31.5863 22.4957 31.4757 22.6504 31.1875L22.8349 30.8424C22.8352 30.8419 22.8355 30.8415 22.8359 30.8411L23.4472 29.698C23.4474 29.6977 23.4475 29.6971 23.4477 29.6967L23.599 29.4133C23.6736 29.2741 23.689 29.1135 23.6427 28.9608ZM21.5126 27.2373C21.3801 27.1748 21.2295 27.1636 21.0861 27.2071C20.9331 27.2535 20.8082 27.3554 20.7337 27.4943L20.5083 27.9157C20.5083 27.9158 20.5082 27.9159 20.5081 27.916L20.0365 28.7978C19.9624 28.9365 19.9494 29.1084 20.0005 29.2693C20.0279 29.3547 20.0986 29.5112 20.2678 29.5956C20.5687 29.7572 20.9296 29.6478 21.0844 29.3592C21.085 29.3582 21.0857 29.3575 21.0862 29.3565L21.6217 28.3552V28.3548C21.6217 28.3548 21.6217 28.3548 21.6217 28.3545L21.7823 28.055C21.8423 27.9424 22.0242 27.6024 21.5126 27.2373ZM21.3342 20.081C21.3702 19.9694 21.3064 19.8445 21.1946 19.8085L19.5265 19.2703C19.5035 19.2628 19.4817 19.2599 19.4617 19.2599C19.4177 19.2599 19.3822 19.2738 19.3615 19.2844C19.3315 19.2999 19.2773 19.3368 19.2538 19.41L17.0888 26.1202C17.0527 26.232 17.1167 26.3569 17.2284 26.3929L18.8965 26.9309C18.9701 26.9549 19.0315 26.9323 19.0615 26.9172C19.0915 26.9018 19.1458 26.8648 19.1692 26.7916L19.5457 25.6248C19.5591 25.5778 19.5707 25.5306 19.5858 25.484C19.591 25.4678 19.5992 25.4537 19.6058 25.4385L21.3342 20.081ZM29.8963 33.0717V32.1055C29.8924 32.106 29.8885 32.1075 29.8846 32.1079C29.8939 32.3769 29.8308 32.6432 29.7083 32.8762C29.4438 33.3806 28.9589 33.6623 28.4422 33.6623C28.2173 33.6623 27.9864 33.6081 27.7649 33.4963V35.44C28.961 35.3146 29.8963 34.3003 29.8963 33.0717ZM33.9557 26.8654C33.5947 26.3167 32.0387 25.5478 31.0087 25.0393C30.5444 24.8101 30.1437 24.6121 29.8483 24.4409C29.8264 24.4282 29.8054 24.4138 29.7855 24.3983C29.3038 24.0174 28.7016 24.2154 27.7595 24.5709C26.5812 25.0145 24.9671 25.6209 23.6616 23.8658C23.5515 23.7173 23.5271 23.522 23.5971 23.3511C23.7725 22.9235 24.2724 22.4195 25.0736 21.6328C25.2574 21.452 25.4462 21.2667 25.6298 21.0814C25.7797 20.9297 25.9306 20.7877 26.0813 20.6552C25.2283 20.2894 24.5387 20.4267 23.7629 20.5808C23.2747 20.6778 22.7737 20.7754 22.2286 20.7424L20.5556 25.9277C20.5185 26.06 20.4878 26.1935 20.4693 26.3277C20.5671 26.2748 20.6714 26.2312 20.7805 26.1983C21.2029 26.0693 21.6486 26.1139 22.036 26.3212C22.06 26.3339 22.0827 26.3486 22.1042 26.3648C22.5393 26.6701 22.8062 27.0688 22.8876 27.4953C23.2094 27.4583 23.5457 27.5149 23.8531 27.6792C24.2402 27.8861 24.5239 28.233 24.6516 28.655C24.6701 28.7157 24.6848 28.7772 24.6962 28.8389C25.0232 28.7967 25.3663 28.853 25.6789 29.0197C26.0622 29.2249 26.3292 29.5615 26.4591 29.9437C26.6099 29.7268 26.9006 29.6517 27.1392 29.7787L28.8875 30.7175C28.9175 30.7271 28.9472 30.7387 28.9758 30.7542C28.9765 30.7542 28.9768 30.7545 28.9776 30.7549L29.4141 30.9885C29.5623 31.0675 29.7328 31.0836 29.8958 31.0349C30.0581 30.9854 30.1912 30.877 30.2701 30.7292C30.3494 30.581 30.3658 30.4101 30.3168 30.2475C30.2673 30.0855 30.1592 29.9528 30.0125 29.8735L30.0111 29.8728C29.9931 29.8632 29.9778 29.8508 29.9614 29.8394L27.9421 28.7597C27.6855 28.6228 27.5887 28.3033 27.7259 28.0467C27.8628 27.7897 28.1836 27.6926 28.4389 27.8305L30.511 28.9385C30.5288 28.948 30.5438 28.9602 30.5601 28.9714L31.4182 29.4305C31.7325 29.5976 32.1243 29.4793 32.2921 29.1653C32.4541 28.8624 32.3469 28.4878 32.0562 28.3113L29.2106 26.767C28.955 26.628 28.8599 26.3082 28.9989 26.0522C29.1379 25.7966 29.4576 25.7026 29.7136 25.8405L32.4982 27.3519C32.5067 27.3559 32.5156 27.3581 32.5241 27.3626L33.3894 27.8255C33.7367 28.0105 33.8653 27.8715 33.9137 27.8183C34.097 27.6172 34.1544 27.1666 33.9557 26.8654ZM37.8116 25.9081L35.3566 19.2987C35.3299 19.2263 35.2743 19.1918 35.2434 19.1777C35.2238 19.1688 35.1912 19.1575 35.1518 19.1575C35.1292 19.1575 35.1044 19.161 35.0783 19.1706L33.4352 19.781C33.3628 19.8077 33.3281 19.8633 33.3141 19.8942C33.3 19.925 33.2805 19.9875 33.3072 20.0596L35.7622 26.669C35.789 26.7414 35.8446 26.776 35.8754 26.7901C35.906 26.8038 35.9687 26.8234 36.0408 26.797L37.6836 26.1866C37.7559 26.1599 37.7906 26.1043 37.8047 26.0734C37.8189 26.0426 37.8384 25.9802 37.8116 25.9081Z" fill="#001E60"/>
</svg>
