<svg width="38" height="38" viewBox="0 0 38 38" fill="#001E60" xmlns="http://www.w3.org/2000/svg">
<g clip-path="url(#clip0_681_2103)">
<path d="M5.37989 13.7187C5.37989 13.4351 5.60975 13.2052 5.89341 13.2052H21.2762C21.5597 13.2052 21.7897 13.4351 21.7897 13.7187C21.7897 14.0024 21.5597 14.2323 21.2762 14.2323H5.89341C5.60975 14.2322 5.37989 14.0024 5.37989 13.7187ZM13.7799 17.5357H5.89341C5.60975 17.5357 5.37989 17.7656 5.37989 18.0493C5.37989 18.3329 5.60975 18.5628 5.89341 18.5628H13.78C14.0636 18.5628 14.2935 18.3329 14.2935 18.0493C14.2935 17.7656 14.0636 17.5357 13.7799 17.5357ZM13.7799 21.8662H5.89341C5.60975 21.8662 5.37989 22.0962 5.37989 22.3797C5.37989 22.6632 5.60975 22.8932 5.89341 22.8932H13.78C14.0636 22.8932 14.2935 22.6632 14.2935 22.3797C14.2935 22.0962 14.0636 21.8662 13.7799 21.8662ZM13.7799 26.1966H5.89341C5.60975 26.1966 5.37989 26.4266 5.37989 26.7101C5.37989 26.9937 5.60975 27.2237 5.89341 27.2237H13.78C14.0636 27.2237 14.2935 26.9937 14.2935 26.7101C14.2934 26.4266 14.0636 26.1966 13.7799 26.1966ZM37.768 25.8329C37.6299 26.1341 37.3835 26.3631 37.0743 26.4781L35.4736 27.0728C35.3338 27.1247 35.1884 27.1504 35.0433 27.1504C34.8675 27.1504 34.692 27.1126 34.5269 27.0367C34.4103 26.9833 34.3087 26.9094 34.2163 26.8263C34.1768 27.1887 34.0402 27.536 33.8017 27.7973C33.4744 28.156 33.0331 28.2961 32.5621 28.2045C32.5503 28.4411 32.4878 28.6792 32.3685 28.9018C32.0174 29.5578 31.2863 29.8817 30.5903 29.7463C30.5772 29.9813 30.5127 30.2123 30.3987 30.4256C30.3328 30.5489 30.2483 30.6571 30.156 30.7577V32.2236C30.156 34.0309 28.7155 35.5046 26.9226 35.5653C26.5239 36.9684 25.2341 38 23.7049 38H3.46438C1.61878 38 0.117188 36.4986 0.117188 34.6528V5.776C0.117188 3.9684 1.55852 2.49464 3.35171 2.43452C3.75591 1.02058 5.06624 0 6.56806 0H26.8088C28.6545 0 30.156 1.50159 30.156 3.34719V19.3275C30.2245 19.3557 30.2916 19.3839 30.3572 19.4113C30.8674 19.6246 31.1894 19.7413 31.4443 19.7308C31.3884 19.4714 31.4128 19.2023 31.5257 18.9561C31.6637 18.6551 31.9101 18.4259 32.2194 18.3111L33.8204 17.7165C34.13 17.602 34.4664 17.6144 34.7673 17.7526C35.0681 17.8907 35.2972 18.1371 35.4121 18.4463L37.8042 24.8861C37.9188 25.1956 37.9061 25.532 37.768 25.8329ZM29.9607 20.3587C28.9936 19.9542 27.9938 19.5356 26.603 20.4955C26.3081 20.6994 26.0051 20.9569 25.7018 21.2631C25.5193 21.4473 25.332 21.6315 25.1492 21.811C24.7771 22.1764 24.3365 22.6094 24.099 22.9046C24.8008 23.6361 25.5323 23.4134 26.6847 22.9798C27.6235 22.6264 28.6852 22.2258 29.626 22.9424C29.8844 23.0898 30.2652 23.2777 30.6677 23.4766C31.8135 24.0424 32.7783 24.5414 33.3998 25.0462L31.7915 20.7161C31.6694 20.7433 31.5474 20.7602 31.4259 20.7602C30.9199 20.7602 30.4214 20.5516 29.9607 20.3587ZM4.43939 2.42881H23.7049C25.5507 2.42881 27.0521 3.9304 27.0521 5.776V19.104C27.8306 18.8163 28.5214 18.8423 29.1289 18.9838V3.34719C29.1289 2.06796 28.0882 1.02704 26.8088 1.02704H6.56806C5.63112 1.02704 4.80054 1.59971 4.43939 2.42881ZM16.3595 8.33603L19.1294 6.46868C19.303 6.35164 19.5297 6.35164 19.7035 6.46868L22.1801 8.13809V3.45585H16.3595V8.33603ZM26.0251 34.6528V33.3966C25.9176 33.4229 25.809 33.4378 25.7011 33.4378C25.4501 33.4378 25.203 33.3703 24.9834 33.2527C24.623 33.0601 24.3224 32.7254 24.1616 32.3353C24.1512 32.3387 24.1409 32.342 24.1302 32.3451C23.719 32.4694 23.2847 32.4273 22.9073 32.2253C22.6268 32.0853 22.3965 31.8546 22.2471 31.5647C22.1752 31.5985 22.1006 31.6272 22.0234 31.6507C21.6122 31.775 21.1776 31.7329 20.8005 31.5309C20.4407 31.3514 20.1639 31.0228 20.0332 30.6119C19.9634 30.3919 19.9409 30.1612 19.9647 29.9372C19.7307 29.9275 19.4953 29.8664 19.2753 29.7487C18.916 29.5695 18.6391 29.2409 18.5084 28.83C18.3749 28.4104 18.4143 27.9531 18.6166 27.5749L18.8012 27.2297C18.6945 27.2592 18.5859 27.2781 18.476 27.2781C18.3485 27.2781 18.2203 27.258 18.0956 27.2176L16.4706 26.6937C15.8211 26.4841 15.463 25.7846 15.6725 25.1351L17.7818 18.597C17.8832 18.2829 18.1014 18.0268 18.3963 17.8757C18.6912 17.7249 19.0266 17.6977 19.3406 17.7987L20.9661 18.3231C21.3829 18.4577 21.6772 18.7946 21.7809 19.19C22.1579 19.2032 22.534 19.1288 22.9526 19.0456C23.8293 18.8715 24.808 18.6784 26.0253 19.2796V5.776C26.0253 4.49677 24.9846 3.45585 23.7052 3.45585H23.2074V9.10367C23.2074 9.2936 23.1027 9.46794 22.9349 9.557C22.7671 9.64629 22.5645 9.63537 22.4067 9.52939L19.4166 7.51376L16.3565 9.57667C16.2718 9.63382 16.1718 9.66439 16.0695 9.66439H15.8462C15.5626 9.66439 15.3327 9.43454 15.3327 9.15087V3.45585H3.46438C2.18514 3.45585 1.14423 4.49677 1.14423 5.776V34.6528C1.14423 35.9323 2.18514 36.973 3.46438 36.973H23.7049C24.9844 36.973 26.0251 35.9323 26.0251 34.6528ZM27.5445 30.7727C27.6228 31.0991 27.5576 31.4233 27.4593 31.6921L27.5115 31.7192C27.8308 31.8837 27.9946 31.6357 28.0364 31.5557C28.0833 31.4662 28.1914 31.1734 27.8398 30.9313L27.5445 30.7727ZM27.0363 32.6298L26.9964 32.609C26.9922 32.6161 26.9879 32.6228 26.9837 32.6298H27.0363ZM25.3806 31.0071L25.3799 31.0081L25.1151 31.5033C24.9463 31.8192 25.2067 32.2077 25.4678 32.3471C25.5654 32.3999 25.8643 32.559 26.1367 32.0499L26.3292 31.6898C26.3294 31.6896 26.3295 31.6892 26.3296 31.6888C26.6937 31.0075 26.5883 30.9095 26.2006 30.7019C26.0341 30.6126 25.8555 30.6544 25.7643 30.6866C25.5982 30.7453 25.4584 30.8623 25.3806 31.0071ZM24.5351 29.1814C24.2546 29.0316 23.9022 29.1376 23.7514 29.4194C23.7512 29.4199 23.7508 29.4202 23.7505 29.4208L23.1539 30.536V30.5364C23.0817 30.6715 23.069 30.839 23.1188 30.9955C23.1456 31.079 23.2144 31.2312 23.3789 31.3134C23.5267 31.3923 23.6835 31.4074 23.8322 31.3622C23.981 31.3171 24.1031 31.2178 24.1756 31.0824L24.2103 31.0176C24.2106 31.017 24.211 31.0165 24.2113 31.016L24.473 30.5268C24.4734 30.5259 24.4736 30.525 24.4741 30.5242H24.4744L24.773 29.9659C24.9235 29.6839 24.8169 29.3321 24.5351 29.1814ZM23.0356 28.2182C22.9905 28.0691 22.8912 27.9474 22.7558 27.8749C22.4747 27.724 22.1227 27.8311 21.9719 28.1126C21.9716 28.113 21.9713 28.1134 21.971 28.1138L21.4483 29.0911L21.0472 29.8413C20.975 29.9767 20.9623 30.1439 21.0121 30.3006C21.0385 30.3842 21.1077 30.5366 21.2721 30.6189C21.567 30.7764 21.9181 30.6687 22.0688 30.3878L22.2486 30.0515C22.2488 30.0511 22.2492 30.0507 22.2495 30.0503L22.8452 28.9366C22.8454 28.9362 22.8455 28.9357 22.8457 28.9353L22.9931 28.6591C23.0658 28.5235 23.0808 28.367 23.0356 28.2182ZM20.9602 26.5389C20.8311 26.4781 20.6844 26.4671 20.5446 26.5095C20.3955 26.5547 20.2738 26.654 20.2013 26.7893L19.9817 27.1999C19.9816 27.2 19.9815 27.2001 19.9815 27.2002L19.522 28.0594C19.4498 28.1945 19.4371 28.362 19.4869 28.5188C19.5136 28.6021 19.5825 28.7545 19.7473 28.8367C20.0405 28.9942 20.3922 28.8876 20.543 28.6064C20.5435 28.6055 20.5443 28.6047 20.5447 28.6038L21.0665 27.6282V27.6278C21.0665 27.6278 21.0665 27.6278 21.0665 27.6275L21.223 27.3357C21.2815 27.226 21.4587 26.8946 20.9602 26.5389ZM20.7864 19.5661C20.8215 19.4574 20.7593 19.3357 20.6503 19.3006L19.025 18.7762C19.0026 18.7689 18.9814 18.7661 18.9618 18.7661C18.919 18.7661 18.8844 18.7796 18.8642 18.79C18.835 18.805 18.7822 18.8409 18.7593 18.9123L16.6498 25.4504C16.6147 25.5594 16.677 25.6811 16.7858 25.7162L18.4111 26.2404C18.4828 26.2638 18.5427 26.2417 18.572 26.2271C18.6012 26.212 18.6541 26.1759 18.6769 26.1047L19.0437 24.9677C19.0568 24.922 19.0681 24.876 19.0828 24.8306C19.0879 24.8148 19.0958 24.8011 19.1023 24.7862L20.7864 19.5661ZM29.1289 32.2237V31.2823C29.1251 31.2828 29.1214 31.2842 29.1176 31.2846C29.1266 31.5468 29.0651 31.8061 28.9458 32.0332C28.688 32.5247 28.2156 32.7991 27.7121 32.7991C27.493 32.7991 27.268 32.7464 27.0521 32.6374V34.5313C28.2176 34.4091 29.1289 33.4209 29.1289 32.2237ZM33.0843 26.1765C32.7325 25.6419 31.2164 24.8927 30.2128 24.3973C29.7605 24.1739 29.37 23.981 29.0822 23.8142C29.0608 23.8018 29.0404 23.7878 29.021 23.7727C28.5517 23.4016 27.9649 23.5945 27.0469 23.9409C25.8989 24.3731 24.3262 24.9639 23.0541 23.2538C22.9468 23.1091 22.9231 22.9189 22.9913 22.7524C23.1621 22.3358 23.6492 21.8447 24.4298 21.0781C24.609 20.9019 24.7929 20.7214 24.9718 20.5409C25.1178 20.3931 25.2649 20.2547 25.4118 20.1256C24.5807 19.7692 23.9087 19.9029 23.1528 20.0531C22.6771 20.1476 22.189 20.2427 21.6578 20.2106L20.0277 25.2629C19.9916 25.3918 19.9616 25.5218 19.9436 25.6526C20.0389 25.6011 20.1405 25.5586 20.2469 25.5266C20.6584 25.4008 21.0927 25.4443 21.4701 25.6463C21.4935 25.6587 21.5156 25.673 21.5366 25.6887C21.9606 25.9863 22.2206 26.3747 22.2999 26.7903C22.6135 26.7542 22.9412 26.8094 23.2407 26.9695C23.6178 27.171 23.8943 27.509 24.0187 27.9203C24.0367 27.9794 24.0511 28.0393 24.0622 28.0994C24.3808 28.0583 24.7151 28.1132 25.0197 28.2756C25.3931 28.4756 25.6533 28.8035 25.7799 29.1759C25.9268 28.9646 26.2101 28.8914 26.4425 29.0152L28.146 29.9298C28.1752 29.9393 28.2042 29.9505 28.2321 29.9656C28.2327 29.9656 28.233 29.9659 28.2338 29.9663L28.659 30.194C28.8035 30.2709 28.9697 30.2866 29.1284 30.2391C29.2866 30.1909 29.4162 30.0853 29.4931 29.9413C29.5704 29.7968 29.5864 29.6304 29.5386 29.4719C29.4904 29.3141 29.3851 29.1847 29.2421 29.1075L29.2408 29.1068C29.2233 29.0975 29.2083 29.0854 29.1924 29.0743L27.2248 28.0223C26.9748 27.8889 26.8805 27.5776 27.0142 27.3276C27.1476 27.0772 27.4602 26.9825 27.7089 27.1169L29.7279 28.1964C29.7452 28.2057 29.7599 28.2177 29.7757 28.2286L30.6118 28.6759C30.918 28.8387 31.2998 28.7234 31.4633 28.4175C31.6211 28.1223 31.5167 27.7574 31.2334 27.5854L28.4608 26.0806C28.2117 25.9452 28.1191 25.6337 28.2546 25.3842C28.3899 25.1351 28.7015 25.0436 28.9509 25.178L31.6641 26.6505C31.6724 26.6545 31.6811 26.6566 31.6893 26.661L32.5324 27.112C32.8708 27.2922 32.9962 27.1569 33.0433 27.105C33.2219 26.909 33.2778 26.47 33.0843 26.1765ZM36.8413 25.2438L34.4492 18.8038C34.4232 18.7333 34.369 18.6997 34.3389 18.686C34.3199 18.6773 34.2881 18.6662 34.2496 18.6662C34.2276 18.6662 34.2035 18.6697 34.1781 18.6791L32.5771 19.2738C32.5065 19.2998 32.4728 19.354 32.459 19.3841C32.4453 19.4141 32.4263 19.475 32.4524 19.5452L34.8444 25.9852C34.8705 26.0557 34.9247 26.0894 34.9547 26.1032C34.9845 26.1165 35.0456 26.1356 35.1159 26.1099L36.7165 25.5151C36.787 25.4891 36.8208 25.4349 36.8345 25.4049C36.8483 25.3749 36.8673 25.314 36.8413 25.2438Z" fill="#001E60"/>
</g>
<defs>
<clipPath id="clip0_681_2103">
<rect width="38" height="38" fill="#001E60"/>
</clipPath>
</defs>
</svg>
