<svg width="43" height="43" viewBox="0 0 43 43" fill="#001E60" xmlns="http://www.w3.org/2000/svg">
<path d="M9.40625 16.7969C13.4815 16.7969 16.7969 13.4808 16.7969 9.40625C16.7969 5.3317 13.4815 2.01562 9.40625 2.01562C5.33104 2.01562 2.01562 5.3317 2.01562 9.40625C2.01562 13.4808 5.33104 16.7969 9.40625 16.7969ZM9.40625 3.35938C12.7407 3.35938 15.4531 6.07181 15.4531 9.40625C15.4531 12.7407 12.7407 15.4531 9.40625 15.4531C6.07181 15.4531 3.35938 12.7407 3.35938 9.40625C3.35938 6.07181 6.07181 3.35938 9.40625 3.35938Z" fill="#001E60"/>
<path d="M33.5938 26.2031C32.6588 26.2031 31.7343 26.3816 30.8465 26.7346C30.5014 26.8724 30.3335 27.2621 30.4699 27.6072C30.6071 27.9524 30.9988 28.1164 31.3426 27.9839C32.0722 27.6938 32.8294 27.5469 33.5938 27.5469C36.9282 27.5469 39.6406 30.2593 39.6406 33.5938C39.6406 36.9282 36.9282 39.6406 33.5938 39.6406C30.2593 39.6406 27.5469 36.9282 27.5469 33.5938C27.5469 32.83 27.6938 32.0715 27.9832 31.3419C28.1197 30.9968 27.951 30.6057 27.6059 30.4693C27.2654 30.3315 26.8711 30.5008 26.7339 30.8459C26.3816 31.7343 26.2031 32.6594 26.2031 33.5938C26.2031 37.6683 29.5185 40.9844 33.5938 40.9844C37.669 40.9844 40.9844 37.6683 40.9844 33.5938C40.9844 29.5192 37.669 26.2031 33.5938 26.2031Z" fill="#001E60"/>
<path d="M37.625 12.0938C37.5425 12.0938 37.4652 12.1122 37.3841 12.1181C36.2033 10.0533 33.9842 8.73438 31.5781 8.73438H18.8125C18.4411 8.73438 18.1406 9.03488 18.1406 9.40625C18.1406 9.77762 18.4411 10.0781 18.8125 10.0781H31.5781C33.3926 10.0781 35.081 11.0097 36.0595 12.4989C34.998 13.0639 34.2656 14.1687 34.2656 15.4531C34.2656 16.7361 34.9963 17.8397 36.0558 18.4054C35.8585 18.7074 35.6375 18.997 35.3732 19.2534C34.3706 20.2691 33.0229 20.8281 31.5781 20.8281H24.7914C24.4792 19.2963 23.1222 18.1406 21.5 18.1406C19.8778 18.1406 18.5208 19.2963 18.2086 20.8281H11.4219C9.01577 20.8281 6.79667 22.147 5.61588 24.2119C5.53485 24.206 5.45751 24.1875 5.375 24.1875C3.52275 24.1875 2.01562 25.694 2.01562 27.5469C2.01562 29.3998 3.52275 30.9062 5.375 30.9062C5.45857 30.9062 5.53698 30.8876 5.619 30.8816C5.90851 31.3961 6.25265 31.8862 6.6702 32.292C7.92734 33.5649 9.6149 34.2656 11.4219 34.2656H24.1875C24.5589 34.2656 24.8594 33.9651 24.8594 33.5938C24.8594 33.2224 24.5589 32.9219 24.1875 32.9219H11.4219C9.97708 32.9219 8.62939 32.3629 7.61699 31.338C7.35888 31.0874 7.1399 30.8 6.9438 30.4993C8.00337 29.9336 8.73438 28.83 8.73438 27.5469C8.73438 26.2624 8.00197 25.1577 6.94052 24.5927C7.91897 23.1035 9.60735 22.1719 11.4219 22.1719H18.2086C18.5208 23.7037 19.8778 24.8594 21.5 24.8594C23.1222 24.8594 24.4792 23.7037 24.7914 22.1719H31.5781C33.3851 22.1719 35.0727 21.4711 36.32 20.2074C36.7453 19.7943 37.0909 19.3029 37.3808 18.7878C37.4629 18.7939 37.5413 18.8125 37.625 18.8125C39.4772 18.8125 40.9844 17.306 40.9844 15.4531C40.9844 13.6002 39.4772 12.0938 37.625 12.0938ZM5.375 29.5625C4.26352 29.5625 3.35938 28.6584 3.35938 27.5469C3.35938 26.4354 4.26352 25.5312 5.375 25.5312C6.48648 25.5312 7.39062 26.4354 7.39062 27.5469C7.39062 28.6584 6.48648 29.5625 5.375 29.5625ZM21.5 23.5156C20.3885 23.5156 19.4844 22.6115 19.4844 21.5C19.4844 20.3885 20.3885 19.4844 21.5 19.4844C22.6115 19.4844 23.5156 20.3885 23.5156 21.5C23.5156 22.6115 22.6115 23.5156 21.5 23.5156ZM37.625 17.4688C36.5135 17.4688 35.6094 16.5646 35.6094 15.4531C35.6094 14.3416 36.5135 13.4375 37.625 13.4375C38.7365 13.4375 39.6406 14.3416 39.6406 15.4531C39.6406 16.5646 38.7365 17.4688 37.625 17.4688Z" fill="#001E60"/>
<path d="M32.9219 35.6094C33.0938 35.6094 33.2657 35.5438 33.3969 35.4125L36.0844 32.725C36.3469 32.4626 36.3469 32.0374 36.0844 31.775C35.822 31.5125 35.3968 31.5125 35.1343 31.775L32.9219 33.9874L32.0532 33.1187C31.7907 32.8563 31.3655 32.8563 31.1031 33.1187C30.8406 33.3812 30.8406 33.8063 31.1031 34.0688L32.4468 35.4125C32.5781 35.5438 32.75 35.6094 32.9219 35.6094Z" fill="#001E60"/>
<path d="M6.71875 10.0781H10.4718L10.275 10.275C10.0125 10.5374 10.0125 10.9626 10.275 11.225C10.4062 11.3563 10.5781 11.4219 10.75 11.4219C10.9219 11.4219 11.0938 11.3563 11.225 11.225L12.5688 9.88129C12.8312 9.61884 12.8312 9.19366 12.5688 8.93121L11.225 7.58746C10.9626 7.32501 10.5374 7.32501 10.275 7.58746C10.0125 7.84991 10.0125 8.27509 10.275 8.53754L10.4718 8.73438H6.71875C6.34738 8.73438 6.04688 9.03488 6.04688 9.40625C6.04688 9.77762 6.34738 10.0781 6.71875 10.0781Z" fill="#001E60"/>
<path d="M29.3188 29.3178C29.5813 29.0555 29.5813 28.63 29.3188 28.3677C29.0564 28.1053 28.631 28.1053 28.3687 28.3677C28.1063 28.63 28.1063 29.0555 28.3687 29.3178C28.631 29.5802 29.0564 29.5802 29.3188 29.3178Z" fill="#001E60"/>
</svg>
