<svg xmlns="http://www.w3.org/2000/svg" width="46" height="46" viewBox="0 0 46 46" fill="#001E60">
<path d="M42.8745 24.0315C40.7607 21.9272 38.317 23.8967 38.317 23.8967V12.8189C38.317 12.4469 38.0156 12.145 37.6436 12.145C37.2712 12.145 36.9697 12.4469 36.9697 12.8189V24.8447C36.9697 24.8447 33.7567 27.3775 32.3757 27.9966V8.05046C32.3757 7.12324 33.1299 6.36904 34.0572 6.36904H35.2883C36.2155 6.36904 36.9697 7.12324 36.9697 8.05046V10.0604C36.9697 10.4327 37.2712 10.7342 37.6436 10.7342C38.0156 10.7342 38.317 10.4327 38.317 10.0604V8.05046C38.317 6.38027 36.9585 5.02173 35.2883 5.02173H34.0572C32.387 5.02173 31.0281 6.38027 31.0281 8.05046V28.5308C30.6262 28.6434 30.2139 28.7199 29.7948 28.7603V14.5547C29.7948 12.8761 28.4293 11.5105 26.751 11.5105H25.5497C23.8714 11.5105 22.5059 12.8761 22.5059 14.5547V21.4201L21.2723 22.0749V19.7902C21.2723 18.279 20.0429 17.0496 18.532 17.0496H16.7239C15.2127 17.0496 13.9836 18.279 13.9836 19.7902V25.9439L11.7835 27.1115L5.6053 28.8771C4.53033 29.1842 3.63259 29.8882 3.07808 30.859C2.52322 31.8301 2.37267 32.9608 2.65413 34.0428L3.34516 36.7017C3.43851 37.0617 3.80631 37.2776 4.16674 37.1842C4.52682 37.0905 4.74301 36.7227 4.6493 36.3623L3.95828 33.7038C3.55749 32.1617 4.44365 30.6105 5.97591 30.1729L11.6245 28.5585L15.87 39.8894C16.1543 40.6481 16.1094 42.8128 13.8636 43.6105L9.59495 44.5802C8.10726 44.9179 6.64132 44.0261 6.25738 42.5493L5.39087 39.2149C5.29717 38.8548 4.92937 38.6386 4.56929 38.7319C4.20886 38.8256 3.99302 39.1934 4.08637 39.5539L4.95323 42.8886C5.44036 44.762 7.10458 45.9998 8.95727 45.9998C10.3186 45.9998 14.1623 44.9245 14.1623 44.9245C15.332 44.6592 16.3294 43.9011 16.8983 42.8455C17.3679 41.9744 17.5072 40.9721 17.3058 40.0171L32.0739 36.4016C33.2952 36.1022 34.4548 35.5221 35.4262 34.7237L42.6131 28.8185C44.8041 26.8753 43.5189 24.6727 42.8745 24.0315ZM25.5497 12.8582H26.751C27.6863 12.8582 28.4472 13.6194 28.4472 14.5547V28.794L24.1953 28.7922C23.8047 28.7887 24.075 28.5308 24.0964 28.5132L25.3209 27.5214C26.4632 26.5959 27.2093 25.3093 27.5382 23.6967C27.747 22.6737 27.3567 21.6496 26.5204 21.0242C25.7392 20.4402 24.7344 20.3279 23.8535 20.7139V14.5547C23.8535 13.6194 24.6144 12.8582 25.5497 12.8582ZM15.3313 19.7902C15.3313 19.0223 15.956 18.3973 16.7239 18.3973H18.532C19.2999 18.3973 19.9249 19.0223 19.9249 19.7902V22.7902L15.3309 25.2286V19.7902H15.3313ZM41.7578 27.7776L34.5706 33.6828C33.7543 34.3538 32.78 34.8413 31.7535 35.0925L16.8765 38.7351L12.8757 28.058L24.2992 21.9942C24.7635 21.7475 25.2924 21.7886 25.7132 22.1034C26.134 22.4182 26.3228 22.913 26.2179 23.4275C25.9529 24.7257 25.3658 25.7508 24.4726 26.4742L23.2481 27.4663C22.7463 27.8727 22.5613 28.5286 22.7768 29.1375C22.9923 29.7461 23.5489 30.1399 24.1946 30.1399L29.1041 30.142H29.1077C30.8554 30.142 32.5351 29.6106 33.9649 28.6052L39.4517 24.7468C40.2199 24.2063 41.2542 24.3018 41.9105 24.9735C42.2884 25.3595 43.0283 26.5068 41.7578 27.7776Z" fill="#001E60"/>
<path d="M13.2897 40.3212C13.2897 38.8574 12.0989 37.6663 10.6351 37.6663C9.17126 37.6663 7.98047 38.8574 7.98047 40.3212C7.98047 41.7847 9.17126 42.9758 10.6351 42.9758C12.0989 42.9758 13.2897 41.7847 13.2897 40.3212ZM9.32813 40.3212C9.32813 39.6004 9.91423 39.0139 10.6351 39.0139C11.3556 39.0139 11.942 39.6004 11.942 40.3212C11.942 41.0417 11.3559 41.6282 10.6351 41.6282C9.91423 41.6282 9.32813 41.0417 9.32813 40.3212Z" fill="#001E60"/>
<path d="M5.78908 21.1566L15.5842 11.286L17.7875 12.4255C18.5768 12.8337 19.5374 12.694 20.1775 12.0777L25.5092 6.94538C25.5092 6.94538 25.3625 9.5814 27.5823 9.5814C28.725 9.5814 29.655 8.65137 29.655 7.50831V2.07274C29.655 2.06642 29.6547 2.05975 29.6547 2.05308C29.6473 0.634876 28.6102 0 27.5823 0H22.1941C21.051 0 20.1213 0.930029 20.1213 2.07274C20.1213 4.35113 22.4401 4.14547 22.4401 4.14547L18.3725 8.06072L16.1373 6.90467C15.3291 6.48634 14.3552 6.6397 13.7136 7.28546L2.84668 18.2363C2.04159 19.0477 2.0465 20.3627 2.85791 21.1678C3.24887 21.5556 4.5839 22.3617 5.78908 21.1566ZM3.80303 19.1856L14.67 8.23479C14.8104 8.09371 15.0357 7.84663 15.5182 8.10178L18.1823 9.47962C18.4389 9.61228 18.7512 9.56701 18.9593 9.36662L24.5788 3.95736C24.7768 3.76679 24.8392 3.4748 24.7364 3.22001C24.6336 2.96486 24.3865 2.79816 24.1113 2.79816H22.1941C21.7943 2.79816 21.469 2.47282 21.469 2.07274C21.469 1.673 21.7943 1.34766 22.1941 1.34766H27.5823C27.7806 1.34766 28.307 1.34766 28.307 2.06852C28.307 2.07449 28.3074 2.08046 28.3074 2.08677V7.50831C28.3074 7.90805 27.982 8.23339 27.5823 8.23339C27.1822 8.23339 26.8569 7.90805 26.8569 7.50831V5.36153C26.8569 5.09129 26.6954 4.84703 26.4469 4.74139C26.1985 4.6354 25.9107 4.68875 25.7159 4.87616L19.2429 11.107C19.019 11.3225 18.6828 11.3716 18.4069 11.2288L15.7643 9.86181C15.5028 9.7267 15.1838 9.77688 14.9764 9.9857L4.83273 20.2072C4.39053 20.6494 3.94376 20.3469 3.80689 20.2111C3.52332 19.9293 3.52156 19.4692 3.80303 19.1856Z" fill="#001E60"/>
</svg>