<svg width="62" height="62" viewBox="0 0 62 62" fill="none" xmlns="http://www.w3.org/2000/svg">
<rect x="12" y="10" width="40" height="42" rx="20" fill="#0053E2"/>
<path fill-rule="evenodd" clip-rule="evenodd" d="M53.5525 18.3946L53.1908 17.7488C52.7243 16.9678 52.0663 16.3187 51.2792 15.863L33.945 5.86547C33.1602 5.41016 32.2692 5.16957 31.3617 5.16797H30.6125C29.705 5.16957 28.814 5.41016 28.0292 5.86547L10.695 15.8888C9.91217 16.3416 9.26192 16.9918 8.80917 17.7746L8.4475 18.4205C7.99219 19.2054 7.7516 20.0964 7.75 21.0038V41.0246C7.7516 41.9322 7.99219 42.8231 8.4475 43.608L8.80917 44.2538C9.27362 45.0275 9.92126 45.6751 10.695 46.1396L28.055 56.1371C28.8359 56.6019 29.7295 56.8431 30.6383 56.8346H31.3617C32.2692 56.8331 33.1602 56.5926 33.945 56.1371L51.2792 46.1138C52.0696 45.6713 52.7225 45.0185 53.165 44.228L53.5525 43.5821C54.0022 42.795 54.2425 41.9055 54.25 40.9988V20.978C54.2484 20.0705 54.0079 19.1796 53.5525 18.3946ZM30.6125 10.3346H31.3617L46.5 19.0663L31 28.0046L15.5 19.0663L30.6125 10.3346ZM33.5833 50.3763L48.6958 41.6446L49.0833 40.9988V23.5355L33.5833 32.4996V50.3763Z" fill="white"/>
</svg>
