<svg width="69" height="68" viewBox="0 0 69 68" fill="none" xmlns="http://www.w3.org/2000/svg">
<g clip-path="url(#clip0_735_1154)">
<path d="M65.1033 9.50679L62.1547 6.9857L65.1033 4.46513C65.5618 4.07256 65.7187 3.46069 65.5033 2.90556C65.287 2.34992 64.7527 1.99108 64.1415 1.99108H51.9399V1.48195C51.9399 0.939605 51.4872 0.5 50.9287 0.5C50.3701 0.5 49.9174 0.939605 49.9174 1.48195V14.7253L41.612 19.1045C41.5662 18.7497 41.4567 18.4011 41.2835 18.0729L40.1132 15.8545C39.3099 14.3312 37.38 13.7275 35.8123 14.507L34.9074 14.9569C34.1472 15.3351 33.5845 15.9772 33.3223 16.7664C33.0602 17.5551 33.1302 18.396 33.5197 19.1336L34.69 21.3526C34.9632 21.8704 35.367 22.2804 35.8418 22.5676C35.2206 23.3799 34.9258 24.3787 34.6226 25.4164L34.4047 26.1658C34.2525 26.6877 34.5652 27.2305 35.1027 27.3777C35.1943 27.4033 35.2869 27.4151 35.378 27.4151C35.8192 27.4151 36.2245 27.1329 36.3509 26.6999L36.5688 25.9521C37.0121 24.4344 37.2842 23.6217 38.1507 23.1647L39.7042 22.3453L39.8958 22.2502C39.9595 22.2185 40.019 22.1827 40.0795 22.1475L51.1514 16.3094C51.0813 17.6533 50.3364 18.923 49.1099 19.6463L41.9099 23.8941C41.9015 23.8987 41.8931 23.9033 41.8852 23.9084L39.6442 25.2303C39.1672 25.512 39.0151 26.1162 39.3052 26.5798C39.5784 27.0169 40.1469 27.1723 40.6107 26.953L38.9103 31.944L37.6674 32.4388L34.2878 33.7837L35.2617 30.4407C35.4133 29.9188 35.1011 29.3759 34.5636 29.2282C34.0256 29.0799 33.4671 29.3841 33.315 29.906L31.7762 35.1899C31.7562 35.2579 31.743 35.3325 31.7399 35.4036L31.3372 42.5865C31.3251 42.8605 31.3851 43.3783 31.2545 43.6457L26.782 52.7823H23.5318C21.6277 52.7823 20.079 54.2862 20.079 56.1345V58.969C19.6431 58.7752 19.1593 58.6669 18.6492 58.6669H10.3954C8.4918 58.6669 6.94305 60.1702 6.94305 62.0191V65.536H4.51517C3.95663 65.536 3.50391 65.9756 3.50391 66.5179C3.50391 67.0603 3.95663 67.4999 4.51517 67.4999H64.1404C64.699 67.4999 65.1517 67.0603 65.1517 66.5179C65.1517 65.9756 64.699 65.536 64.1404 65.536H61.5104V40.2255C61.5104 38.3771 59.9616 36.8732 58.0581 36.8732H51.9399V19.7424C53.0612 18.2667 53.4766 16.3324 52.9559 14.4943C52.8744 14.2054 52.6611 13.9683 52.3769 13.8512C52.2374 13.7934 52.0879 13.7679 51.9399 13.7735V11.9808H64.1409C64.7527 11.9808 65.287 11.622 65.5028 11.0669C65.7187 10.5117 65.5618 9.89936 65.1033 9.50679ZM35.2475 17.3696C35.3438 17.0797 35.5502 16.8436 35.8292 16.7051L36.7341 16.2552C36.9047 16.1704 37.0868 16.13 37.2668 16.13C37.6932 16.13 38.1054 16.3564 38.3129 16.7495L39.4836 18.9685C39.7568 19.4868 39.58 20.1151 39.0941 20.4325L38.7645 20.6058L38.0691 20.9518C37.4937 21.2381 36.7852 21.0163 36.4904 20.457L35.3196 18.2386C35.1769 17.9676 35.1511 17.6589 35.2475 17.3696ZM33.2155 53.0844C32.8717 52.9321 32.4979 52.8324 32.1052 52.7971L33.2155 51.3653V53.0844ZM38.017 45.172C38.5034 44.6062 38.6377 43.9452 38.7461 43.4126C38.7735 43.2858 39.2725 40.639 39.2725 40.639C39.2725 40.639 39.7447 40.9247 39.7942 40.9452C39.8284 40.96 39.8526 40.9927 39.8563 41.0311L40.4065 46.4612H37.0173L38.017 45.172ZM43.9972 39.7521L43.1433 46.4566H42.4385L41.8694 40.8389C41.7967 40.1191 41.343 39.4909 40.6781 39.1786L39.661 38.5524L40.3385 34.9062C40.3385 34.9062 43.1928 38.1987 43.2592 38.2825C43.8498 39.0283 44.052 39.3268 43.9972 39.7521ZM33.0738 44.5044C33.2781 43.9074 33.3729 43.2996 33.3571 42.6816L33.7245 36.1305L38.4018 34.2693L37.5516 38.8422C37.549 38.8545 37.5464 38.8673 37.5448 38.8795L36.8415 42.6607C36.7499 43.0522 36.6699 43.6462 36.4182 43.9687L29.5847 52.7823H29.0214L33.0738 44.5044ZM8.96559 62.0186C8.96559 61.2534 9.60678 60.6308 10.3954 60.6308H18.6492C19.4378 60.6308 20.0795 61.2534 20.0795 62.0186V65.536H8.96559V62.0186ZM22.1015 62.0186V56.1345C22.1015 55.3688 22.7432 54.7462 23.5318 54.7462H31.7857C32.5743 54.7462 33.2155 55.3688 33.2155 56.1345V65.536H22.1021V62.0186H22.1015ZM59.4879 40.2255V65.536H48.3745V59.6483C48.3745 59.106 47.9217 58.6664 47.3632 58.6664C46.8041 58.6664 46.3514 59.106 46.3514 59.6483V65.536H35.238V49.8129C35.238 49.0477 35.8792 48.4251 36.6678 48.4251H44.9216C45.7102 48.4251 46.3514 49.0477 46.3514 49.8129V54.7355C46.3514 55.2778 46.8041 55.7174 47.3627 55.7174C47.9217 55.7174 48.3739 55.2778 48.3739 54.7355V40.2255C48.3739 39.4597 49.0156 38.8371 49.8042 38.8371H50.9181C50.9213 38.8371 50.925 38.8376 50.9287 38.8376C50.9318 38.8376 50.9355 38.8371 50.9387 38.8371H58.0576C58.8461 38.8371 59.4879 39.4602 59.4879 40.2255ZM49.8042 36.8732C47.9007 36.8732 46.3519 38.3771 46.3519 40.2255V46.7633C45.9897 46.6028 45.5949 46.5011 45.1796 46.4714L46.0045 39.9939C46.1666 38.7313 45.5033 37.8945 44.8621 37.0848C44.7942 36.999 40.8634 32.4669 40.8634 32.4669L43.275 25.3873L49.9174 21.4686V36.8732H49.8042ZM51.9399 10.0164V3.9555H62.6385L60.3344 5.92554C60.0206 6.1939 59.8406 6.58035 59.8406 6.98622C59.8406 7.39208 60.0206 7.77853 60.3344 8.04689L62.6385 10.0169H51.9399V10.0164Z" fill="#0053E2"/>
</g>
<defs>
<clipPath id="clip0_735_1154">
<rect width="69" height="67" fill="white" transform="translate(0 0.5)"/>
</clipPath>
</defs>
</svg>
