<svg width="37" height="41" viewBox="0 0 37 41" fill="#001E60" xmlns="http://www.w3.org/2000/svg">
<path d="M17.5566 9.23218L9.21173 14.0502C8.63052 14.3857 8.26953 15.011 8.26953 15.6821V25.318C8.26953 25.989 8.63052 26.6143 9.21173 26.9499L17.5566 31.7678C17.8472 31.9356 18.173 32.0195 18.4988 32.0195C18.8245 32.0195 19.1505 31.9357 19.4411 31.7678L27.7859 26.9499C28.3671 26.6143 28.7282 25.9889 28.7282 25.318V15.682C28.7282 15.0109 28.3671 14.3855 27.7859 14.0501L19.441 9.2321C18.8599 8.89658 18.1377 8.89658 17.5566 9.23218ZM18.1572 10.2724C18.3678 10.1508 18.6296 10.1508 18.8404 10.2724L22.1269 12.1699L13.702 17.037L10.0713 14.9408L18.1572 10.2724ZM9.81232 25.9097C9.60155 25.7879 9.47062 25.5612 9.47062 25.318V15.981L13.1172 18.0864V21.1617C13.1172 21.4933 13.3861 21.7622 13.7178 21.7622C14.0495 21.7622 14.3184 21.4933 14.3184 21.1617V18.7799L17.8982 20.8467V30.578L9.81232 25.9097ZM27.527 15.682V25.3179C27.527 25.5612 27.396 25.7879 27.1853 25.9096L19.0994 30.578V20.8467L25.7395 17.0131C26.0267 16.8472 26.1251 16.4799 25.9593 16.1927C25.7935 15.9054 25.426 15.8069 25.1389 15.9728L18.4988 19.8065L14.9028 17.7303L23.3278 12.8632L27.1853 15.0903C27.396 15.212 27.527 15.4387 27.527 15.682Z" fill="#001E60"/>
<path d="M18.499 5.05269C19.892 5.05269 21.0253 3.91942 21.0253 2.52638C21.0253 1.13335 19.892 0 18.499 0C17.1059 0 15.9727 1.13327 15.9727 2.5263C15.9727 3.91934 17.1059 5.05269 18.499 5.05269ZM18.499 1.20117C19.2297 1.20117 19.8242 1.79559 19.8242 2.5263C19.8242 3.25702 19.2297 3.85152 18.499 3.85152C17.7682 3.85152 17.1738 3.2571 17.1738 2.52638C17.1738 1.79567 17.7682 1.20117 18.499 1.20117Z" fill="#001E60"/>
<path d="M33.9052 14.0395C35.2983 14.0395 36.4316 12.9062 36.4316 11.5132C36.4316 10.1202 35.2983 8.98682 33.9052 8.98682C32.5122 8.98682 31.3789 10.1202 31.3789 11.5132C31.3789 12.9062 32.5122 14.0395 33.9052 14.0395ZM33.9052 10.188C34.6359 10.188 35.2304 10.7825 35.2304 11.5132C35.2304 12.2439 34.6359 12.8383 33.9052 12.8383C33.1745 12.8383 32.5801 12.2439 32.5801 11.5132C32.5801 10.7825 33.1745 10.188 33.9052 10.188Z" fill="#001E60"/>
<path d="M33.9052 26.9604C32.5122 26.9604 31.3789 28.0937 31.3789 29.4868C31.3789 30.8798 32.5122 32.0131 33.9052 32.0131C35.2983 32.0131 36.4316 30.8798 36.4316 29.4868C36.4316 28.0937 35.2983 26.9604 33.9052 26.9604ZM33.9052 30.812C33.1745 30.812 32.5801 30.2175 32.5801 29.4868C32.5801 28.756 33.1745 28.1616 33.9052 28.1616C34.6359 28.1616 35.2304 28.756 35.2304 29.4868C35.2304 30.2175 34.6359 30.812 33.9052 30.812Z" fill="#001E60"/>
<path d="M18.499 35.9473C17.1059 35.9473 15.9727 37.0805 15.9727 38.4736C15.9727 39.8666 17.1059 41 18.499 41C19.892 41 21.0253 39.8667 21.0253 38.4736C21.0253 37.0806 19.892 35.9473 18.499 35.9473ZM18.499 39.7988C17.7682 39.7988 17.1738 39.2044 17.1738 38.4736C17.1738 37.7429 17.7682 37.1485 18.499 37.1485C19.2297 37.1485 19.8242 37.7429 19.8242 38.4736C19.8242 39.2044 19.2297 39.7988 18.499 39.7988Z" fill="#001E60"/>
<path d="M3.09271 26.9604C1.69967 26.9604 0.566406 28.0937 0.566406 29.4868C0.566406 30.8798 1.69967 32.0131 3.09271 32.0131C4.48575 32.0131 5.61902 30.8798 5.61902 29.4868C5.61902 28.0937 4.48575 26.9604 3.09271 26.9604ZM3.09271 30.812C2.362 30.812 1.76758 30.2175 1.76758 29.4868C1.76758 28.756 2.362 28.1616 3.09271 28.1616C3.82342 28.1616 4.41784 28.756 4.41784 29.4868C4.41784 30.2175 3.82342 30.812 3.09271 30.812Z" fill="#001E60"/>
<path d="M3.09271 8.98682C1.69967 8.98682 0.566406 10.1202 0.566406 11.5132C0.566406 12.9062 1.69967 14.0395 3.09271 14.0395C4.48575 14.0395 5.61902 12.9062 5.61902 11.5132C5.61902 10.1202 4.48575 8.98682 3.09271 8.98682ZM3.09271 12.8383C2.362 12.8383 1.76758 12.2439 1.76758 11.5132C1.76758 10.7825 2.362 10.188 3.09271 10.188C3.82342 10.188 4.41784 10.7825 4.41784 11.5132C4.41784 12.2439 3.82342 12.8383 3.09271 12.8383Z" fill="#001E60"/>
<path d="M6.94107 9.80068C7.04293 9.80068 7.14623 9.77474 7.24081 9.72012L14.9115 5.29148C15.1987 5.12564 15.2971 4.75832 15.1313 4.47108C14.9654 4.18376 14.5981 4.08535 14.3109 4.25127L6.64022 8.67991C6.35298 8.84575 6.25456 9.21307 6.42041 9.50031C6.53163 9.6929 6.73351 9.80068 6.94107 9.80068Z" fill="#001E60"/>
<path d="M30.3567 8.67989L22.6861 4.25125C22.3986 4.08533 22.0314 4.18383 21.8657 4.47107C21.6999 4.75831 21.7983 5.12562 22.0855 5.29147L29.7561 9.72011C29.8508 9.77472 29.954 9.80067 30.0559 9.80067C30.2634 9.80067 30.4653 9.69288 30.5765 9.50029C30.7424 9.21305 30.644 8.84573 30.3567 8.67989Z" fill="#001E60"/>
<path d="M33.4648 15.9985V25.0016C33.4648 25.3332 33.7337 25.6021 34.0654 25.6021C34.3972 25.6021 34.666 25.3332 34.666 25.0016V15.9985C34.666 15.6669 34.3972 15.3979 34.0654 15.3979C33.7337 15.3979 33.4648 15.6669 33.4648 15.9985Z" fill="#001E60"/>
<path d="M29.7561 31.2798L22.0855 35.7085C21.7983 35.8743 21.6999 36.2416 21.8657 36.5289C21.977 36.7215 22.1788 36.8292 22.3864 36.8292C22.4882 36.8292 22.5915 36.8033 22.6861 36.7487L30.3567 32.32C30.644 32.1542 30.7424 31.7869 30.5765 31.4996C30.4106 31.2124 30.0433 31.1139 29.7561 31.2798Z" fill="#001E60"/>
<path d="M14.9114 35.7085L7.24081 31.2798C6.95349 31.1139 6.58625 31.2124 6.42041 31.4996C6.25456 31.7869 6.35298 32.1542 6.64022 32.32L14.3108 36.7487C14.4054 36.8033 14.5087 36.8292 14.6106 36.8292C14.8181 36.8292 15.02 36.7214 15.1312 36.5289C15.2971 36.2416 15.1987 35.8743 14.9114 35.7085Z" fill="#001E60"/>
<path d="M3.5332 25.0016V15.9985C3.5332 15.6669 3.2643 15.3979 2.93262 15.3979C2.60093 15.3979 2.33203 15.6669 2.33203 15.9985V25.0016C2.33203 25.3332 2.60093 25.6021 2.93262 25.6021C3.2643 25.6021 3.5332 25.3332 3.5332 25.0016Z" fill="#001E60"/>
</svg>
