<svg width="56" height="56" viewBox="0 0 56 56" fill="#001E60" xmlns="http://www.w3.org/2000/svg">
<path d="M46.2418 17.6983H42.1698V13.3599C42.1698 10.8738 41.2344 8.50551 39.5359 6.69153C39.2201 6.35422 38.6907 6.33693 38.3537 6.6527C38.0165 6.96847 37.9991 7.49773 38.3148 7.83483C39.7219 9.33775 40.497 11.2999 40.497 13.3599V17.6983H23.4769C18.0962 17.6983 13.7187 22.0759 13.7187 27.4566V30.4489H12.4086C11.8874 30.4489 11.3973 30.6519 11.0286 31.0205L6.5893 35.4598V30.994C6.5893 30.3099 6.223 29.667 5.63314 29.3163C3.19036 27.8639 1.67278 25.1997 1.67278 22.3635V13.3599C1.67278 8.90156 5.29988 5.27447 9.75822 5.27447H32.4115C33.4565 5.27447 34.4729 5.47058 35.4326 5.85754C35.861 6.03003 36.3484 5.82287 36.5211 5.39456C36.6938 4.96614 36.4865 4.47876 36.0581 4.30606C34.8988 3.83859 33.6719 3.60168 32.4115 3.60168H9.75822C4.37752 3.60168 0 7.97920 0 13.3599V22.3635C0 25.7868 1.83094 29.0018 4.77827 30.7541C4.86358 30.8049 4.91652 30.8968 4.91652 30.9941V35.8637C4.91652 36.4748 5.28128 37.0207 5.84588 37.2546C6.22267 37.4357 6.99202 37.4096 7.48661 36.9284L12.2114 32.2035C12.2641 32.1507 12.3341 32.1218 12.4086 32.1218H13.7187V36.4601C13.7187 37.7772 13.9768 39.0553 14.4858 40.2588C14.6658 40.6842 15.1565 40.8829 15.5820 40.7033C16.0075 40.5234 16.2064 40.0326 16.0266 39.6072C15.6053 38.6110 15.3916 37.5522 15.3916 36.4602V27.4567C15.3916 22.9982 19.0187 19.3712 23.4770 19.3712H46.2418C50.7001 19.3712 54.3272 22.9982 54.3272 27.4567V36.4602C54.3272 39.3075 52.8713 41.8918 50.4326 43.3734C49.8578 43.7226 49.5007 44.3600 49.5007 45.0365V50.4917L44.1263 45.1172C43.7577 44.7486 43.2675 44.5456 42.7463 44.5456H23.4769C21.4479 44.5456 19.5077 43.7909 18.0135 42.4206C17.6731 42.1086 17.1441 42.1313 16.8317 42.4717C16.5195 42.8122 16.5423 43.3412 16.8828 43.6535C18.6863 45.3076 21.0280 46.2185 23.4768 46.2185H42.7460C42.8194 46.2185 42.8913 46.2482 42.9431 46.3002L48.6032 51.9602C49.0403 52.2961 49.4675 52.5557 50.2438 52.2865C50.8084 52.0525 51.1732 51.5066 51.1732 50.8955V45.0364C51.1732 44.9403 51.2222 44.8507 51.3009 44.8029C54.2434 43.0154 56 39.8967 56 36.4601V27.4566C56 22.0759 51.6225 17.6983 46.2418 17.6983Z" fill="#001E60"/>
<path d="M32.4969 37.6454C32.0065 36.9524 31.1130 36.4877 30.0939 36.4877C28.5488 36.4877 27.2918 37.5558 27.2918 38.8686C27.2918 40.1813 28.5489 41.2494 30.0939 41.2494C31.4497 41.2494 32.5834 40.4270 32.8410 39.3385C34.0747 38.8188 35.0460 37.7834 35.4675 36.4734C36.6890 36.1953 37.6037 35.1011 37.6037 33.7965V30.7804C37.6037 29.5210 36.7512 28.4576 35.5932 28.1352C35.3206 26.4553 34.4951 24.9139 33.2295 23.7489C31.8173 22.4490 29.9820 21.7332 28.0616 21.7332C24.2826 21.7332 21.1218 24.4552 20.5293 28.1353C19.3717 28.4580 18.5195 29.5212 18.5195 30.7803V33.7963C18.5195 35.3105 19.7514 36.5424 21.2656 36.5424C22.7798 36.5424 24.0117 35.3105 24.0117 33.7963V30.7803C24.0117 29.5996 23.2626 28.5906 22.2148 28.2034C22.7570 25.4324 25.1794 23.4059 28.0616 23.4059C30.9073 23.4059 33.3602 25.4679 33.9063 28.2043C32.8596 28.5921 32.1116 29.6004 32.1116 30.7803V33.7963C32.1116 34.9124 32.7812 35.8745 33.7395 36.3035C33.4736 36.8749 33.0362 37.3416 32.4969 37.6454ZM30.0939 39.5767C29.4284 39.5767 28.9646 39.2036 28.9646 38.8687C28.9646 38.5338 29.4284 38.1606 30.0939 38.1606C30.7595 38.1606 31.2233 38.5338 31.2233 38.8687C31.2233 39.2036 30.7594 39.5767 30.0939 39.5767ZM22.3389 33.7966C22.3389 34.3884 21.8574 34.8699 21.2656 34.8699C20.6738 34.8699 20.1923 34.3884 20.1923 33.7966V30.7805C20.1923 30.1887 20.6738 29.7072 21.2656 29.7072C21.8574 29.7072 22.3389 30.1887 22.3389 30.7805V33.7966ZM33.7843 30.7805C33.7843 30.1887 34.2658 29.7072 34.8576 29.7072C35.4495 29.7072 35.9309 30.1887 35.9309 30.7805V33.7966C35.9309 34.3884 35.4495 34.8699 34.8576 34.8699C34.2658 34.8699 33.7843 34.3884 33.7843 33.7966V30.7805Z" fill="#001E60"/>
<path d="M39.7778 26.4734H46.4399C46.9018 26.4734 47.2763 26.0991 47.2763 25.6371C47.2763 25.1751 46.9018 24.8007 46.4399 24.8007H39.7778C39.3159 24.8007 38.9414 25.1751 38.9414 25.6371C38.9414 26.0991 39.3159 26.4734 39.7778 26.4734Z" fill="#001E60"/>
<path d="M39.7778 30.2177H44.9148C45.3767 30.2177 45.7512 29.8433 45.7512 29.3813C45.7512 28.9193 45.3767 28.5449 44.9148 28.5449H39.7778C39.3159 28.5449 38.9414 28.9193 38.9414 29.3813C38.9414 29.8433 39.3159 30.2177 39.7778 30.2177Z" fill="#001E60"/>
<path d="M8.22745 15.7886C8.91614 15.7886 9.47444 15.2304 9.47444 14.5417C9.47444 13.853 8.91614 13.2947 8.22745 13.2947C7.53876 13.2947 6.98047 13.853 6.98047 14.5417C6.98047 15.2304 7.53876 15.7886 8.22745 15.7886Z" fill="#001E60"/>
<path d="M12.0048 15.7886C12.6935 15.7886 13.2518 15.2304 13.2518 14.5417C13.2518 13.853 12.6935 13.2947 12.0048 13.2947C11.3161 13.2947 10.7578 13.853 10.7578 14.5417C10.7578 15.2304 11.3161 15.7886 12.0048 15.7886Z" fill="#001E60"/>
<path d="M15.7587 15.7886C16.4474 15.7886 17.0057 15.2304 17.0057 14.5417C17.0057 13.853 16.4474 13.2947 15.7587 13.2947C15.07 13.2947 14.5117 13.853 14.5117 14.5417C14.5117 15.2304 15.07 15.7886 15.7587 15.7886Z" fill="#001E60"/>
</svg>
