<svg width="52" height="52" viewBox="0 0 52 52" fill="none" xmlns="http://www.w3.org/2000/svg">
<path d="M48.1167 0H9.33824V1.51456H25.2412V11.5999L26.4066 10.8542C26.8881 10.546 27.4452 10.3831 28.0179 10.3831C29.6695 10.3831 31.0134 11.7269 31.0134 13.3786C31.0134 15.0304 29.6695 16.3741 28.0179 16.3741C27.4452 16.3741 26.8881 16.2113 26.4066 15.9031L25.2412 15.1573V25.2427H17.7549C17.8737 24.8352 17.9348 24.4108 17.9348 23.9806C17.9348 21.4938 15.9115 19.4705 13.4247 19.4705C10.9379 19.4705 8.91467 21.4938 8.91467 23.9806C8.91467 24.4108 8.97575 24.8352 9.0946 25.2427H1.60831V3.78641C1.60831 2.53366 2.62741 1.51456 3.88016 1.51456H7.8363V0H3.88016C1.79228 0 0.09375 1.69853 0.09375 3.78641V41.1394H1.60831V26.7573H11.646L10.9003 25.5919C10.5921 25.1103 10.4292 24.5532 10.4292 23.9806C10.4292 22.3289 11.773 20.9851 13.4247 20.9851C15.0765 20.9851 16.4202 22.3288 16.4202 23.9806C16.4202 24.5532 16.2574 25.1103 15.9492 25.5918L15.2032 26.7573H25.2412V34.2912C24.8336 34.1724 24.4093 34.1113 23.979 34.1113C21.4922 34.1113 19.469 36.1344 19.469 38.6214C19.469 41.1083 21.4922 43.1314 23.979 43.1314C24.4093 43.1314 24.8336 43.0703 25.2412 42.9515V50.4854H3.88016C2.62741 50.4854 1.60831 49.4663 1.60831 48.2136V42.6602H0.09375V48.2136C0.09375 50.3015 1.79228 52 3.88016 52H48.1167C50.2046 52 51.9031 50.3015 51.9031 48.2136V3.78641C51.9031 1.69853 50.2046 0 48.1167 0ZM50.3886 25.2427H46.647V26.7573H50.3886V48.2136C50.3886 49.4663 49.3695 50.4854 48.1167 50.4854H26.7557V40.4001L25.5903 41.1458C25.1088 41.454 24.5516 41.6169 23.979 41.6169C22.3273 41.6169 20.9835 40.273 20.9835 38.6214C20.9835 36.9697 22.3273 35.6259 23.979 35.6259C24.5516 35.6259 25.1088 35.7887 25.5903 36.0969L26.7557 36.8427V26.7573H34.242C34.1232 27.1648 34.0621 27.5892 34.0621 28.0194C34.0621 30.5062 36.0853 32.5295 38.5721 32.5295C41.0589 32.5295 43.0822 30.5063 43.0822 28.0194C43.0822 27.5892 43.0211 27.1648 42.9023 26.7573H45.2334V25.2427H40.3508L41.0966 26.4081C41.4048 26.8897 41.5676 27.4468 41.5676 28.0194C41.5676 29.6711 40.2239 31.0149 38.5721 31.0149C36.9204 31.0149 35.5766 29.6711 35.5766 28.0194C35.5766 27.4468 35.7395 26.8897 36.0477 26.4082L36.7936 25.2427H26.7557V17.7088C27.1632 17.8276 27.5876 17.8887 28.0179 17.8887C30.5047 17.8887 32.5279 15.8656 32.5279 13.3786C32.5279 10.8917 30.5047 8.86857 28.0179 8.86857C27.5876 8.86857 27.1632 8.92966 26.7557 9.0485V1.51456H48.1167C49.3695 1.51456 50.3886 2.53366 50.3886 3.78641V25.2427Z" fill="white"/>
<path d="M13.6102 15.7831C12.7779 15.7831 11.9749 15.4453 11.4621 14.8794L10.3398 15.8964C11.135 16.7738 12.3574 17.2976 13.6102 17.2976C15.1198 17.2976 16.4354 16.3048 16.6704 14.9885C16.8487 13.99 16.3846 12.6816 14.5474 12.0039C13.5577 11.6388 12.6388 11.2404 12.3949 11.1333C12.1698 10.9652 12.0608 10.6989 12.1022 10.4109C12.1554 10.0403 12.4429 9.74204 12.8711 9.6131C14.0906 9.24587 15.1977 10.1384 15.2088 10.1475L16.18 8.98536C16.1102 8.9267 14.4483 7.55632 12.4342 8.16285C11.4417 8.46173 10.7401 9.24072 10.603 10.1956C10.475 11.0865 10.861 11.9432 11.61 12.4316C11.6435 12.4534 11.6785 12.4725 11.7151 12.4887C11.7598 12.5087 12.8241 12.9825 14.0233 13.4248C14.8508 13.7301 15.2723 14.2029 15.1795 14.7222C15.0864 15.2438 14.4739 15.7831 13.6102 15.7831Z" fill="white"/>
<path d="M40.8885 14.1339L39.3067 8.64796L37.8406 8.64594L36.2541 14.1316L35.1303 8.44995L33.6445 8.74388L35.3658 17.4453L36.8754 17.435L38.5723 11.5676L40.267 17.445L41.7758 17.4347L43.5026 8.75862L42.0171 8.46298L40.8885 14.1339Z" fill="white"/>
<path d="M13.9633 43.0354V35.7221H15.9909V34.2075H10.4375V35.7221H12.4487V43.0354H13.9633Z" fill="white"/>
<path d="M38.5735 33.8252C35.9289 33.8252 33.7773 35.9768 33.7773 38.6213C33.7773 41.2658 35.9289 43.4174 38.5735 43.4174C41.218 43.4174 43.3696 41.2658 43.3696 38.6213C43.3696 35.9768 41.2181 33.8252 38.5735 33.8252ZM38.5735 41.9029C36.7641 41.9029 35.2919 40.4307 35.2919 38.6213C35.2919 36.8119 36.7641 35.3398 38.5735 35.3398C40.3829 35.3398 41.855 36.8119 41.855 38.6213C41.855 40.4307 40.383 41.9029 38.5735 41.9029Z" fill="white"/>
</svg>
