<svg width="101" height="102" viewBox="0 0 101 102" fill="none" xmlns="http://www.w3.org/2000/svg">
<path d="M22.0938 54.1875C22.0938 60.3378 27.0491 65.3438 33.1406 65.3438H71.0156C77.1072 65.3438 82.0625 60.3378 82.0625 54.1875C82.0625 48.0372 77.1072 43.0312 71.0156 43.0312C70.4017 43.0312 69.7878 43.0838 69.1787 43.1906C67.7347 34.0234 59.8693 27.0938 50.5 27.0938C41.0975 27.0938 33.2953 33.8879 31.8197 43.1109C26.3484 43.7723 22.0938 48.4883 22.0938 54.1875ZM33.1264 46.2203H33.1296L34.654 46.3096L34.7913 44.7732C35.5283 36.5112 42.2811 30.2812 50.5 30.2812C58.842 30.2812 65.7526 36.8746 66.2323 45.2912L66.3538 47.422L68.3423 46.7001C69.2197 46.3813 70.1193 46.2188 71.0156 46.2188C75.3665 46.2188 78.9062 49.7935 78.9062 54.1875C78.9062 58.5815 75.3665 62.1562 71.0156 62.1562H33.1406C28.7897 62.1562 25.25 58.5815 25.25 54.1875C25.25 49.7951 28.7882 46.2203 33.1264 46.2203Z" fill="#0053E2"/>
<path d="M50.5 36.6562V33.4688C43.5389 33.4688 37.875 39.1887 37.875 46.2188H41.0312C41.0312 40.945 45.278 36.6562 50.5 36.6562Z" fill="#0053E2"/>
<path d="M45.7656 54.1875C45.7656 56.8236 47.8898 58.9688 50.5 58.9688C53.1102 58.9688 55.2344 56.8236 55.2344 54.1875C55.2344 51.5514 53.1102 49.4062 50.5 49.4062C47.8898 49.4062 45.7656 51.5514 45.7656 54.1875ZM52.0781 54.1875C52.0781 55.0672 51.3695 55.7812 50.5 55.7812C49.6305 55.7812 48.9219 55.0672 48.9219 54.1875C48.9219 53.3077 49.6305 52.5938 50.5 52.5938C51.3695 52.5938 52.0781 53.3077 52.0781 54.1875Z" fill="#0053E2"/>
<path d="M37.875 58.9688C40.4852 58.9688 42.6094 56.8236 42.6094 54.1875C42.6094 51.5514 40.4852 49.4062 37.875 49.4062C35.2648 49.4062 33.1406 51.5514 33.1406 54.1875C33.1406 56.8236 35.2648 58.9688 37.875 58.9688ZM37.875 52.5938C38.7445 52.5938 39.4531 53.3077 39.4531 54.1875C39.4531 55.0672 38.7445 55.7812 37.875 55.7812C37.0055 55.7812 36.2969 55.0672 36.2969 54.1875C36.2969 53.3077 37.0055 52.5938 37.875 52.5938Z" fill="#0053E2"/>
<path d="M63.125 58.9688C65.7352 58.9688 67.8594 56.8236 67.8594 54.1875C67.8594 51.5514 65.7352 49.4062 63.125 49.4062C60.5148 49.4062 58.3906 51.5514 58.3906 54.1875C58.3906 56.8236 60.5148 58.9688 63.125 58.9688ZM63.125 52.5938C63.9945 52.5938 64.7031 53.3077 64.7031 54.1875C64.7031 55.0672 63.9945 55.7812 63.125 55.7812C62.2555 55.7812 61.5469 55.0672 61.5469 54.1875C61.5469 53.3077 62.2555 52.5938 63.125 52.5938Z" fill="#0053E2"/>
<path d="M60.5421 15.3573L62.7735 13.1037C56.005 6.26815 44.9912 6.26815 38.2227 13.1037L40.4541 15.3573C45.9949 9.76325 55.0029 9.76325 60.5421 15.3573Z" fill="#0053E2"/>
<path d="M58.3109 17.6125C56.2231 15.5056 53.4503 14.3438 50.4992 14.3438C47.5481 14.3438 44.7754 15.5056 42.6875 17.6125L44.919 19.8661C46.4103 18.3616 48.3924 17.5312 50.4992 17.5312C52.606 17.5312 54.5881 18.3616 56.0795 19.8661L58.3109 17.6125Z" fill="#0053E2"/>
<path d="M47.1523 22.1194L49.3854 24.373C49.9803 23.769 51.0203 23.769 51.6153 24.373L53.8483 22.1194C52.0603 20.3137 48.9419 20.3137 47.1523 22.1194Z" fill="#0053E2"/>
<path d="M38.2266 78.4475L40.458 80.7011C45.9972 75.107 55.0068 75.107 60.546 80.7011L62.7775 78.4475C56.0073 71.6119 44.9951 71.6119 38.2266 78.4475Z" fill="#0053E2"/>
<path d="M42.6875 82.9563L44.919 85.2098C46.4103 83.7053 48.3924 82.875 50.4992 82.875C52.606 82.875 54.5881 83.7053 56.0795 85.2098L58.3109 82.9563C56.2231 80.8493 53.4503 79.6875 50.4992 79.6875C47.5481 79.6875 44.7754 80.8493 42.6875 82.9563Z" fill="#0053E2"/>
<path d="M47.1523 87.4637L49.3854 89.7172C49.9803 89.1132 51.0203 89.1132 51.6153 89.7172L53.8483 87.4637C52.0603 85.6579 48.9419 85.6579 47.1523 87.4637Z" fill="#0053E2"/>
<path d="M1.92969 41.7912L4.16116 44.0448C9.70038 38.4507 18.7099 38.4507 24.2491 44.0448L26.4806 41.7912C19.7104 34.9557 8.69827 34.9557 1.92969 41.7912Z" fill="#0053E2"/>
<path d="M22.0141 46.3C19.9262 44.1931 17.1534 43.0312 14.2023 43.0312C11.2512 43.0312 8.47848 44.1931 6.39062 46.3L8.62209 48.5536C10.1134 47.0491 12.0955 46.2188 14.2023 46.2188C16.3091 46.2188 18.2913 47.0491 19.7826 48.5536L22.0141 46.3Z" fill="#0053E2"/>
<path d="M10.8555 50.8069L13.0885 53.0605C13.6835 52.4565 14.7235 52.4565 15.3184 53.0605L17.5515 50.8069C15.7634 49.0012 12.6451 49.0012 10.8555 50.8069Z" fill="#0053E2"/>
<path d="M99.0704 41.7912C92.3018 34.9557 81.2881 34.9557 74.5195 41.7912L76.751 44.0448C82.2902 38.4507 91.2997 38.4507 96.8389 44.0448L99.0704 41.7912Z" fill="#0053E2"/>
<path d="M94.6078 46.3C92.52 44.1931 89.7472 43.0312 86.7961 43.0312C83.845 43.0312 81.0722 44.1931 78.9844 46.3L81.2158 48.5536C82.7072 47.0491 84.6893 46.2188 86.7961 46.2188C88.9029 46.2188 90.885 47.0491 92.3763 48.5536L94.6078 46.3Z" fill="#0053E2"/>
<path d="M83.4492 50.8069L85.6823 53.0605C86.2772 52.4565 87.3172 52.4565 87.9122 53.0605L90.1452 50.8069C88.3572 49.0012 85.2388 49.0012 83.4492 50.8069Z" fill="#0053E2"/>
<path d="M94.6875 1.59375H72.5938C69.9835 1.59375 67.8594 3.73894 67.8594 6.375V22.3125C67.8594 24.9486 69.9835 27.0938 72.5938 27.0938H77.3281V30.2812H74.1719V33.4688H93.1094V30.2812H89.9531V27.0938H94.6875C97.2977 27.0938 99.4219 24.9486 99.4219 22.3125V6.375C99.4219 3.73894 97.2977 1.59375 94.6875 1.59375ZM72.5938 4.78125H94.6875C95.557 4.78125 96.2656 5.49525 96.2656 6.375V17.5312H71.0156V6.375C71.0156 5.49525 71.7242 4.78125 72.5938 4.78125ZM86.7969 30.2812H80.4844V27.0938H86.7969V30.2812ZM94.6875 23.9062H72.5938C71.7242 23.9062 71.0156 23.1922 71.0156 22.3125V20.7188H96.2656V22.3125C96.2656 23.1922 95.557 23.9062 94.6875 23.9062Z" fill="#0053E2"/>
<path d="M6.3125 33.4688H18.9375C21.5477 33.4688 23.6719 31.3236 23.6719 28.6875V6.375C23.6719 3.73894 21.5477 1.59375 18.9375 1.59375H6.3125C3.70228 1.59375 1.57812 3.73894 1.57812 6.375V28.6875C1.57812 31.3236 3.70228 33.4688 6.3125 33.4688ZM18.9375 30.2812H6.3125C5.44295 30.2812 4.73438 29.5672 4.73438 28.6875V27.0938H20.5156V28.6875C20.5156 29.5672 19.807 30.2812 18.9375 30.2812ZM4.73438 23.9062V11.1562H20.5156V23.9062H4.73438ZM6.3125 4.78125H18.9375C19.807 4.78125 20.5156 5.49525 20.5156 6.375V7.96875H4.73438V6.375C4.73438 5.49525 5.44295 4.78125 6.3125 4.78125Z" fill="#0053E2"/>
<path d="M94.6875 68.5312H75.75C73.1398 68.5312 71.0156 70.6764 71.0156 73.3125V76.5C71.0156 77.7288 71.4906 78.8396 72.2466 79.6875C71.4891 80.5354 71.0156 81.6462 71.0156 82.875V86.0625C71.0156 87.2913 71.4906 88.4021 72.2466 89.25C71.4891 90.0979 71.0156 91.2087 71.0156 92.4375V95.625C71.0156 98.2611 73.1398 100.406 75.75 100.406H94.6875C97.2977 100.406 99.4219 98.2611 99.4219 95.625V92.4375C99.4219 91.2087 98.9469 90.0979 98.1909 89.25C98.9484 88.4021 99.4219 87.2913 99.4219 86.0625V82.875C99.4219 81.6462 98.9469 80.5354 98.1909 79.6875C98.9484 78.8396 99.4219 77.7288 99.4219 76.5V73.3125C99.4219 70.6764 97.2977 68.5312 94.6875 68.5312ZM74.1719 73.3125C74.1719 72.4327 74.8805 71.7188 75.75 71.7188H94.6875C95.557 71.7188 96.2656 72.4327 96.2656 73.3125V76.5C96.2656 77.3798 95.557 78.0938 94.6875 78.0938H75.75C74.8805 78.0938 74.1719 77.3798 74.1719 76.5V73.3125ZM96.2656 82.875V86.0625C96.2656 86.9422 95.557 87.6562 94.6875 87.6562H75.75C74.8805 87.6562 74.1719 86.9422 74.1719 86.0625V82.875C74.1719 81.9952 74.8805 81.2812 75.75 81.2812H94.6875C95.557 81.2812 96.2656 81.9952 96.2656 82.875ZM96.2656 95.625C96.2656 96.5047 95.557 97.2188 94.6875 97.2188H75.75C74.8805 97.2188 74.1719 96.5047 74.1719 95.625V92.4375C74.1719 91.5578 74.8805 90.8438 75.75 90.8438H94.6875C95.557 90.8438 96.2656 91.5578 96.2656 92.4375V95.625Z" fill="#0053E2"/>
<path d="M36.2969 90.8438V73.3125C36.2969 70.6764 34.1727 68.5312 31.5625 68.5312H9.46875C6.85853 68.5312 4.73438 70.6764 4.73438 73.3125V90.8438C2.9937 90.8438 1.57812 92.2733 1.57812 94.0312C1.57812 97.5471 4.40928 100.406 7.89062 100.406H33.1406C36.622 100.406 39.4531 97.5471 39.4531 94.0312C39.4531 92.2733 38.0375 90.8438 36.2969 90.8438ZM7.89062 73.3125C7.89062 72.4327 8.5992 71.7188 9.46875 71.7188H31.5625C32.432 71.7188 33.1406 72.4327 33.1406 73.3125V90.8438H7.89062V73.3125ZM33.1406 97.2188H7.89062C6.14995 97.2188 4.73438 95.7892 4.73438 94.0312H36.2969C36.2969 95.7892 34.8813 97.2188 33.1406 97.2188Z" fill="#0053E2"/>
<path d="M11.0469 87.6562H29.9844V74.9062H11.0469V87.6562ZM14.2031 78.0938H26.8281V84.4688H14.2031V78.0938Z" fill="#0053E2"/>
</svg>
