<svg width="38" height="38" viewBox="0 0 38 38" fill="none" xmlns="http://www.w3.org/2000/svg">
<path d="M23.1562 16.0907V14.2501C23.1563 14.1426 23.1271 14.0371 23.0719 13.9449C23.0166 13.8527 22.9374 13.7772 22.8426 13.7265C22.7478 13.6758 22.6411 13.6517 22.5337 13.6569C22.4263 13.6622 22.3224 13.6964 22.233 13.7561L18.8219 16.0313H15.4375C15.28 16.0313 15.129 16.0939 15.0177 16.2052C14.9063 16.3166 14.8438 16.4676 14.8438 16.6251H14.25C13.7776 16.6251 13.3245 16.8128 12.9905 17.1468C12.6564 17.4809 12.4688 17.9339 12.4688 18.4063V19.5938C12.4688 20.0663 12.6564 20.5193 12.9905 20.8534C13.3245 21.1874 13.7776 21.3751 14.25 21.3751H14.8438C14.8438 21.5326 14.9063 21.6836 15.0177 21.7949C15.129 21.9063 15.28 21.9688 15.4375 21.9688H16.625V23.2751C16.625 23.3938 16.6605 23.5099 16.7271 23.6082C16.7937 23.7065 16.8882 23.7826 16.9985 23.8267L18.186 24.3017L18.6265 23.1985L17.8125 22.8731V21.9688H18.8219L22.2348 24.2441C22.3241 24.3033 22.4279 24.3371 22.535 24.3421C22.6421 24.3471 22.7485 24.3229 22.843 24.2723C22.9375 24.2216 23.0165 24.1463 23.0717 24.0544C23.1268 23.9625 23.1561 23.8573 23.1562 23.7501V21.9095C23.8274 21.7732 24.4307 21.4091 24.8641 20.8789C25.2975 20.3486 25.5342 19.6849 25.5342 19.0001C25.5342 18.3153 25.2975 17.6515 24.8641 17.1213C24.4307 16.5911 23.8274 16.227 23.1562 16.0907ZM14.8438 20.1876H14.25C14.0925 20.1876 13.9415 20.125 13.8302 20.0137C13.7188 19.9023 13.6562 19.7513 13.6562 19.5938V18.4063C13.6562 18.2489 13.7188 18.0978 13.8302 17.9865C13.9415 17.8751 14.0925 17.8126 14.25 17.8126H14.8438V20.1876ZM21.9688 16.6251V22.6404L19.3295 20.8811C19.2319 20.8162 19.1173 20.7815 19 20.7813H16.0312V17.2188H19C19.1173 17.2187 19.2319 17.184 19.3295 17.1191L21.9688 15.3598V16.6251ZM23.1562 20.6798V17.3204C23.5038 17.443 23.8047 17.6704 24.0176 17.9713C24.2304 18.2721 24.3447 18.6316 24.3447 19.0001C24.3447 19.3686 24.2304 19.7281 24.0176 20.0289C23.8047 20.3298 23.5038 20.5572 23.1562 20.6798Z" fill="#0053E2"/>
<path d="M33.2489 8.31161C34.0657 8.3142 34.8587 8.03695 35.4959 7.526C36.1331 7.01506 36.5761 6.30126 36.7511 5.50345C36.9261 4.70564 36.8225 3.87197 36.4576 3.14124C36.0927 2.41052 35.4885 1.82683 34.7456 1.48736C34.0027 1.14789 33.166 1.07313 32.3747 1.27553C31.5834 1.47792 30.8853 1.94526 30.3966 2.59973C29.908 3.25419 29.6583 4.0563 29.689 4.87249C29.7198 5.68868 30.0292 6.4697 30.5658 7.08552L25.4114 11.2091C23.7628 9.8521 21.7246 9.05575 19.5927 8.93564V6.44605C20.1524 6.30153 20.6402 5.95785 20.9646 5.47942C21.289 5.00099 21.4278 4.42065 21.355 3.8472C21.2822 3.27375 21.0027 2.74655 20.5689 2.36442C20.1352 1.98229 19.577 1.77146 18.9989 1.77146C18.4209 1.77146 17.8626 1.98229 17.4289 2.36442C16.9952 2.74655 16.7157 3.27375 16.6428 3.8472C16.57 4.42065 16.7088 5.00099 17.0332 5.47942C17.3577 5.95785 17.8455 6.30153 18.4052 6.44605V8.93564C16.2732 9.05575 14.2351 9.8521 12.5864 11.2091L7.43148 7.08552C8.01649 6.41204 8.32754 5.54359 8.30313 4.65185C8.27873 3.7601 7.92066 2.90996 7.29969 2.26949C6.67873 1.62901 5.84007 1.24482 4.94951 1.19285C4.05894 1.14088 3.18129 1.42492 2.49004 1.98882C1.7988 2.55272 1.34427 3.35544 1.21631 4.23829C1.08835 5.12114 1.29627 6.01988 1.79897 6.75683C2.30167 7.49378 3.06257 8.01531 3.93124 8.21832C4.79991 8.42133 5.71314 8.29105 6.49039 7.85323L11.7154 12.0315C10.0594 13.7573 9.07364 16.0175 8.93545 18.4054H6.44586C6.30134 17.8457 5.95766 17.3579 5.47923 17.0334C5.0008 16.709 4.42046 16.5702 3.84701 16.643C3.27356 16.7159 2.74636 16.9954 2.36423 17.4291C1.9821 17.8628 1.77127 18.421 1.77127 18.9991C1.77127 19.5772 1.9821 20.1354 2.36423 20.5691C2.74636 21.0029 3.27356 21.2823 3.84701 21.3552C4.42046 21.428 5.0008 21.2892 5.47923 20.9648C5.95766 20.6403 6.30134 20.1526 6.44586 19.5929H8.93545C9.07316 21.9805 10.0583 24.2406 11.7136 25.9668L6.48861 30.145C5.70762 29.7042 4.78963 29.5725 3.91623 29.776C3.04282 29.9796 2.2776 30.5035 1.77192 31.2441C1.26623 31.9847 1.05691 32.8882 1.18536 33.7757C1.31381 34.6633 1.77067 35.4703 2.46558 36.0372C3.16049 36.6041 4.04284 36.8896 4.93811 36.8371C5.83338 36.7847 6.67637 36.3982 7.30035 35.754C7.92432 35.1099 8.28384 34.255 8.3078 33.3586C8.33175 32.4621 8.01839 31.5892 7.4297 30.9127L12.5864 26.7891C14.2351 28.1461 16.2732 28.9425 18.4052 29.0626V31.5522C17.8455 31.6967 17.3577 32.0404 17.0332 32.5188C16.7088 32.9972 16.57 33.5776 16.6428 34.151C16.7157 34.7245 16.9952 35.2517 17.4289 35.6338C17.8626 36.0159 18.4209 36.2268 18.9989 36.2268C19.577 36.2268 20.1352 36.0159 20.5689 35.6338C21.0027 35.2517 21.2822 34.7245 21.355 34.151C21.4278 33.5776 21.289 32.9972 20.9646 32.5188C20.6402 32.0404 20.1524 31.6967 19.5927 31.5522V29.0626C21.7246 28.9425 23.7628 28.1461 25.4114 26.7891L30.5664 30.9127C29.9813 31.5862 29.6703 32.4546 29.6947 33.3464C29.7191 34.2381 30.0772 35.0883 30.6981 35.7287C31.3191 36.3692 32.1578 36.7534 33.0483 36.8054C33.9389 36.8573 34.8165 36.5733 35.5078 36.0094C36.199 35.4455 36.6536 34.6428 36.7815 33.7599C36.9095 32.8771 36.7016 31.9783 36.1989 31.2414C35.6962 30.5044 34.9353 29.9829 34.0666 29.7799C33.1979 29.5769 32.2847 29.7072 31.5075 30.145L26.2824 25.9668C27.9384 24.2409 28.9242 21.9807 29.0624 19.5929H31.552C31.6965 20.1526 32.0402 20.6403 32.5186 20.9648C32.997 21.2892 33.5774 21.428 34.1508 21.3552C34.7243 21.2823 35.2515 21.0029 35.6336 20.5691C36.0157 20.1354 36.2266 19.5772 36.2266 18.9991C36.2266 18.421 36.0157 17.8628 35.6336 17.4291C35.2515 16.9954 34.7243 16.7159 34.1508 16.643C33.5774 16.5702 32.997 16.709 32.5186 17.0334C32.0402 17.3579 31.6965 17.8457 31.552 18.4054H29.0624C28.9247 16.0177 27.9396 13.7576 26.2842 12.0315L31.5092 7.85323C32.0398 8.15362 32.6392 8.31153 33.2489 8.31161ZM4.74892 7.12411C4.27919 7.12411 3.82001 6.98482 3.42944 6.72385C3.03887 6.46288 2.73446 6.09196 2.55471 5.65798C2.37495 5.22401 2.32791 4.74647 2.41955 4.28577C2.51119 3.82507 2.73739 3.40188 3.06954 3.06973C3.40169 2.73758 3.82487 2.51138 4.28558 2.41974C4.74628 2.3281 5.22382 2.37514 5.65779 2.5549C6.09177 2.73465 6.46269 3.03906 6.72366 3.42963C6.98463 3.8202 7.12392 4.27938 7.12392 4.74911C7.12392 5.379 6.8737 5.98309 6.4283 6.42849C5.9829 6.87389 5.37881 7.12411 4.74892 7.12411ZM4.15517 20.1866C3.9203 20.1866 3.69071 20.117 3.49543 19.9865C3.30015 19.856 3.14794 19.6705 3.05806 19.4535C2.96818 19.2366 2.94467 18.9978 2.99049 18.7674C3.03631 18.5371 3.1494 18.3255 3.31548 18.1594C3.48155 17.9933 3.69315 17.8802 3.9235 17.8344C4.15385 17.7886 4.39262 17.8121 4.60961 17.902C4.82659 17.9919 5.01206 18.1441 5.14254 18.3394C5.27302 18.5347 5.34267 18.7642 5.34267 18.9991C5.34267 19.3141 5.21756 19.6161 4.99486 19.8388C4.77216 20.0615 4.47011 20.1866 4.15517 20.1866ZM4.74892 35.6241C4.27919 35.6241 3.82001 35.4848 3.42944 35.2239C3.03887 34.9629 2.73446 34.592 2.55471 34.158C2.37495 33.724 2.32791 33.2465 2.41955 32.7858C2.51119 32.3251 2.73739 31.9019 3.06954 31.5697C3.40169 31.2376 3.82487 31.0114 4.28558 30.9197C4.74628 30.8281 5.22382 30.8751 5.65779 31.0549C6.09177 31.2347 6.46269 31.5391 6.72366 31.9296C6.98463 32.3202 7.12392 32.7794 7.12392 33.2491C7.12392 33.879 6.8737 34.4831 6.4283 34.9285C5.9829 35.3739 5.37881 35.6241 4.74892 35.6241ZM33.2489 30.8741C33.7186 30.8741 34.1778 31.0134 34.5684 31.2744C34.959 31.5353 35.2634 31.9063 35.4431 32.3402C35.6229 32.7742 35.6699 33.2517 35.5783 33.7124C35.4866 34.1732 35.2604 34.5963 34.9283 34.9285C34.5961 35.2606 34.173 35.4868 33.7123 35.5785C33.2516 35.6701 32.774 35.6231 32.34 35.4433C31.9061 35.2636 31.5351 34.9592 31.2742 34.5686C31.0132 34.178 30.8739 33.7188 30.8739 33.2491C30.8739 32.6192 31.1241 32.0151 31.5695 31.5697C32.0149 31.1243 32.619 30.8741 33.2489 30.8741ZM33.8427 17.8116C34.0775 17.8116 34.3071 17.8813 34.5024 18.0117C34.6977 18.1422 34.8499 18.3277 34.9398 18.5447C35.0297 18.7617 35.0532 19.0004 35.0074 19.2308C34.9615 19.4611 34.8484 19.6727 34.6824 19.8388C34.5163 20.0049 34.3047 20.118 34.0743 20.1638C33.844 20.2096 33.6052 20.1861 33.3882 20.0962C33.1712 20.0063 32.9858 19.8541 32.8553 19.6588C32.7248 19.4636 32.6552 19.234 32.6552 18.9991C32.6552 18.6842 32.7803 18.3821 33.003 18.1594C33.2257 17.9367 33.5277 17.8116 33.8427 17.8116ZM17.8114 4.15536C17.8114 3.92049 17.8811 3.6909 18.0115 3.49562C18.142 3.30034 18.3275 3.14813 18.5445 3.05825C18.7615 2.96837 19.0002 2.94486 19.2306 2.99068C19.4609 3.0365 19.6725 3.1496 19.8386 3.31567C20.0047 3.48174 20.1178 3.69334 20.1636 3.92369C20.2094 4.15404 20.1859 4.39281 20.096 4.6098C20.0061 4.82678 19.8539 5.01225 19.6587 5.14273C19.4634 5.27321 19.2338 5.34286 18.9989 5.34286C18.684 5.34286 18.3819 5.21775 18.1592 4.99505C17.9365 4.77235 17.8114 4.4703 17.8114 4.15536ZM20.1864 33.8429C20.1864 34.0777 20.1168 34.3073 19.9863 34.5026C19.8558 34.6979 19.6703 34.8501 19.4534 34.94C19.2364 35.0298 18.9976 35.0534 18.7672 35.0075C18.5369 34.9617 18.3253 34.8486 18.1592 34.6826C17.9932 34.5165 17.8801 34.3049 17.8342 34.0745C17.7884 33.8442 17.8119 33.6054 17.9018 33.3884C17.9917 33.1714 18.1439 32.986 18.3392 32.8555C18.5345 32.725 18.7641 32.6554 18.9989 32.6554C19.3139 32.6554 19.6159 32.7805 19.8386 33.0032C20.0613 33.2259 20.1864 33.5279 20.1864 33.8429ZM27.9052 18.9991C27.9052 20.7606 27.3828 22.4825 26.4042 23.9472C25.4256 25.4118 24.0346 26.5533 22.4072 27.2274C20.7798 27.9015 18.989 28.0779 17.2614 27.7342C15.5338 27.3906 13.9468 26.5423 12.7012 25.2968C11.4557 24.0512 10.6074 22.4643 10.2638 20.7366C9.92015 19.009 10.0965 17.2182 10.7706 15.5908C11.4447 13.9634 12.5862 12.5725 14.0509 11.5938C15.5155 10.6152 17.2374 10.0929 18.9989 10.0929C21.3602 10.0955 23.624 11.0347 25.2936 12.7044C26.9633 14.3741 27.9025 16.6378 27.9052 18.9991ZM33.2489 2.37411C33.7186 2.37411 34.1778 2.5134 34.5684 2.77437C34.959 3.03534 35.2634 3.40626 35.4431 3.84024C35.6229 4.27421 35.6699 4.75174 35.5783 5.21245C35.4866 5.67315 35.2604 6.09634 34.9283 6.42849C34.5961 6.76064 34.173 6.98684 33.7123 7.07848C33.2516 7.17011 32.774 7.12308 32.34 6.94332C31.9061 6.76357 31.5351 6.45916 31.2742 6.06859C31.0132 5.67802 30.8739 5.21884 30.8739 4.74911C30.8739 4.11922 31.1241 3.51513 31.5695 3.06973C32.0149 2.62433 32.619 2.37411 33.2489 2.37411Z" fill="#0053E2"/>
</svg>
