<svg width="64" height="64" viewBox="0 0 64 64" fill="none" xmlns="http://www.w3.org/2000/svg">
<path d="M48.9863 32.9761C49.5263 33.0971 50.0622 32.7641 50.1852 32.2261C50.5802 30.5101 50.7803 28.7081 50.7803 26.8721C50.7803 20.3511 48.2393 14.2261 43.6273 9.62507C39.1623 5.16007 33.2172 2.63307 26.9152 2.51407C26.7092 2.50107 26.5062 2.49807 26.2972 2.50107C26.1622 2.50307 26.0272 2.50507 25.9112 2.51307C25.9052 2.51307 25.9002 2.51307 25.8942 2.51407C25.8852 2.51407 25.8772 2.51407 25.8672 2.51407C25.8602 2.51407 25.8542 2.51607 25.8472 2.51607C19.5493 2.65307 13.6323 5.17507 9.18325 9.62407C4.57125 14.2261 2.03125 20.3511 2.03125 26.8711C2.03125 33.3911 4.57225 39.5271 9.17225 44.1161C9.47425 44.4291 9.79725 44.7211 10.1322 45.0251C10.4492 45.3101 10.7772 45.5951 11.1042 45.8511C11.8172 46.4241 12.5412 46.9431 13.1982 47.3561C13.3372 47.4581 13.4892 47.5531 13.6392 47.6461L13.7972 47.7441C14.0692 47.9111 14.3522 48.0691 14.6702 48.2451C15.0082 48.4291 15.3463 48.6121 15.7193 48.7881C16.0523 48.9501 16.3862 49.1101 16.7002 49.2441C16.9182 49.3421 17.1453 49.4291 17.3443 49.5041C17.6773 49.6441 18.0202 49.7731 18.3482 49.8811C18.6962 50.0071 19.0332 50.1131 19.3802 50.2181C19.7212 50.3221 20.0632 50.4151 20.4152 50.5081C20.5002 50.5301 20.5862 50.5421 20.6712 50.5421C21.1142 50.5421 21.5192 50.2451 21.6372 49.7971C21.7502 49.3701 21.5622 48.9451 21.2122 48.7161C21.2862 48.6671 21.3652 48.6281 21.4262 48.5571C21.7882 48.1401 21.7433 47.5081 21.3263 47.1461C19.4283 45.4981 17.8023 42.9861 16.5873 39.8611C17.9723 39.1841 19.4212 38.6441 20.9132 38.2711C21.4492 38.1371 21.7742 37.5941 21.6412 37.0581C21.5072 36.5221 20.9642 36.1971 20.4282 36.3301C18.8732 36.7191 17.3622 37.2721 15.9132 37.9641C14.9442 34.8701 14.3973 31.4221 14.3103 27.8691H25.4002V32.0001C25.4002 32.5521 25.8482 33.0001 26.4002 33.0001C26.9522 33.0001 27.4002 32.5521 27.4002 32.0001V27.8691H38.4893C38.4563 29.2241 38.3743 30.5701 38.2083 31.8741C38.1393 32.4221 38.5263 32.9231 39.0743 32.9931C39.6163 33.0591 40.1233 32.6761 40.1933 32.1271C40.3693 30.7391 40.4562 29.3091 40.4902 27.8691H48.7542C48.6962 29.2081 48.5263 30.5191 48.2373 31.7761C48.1133 32.3151 48.4493 32.8511 48.9873 32.9751L48.9863 32.9761ZM4.08025 25.8701C4.31225 20.5841 6.36725 15.6421 9.95125 11.7511C11.2273 12.9211 12.6243 13.9491 14.1223 14.8231C13.0223 18.1991 12.4033 21.9801 12.3123 25.8701H4.08025ZM25.4012 4.58207V16.1261C22.3342 15.9881 19.3232 15.2211 16.5862 13.8821C18.6742 8.54007 21.8942 5.13807 25.4012 4.58207ZM27.4012 4.57907C30.9032 5.12507 34.1332 8.52907 36.2262 13.8811C33.4872 15.2221 30.4722 15.9891 27.4012 16.1261V4.57907ZM42.8613 11.7491C46.4453 15.6391 48.5003 20.5821 48.7323 25.8691H40.5013C40.4103 21.9781 39.7902 18.1981 38.6912 14.8221C40.1902 13.9471 41.5863 12.9181 42.8613 11.7491ZM41.4443 10.3381C40.3813 11.3051 39.2273 12.1671 37.9933 12.9141C36.7633 9.85307 35.1592 7.36807 33.3162 5.59307C36.3162 6.56107 39.0743 8.17807 41.4443 10.3391V10.3381ZM14.8193 12.9141C13.5863 12.1681 12.4322 11.3061 11.3682 10.3381C13.7302 8.18407 16.4802 6.57207 19.4812 5.60207C17.6452 7.37607 16.0463 9.85907 14.8193 12.9141ZM19.4732 48.1441C19.3222 48.0951 19.1772 48.0531 19.0142 47.9941C18.7152 47.8921 18.4072 47.7791 18.0872 47.6461C17.8952 47.5731 17.7033 47.5001 17.5013 47.4101C17.1973 47.2811 16.8943 47.1341 16.5463 46.9661C16.2333 46.8191 15.9302 46.6531 15.6062 46.4761C15.3492 46.3331 15.0913 46.1901 14.8003 46.0121L14.6883 45.9431C14.5843 45.8791 14.4783 45.8151 14.3253 45.7061C13.6743 45.2931 13.0113 44.8171 12.3463 44.2831C12.0443 44.0471 11.7522 43.7921 11.4602 43.5301C11.4202 43.4941 11.3813 43.4541 11.3413 43.4181C12.4143 42.4381 13.5803 41.5731 14.8153 40.8221C16.0243 43.8491 17.6142 46.3491 19.4722 48.1451L19.4732 48.1441ZM14.1213 38.9171C12.6283 39.7921 11.2323 40.8241 9.95125 42.0001C6.36625 38.1091 4.31225 33.1621 4.08025 27.8691H12.3113C12.4023 31.7591 13.0213 35.5401 14.1213 38.9171ZM14.3113 25.8691C14.3983 22.3191 14.9452 18.8731 15.9132 15.7801C18.8672 17.1901 22.1072 17.9891 25.4012 18.1261V25.8691H14.3113ZM27.4012 18.1261C30.7002 17.9911 33.9432 17.1911 36.9002 15.7801C37.8682 18.8731 38.4153 22.3191 38.5023 25.8691H27.4012V18.1261Z" fill="#001E60"/>
<path d="M61.7716 48.0797C61.7136 47.9357 61.6676 47.7897 61.5846 47.6487L56.9836 40.1477C56.4816 39.3297 55.5796 38.8207 54.6306 38.8207H48.7786V35.5127C48.7786 34.5017 47.9566 33.6797 46.9456 33.6797H24.4736C23.4626 33.6797 22.6406 34.5017 22.6406 35.5127V56.4087C22.6406 57.4197 23.4626 58.2417 24.4736 58.2417H27.5056C27.9586 60.1097 29.6336 61.5057 31.6386 61.5057C33.6436 61.5057 35.3186 60.1097 35.7716 58.2417H49.6896C50.1426 60.1097 51.8176 61.5057 53.8226 61.5057C55.8276 61.5057 57.5026 60.1097 57.9556 58.2417H59.2296C60.7556 58.2417 61.9966 57.0007 61.9966 55.4747V49.0897C61.9966 48.8007 61.9296 48.5087 61.8296 48.2187C61.8126 48.1697 61.7936 48.1257 61.7696 48.0797H61.7716ZM59.1696 47.5367H52.4206V43.4117H56.6386L59.1696 47.5367ZM24.6406 35.6787H46.7796V56.2407H35.7736C35.3206 54.3717 33.6456 52.9747 31.6396 52.9747C29.6336 52.9747 27.9576 54.3717 27.5056 56.2407H24.6416L24.6406 35.6787ZM31.6396 59.5047C30.3916 59.5047 29.3766 58.4897 29.3756 57.2427C29.3756 57.2427 29.3756 57.2407 29.3756 57.2397C29.3756 55.9917 30.3916 54.9757 31.6406 54.9757C32.8896 54.9757 33.9056 55.9917 33.9056 57.2407C33.9056 58.4897 32.8896 59.5057 31.6406 59.5057L31.6396 59.5047ZM53.8246 59.5047C52.5806 59.5047 51.5686 58.4957 51.5616 57.2537C51.5616 57.2497 51.5646 57.2457 51.5646 57.2407C51.5646 57.2357 51.5616 57.2327 51.5616 57.2277C51.5686 55.9847 52.5806 54.9757 53.8246 54.9757C55.0686 54.9757 56.0736 55.9797 56.0866 57.2167C56.0866 57.2257 56.0816 57.2327 56.0816 57.2407C56.0816 57.2487 56.0866 57.2557 56.0866 57.2647C56.0726 58.5017 55.0646 59.5047 53.8246 59.5047ZM59.2326 56.2407H57.9586C57.5056 54.3717 55.8306 52.9747 53.8246 52.9747C51.8186 52.9747 50.1426 54.3717 49.6906 56.2407H48.7796V40.8207H54.6316C54.8906 40.8207 55.1386 40.9637 55.2796 41.1937L55.4136 41.4117H51.7846C51.0336 41.4117 50.4226 42.0227 50.4226 42.7737V47.7417C50.4226 48.7317 51.2276 49.5367 52.2176 49.5367H60.0006V55.4737C60.0006 55.8967 59.6556 56.2407 59.2326 56.2407Z" fill="#001E60"/>
</svg>
