<svg width="78" height="78" viewBox="0 0 78 78" fill="none" xmlns="http://www.w3.org/2000/svg">
<circle cx="64" cy="73" r="3" fill="white"/>
<circle cx="41.5" cy="72.5" r="3.5" fill="white"/>
<circle cx="30.5" cy="72.5" r="3.5" fill="white"/>
<path d="M55 47L67.5 48L72.5 57V73L57 73.5L55 47Z" fill="white"/>
<circle cx="36" cy="33" r="30" fill="white"/>
<path d="M62.0046 62.2691C62.0046 62.9421 61.4589 63.4878 60.7858 63.4878H59.4726C58.7996 63.4878 58.2539 62.9421 58.2539 62.2691C58.2539 61.596 58.7996 61.0503 59.4726 61.0503H60.7858C61.4589 61.0503 62.0046 61.5962 62.0046 62.2691ZM74.7248 57.7742V70.4661C74.7248 72.2557 73.2689 73.7116 71.4793 73.7116H69.3945C68.841 76.0787 66.7144 77.8478 64.181 77.8478C61.6475 77.8478 59.5208 76.0787 58.9674 73.7115H46.8601C46.3066 76.0787 44.18 77.8478 41.6466 77.8478C39.1131 77.8478 36.9865 76.0787 36.4331 73.7116H36.2196C35.6662 76.0789 33.5396 77.8478 31.0061 77.8478C28.4726 77.8478 26.3461 76.0787 25.7928 73.7116H24.8629C23.0733 73.7116 21.6175 72.2557 21.6175 70.4661V51.7108C18.9097 49.6061 16.6593 46.9064 15.0874 43.8679C13.364 40.5368 12.4531 36.7805 12.4531 33.0049C12.4531 19.9515 23.0727 9.33192 36.1259 9.33192C49.1792 9.33192 59.7988 19.9515 59.7988 33.0049C59.7988 36.5454 59.0366 39.9427 57.5365 43.1116C57.5756 43.3125 57.5976 43.5195 57.5976 43.7319V45.4941H63.127C64.3729 45.4941 65.4757 45.98 66.3162 46.8996L73.5929 54.8583C74.344 55.6801 74.7248 56.661 74.7248 57.7742ZM31.1341 12.3636C33.0177 13.3596 34.6407 14.8989 35.3942 16.5847C36.2865 18.5812 35.9838 20.6506 34.542 22.4117C34.5233 22.4344 34.5039 22.4565 34.4837 22.478C31.9351 25.1674 28.6765 26.3088 25.3082 25.6932L25.2518 25.683C24.2012 25.5538 23.3269 25.8611 23.0868 26.2351C22.9258 26.486 23.1076 26.8854 23.2884 27.1761C24.6243 29.3246 25.0146 29.1735 26.1729 28.7251C28.5479 27.8062 29.6442 28.2987 30.9339 29.0953C31.5997 29.5065 32.2879 29.9315 33.6628 30.0633C35.6342 30.2522 36.6236 31.8232 37.4967 33.2091C37.7572 33.6228 38.0267 34.0505 38.3221 34.4531C39.501 36.0596 40.2098 37.3613 39.837 38.4933C39.4965 39.5274 38.5203 39.831 37.7359 40.075C37.3144 40.2062 36.96 40.3244 36.6701 40.4867H46.0188C45.5329 37.8872 46.7271 36.124 47.6421 34.7756C48.4784 33.5428 48.7667 33.0116 48.4717 32.3163C47.9576 31.1043 47.2699 30.7164 46.2288 30.1293C45.1334 29.5115 43.7702 28.7425 42.42 26.8633C40.9598 24.8309 40.6478 22.8725 41.5415 21.3485C42.8053 19.1936 46.1485 18.2914 51.7217 18.6095C47.8397 14.4063 42.2852 11.7694 36.1259 11.7694C34.407 11.7694 32.7357 11.9762 31.1341 12.3636ZM24.8517 40.4871C24.576 39.6367 24.5684 38.8726 24.5632 38.25C24.5547 37.2093 24.5519 36.8588 23.6139 36.3166C21.355 35.0108 20.1113 33.7235 19.112 32.689C17.7927 31.3235 17.1556 30.6654 15.0049 30.7978C14.9296 31.5234 14.8906 32.2597 14.8906 33.0049C14.8906 38.8871 17.3675 44.518 21.6175 48.5083V43.7319C21.6175 41.9461 23.0673 40.4932 24.8517 40.4871ZM33.9238 72.4927C33.9238 70.8838 32.615 69.5752 31.0063 69.5752C29.3975 69.5752 28.0887 70.884 28.0887 72.4927C28.0887 74.1015 29.3974 75.4103 31.0061 75.4103C32.6149 75.4103 33.9238 74.1015 33.9238 72.4927ZM44.5641 72.4927C44.5641 70.8838 43.2553 69.5752 41.6466 69.5752C40.0378 69.5752 38.729 70.884 38.729 72.4927C38.729 74.1015 40.0378 75.4103 41.6466 75.4103C43.2553 75.4103 44.5641 74.1015 44.5641 72.4927ZM55.1601 63.3859L55.1599 43.7319C55.1599 43.2941 54.79 42.924 54.352 42.924H24.8629C24.4174 42.924 24.055 43.2865 24.055 43.7319V63.3859H55.1601ZM67.0985 72.4927C67.0985 70.8838 65.7897 69.5752 64.181 69.5752C62.5722 69.5752 61.2634 70.884 61.2634 72.4927C61.2634 74.1015 62.5721 75.4103 64.181 75.4103C65.7899 75.4103 67.0985 74.1015 67.0985 72.4927ZM72.2873 57.7742C72.2873 57.2754 72.1306 56.8714 71.7939 56.503L64.5172 48.5443C64.1403 48.132 63.6857 47.9317 63.127 47.9317H57.5977V71.2741H58.9674C59.5208 68.9069 61.6475 67.1378 64.181 67.1378C66.7144 67.1378 68.8412 68.9069 69.3945 71.2741H71.4793C71.9249 71.2741 72.2873 70.9117 72.2873 70.4661V69.9535H71.0355C69.8576 69.9535 68.8992 68.9951 68.8992 67.8171V65.6306C68.8992 64.4526 69.8576 63.4942 71.0355 63.4942H72.2873V57.7742ZM64.3735 49.1994C63.9753 48.7641 63.4948 48.5524 62.9046 48.5524H59.3681C58.6951 48.5524 58.1494 49.0981 58.1494 49.7711V59.0781C58.1494 59.4014 58.2778 59.7112 58.5063 59.9399C58.7348 60.1684 59.0448 60.2969 59.3681 60.2969L70.2878 60.2967C70.9609 60.2967 71.5066 59.751 71.5066 59.0779V57.774C71.5066 57.2466 71.3408 56.8199 70.9852 56.431L64.3735 49.1994ZM9.43775 21.7588C9.60564 21.8378 9.7822 21.8751 9.95603 21.8751C10.4134 21.8751 10.8518 21.6165 11.0595 21.1751C13.4718 16.0512 17.3474 11.8415 22.2672 9.00103C28.0593 5.65709 34.7523 4.53172 41.2752 5.77256L39.9578 6.39854C39.3498 6.68739 39.0912 7.41437 39.3802 8.02238C39.5887 8.46143 40.0259 8.71828 40.4818 8.71828C40.6569 8.71828 40.8352 8.6802 41.004 8.60006L45.4236 6.50016C45.7463 6.3469 45.9855 6.05973 46.0778 5.71483C46.1701 5.36977 46.1066 5.00155 45.9038 4.70768L43.126 0.679408C42.7438 0.125181 41.9849 -0.0142136 41.4309 0.367865C40.8768 0.749943 40.7372 1.50892 41.1195 2.06299L42.0718 3.44399C34.8671 1.98774 27.4518 3.19338 21.0486 6.89016C15.6962 9.9803 11.4795 14.5611 8.85428 20.1369C8.56756 20.746 8.82883 21.472 9.43775 21.7588ZM47.9554 7.93859C53.0792 10.3508 57.2891 14.2264 60.1295 19.1464C63.4736 24.9383 64.599 31.6314 63.3581 38.1543L62.7322 36.8367C62.4433 36.2288 61.7162 35.9701 61.1083 36.259C60.5003 36.5478 60.2417 37.2748 60.5306 37.8828L62.6306 42.3025C62.7838 42.625 63.071 42.8643 63.4159 42.9566C63.5198 42.9845 63.6257 42.9981 63.7312 42.9981C63.9759 42.9981 64.2177 42.9243 64.4232 42.7827L68.4515 40.005C69.0055 39.6229 69.1451 38.8639 68.7628 38.3098C68.3806 37.7555 67.6218 37.6162 67.0677 37.9983L65.6867 38.9506C67.1428 31.7458 65.9373 24.3308 62.2406 17.9276C59.1503 12.575 54.5696 8.35829 48.9938 5.73311C48.3846 5.44624 47.6587 5.70767 47.372 6.31674C47.0852 6.92565 47.3465 7.65172 47.9554 7.93859ZM19.1008 54.8845C16.2754 52.6886 13.9275 49.9899 12.1222 46.8633C8.7781 41.0711 7.65289 34.3783 8.89358 27.8556L9.51956 29.173C9.72812 29.6121 10.1653 29.8689 10.6212 29.8689C10.7964 29.8689 10.9744 29.8308 11.1434 29.7507C11.7514 29.4619 12.0101 28.7349 11.7211 28.1269L9.62117 23.7072C9.46792 23.3847 9.18075 23.1454 8.83584 23.0531C8.49063 22.9606 8.12257 23.0244 7.82855 23.227L3.80042 26.0047C3.24635 26.3868 3.1068 27.1458 3.48903 27.6999C3.87111 28.2541 4.63024 28.3936 5.18416 28.0114L6.56516 27.0591C5.10906 34.2637 6.3144 41.6789 10.0113 48.0821C11.9747 51.4828 14.5297 54.4191 17.6051 56.8091C17.8275 56.982 18.0907 57.0656 18.3521 57.0656C18.7155 57.0656 19.075 56.9039 19.3153 56.5947C19.7283 56.0632 19.6321 55.2975 19.1008 54.8845Z" fill="#0053E2"/>
<rect x="24" y="52" width="31" height="11" fill="white"/>
</svg>
