<svg width="48" height="52" viewBox="0 0 48 52" fill="none" xmlns="http://www.w3.org/2000/svg">
<path fill-rule="evenodd" clip-rule="evenodd" d="M46.5525 13.3934L46.1908 12.7476C45.7243 11.9666 45.0663 11.3175 44.2792 10.8617L26.945 0.864248C26.1602 0.408935 25.2692 0.16835 24.3617 0.166748H23.6125C22.705 0.16835 21.814 0.408935 21.0292 0.864248L3.695 10.8876C2.91217 11.3403 2.26192 11.9906 1.80917 12.7734L1.4475 13.4192C0.992187 14.2042 0.751602 15.0952 0.75 16.0026V36.0234C0.751602 36.9309 0.992187 37.8219 1.4475 38.6067L1.80917 39.2526C2.27362 40.0263 2.92126 40.6739 3.695 41.1384L21.055 51.1359C21.8359 51.6006 22.7295 51.8419 23.6383 51.8334H24.3617C25.2692 51.8319 26.1602 51.5913 26.945 51.1359L44.2792 41.1126C45.0696 40.67 45.7225 40.0172 46.165 39.2267L46.5525 38.5809C47.0022 37.7938 47.2425 36.9043 47.25 35.9976V15.9767C47.2484 15.0693 47.0079 14.1783 46.5525 13.3934ZM23.6125 5.33341H24.3617L39.5 14.0651L24 23.0034L8.5 14.0651L23.6125 5.33341ZM26.5833 45.3751L41.6958 36.6434L42.0833 35.9976V18.5342L26.5833 27.4984V45.3751Z" fill="#0053E2"/>
</svg>
