<svg width="48" height="48" viewBox="0 0 48 48" fill="#001E60" xmlns="http://www.w3.org/2000/svg">
<path d="M9.00195 10.4099C11.7979 10.4099 14.0645 8.14335 14.0645 5.34741C14.0645 2.55147 11.7979 0.284912 9.00195 0.284912C6.20601 0.284912 3.93945 2.55147 3.93945 5.34741C3.93945 8.14335 6.20601 10.4099 9.00195 10.4099Z" fill="#001E60"/>
<path d="M10.6895 10.4099H7.31445C4.52283 10.4099 2.25195 12.6808 2.25195 15.4724C2.25195 16.4052 3.00754 17.1599 3.93945 17.1599H14.0645C14.9964 17.1599 15.752 16.4052 15.752 15.4724C15.752 12.6808 13.4811 10.4099 10.6895 10.4099Z" fill="#001E60"/>
<path d="M24.1895 10.4099C26.9854 10.4099 29.252 8.14335 29.252 5.34741C29.252 2.55147 26.9854 0.284912 24.1895 0.284912C21.3935 0.284912 19.127 2.55147 19.127 5.34741C19.127 8.14335 21.3935 10.4099 24.1895 10.4099Z" fill="#001E60"/>
<path d="M25.877 10.4099H22.502C19.7103 10.4099 17.4395 12.6808 17.4395 15.4724C17.4395 16.4052 18.195 17.1599 19.127 17.1599H29.252C30.1839 17.1599 30.9395 16.4052 30.9395 15.4724C30.9395 12.6808 28.6686 10.4099 25.877 10.4099Z" fill="#001E60"/>
<path d="M39.377 10.4099C42.1729 10.4099 44.4395 8.14335 44.4395 5.34741C44.4395 2.55147 42.1729 0.284912 39.377 0.284912C36.581 0.284912 34.3145 2.55147 34.3145 5.34741C34.3145 8.14335 36.581 10.4099 39.377 10.4099Z" fill="#001E60"/>
<path d="M41.0645 10.4099H37.6895C34.8978 10.4099 32.627 12.6808 32.627 15.4724C32.627 16.4052 33.3825 17.1599 34.3145 17.1599H44.4395C45.3714 17.1599 46.127 16.4052 46.127 15.4724C46.127 12.6808 43.8561 10.4099 41.0645 10.4099Z" fill="#001E60"/>
<path d="M16.1543 25.5974H47.8142V20.5349C47.8142 19.6029 47.0587 18.8474 46.1267 18.8474H18.8544L16.1543 25.5974Z" fill="#001E60"/>
<path d="M15.4794 18.8474L12.7793 25.5974H14.3389L17.0389 18.8474H15.4794Z" fill="#001E60"/>
<path d="M10.9629 25.5974L13.663 18.8474H2.25195C1.31993 18.8474 0.564453 19.6029 0.564453 20.5349V25.5974H10.9629ZM9.00195 20.5349C9.93397 20.5349 10.6895 21.2904 10.6895 22.2224C10.6895 23.1544 9.93397 23.9099 9.00195 23.9099C8.06993 23.9099 7.31445 23.1544 7.31445 22.2224C7.31445 21.2904 8.06993 20.5349 9.00195 20.5349ZM3.93945 20.5349C4.87147 20.5349 5.62695 21.2904 5.62695 22.2224C5.62695 23.1544 4.87147 23.9099 3.93945 23.9099C3.00743 23.9099 2.25195 23.1544 2.25195 22.2224C2.25195 21.2904 3.00743 20.5349 3.93945 20.5349Z" fill="#001E60"/>
<path d="M9.00195 47.5349H17.4395C17.4395 46.0179 17.5216 44.4838 17.6821 42.9902C12.3643 43.8803 9.00195 45.7791 9.00195 47.5349Z" fill="#001E60"/>
<path d="M19.3979 42.7434C19.2248 44.2266 19.127 45.8307 19.127 47.5349H29.252C29.252 45.8307 29.1541 44.2266 28.981 42.7434C27.4978 42.5703 25.8936 42.4724 24.1895 42.4724C22.4853 42.4724 20.8811 42.5703 19.3979 42.7434Z" fill="#001E60"/>
<path d="M30.9399 47.5349H39.3774C39.3774 45.7791 36.0151 43.8803 30.6973 42.9902C30.8577 44.4838 30.9399 46.0179 30.9399 47.5349Z" fill="#001E60"/>
<path d="M30.47 41.2552C33.9533 41.7883 37.0572 42.7733 38.9928 44.1764C37.7071 38.4886 33.2366 34.0182 27.5488 32.7324C28.952 34.668 29.9369 37.772 30.47 41.2552Z" fill="#001E60"/>
<path d="M17.9095 41.2552C18.4426 37.772 19.4276 34.668 20.8307 32.7324C15.1428 34.0181 10.6724 38.4885 9.38672 44.1764C11.3223 42.7733 14.4263 41.7883 17.9095 41.2552Z" fill="#001E60"/>
<path d="M24.1892 32.3474C22.4334 32.3474 20.5346 35.7097 19.6445 41.0276C21.1381 40.8671 22.6722 40.7849 24.1892 40.7849C25.7061 40.7849 27.2402 40.8671 28.7338 41.0276C27.8437 35.7097 25.945 32.3474 24.1892 32.3474Z" fill="#001E60"/>
<path d="M0.564453 27.2849V45.8474C0.564453 46.7793 1.31993 47.5349 2.25195 47.5349H7.31445C7.31445 38.215 14.8697 30.6599 24.1895 30.6599C33.5092 30.6599 41.0645 38.215 41.0645 47.5349H46.127C47.059 47.5349 47.8145 46.7793 47.8145 45.8474V27.2849H0.564453Z" fill="#001E60"/>
</svg>
