<svg width="77" height="77" viewBox="0 0 77 77" fill="#001E60" xmlns="http://www.w3.org/2000/svg">
<path d="M54.8764 56.1973C53.9838 56.1973 53.1112 56.462 52.3691 56.9579C51.6269 57.4538 51.0484 58.1586 50.7068 58.9833C50.3652 59.808 50.2759 60.7154 50.45 61.5909C50.6241 62.4663 51.054 63.2705 51.6852 63.9017C52.3163 64.5329 53.1205 64.9627 53.996 65.1368C54.8714 65.311 55.7789 65.2216 56.6035 64.88C57.4282 64.5384 58.1331 63.96 58.629 63.2178C59.1249 62.4756 59.3896 61.603 59.3896 60.7104C59.3882 59.5139 58.9123 58.3667 58.0662 57.5206C57.2201 56.6745 56.073 56.1986 54.8764 56.1973ZM54.8764 62.8366C54.4559 62.8366 54.0448 62.7119 53.6952 62.4782C53.3456 62.2446 53.073 61.9126 52.9121 61.5241C52.7512 61.1356 52.7091 60.7081 52.7911 60.2956C52.8732 59.8832 53.0757 59.5043 53.373 59.207C53.6704 58.9097 54.0492 58.7072 54.4616 58.6251C54.8741 58.5431 55.3016 58.5852 55.6901 58.7461C56.0786 58.907 56.4106 59.1795 56.6443 59.5292C56.8779 59.8788 57.0026 60.2899 57.0026 60.7104C57.002 61.2741 56.7777 61.8145 56.3792 62.2131C55.9806 62.6117 55.4401 62.8359 54.8764 62.8366Z" fill="#001E60"/>
<path d="M69.7874 30.3972C69.2652 29.7033 68.5881 29.141 67.8102 28.755C67.0323 28.369 66.1749 28.1701 65.3065 28.174H48.0612V8.80023C48.0594 7.17144 47.4115 5.60989 46.2598 4.45816C45.1081 3.30642 43.5466 2.65857 41.9178 2.65674H12.2177C10.5889 2.65857 9.02737 3.30642 7.87564 4.45815C6.72391 5.60988 6.07606 7.17144 6.07422 8.80023V68.2002C6.07605 69.829 6.7239 71.3906 7.87563 72.5423C9.02737 73.694 10.5889 74.3419 12.2177 74.3437H41.9178C43.5466 74.3419 45.1081 73.694 46.2598 72.5423C47.4116 71.3906 48.0594 69.829 48.0612 68.2002V55.905H60.901C62.1335 55.9027 63.331 55.4949 64.3087 54.7444C65.2865 53.994 65.9901 52.9427 66.311 51.7527L70.7147 35.2759C70.9501 34.4466 70.9888 33.5738 70.8278 32.7269C70.6669 31.88 70.3106 31.0823 69.7874 30.3972ZM35.7817 5.04374L35.1204 7.49995C35.0632 7.711 34.9529 7.90392 34.8002 8.0604C34.6475 8.21688 34.4573 8.33174 34.2477 8.39407C34.1263 8.42992 34.0005 8.44819 33.8739 8.44832H20.2615C20.1372 8.44818 20.0136 8.43057 19.8942 8.396C19.6832 8.33445 19.4915 8.21973 19.3376 8.06283C19.1836 7.90594 19.0725 7.71213 19.015 7.49999L18.3537 5.04374H35.7817ZM68.4144 34.6385L64.0056 51.1343C63.8214 51.8173 63.4177 52.4207 62.8566 52.8515C62.2955 53.2822 61.6083 53.5164 60.901 53.518H45.6742L32.884 53.518C32.1719 53.5191 31.4793 53.2856 30.9134 52.8535C30.3474 52.4214 29.9396 51.8149 29.753 51.1277L23.4434 27.5228C23.1214 26.327 22.4149 25.2703 21.4328 24.5158C20.4507 23.7613 19.2477 23.3508 18.0092 23.3478H15.262C14.9455 23.3478 14.6419 23.4736 14.4181 23.6974C14.1942 23.9212 14.0685 24.2248 14.0685 24.5413C14.0685 24.8579 14.1942 25.1614 14.4181 25.3853C14.6419 25.6091 14.9455 25.7348 15.262 25.7348H18.0092C18.7225 25.7371 19.4153 25.9739 19.9807 26.4088C20.5461 26.8437 20.9527 27.4524 21.138 28.1413L27.4492 51.7528L27.4536 51.7686C27.7833 52.9553 28.4913 54.0021 29.4701 54.7497C30.4486 55.5025 31.6494 55.9089 32.884 55.905H45.6742V68.2002C45.6731 69.1962 45.277 70.151 44.5728 70.8552C43.8685 71.5595 42.9137 71.9556 41.9178 71.9567H12.2177C11.2218 71.9556 10.267 71.5595 9.56272 70.8552C8.85848 70.151 8.46235 69.1962 8.46122 68.2002V8.80023C8.46235 7.80429 8.85849 6.84947 9.56272 6.14524C10.267 5.441 11.2218 5.04487 12.2177 5.04374H15.8814L16.7094 8.12438C16.9001 8.84609 17.3083 9.49164 17.8785 9.97341C18.4487 10.4552 19.1534 10.7498 19.8968 10.8173C19.9142 10.819 19.9315 10.8212 19.949 10.8227C19.9504 10.8228 19.9518 10.8228 19.9533 10.8229C20.0522 10.831 20.1519 10.8352 20.2525 10.8353H33.8831C33.9839 10.8353 34.084 10.8312 34.1832 10.8229L34.1865 10.8227C34.2043 10.8212 34.2219 10.819 34.2397 10.8173C34.9836 10.7493 35.6886 10.4539 36.2589 9.97141C36.8291 9.48889 37.2371 8.84254 37.4273 8.12015L38.2541 5.04374H41.9178C42.9137 5.04487 43.8686 5.44101 44.5728 6.14524C45.277 6.84948 45.6731 7.8043 45.6743 8.80023V28.174H34.9382C34.0757 28.1781 33.2256 28.3795 32.453 28.7629C31.6804 29.1464 31.0059 29.7016 30.4811 30.3861C29.9564 31.0707 29.5953 31.8662 29.4256 32.7119C29.256 33.5575 29.2822 34.4308 29.5023 35.2648L30.3961 38.5421C30.4368 38.694 30.507 38.8363 30.6028 38.9608C30.6987 39.0854 30.8182 39.1899 30.9545 39.2682C31.0908 39.3465 31.2412 39.3971 31.3971 39.4171C31.553 39.4371 31.7113 39.4261 31.863 39.3847C32.0146 39.3433 32.1566 39.2724 32.2808 39.176C32.4049 39.0797 32.5088 38.9597 32.5865 38.823C32.6642 38.6864 32.7141 38.5357 32.7334 38.3797C32.7527 38.2237 32.741 38.0655 32.6989 37.914L31.8094 34.6526C31.6814 34.1686 31.6669 33.6615 31.767 33.171C31.867 32.6805 32.0789 32.2197 32.3863 31.8245C32.6855 31.4314 33.0715 31.1128 33.5142 30.8937C33.9569 30.6745 34.4443 30.5607 34.9382 30.561H46.8677L46.8692 30.5609H65.3065C65.8062 30.5585 66.2995 30.6728 66.7471 30.8947C67.1948 31.1166 67.5845 31.4399 67.8851 31.839C68.1852 32.2322 68.3893 32.6901 68.4812 33.1761C68.5731 33.6621 68.5502 34.1629 68.4144 34.6385Z" fill="#001E60"/>
<path d="M38.9007 65.2357C39.7951 65.2382 40.6702 64.9753 41.4153 64.4804C42.1603 63.9855 42.7419 63.2808 43.0864 62.4554C43.431 61.6299 43.523 60.7209 43.3509 59.8432C43.1788 58.9654 42.7503 58.1584 42.1196 57.5242C41.4888 56.89 40.6842 56.4571 39.8074 56.2802C38.9306 56.1033 38.0211 56.1904 37.1938 56.5305C36.3665 56.8705 35.6586 57.4482 35.1596 58.1906C34.6607 58.9329 34.3931 59.8066 34.3906 60.701C34.3887 61.9 34.8625 63.0508 35.708 63.9009C36.5535 64.7511 37.7017 65.2311 38.9007 65.2357ZM36.8446 60.1711C36.9744 59.6652 37.2843 59.224 37.7163 58.9304C38.1482 58.6367 38.6725 58.5108 39.1907 58.5762C39.7089 58.6417 40.1854 58.8939 40.5308 59.2857C40.8762 59.6775 41.0668 60.1818 41.0668 60.7041C41.0668 61.2264 40.8762 61.7307 40.5308 62.1225C40.1854 62.5143 39.7089 62.7665 39.1907 62.832C38.6725 62.8974 38.1482 62.7715 37.7163 62.4778C37.2843 62.1842 36.9744 61.743 36.8446 61.2371C36.8 61.0619 36.7775 60.8818 36.7776 60.701C36.7775 60.5222 36.8 60.3442 36.8446 60.1711Z" fill="#001E60"/>
<path d="M63.6606 37.2324H36.5841C36.2676 37.2324 35.964 37.3582 35.7402 37.582C35.5164 37.8058 35.3906 38.1094 35.3906 38.4259C35.3906 38.7425 35.5164 39.046 35.7402 39.2699C35.964 39.4937 36.2676 39.6194 36.5841 39.6194H63.6606C63.9772 39.6194 64.2808 39.4937 64.5046 39.2699C64.7284 39.046 64.8541 38.7425 64.8541 38.4259C64.8541 38.1094 64.7284 37.8058 64.5046 37.582C64.2808 37.3582 63.9772 37.2324 63.6606 37.2324Z" fill="#001E60"/>
<path d="M61.7319 44.4839H38.5412C38.2246 44.4839 37.921 44.6096 37.6972 44.8335C37.4734 45.0573 37.3477 45.3609 37.3477 45.6774C37.3477 45.9939 37.4734 46.2975 37.6972 46.5213C37.921 46.7451 38.2246 46.8709 38.5412 46.8709H61.7319C62.0485 46.8709 62.352 46.7451 62.5758 46.5213C62.7997 46.2975 62.9254 45.9939 62.9254 45.6774C62.9254 45.3609 62.7997 45.0573 62.5758 44.8335C62.352 44.6096 62.0485 44.4839 61.7319 44.4839Z" fill="#001E60"/>
</svg>
