<svg width="38" height="38" viewBox="0 0 38 38" fill="#001E60" xmlns="http://www.w3.org/2000/svg">
<path d="M35.2834 27.1952H34.4165V4.31211H35.2834C36.1651 4.31211 36.8828 3.59441 36.8828 2.7127C36.8828 1.83098 36.1651 1.11328 35.2834 1.11328H2.70879C1.82707 1.11328 1.10938 1.83098 1.10938 2.7127C1.10938 3.59441 1.82707 4.31211 2.70879 4.31211H3.57566V27.1945H2.70879C1.82707 27.1945 1.10938 27.9122 1.10938 28.7939C1.10938 29.6756 1.82707 30.3933 2.70879 30.3933H18.5508V32.9605C17.6676 33.1632 17.0063 33.9543 17.0063 34.8977C17.0063 35.9939 17.8991 36.886 18.9961 36.886C20.093 36.886 20.9859 35.9939 20.9859 34.8977C20.9859 33.9543 20.3246 33.1632 19.4414 32.9605V30.3933H35.2834C36.1651 30.3933 36.8828 29.6756 36.8828 28.7939C36.8828 27.9122 36.1651 27.1952 35.2834 27.1952ZM20.0953 34.8984C20.0953 35.5033 19.6025 35.9961 18.9961 35.9961C18.3897 35.9961 17.8969 35.504 17.8969 34.8984C17.8969 34.2928 18.3897 33.8007 18.9961 33.8007C19.6025 33.8007 20.0953 34.2935 20.0953 34.8984ZM2 2.7127C2 2.32156 2.31766 2.00391 2.70879 2.00391H35.2834C35.6745 2.00391 35.9922 2.3223 35.9922 2.7127C35.9922 3.10309 35.6745 3.42148 35.2834 3.42148H2.70879C2.3184 3.42148 2 3.10383 2 2.7127ZM4.46629 4.31211H33.5259V27.1945H4.46629V4.31211ZM35.2834 29.5034H2.70879C2.31766 29.5034 2 29.1858 2 28.7946C2 28.4035 2.31766 28.0859 2.70879 28.0859H35.2834C35.6745 28.0859 35.9922 28.4043 35.9922 28.7946C35.9922 29.185 35.6738 29.5034 35.2834 29.5034ZM13.2315 8.45426H13.23C12.9844 8.45426 12.7847 8.65391 12.7847 8.89957C12.7847 8.91219 12.7855 8.92555 12.7862 8.93816V13.2458H8.46742C8.45852 13.2451 8.44887 13.2451 8.43996 13.2451C8.1943 13.2451 7.99465 13.4455 7.99465 13.6911C7.99465 16.579 10.3437 18.928 13.2315 18.928C16.1194 18.928 18.4684 16.579 18.4684 13.6911C18.4684 10.8033 16.1186 8.45426 13.2315 8.45426ZM13.2315 18.0366C10.9857 18.0366 9.13242 16.3244 8.90828 14.1357H13.2315C13.4772 14.1357 13.6768 13.9361 13.6768 13.6904V9.36715C15.8648 9.59055 17.5778 11.4445 17.5778 13.6904C17.5778 16.0869 15.628 18.0366 13.2315 18.0366ZM11.9216 11.9359V7.1443C11.9216 6.89863 11.7219 6.69898 11.4762 6.69898H11.4748C8.58914 6.69973 6.24086 9.04875 6.23938 11.9359C6.23938 12.1815 6.43902 12.3812 6.68469 12.3812H11.4762C11.7227 12.3812 11.9216 12.1815 11.9216 11.9359ZM11.0309 11.4905H7.15301C7.36156 9.44953 8.98992 7.82117 11.0309 7.61262V11.4905ZM20.2793 7.77887C20.2793 7.5332 20.479 7.33355 20.7246 7.33355H31.2674C31.5131 7.33355 31.7127 7.5332 31.7127 7.77887C31.7127 8.02453 31.5131 8.22418 31.2674 8.22418H20.7246C20.479 8.22418 20.2793 8.02453 20.2793 7.77887ZM20.2793 10.424C20.2793 10.1784 20.479 9.97871 20.7246 9.97871H31.2674C31.5131 9.97871 31.7127 10.1784 31.7127 10.424C31.7127 10.6697 31.5131 10.8693 31.2674 10.8693H20.7246C20.479 10.8693 20.2793 10.6704 20.2793 10.424ZM31.7528 24.363C31.7528 24.6087 31.5532 24.8084 31.3075 24.8084H19.5891C19.3434 24.8084 19.1438 24.6087 19.1438 24.363C19.1438 24.1174 19.3434 23.9177 19.5891 23.9177H21.2464V21.4158C21.2464 21.1702 21.4461 20.9705 21.6917 20.9705C21.9374 20.9705 22.137 21.1702 22.137 21.4158V23.9177H23.1664V18.6668C23.1664 18.4211 23.3661 18.2214 23.6118 18.2214C23.8574 18.2214 24.0571 18.4211 24.0571 18.6668V23.9177H25.0865V20.7924C25.0865 20.5467 25.2861 20.3471 25.5318 20.3471C25.7775 20.3471 25.9771 20.5467 25.9771 20.7924V23.9177H27.0065V19.3919C27.0065 19.1462 27.2062 18.9466 27.4518 18.9466C27.6975 18.9466 27.8971 19.1462 27.8971 19.3919V23.9177H28.9266V22.1164C28.9266 21.8708 29.1262 21.6711 29.3719 21.6711C29.6175 21.6711 29.8172 21.8708 29.8172 22.1164V23.9177H31.3075C31.5532 23.9177 31.7528 24.1174 31.7528 24.363ZM16.8163 21.7179C16.8163 21.9636 16.6166 22.1632 16.371 22.1632H7.46695C7.22129 22.1632 7.02164 21.9636 7.02164 21.7179C7.02164 21.4722 7.22129 21.2726 7.46695 21.2726H16.371C16.6174 21.2726 16.8163 21.4715 16.8163 21.7179ZM16.8163 24.363C16.8163 24.6087 16.6166 24.8084 16.371 24.8084H7.46695C7.22129 24.8084 7.02164 24.6087 7.02164 24.363C7.02164 24.1174 7.22129 23.9177 7.46695 23.9177H16.371C16.6174 23.9177 16.8163 24.1174 16.8163 24.363ZM23.3802 16.0929L18.9939 20.4057C18.907 20.4911 18.7942 20.5334 18.6814 20.5334C18.5664 20.5334 18.4513 20.4888 18.3637 20.4005C18.1916 20.2254 18.1938 19.9433 18.3689 19.7711L23.0677 15.151C23.2414 14.9803 23.519 14.9803 23.6919 15.151L25.825 17.2499L29.432 13.6429H28.3291C28.0834 13.6429 27.8838 13.4432 27.8838 13.1976C27.8838 12.9519 28.0834 12.7523 28.3291 12.7523H30.5067C30.7523 12.7523 30.952 12.9519 30.952 13.1976V15.3752C30.952 15.6208 30.7523 15.8205 30.5067 15.8205C30.261 15.8205 30.0614 15.6208 30.0614 15.3752V14.2723L26.1426 18.191C25.9697 18.3639 25.6899 18.3647 25.5155 18.1932L23.3802 16.0929Z" fill="#001E60"/>
</svg>
