<svg width="38" height="38" viewBox="0 0 38 38" fill="#001E60" xmlns="http://www.w3.org/2000/svg">
<path d="M31.5531 25.747C30.1875 24.0614 24.887 22.6666 22.7769 22.1681C22.6965 21.9789 22.6223 21.7874 22.5543 21.5937L22.6794 21.3269C23.4604 21.8807 24.143 22.26 25.5205 21.3417C27.0883 20.3143 28.2942 18.8209 28.9682 17.0718C29.7178 15.1045 28.6817 13.586 28.0741 11.6205C26.6245 6.92992 25.6145 5.56267 24.7389 4.78395C23.5184 3.69793 22.6643 3.28247 21.5243 3.23C20.4548 2.69191 19.2417 2.50851 18.061 2.70641C12.2029 3.41179 9.25618 12.3514 8.84508 15.528C8.31189 19.6463 10.3439 19.6274 11.6903 21.2298C13.14 22.9569 13.9879 22.0788 14.843 22.23C12.7879 22.7973 7.94834 24.2688 6.66433 25.8563C5.22116 27.6393 4.92715 33.985 4.89875 34.7028C4.89365 34.8594 4.95066 35.0117 5.05735 35.1264C5.16404 35.2411 5.31176 35.309 5.46831 35.3153C5.62486 35.3216 5.77755 35.2657 5.89308 35.1599C6.00861 35.0541 6.07762 34.9069 6.08506 34.7504C6.15928 32.9091 6.57329 27.8561 7.58742 26.6031C8.30123 25.7209 10.991 24.6286 13.7972 23.7704L11.1662 28.037C11.1095 28.1292 11.0791 28.235 11.0782 28.3432C11.0772 28.4513 11.1058 28.5577 11.1609 28.6507C11.216 28.7438 11.2954 28.8201 11.3907 28.8713C11.4859 28.9226 11.5933 28.9469 11.7013 28.9416L13.7255 28.841L17.9937 35.1043C18.0501 35.1888 18.1275 35.2571 18.2182 35.3026C18.309 35.3481 18.41 35.3693 18.5114 35.3641C18.6128 35.3589 18.7111 35.3274 18.7967 35.2728C18.8823 35.2182 18.9523 35.1423 18.9997 35.0526C19.0473 35.1422 19.1173 35.218 19.2029 35.2725C19.2884 35.327 19.3867 35.3584 19.488 35.3637C19.5894 35.3689 19.6904 35.3477 19.7811 35.3023C19.8718 35.2568 19.9492 35.1886 20.0057 35.1043L24.2739 28.841L26.2981 28.9416C26.4061 28.9468 26.5135 28.9225 26.6087 28.8713C26.7039 28.82 26.7833 28.7437 26.8384 28.6507C26.8935 28.5576 26.9221 28.4513 26.9212 28.3431C26.9203 28.235 26.8899 28.1292 26.8333 28.037L24.1906 23.7516C27.1136 24.5464 29.897 25.5896 30.63 26.4944C31.534 27.61 31.897 32.1382 31.9138 34.7304C31.9148 34.8878 31.9783 35.0384 32.0904 35.1491C32.2024 35.2597 32.3538 35.3213 32.5113 35.3203C32.6688 35.3193 32.8194 35.2558 32.93 35.1438C33.0407 35.0317 33.1023 34.8803 33.1013 34.7228C33.0966 33.994 33.0143 27.5508 31.5531 25.747ZM20.9452 27.5352H17.0542L15.8137 23.1506C15.889 23.0904 15.9483 23.0124 15.9862 22.9238L15.995 22.9278C16.2397 22.4017 16.4381 21.8553 16.5879 21.2947C17.2506 21.9448 18.1184 22.3446 19.0432 22.4257C19.8757 22.3628 20.6579 22.0033 21.2477 21.4124C21.394 21.9308 21.5813 22.4368 21.8079 22.9255L21.8224 22.9188C21.8547 22.9914 21.9016 23.0566 21.9602 23.1103C22.0188 23.1641 22.0878 23.2052 22.163 23.2311L20.9452 27.5352ZM23.0243 12.4343C23.555 12.4625 24.0752 12.5931 24.5563 12.819C24.7849 13.0106 24.496 14.5895 23.6094 15.2995L23.5491 15.3485C23.4309 15.4442 23.3541 15.5816 23.3345 15.7324C22.947 17.435 22.0752 18.9891 20.8244 20.2075C19.5343 21.3675 18.9046 21.6864 17.3889 20.4192C15.9838 19.2456 15.0786 17.5808 14.8574 15.7634C14.8447 15.6821 14.8153 15.6043 14.771 15.535C14.7267 15.4657 14.6684 15.4063 14.5999 15.3607C14.3098 15.1433 14.071 14.8648 13.9004 14.5448C13.7299 14.2249 13.6318 13.8714 13.6131 13.5093C14.4616 13.2132 15.2352 12.735 15.8793 12.1083C16.5235 11.4815 17.0227 10.7214 17.342 9.88127C18.8983 11.3423 20.8984 12.241 23.0243 12.4343ZM12.5995 20.4656C11.0064 18.57 9.57887 19.1004 10.0233 15.6805C10.4408 12.4488 13.3881 4.46532 18.203 3.88523C19.8233 3.69082 20.11 3.9782 21.2941 4.41085C22.0791 4.432 22.6663 4.52952 23.9498 5.67112C24.4165 6.08657 25.3883 6.95052 26.94 11.971C27.5399 13.9193 28.422 15.1716 27.8584 16.6488C27.2722 18.1671 26.2241 19.463 24.8618 20.3537C23.4554 21.2927 23.701 20.0107 22.5434 20.0954C23.4494 18.9217 24.1033 17.5737 24.4641 16.1357C25.5822 15.2131 26.3541 12.7788 25.3199 11.9098C24.681 11.5111 23.9487 11.2867 23.196 11.2593C21.0291 11.0701 19.0166 10.0593 17.571 8.43403C17.4898 8.34526 17.3858 8.28058 17.2702 8.24706C17.1547 8.21355 17.0322 8.2125 16.9161 8.24404C16.8 8.27558 16.6948 8.33848 16.6121 8.42585C16.5294 8.51321 16.4724 8.62167 16.4473 8.73931C16.2549 9.6337 15.819 10.4575 15.1876 11.1195C14.5562 11.7815 13.754 12.256 12.8697 12.4905C11.9133 12.728 12.488 15.1751 13.7244 16.1876C13.9748 17.7063 14.6222 19.132 15.601 20.32C15.545 20.5968 15.4792 20.8732 15.3986 21.1459C13.7971 20.6324 13.713 21.8056 12.5995 20.4656ZM14.5193 27.8973C14.465 27.8173 14.3918 27.7518 14.3063 27.7066C14.2208 27.6614 14.1255 27.6378 14.0288 27.6378C14.0189 27.6378 14.0091 27.6381 13.9992 27.6387L12.7694 27.6996L14.8928 24.2568L16.9187 31.4186L14.5193 27.8973ZM18.9997 34.4116L17.3902 28.7227H20.6093L18.9997 34.4116ZM24.0002 27.6387C23.8984 27.6323 23.7968 27.6528 23.7055 27.6982C23.6142 27.7436 23.5364 27.8123 23.4801 27.8973L21.0807 31.4186L23.1067 24.2568L25.23 27.6996L24.0002 27.6387Z" fill="#001E60"/>
</svg>
