<svg width="38" height="38" viewBox="0 0 38 38" fill="#001E60" xmlns="http://www.w3.org/2000/svg">
<path d="M13.5181 6.49466C13.4605 6.49466 13.3972 6.48315 13.3454 6.46012C13.1266 6.36224 13.0287 6.10891 13.1266 5.89012L13.8233 4.3183C13.8809 4.19163 13.8693 4.04769 13.7945 3.92679C13.6333 3.67921 13.2187 3.70224 13.0863 3.96709L12.8445 4.45072C12.7409 4.66375 12.4818 4.75012 12.263 4.64648C12.0499 4.54285 11.9636 4.28375 12.0672 4.06497L12.309 3.58133C12.5278 3.14951 12.9654 2.87891 13.449 2.87891C13.8809 2.87891 14.2839 3.09769 14.5142 3.46042C14.7502 3.82315 14.7848 4.278 14.6121 4.66951L13.9154 6.23557C13.8405 6.39678 13.6851 6.49466 13.5181 6.49466Z" fill="#001E60"/>
<path d="M8.72509 20.9569H2.82358C1.5857 20.9569 0.578125 19.9493 0.578125 18.7115V11.929C0.578125 10.7948 1.43025 9.83904 2.55297 9.70086L4.76964 9.43601C4.89055 9.41873 5.01722 9.45904 5.10934 9.53964C5.20146 9.62025 5.25328 9.74116 5.25328 9.86207C5.25328 10.9157 6.28964 10.9157 6.28964 9.86207C6.28964 9.62601 6.4854 9.43025 6.72146 9.43025H7.18782C7.48146 9.43025 7.76358 9.33237 7.99388 9.15389L10.5042 7.1848L10.9475 6.29813C11.0512 6.0851 11.316 5.99874 11.529 6.10237C11.7421 6.20601 11.8284 6.4651 11.7248 6.68389L11.2354 7.66267C11.2066 7.72025 11.1663 7.77207 11.1145 7.81237L8.52358 9.83904C8.14358 10.1384 7.6657 10.2996 7.18206 10.2996H7.10146C6.78479 11.8542 4.78116 11.8715 4.42994 10.3457L2.63934 10.5587C1.94843 10.6451 1.42449 11.2324 1.42449 11.929V18.7115C1.42449 19.3218 1.82176 19.8399 2.37449 20.0242V12.1996C2.37449 11.9636 2.57025 11.7678 2.80631 11.7678C3.04237 11.7678 3.23812 11.9636 3.23812 12.1996V20.0933H8.276V12.1996C8.276 12.0787 8.32782 11.9636 8.41419 11.883L11.5578 8.94661C11.7018 8.81419 11.8227 8.65874 11.9263 8.49177C12.0472 8.29025 12.3121 8.22116 12.5193 8.34783C12.7209 8.46874 12.7899 8.73934 12.6633 8.94086C12.5193 9.17692 12.3466 9.38995 12.1451 9.57995L9.13964 12.3896V20.5309C9.15691 20.7612 8.96115 20.9569 8.72509 20.9569Z" fill="#001E60"/>
<path d="M2.82358 20.9566C1.5857 20.9566 0.578125 19.9491 0.578125 18.7112V13.8633C0.578125 13.6963 0.670246 13.5466 0.819943 13.4775C0.963883 13.4084 1.14237 13.42 1.27479 13.5236C1.33813 13.5697 1.95994 14.0072 2.55297 13.5294C2.67964 13.4257 2.86388 13.4027 3.00782 13.4775C3.15752 13.5466 3.2554 13.7021 3.2554 13.8691V20.5306C3.2554 20.7609 3.05964 20.9566 2.82358 20.9566ZM1.44176 14.5427V18.7112C1.44176 19.3215 1.83903 19.8397 2.39176 20.0239V14.56C2.05206 14.6463 1.72388 14.6175 1.44176 14.5427Z" fill="#001E60"/>
<path d="M4.80312 33.4229C4.79161 33.4229 4.77433 33.4229 4.76282 33.4229C4.52676 33.3999 4.35403 33.1869 4.37706 32.9508L5.34433 22.9384C5.36736 22.7196 5.55161 22.5469 5.77615 22.5469C6.0007 22.5469 6.18494 22.7138 6.20797 22.9384L7.17524 32.9508C7.19827 33.1869 7.02554 33.3999 6.78948 33.4229C6.55342 33.4517 6.34039 33.2732 6.31736 33.0372L5.78191 27.4811L5.24645 33.0372C5.21191 33.256 5.02191 33.4229 4.80312 33.4229Z" fill="#001E60"/>
<path d="M2.82244 33.4283C2.58638 33.4283 2.39062 33.2325 2.39062 32.9965V20.5256C2.39062 20.2895 2.58638 20.0938 2.82244 20.0938H8.71244C8.9485 20.0938 9.14426 20.2895 9.14426 20.5256V32.9907C9.14426 33.2268 8.9485 33.4225 8.71244 33.4225C8.47638 33.4225 8.28062 33.2268 8.28062 32.9907V20.9574H3.25426V32.9965C3.25426 33.2325 3.0585 33.4283 2.82244 33.4283Z" fill="#001E60"/>
<path d="M5.77441 9.74816C3.97229 9.74816 2.51562 7.56604 2.51562 5.7524C2.51562 3.97331 3.94926 2.57422 5.77441 2.57422C7.59956 2.57422 9.0332 3.97331 9.0332 5.75816C9.0332 7.56604 7.57653 9.74816 5.77441 9.74816ZM5.77441 3.44361C4.4329 3.44361 3.37926 4.45695 3.37926 5.75816C3.37926 7.13998 4.50775 8.89028 5.77441 8.89028C7.04108 8.89028 8.16956 7.13998 8.16956 5.75816C8.16956 4.45695 7.11593 3.44361 5.77441 3.44361Z" fill="#001E60"/>
<path d="M3.28766 5.93479C3.16675 5.93479 3.04584 5.92903 2.92494 5.91752C2.80978 5.906 2.70615 5.85419 2.6313 5.76782C2.55645 5.68146 2.52191 5.56631 2.53342 5.45116C2.68312 3.81025 4.07645 2.57812 5.77494 2.57812C7.27766 2.57812 8.56736 3.55116 8.92433 4.95025C8.97615 5.15752 8.87251 5.37055 8.67675 5.45116C7.77857 5.83116 6.78251 5.85994 5.87857 5.52025C5.76918 5.47994 5.64827 5.42813 5.52736 5.35328C4.83645 5.73328 4.05918 5.93479 3.28766 5.93479ZM5.77494 3.44176C4.69251 3.44176 3.77706 4.1154 3.48342 5.0654C4.12827 5.03085 4.7616 4.82934 5.31433 4.47237C5.47554 4.36873 5.69433 4.386 5.83827 4.51843C5.94191 4.61055 6.06281 4.66812 6.18372 4.71419C6.75948 4.93297 7.36978 4.956 7.95706 4.79479C7.58281 3.98297 6.73645 3.44176 5.77494 3.44176Z" fill="#001E60"/>
<path d="M4.26864 35.4223H1.55682C1.32076 35.4223 1.125 35.2266 1.125 34.9905V34.622C1.125 33.6145 1.94258 32.7969 2.95015 32.7969H4.78106C5.01712 32.7969 5.21288 32.9926 5.21288 33.2287V34.4723C5.21864 34.9963 4.79258 35.4223 4.26864 35.4223ZM1.99439 34.5587H4.26864C4.3147 34.5587 4.355 34.5184 4.355 34.4723V33.6605H2.95015C2.44348 33.6605 2.02894 34.0578 1.99439 34.5587Z" fill="#001E60"/>
<path d="M9.98419 35.4223H7.27813C6.75419 35.4223 6.32812 34.9963 6.32812 34.4723V33.2287C6.32812 32.9926 6.52388 32.7969 6.75994 32.7969H8.59085C9.59843 32.7969 10.416 33.6145 10.416 34.622V34.9905C10.416 35.2266 10.2202 35.4223 9.98419 35.4223ZM7.19176 33.6605V34.4723C7.19176 34.5184 7.23206 34.5587 7.27813 34.5587H9.55237C9.51782 34.0578 9.10328 33.6605 8.59085 33.6605H7.19176Z" fill="#001E60"/>
<path d="M5.54326 5.27544C5.39932 5.27544 5.26114 5.20635 5.17477 5.07393C5.04811 4.87241 5.11144 4.6018 5.31295 4.47514C5.53174 4.33696 5.7275 4.1815 5.91174 3.98574C6.07871 3.81302 6.35507 3.81302 6.52204 3.97999C6.69477 4.14696 6.69477 4.41756 6.5278 4.59029C6.2975 4.82635 6.03841 5.03362 5.7678 5.20635C5.69871 5.25241 5.61811 5.27544 5.54326 5.27544Z" fill="#001E60"/>
<path d="M35.1812 33.4283C34.9451 33.4283 34.7494 33.2325 34.7494 32.9965V20.9574H29.723V32.9965C29.723 33.2325 29.5273 33.4283 29.2912 33.4283C29.0551 33.4283 28.8594 33.2325 28.8594 32.9965V20.5256C28.8594 20.2895 29.0551 20.0938 29.2912 20.0938H35.1812C35.4173 20.0938 35.613 20.2895 35.613 20.5256V32.9965C35.613 33.2325 35.4173 33.4283 35.1812 33.4283Z" fill="#001E60"/>
<path d="M31.2641 33.4287C31.2525 33.4287 31.2353 33.4287 31.2238 33.4287C30.9877 33.4057 30.815 33.1926 30.838 32.9566L31.8053 22.9384C31.8283 22.7196 32.0125 22.5469 32.2371 22.5469C32.4616 22.5469 32.6459 22.7138 32.6689 22.9384L33.6362 32.9566C33.6592 33.1926 33.4865 33.4057 33.2504 33.4287C33.0201 33.4517 32.8013 33.279 32.7783 33.0429L32.2428 27.4811L31.7074 33.0429C31.6728 33.2617 31.4828 33.4287 31.2641 33.4287Z" fill="#001E60"/>
<path d="M32.2354 9.74816C30.4332 9.74816 28.9766 7.56604 28.9766 5.7524C28.9766 3.97331 30.4102 2.57422 32.2354 2.57422C34.0605 2.57422 35.4941 3.96755 35.4941 5.7524C35.4941 7.56604 34.0375 9.74816 32.2354 9.74816ZM32.2354 3.44361C30.8938 3.44361 29.8402 4.45695 29.8402 5.75816C29.8402 7.13998 30.9687 8.89028 32.2354 8.89028C33.502 8.89028 34.6305 7.13998 34.6305 5.75816C34.6305 4.45695 33.5769 3.44361 32.2354 3.44361Z" fill="#001E60"/>
<path d="M34.7202 5.93479C33.943 5.93479 33.1715 5.73328 32.4805 5.35328C32.3596 5.42237 32.2387 5.47419 32.1351 5.51449C31.2254 5.85419 30.2351 5.83116 29.3312 5.45116C29.1354 5.37055 29.0318 5.15176 29.0836 4.95025C29.4348 3.55691 30.7302 2.57812 32.233 2.57812C33.9315 2.57812 35.3248 3.816 35.4745 5.45116C35.486 5.56631 35.4515 5.68146 35.3766 5.76782C35.3018 5.85419 35.1981 5.91176 35.083 5.91752C34.9621 5.92903 34.8412 5.93479 34.7202 5.93479ZM32.4575 4.40903C32.5381 4.40903 32.6187 4.43206 32.6878 4.47813C33.2405 4.82934 33.8796 5.03661 34.5245 5.07116C34.2308 4.1154 33.3154 3.44752 32.233 3.44752C31.2657 3.44752 30.4193 3.98873 30.0508 4.79479C30.6381 4.96176 31.2484 4.93297 31.8242 4.71419C31.9393 4.66812 32.066 4.61631 32.1639 4.52419C32.2502 4.44358 32.3539 4.40903 32.4575 4.40903Z" fill="#001E60"/>
<path d="M36.4451 35.4223H33.7391C33.2151 35.4223 32.7891 34.9963 32.7891 34.4723V33.2287C32.7891 32.9926 32.9848 32.7969 33.2209 32.7969H35.0518C36.0594 32.7969 36.8769 33.6145 36.8769 34.622V34.9905C36.8769 35.2266 36.6869 35.4223 36.4451 35.4223ZM33.6527 33.6605V34.4723C33.6527 34.5184 33.693 34.5587 33.7391 34.5587H36.0133C35.9788 34.0578 35.5642 33.6605 35.0518 33.6605H33.6527Z" fill="#001E60"/>
<path d="M30.7238 35.4223H28.0178C27.7817 35.4223 27.5859 35.2266 27.5859 34.9905V34.622C27.5859 33.6145 28.4035 32.7969 29.4111 32.7969H31.242C31.4781 32.7969 31.6738 32.9926 31.6738 33.2287V34.4723C31.6738 34.9963 31.2478 35.4223 30.7238 35.4223ZM28.4496 34.5587H30.7238C30.7699 34.5587 30.8102 34.5184 30.8102 34.4723V33.6605H29.4111C28.9044 33.6605 28.4841 34.0578 28.4496 34.5587Z" fill="#001E60"/>
<path d="M32.4564 5.27331C32.3758 5.27331 32.301 5.25028 32.2261 5.20422C31.9555 5.03149 31.6964 4.82422 31.4661 4.58816C31.2992 4.41543 31.3049 4.14482 31.4719 3.97785C31.6446 3.81088 31.9152 3.81664 32.0822 3.98361C32.2664 4.17361 32.468 4.33482 32.681 4.47301C32.8825 4.59967 32.9458 4.86452 32.8134 5.07179C32.7386 5.19846 32.6004 5.27331 32.4564 5.27331Z" fill="#001E60"/>
<path d="M26.7389 6.50042C26.6814 6.50042 26.618 6.48891 26.5662 6.46588C26.3474 6.368 26.2495 6.11466 26.3474 5.89588L27.0498 4.3183C27.1074 4.19163 27.0959 4.04769 27.0211 3.92679C26.8598 3.67921 26.4453 3.70224 26.3129 3.96709L26.071 4.45072C25.9617 4.66375 25.7083 4.75012 25.4895 4.64648C25.2765 4.53709 25.1901 4.278 25.2938 4.06497L25.5356 3.58133C25.7486 3.14951 26.1862 2.87891 26.6698 2.87891C27.1017 2.87891 27.5047 3.09769 27.7407 3.46042C27.9768 3.82315 28.0114 4.278 27.8386 4.66951L27.1362 6.24709C27.0614 6.4083 26.9059 6.50042 26.7389 6.50042Z" fill="#001E60"/>
<path d="M21.9533 20.9577H16.0576C15.8215 20.9577 15.6257 20.7619 15.6257 20.5259V12.3847L12.6145 9.57497C12.3209 9.2986 12.0848 8.97618 11.9236 8.60769L10.1733 4.66951C9.99484 4.27224 10.0351 3.82315 10.2712 3.46042C10.5015 3.09769 10.8988 2.87891 11.3306 2.87891C11.8142 2.87891 12.2518 3.14951 12.4706 3.58709L14.267 7.18557L16.4088 8.86103C16.8751 9.22951 17.4624 9.43103 18.0554 9.43103C18.2915 9.43103 18.4873 9.62678 18.4873 9.86285C18.4873 11.0144 19.5236 11.0144 19.5236 9.86285C19.5236 9.62678 19.7194 9.43103 19.9554 9.43103C20.5485 9.43103 21.1357 9.22951 21.6021 8.86103L23.7439 7.18557L24.1182 6.43133C24.2218 6.2183 24.4867 6.13194 24.6997 6.23557C24.9127 6.33921 24.9991 6.5983 24.8954 6.81709L24.4751 7.65769C24.4463 7.71527 24.406 7.76709 24.3542 7.80739L22.1376 9.54618C21.6251 9.94921 21.0033 10.2025 20.3585 10.2716C20.0648 11.9701 17.9576 11.9701 17.6639 10.2716C17.0191 10.1968 16.3973 9.94345 15.8848 9.54618L13.6682 7.80739C13.6163 7.76709 13.576 7.71527 13.5473 7.65769L11.7106 3.97285C11.5782 3.708 11.1636 3.67921 11.0024 3.93254C10.9276 4.05345 10.916 4.19163 10.9736 4.32406L12.7239 8.26224C12.8391 8.52133 13.006 8.75739 13.2133 8.95315L16.357 11.8895C16.4433 11.9701 16.4951 12.0853 16.4951 12.2062V20.0941H21.533V12.2004C21.533 12.0795 21.5848 11.9644 21.6712 11.8838L24.8148 8.94739C24.9876 8.78618 25.1373 8.59618 25.2467 8.38315C25.356 8.17012 25.6209 8.08951 25.8282 8.20466C26.0354 8.31982 26.1218 8.57891 26.0067 8.78618C25.8512 9.08557 25.6439 9.35042 25.3963 9.58072L22.3909 12.3904V20.5316C22.3851 20.7619 22.1951 20.9577 21.9533 20.9577Z" fill="#001E60"/>
<path d="M13.9733 10.6862C13.8639 10.6862 13.7603 10.6459 13.6797 10.571L12.6145 9.57497C12.3267 9.30436 12.0906 8.98194 11.9236 8.60769L10.1733 4.66951C9.99484 4.27224 10.0351 3.81739 10.2712 3.45466C10.5073 3.09194 10.9045 2.87891 11.3364 2.87891C11.82 2.87891 12.2691 3.15527 12.4764 3.58709L14.2727 7.17982L15.6488 8.26224C15.7927 8.37739 15.8503 8.56163 15.7927 8.73436C15.7351 8.90709 15.5797 9.028 15.3954 9.03375C15.3954 9.03375 14.8657 9.06254 14.5836 9.39648C14.4224 9.58648 14.3648 9.85133 14.4051 10.2025C14.4282 10.381 14.336 10.5595 14.1748 10.6401C14.1057 10.6689 14.0424 10.6862 13.9733 10.6862ZM11.3364 3.74254C11.1924 3.74254 11.0657 3.81163 10.9909 3.93254C10.916 4.05345 10.9045 4.19163 10.9621 4.32406L12.7124 8.25648C12.8333 8.52133 13.0003 8.75163 13.2018 8.94163L13.6279 9.34466C13.697 9.15466 13.7948 8.98769 13.9215 8.83224C14.077 8.648 14.2612 8.51557 14.4454 8.42345L13.6567 7.80739C13.6048 7.76709 13.5645 7.71527 13.5357 7.66345L11.6933 3.9786C11.63 3.82891 11.4918 3.74254 11.3364 3.74254Z" fill="#001E60"/>
<path d="M24.0306 10.6934C23.9615 10.6934 23.8982 10.6761 23.8349 10.6473C23.6736 10.5667 23.5815 10.3882 23.6046 10.2098C23.6506 9.85855 23.593 9.5937 23.4318 9.39794C23.1497 9.06401 22.62 9.03522 22.6143 9.03522C22.4358 9.02946 22.2746 8.90855 22.2227 8.73582C22.1709 8.5631 22.2227 8.37885 22.3667 8.2637L23.7427 7.18128L24.117 6.42704C24.2264 6.21401 24.4855 6.12764 24.6985 6.23128C24.9115 6.34067 24.9979 6.59976 24.8943 6.81279L24.474 7.6534C24.4452 7.71098 24.4049 7.76279 24.353 7.79734L23.5643 8.4134C23.7485 8.51128 23.9327 8.6437 24.0882 8.82795C24.2149 8.97764 24.3127 9.15037 24.3818 9.34037L24.8079 8.93734C24.9403 8.81067 25.0612 8.66673 25.1591 8.51128C25.2858 8.30976 25.5506 8.24643 25.7521 8.3731C25.9537 8.49976 26.017 8.76461 25.8903 8.96613C25.7521 9.19067 25.5852 9.39219 25.3952 9.57067L24.3243 10.5725C24.2437 10.6531 24.1343 10.6934 24.0306 10.6934Z" fill="#001E60"/>
<path d="M19.9642 33.4248C19.7454 33.4248 19.5554 33.2578 19.5324 33.0333L18.997 27.4772L18.4615 33.0333C18.4385 33.2693 18.2254 33.4478 17.9894 33.419C17.7533 33.396 17.5806 33.183 17.6036 32.9469L18.5709 22.9345C18.5939 22.7157 18.7782 22.543 19.0027 22.543C19.2273 22.543 19.4115 22.7099 19.4345 22.9345L20.4018 32.9469C20.4248 33.183 20.2521 33.396 20.016 33.419C19.993 33.4248 19.9757 33.4248 19.9642 33.4248Z" fill="#001E60"/>
<path d="M16.049 33.4283C15.8129 33.4283 15.6172 33.2325 15.6172 32.9965V20.5256C15.6172 20.2895 15.8129 20.0938 16.049 20.0938H21.939C22.1751 20.0938 22.3708 20.2895 22.3708 20.5256V32.9907C22.3708 33.2268 22.1751 33.4225 21.939 33.4225C21.7029 33.4225 21.5072 33.2268 21.5072 32.9907V20.9574H16.4808V32.9965C16.4808 33.2325 16.2908 33.4283 16.049 33.4283Z" fill="#001E60"/>
<path d="M18.9932 9.74816C17.191 9.74816 15.7344 7.56604 15.7344 5.7524C15.7344 3.97331 17.168 2.57422 18.9932 2.57422C20.8183 2.57422 22.252 3.97331 22.252 5.75816C22.252 7.56604 20.7953 9.74816 18.9932 9.74816ZM18.9932 3.44361C17.6516 3.44361 16.598 4.45695 16.598 5.75816C16.598 7.13998 17.7265 8.89028 18.9932 8.89028C20.2598 8.89028 21.3883 7.13998 21.3883 5.75816C21.3883 4.45695 20.3347 3.44361 18.9932 3.44361Z" fill="#001E60"/>
<path d="M16.5064 5.93479C16.3855 5.93479 16.2646 5.92903 16.1437 5.91752C16.0285 5.906 15.9249 5.85419 15.85 5.76782C15.7752 5.68146 15.7407 5.56631 15.7522 5.45116C15.9019 3.81025 17.2952 2.57812 18.9937 2.57812C20.4964 2.57812 21.7861 3.55116 22.1431 4.95025C22.1949 5.15752 22.0913 5.37055 21.8955 5.45116C20.9973 5.83116 20.0013 5.85419 19.0973 5.52025C18.9937 5.47994 18.8728 5.42813 18.7461 5.35328C18.0552 5.73328 17.2837 5.93479 16.5064 5.93479ZM18.9937 3.44176C17.9113 3.44176 16.9958 4.1154 16.7022 5.0654C17.347 5.03085 17.9804 4.82934 18.5388 4.47237C18.7058 4.36873 18.9188 4.386 19.0628 4.51843C19.1607 4.61055 19.2873 4.66237 19.4082 4.70843C19.984 4.92722 20.5943 4.95025 21.1816 4.78903C20.8073 3.98297 19.961 3.44176 18.9937 3.44176Z" fill="#001E60"/>
<path d="M17.4973 35.4223H14.7912C14.5551 35.4223 14.3594 35.2266 14.3594 34.9905V34.622C14.3594 33.6145 15.177 32.7969 16.1845 32.7969H18.0154C18.2515 32.7969 18.4473 32.9926 18.4473 33.2287V34.4723C18.4473 34.9963 18.0212 35.4223 17.4973 35.4223ZM15.223 34.5587H17.4973C17.5433 34.5587 17.5836 34.5184 17.5836 34.4723V33.6605H16.1845C15.6721 33.6605 15.2576 34.0578 15.223 34.5587Z" fill="#001E60"/>
<path d="M23.2107 35.4223H20.5047C19.9807 35.4223 19.5547 34.9963 19.5547 34.4723V33.2287C19.5547 32.9926 19.7504 32.7969 19.9865 32.7969H21.8174C22.825 32.7969 23.6426 33.6145 23.6426 34.622V34.9905C23.6426 35.2266 23.4526 35.4223 23.2107 35.4223ZM20.4183 33.6605V34.4723C20.4183 34.5184 20.4586 34.5587 20.5047 34.5587H22.7789C22.7444 34.0578 22.3298 33.6605 21.8174 33.6605H20.4183Z" fill="#001E60"/>
<path d="M18.7715 5.27544C18.6275 5.27544 18.4894 5.20635 18.403 5.07393C18.2763 4.87241 18.3339 4.60756 18.5354 4.47514C18.7542 4.33696 18.95 4.1815 19.1342 3.98574C19.3012 3.81302 19.5775 3.81302 19.7445 3.97999C19.9172 4.14696 19.9172 4.41756 19.7503 4.59029C19.52 4.82635 19.2609 5.03362 18.9903 5.20635C18.9327 5.25241 18.8521 5.27544 18.7715 5.27544Z" fill="#001E60"/>
<path d="M35.1778 20.9577H29.2763C29.0403 20.9577 28.8445 20.7619 28.8445 20.5259V12.3847L25.8333 9.57497C25.5396 9.2986 25.3036 8.97618 25.1424 8.60769L23.3921 4.66951C23.2136 4.27224 23.2539 3.82315 23.4899 3.46042C23.7203 3.09769 24.1233 2.87891 24.5551 2.87891C25.0387 2.87891 25.4763 3.14951 25.6951 3.58133L27.4915 7.17982L30.0018 9.14891C30.2321 9.32739 30.5199 9.42527 30.8078 9.42527H31.2742C31.5103 9.42527 31.706 9.62103 31.706 9.85709C31.706 10.9107 32.7424 10.9107 32.7424 9.85709C32.7424 9.73618 32.7942 9.61527 32.8863 9.53466C32.9784 9.45406 33.1051 9.41375 33.226 9.43103L35.4427 9.69588C36.5712 9.83406 37.4175 10.7898 37.4175 11.9241V18.7122C37.4233 19.9501 36.4157 20.9577 35.1778 20.9577ZM29.7081 20.0941H34.746V12.2004C34.746 11.9644 34.9418 11.7686 35.1778 11.7686C35.4139 11.7686 35.6096 11.9644 35.6096 12.2004V20.025C36.1624 19.8407 36.5596 19.3225 36.5596 18.7122V11.9298C36.5596 11.2331 36.0357 10.6401 35.3448 10.5595L33.5542 10.3465C33.203 11.8722 31.1993 11.855 30.8827 10.3004H30.8021C30.3184 10.3004 29.8406 10.1335 29.4606 9.83982L26.8696 7.81315C26.8178 7.77285 26.7775 7.72103 26.7487 7.66345L24.9121 3.9786C24.7796 3.71375 24.3593 3.69072 24.1981 3.9383C24.1348 4.04769 24.1233 4.19163 24.1809 4.3183L25.9312 8.25648C26.0463 8.51557 26.2133 8.75163 26.4206 8.94739L29.5642 11.8838C29.6506 11.9644 29.7024 12.0795 29.7024 12.2004V20.0941H29.7081Z" fill="#001E60"/>
<path d="M35.1818 20.9599C34.9458 20.9599 34.75 20.7641 34.75 20.5281V13.8666C34.75 13.6996 34.8479 13.5499 34.9976 13.475C35.1473 13.406 35.3258 13.4232 35.4524 13.5269C36.0455 14.0047 36.6673 13.5729 36.7364 13.5211C36.8688 13.4232 37.0415 13.406 37.1912 13.4808C37.3352 13.5557 37.4273 13.7054 37.4273 13.8666V18.7144C37.4273 19.9523 36.4197 20.9599 35.1818 20.9599ZM35.6136 14.5632V20.0272C36.1664 19.8429 36.5636 19.3247 36.5636 18.7144V14.546C36.2815 14.6208 35.9533 14.6496 35.6136 14.5632Z" fill="#001E60"/>
<path d="M27.5178 10.9856C27.4084 10.9856 27.3048 10.9453 27.2242 10.8704L25.8424 9.57497C25.5487 9.31012 25.3127 8.98194 25.1457 8.60194L23.3896 4.67527C23.2169 4.278 23.2514 3.82315 23.4875 3.46042C23.7236 3.09769 24.1266 2.87891 24.5584 2.87891C25.0421 2.87891 25.4796 3.14951 25.6984 3.58133L27.4948 7.17982L29.1127 8.44648C29.2336 8.54436 29.2969 8.69982 29.2739 8.84951C29.2508 9.00497 29.1472 9.13163 29.0033 9.18921C28.9802 9.20072 28.2605 9.50588 27.9439 10.6689C27.9036 10.8128 27.7884 10.928 27.6445 10.9683C27.5984 10.9798 27.5581 10.9856 27.5178 10.9856ZM24.1842 4.32406L25.9402 8.25648C26.0554 8.52133 26.2224 8.75163 26.4296 8.94163L27.3393 9.79951C27.5696 9.31588 27.8575 8.98194 28.1051 8.76315L26.8845 7.80739C26.8327 7.76709 26.7924 7.71527 26.7636 7.65769L24.9269 3.97285C24.7945 3.708 24.3799 3.68497 24.213 3.93254C24.1381 4.04769 24.1266 4.19163 24.1842 4.32406Z" fill="#001E60"/>
</svg>
